<svg width="51" height="50" viewBox="0 0 51 50" fill="none" xmlns="http://www.w3.org/2000/svg">
<path d="M2.86993 40.7982C2.80101 40.8727 2.74468 40.9572 2.70081 41.0508C2.69098 41.0718 2.67912 41.0905 2.67075 41.1121C2.6658 41.1248 2.65737 41.1354 2.65291 41.1484L0.0790021 48.6768C-0.0441701 49.0381 0.0486978 49.4375 0.318504 49.707C0.509128 49.8975 0.765248 50 1.02626 50C1.13477 50 1.24425 49.9824 1.34983 49.9463L8.88582 47.374C8.89701 47.3702 8.90611 47.3629 8.91705 47.3588C8.9377 47.351 8.95578 47.3391 8.97594 47.3299C9.07339 47.2853 9.16113 47.2273 9.23811 47.1559C9.24783 47.147 9.2606 47.1442 9.27 47.1348L19.7455 36.6699H49.0244C49.5777 36.6699 50.0254 36.2227 50.0254 35.6699V1C50.0254 0.447266 49.5777 0 49.0244 0H13.5791C13.5596 0 13.5422 0.0100708 13.5228 0.0112305C13.4281 0.0164185 13.3369 0.0344849 13.2474 0.065979C13.2212 0.0752563 13.1957 0.0820312 13.1703 0.0934448C13.0607 0.142517 12.9565 0.204651 12.8684 0.292969L9.46136 3.69678L0.368359 12.7734C0.339705 12.8021 0.326813 12.8409 0.302069 12.8724C0.258079 12.9284 0.215677 12.9844 0.185067 13.0472C0.1613 13.0959 0.147004 13.1456 0.131424 13.1975C0.112789 13.2592 0.100631 13.3207 0.0941543 13.3848C0.0909161 13.4175 0.0750919 13.4473 0.0750919 13.4805V35.6699C0.0750919 36.2227 0.522814 36.6699 1.07611 36.6699H6.99132L2.89241 40.7646C2.8827 40.7744 2.87922 40.7881 2.86993 40.7982ZM15.4716 31.0264L17.2444 32.7979L19.0172 34.5693L8.56225 45.0137L6.78896 43.2427L5.01573 41.4716L15.4716 31.0264ZM16.8871 29.6123L17.0533 29.4463C18.1863 28.3164 19.9039 28.1885 20.8814 29.165C21.3409 29.624 21.5726 30.2627 21.5345 30.9648C21.4944 31.708 21.163 32.4268 20.5999 32.9893L20.4328 33.1552L18.6599 31.3838L16.8871 29.6123ZM4.02834 43.3135L5.37346 44.6567L6.71839 46.0001L2.63238 47.3945L4.02834 43.3135ZM10.6689 5.3186L12.5751 3.41583V12.4834H3.49752L10.6689 5.3186ZM2.07713 34.6699V14.4834H13.5761C14.1294 14.4834 14.5772 14.0361 14.5772 13.4834V2H48.0234V34.6699H21.7482L22.0154 34.4033C22.9284 33.4912 23.4671 32.3086 23.5336 31.0723C23.603 29.7949 23.1631 28.6152 22.2969 27.751C20.5393 25.9932 17.5509 26.1211 15.6378 28.0322L14.7639 28.9053L8.99336 34.6699H2.07713V34.6699Z" fill="white"/>
</svg>
