<svg width="50" height="50" viewBox="0 0 50 50" fill="none" xmlns="http://www.w3.org/2000/svg">
<path d="M49.1431 17.1363L36.6315 13.232C37.2859 11.734 37.4849 10.1315 37.212 8.55869C36.939 6.98592 36.2021 5.48879 35.0628 4.19281C33.9236 2.89683 32.4153 1.83976 30.6645 1.11024C28.9136 0.38072 26.9712 0 25 0C23.0288 0 21.0864 0.38072 19.3355 1.11024C17.5847 1.83976 16.0764 2.89683 14.9372 4.19281C13.7979 5.48879 13.061 6.98592 12.788 8.55869C12.5151 10.1315 12.7141 11.734 13.3685 13.232L0.856922 17.1363C0.604367 17.2157 0.387444 17.3547 0.234545 17.535C0.0816465 17.7154 -0.000102351 17.9287 9.61718e-08 18.1471V41.5283C-7.65772e-05 41.747 0.081939 41.9607 0.23528 42.1411C0.388622 42.3216 0.606123 42.4606 0.859231 42.5397L24.5131 49.9269C24.6684 49.9752 24.8335 50 25 50C25.1648 49.9973 25.3276 49.97 25.48 49.9194L25.4869 49.9269L49.1431 42.5397C49.3958 42.4603 49.6128 42.3212 49.7657 42.1408C49.9186 41.9603 50.0003 41.7468 50 41.5283V18.1471C50.0001 17.9287 49.9184 17.7154 49.7655 17.535C49.6126 17.3547 49.3956 17.2157 49.1431 17.1363V17.1363ZM44.9315 18.1471L40.5646 19.5105L33.3277 17.2671C34.1522 16.6559 34.87 15.9575 35.4615 15.191L44.9315 18.1471ZM30.68 18.7706L36.8338 20.6775L33.3592 21.762L26.9854 19.7559C28.2742 19.5882 29.5215 19.2556 30.68 18.7706V18.7706ZM34.8685 23.6162L39.3892 22.2045V26.7229L38.6331 26.3257C38.3686 26.187 38.052 26.1275 37.7387 26.1576C37.4253 26.1878 37.135 26.3056 36.9185 26.4905L34.8685 28.2431V23.6162ZM25 2.19651C26.9063 2.19651 28.7698 2.65193 30.3548 3.50519C31.9399 4.35844 33.1753 5.5712 33.9048 6.99011C34.6343 8.40902 34.8252 9.97034 34.4533 11.4766C34.0814 12.983 33.1634 14.3666 31.8154 15.4526C30.4675 16.5385 28.75 17.2781 26.8804 17.5777C25.0107 17.8774 23.0727 17.7236 21.3115 17.1359C19.5503 16.5481 18.045 15.5528 16.9859 14.2758C15.9268 12.9989 15.3615 11.4975 15.3615 9.96173C15.3644 7.90297 16.3808 5.92919 18.1877 4.47343C19.9947 3.01766 22.4446 2.19881 25 2.19651V2.19651ZM15.3077 16.0785L13.5062 15.5114L14.5377 15.1891C14.774 15.4973 15.0311 15.7948 15.3077 16.0803V16.0785ZM9.79308 16.6709L29.6423 22.9221L25 24.3717L5.06846 18.1471L9.79308 16.6709ZM2.69231 40.7852V19.7312L23.6538 26.278V47.3321L2.69231 40.7852ZM26.3462 47.3321V26.278L32.1762 24.456V30.9762C32.1763 31.1934 32.2574 31.4056 32.4089 31.5852C32.5605 31.7649 32.7755 31.9038 33.0262 31.9838C33.1839 32.0347 33.3524 32.0608 33.5223 32.0607C33.7059 32.0607 33.8875 32.0305 34.0561 31.9719C34.2246 31.9133 34.3765 31.8275 34.5023 31.7198L38.1062 28.6379L40.0008 29.6295C40.2038 29.7352 40.4385 29.795 40.6801 29.8024C40.9217 29.8098 41.1614 29.7647 41.3739 29.6718C41.5864 29.5788 41.7639 29.4415 41.8877 29.2742C42.0116 29.1069 42.0772 28.9158 42.0777 28.721V21.3635L47.3077 19.7312V40.7852L26.3462 47.3321Z" fill="#6A5B40"/>
<path d="M22.6009 13.1518C22.8492 13.321 23.1652 13.4122 23.4904 13.4083C23.8157 13.4044 24.1282 13.3058 24.3701 13.1307L30.8986 8.40335C31.0369 8.30974 31.1505 8.19466 31.2325 8.06496C31.3144 7.93525 31.3632 7.79358 31.3758 7.64838C31.3883 7.50318 31.3645 7.35742 31.3057 7.2198C31.2469 7.08217 31.1543 6.95549 31.0335 6.8473C30.9126 6.73911 30.766 6.65163 30.6022 6.59007C30.4385 6.5285 30.2611 6.49412 30.0806 6.48896C29.9 6.48381 29.72 6.50798 29.5513 6.56005C29.3826 6.61212 29.2286 6.69101 29.0986 6.79204L23.4432 10.8879L20.8679 9.13401C20.5952 8.94828 20.2421 8.85742 19.8863 8.88142C19.5305 8.90542 19.2011 9.04232 18.9706 9.26199C18.74 9.48166 18.6273 9.76612 18.657 10.0528C18.6868 10.3394 18.8567 10.6048 19.1294 10.7906L22.6009 13.1518Z" fill="#6A5B40"/>
</svg>
