<svg width="1153" height="2832" viewBox="0 0 1153 2832" fill="none" xmlns="http://www.w3.org/2000/svg">
<g filter="url(#filter0_d)">
<path d="M342.519 1494.2C348.07 1462.66 331.665 1434.88 322.769 1424.93C313.694 1416.4 330.359 1384.43 331.843 1375.9C355.863 1237.89 354.796 1243.75 354.796 1220.84C354.796 1197.92 352.127 1143.04 354.796 1104.14C357.465 1065.24 377.215 1075.9 376.147 1020.48C375.08 965.057 388.958 918.164 391.094 911.237C393.229 904.309 400.168 890.455 398.567 937.348C396.965 984.241 409.243 1006.62 416.716 1048.72C424.189 1090.82 401.769 1203.79 395.898 1226.7C390.026 1249.61 367.607 1430.26 368.141 1459.57C368.674 1488.87 369.208 1597.05 371.343 1613.03C373.478 1629.02 386.823 1794.21 382.019 1837.91C377.215 1881.6 361.735 2015.36 361.735 2020.15C361.735 2024.95 352.127 2136.32 377.215 2175.75C402.303 2215.18 425.256 2372.38 422.054 2400.62C410.31 2446.98 420.986 2431.53 406.574 2465.64C392.161 2499.74 381.485 2538.11 379.884 2555.69C378.283 2573.28 401.236 2570.61 411.911 2570.61C453.547 2566.88 468.493 2567.95 469.561 2570.61C470.629 2573.28 468.493 2575.41 474.365 2577.54C496.784 2580.74 506.393 2566.35 506.393 2563.15C506.393 2559.95 508.528 2556.22 510.663 2528.51C512.371 2506.35 508.528 2482.33 506.393 2473.1C505.147 2467.41 503.403 2451.57 506.393 2433.66L506.572 2432.59C510.179 2411 511.618 2402.39 504.791 2379.84C497.852 2356.93 491.98 2332.42 490.913 2299.91C489.845 2267.41 494.115 2203.46 496.784 2191.2C499.453 2178.95 519.204 2076.64 504.791 2020.15C490.379 1963.67 495.717 1941.82 513.866 1897.59C532.015 1853.36 542.157 1681.78 542.69 1636.48C543.224 1591.19 566.177 1557.62 569.38 1544.29C572.583 1530.97 572.583 1497.93 573.117 1491.54C573.544 1486.42 576.853 1485.14 578.455 1485.14V246.208C559.238 245.142 541.623 248.339 527.744 252.069C462.622 272.852 473.831 366.105 473.831 377.295C473.831 388.486 474.899 390.084 473.831 391.683C458.351 397.012 464.223 420.458 465.291 443.905C466.358 467.351 484.507 463.621 484.507 471.081C483.973 513.711 499.453 506.784 505.325 526.5C518.67 571.262 509.062 597.906 503.19 602.169C442.871 645.332 409.776 643.2 371.343 649.062C264.051 679.436 281.666 770.025 266.72 835.036C251.774 900.046 257.112 965.59 257.112 991.168C257.112 1016.75 266.186 1023.67 257.112 1075.36C248.038 1127.05 249.639 1148.9 251.24 1169.15C252.842 1189.4 260.315 1299.7 259.781 1351.39C259.247 1403.08 258.18 1430.26 257.112 1441.45C256.045 1452.64 249.105 1473.42 250.173 1534.7C251.241 1595.98 306.755 1633.82 327.039 1641.28C343.266 1647.24 346.255 1643.76 345.722 1641.28C343.587 1632.75 345.722 1626.89 346.789 1626.36C354.262 1626.36 349.992 1618.36 348.924 1617.3C331.416 1601.52 328.462 1593.32 329.174 1591.19C350.526 1594.92 342.519 1584.79 339.316 1582.13C314.548 1566.78 300.883 1550.51 297.147 1544.29C289.887 1531.08 290.741 1519.78 293.41 1513.92C297.147 1507.52 306.488 1510.72 307.822 1516.05C312.52 1534.81 319.744 1550.87 322.769 1556.55C327.039 1566.14 343.968 1563.48 340.917 1552.82C336.647 1537.9 335.58 1533.64 342.519 1494.2Z" fill="white"/>
<path d="M810.481 1494.2C804.93 1462.66 821.335 1434.88 830.231 1424.93C839.306 1416.4 822.641 1384.43 821.157 1375.9C797.137 1237.89 798.204 1243.75 798.204 1220.84C798.204 1197.92 800.873 1143.04 798.204 1104.14C795.535 1065.24 775.785 1075.9 776.853 1020.48C777.92 965.057 764.042 918.164 761.906 911.237C759.771 904.309 752.832 890.455 754.433 937.348C756.035 984.241 743.757 1006.62 736.284 1048.72C728.811 1090.82 751.231 1203.79 757.102 1226.7C762.974 1249.61 785.393 1430.26 784.859 1459.57C784.326 1488.87 783.792 1597.05 781.657 1613.03C779.522 1629.02 766.177 1794.21 770.981 1837.91C775.785 1881.6 791.265 2015.36 791.265 2020.15C791.265 2024.95 800.873 2136.32 775.785 2175.75C750.697 2215.18 727.744 2372.38 730.946 2400.62C742.69 2446.98 732.014 2431.53 746.426 2465.64C760.839 2499.74 771.515 2538.11 773.116 2555.69C774.717 2573.28 751.764 2570.61 741.089 2570.61C699.453 2566.88 684.507 2567.95 683.439 2570.61C682.371 2573.28 684.507 2575.41 678.635 2577.54C656.216 2580.74 646.607 2566.35 646.607 2563.15C646.607 2559.95 644.472 2556.22 642.337 2528.51C640.629 2506.35 644.472 2482.33 646.607 2473.1C647.853 2467.41 649.597 2451.57 646.607 2433.66L646.428 2432.59C642.821 2411 641.382 2402.39 648.209 2379.84C655.148 2356.93 661.02 2332.42 662.087 2299.91C663.155 2267.41 658.885 2203.46 656.216 2191.2C653.547 2178.95 633.796 2076.64 648.209 2020.15C662.621 1963.67 657.283 1941.82 639.134 1897.59C620.985 1853.36 610.843 1681.78 610.309 1636.48C609.776 1591.19 586.823 1557.62 583.62 1544.29C580.417 1530.97 580.417 1497.93 579.883 1491.54C579.456 1486.42 576.147 1485.14 574.545 1485.14V246.208C593.762 245.142 611.377 248.339 625.256 252.069C690.378 272.852 679.169 366.105 679.169 377.295C679.169 388.486 678.101 390.084 679.169 391.683C694.649 397.012 688.777 420.458 687.709 443.905C686.642 467.351 668.493 463.621 668.493 471.081C669.027 513.711 653.547 506.784 647.675 526.5C634.33 571.262 643.938 597.906 649.81 602.169C710.129 645.332 743.224 643.2 781.657 649.062C888.949 679.436 871.334 770.025 886.28 835.036C901.226 900.046 895.888 965.59 895.888 991.168C895.888 1016.75 886.814 1023.67 895.888 1075.36C904.962 1127.05 903.361 1148.9 901.76 1169.15C900.158 1189.4 892.685 1299.7 893.219 1351.39C893.753 1403.08 894.82 1430.26 895.888 1441.45C896.955 1452.64 903.895 1473.42 902.827 1534.7C901.759 1595.98 846.245 1633.82 825.961 1641.28C809.734 1647.24 806.745 1643.76 807.278 1641.28C809.413 1632.75 807.278 1626.89 806.211 1626.36C798.738 1626.36 803.008 1618.36 804.076 1617.3C821.584 1601.52 824.538 1593.32 823.826 1591.19C802.474 1594.92 810.481 1584.79 813.684 1582.13C838.452 1566.78 852.117 1550.51 855.853 1544.29C863.113 1531.08 862.259 1519.78 859.59 1513.92C855.853 1507.52 846.512 1510.72 845.178 1516.05C840.48 1534.81 833.256 1550.87 830.231 1556.55C825.961 1566.14 809.032 1563.48 812.083 1552.82C816.353 1537.9 817.42 1533.64 810.481 1494.2Z" fill="white"/>
</g>
<path d="M491.5 610C502 604 518 593 509.5 543L643.5 543C642.5 560 632.5 593 660.5 609.5C597.265 609.5 529.441 610 491.5 610Z" fill="#F9D2D4"/>
<mask maskUnits="userSpaceOnUse" x="0" y="0" width="0" height="0" fill="black">
<rect fill="white" width="0" height="0"/>
</mask>
<path d="M552 625.5L557 628.387V622.613L552 625.5ZM600 625.5L595 622.613V628.387L600 625.5ZM556.5 626H595.5V625H556.5V626Z" fill="#DA1E28" mask="url(#)"/>
<defs>
<filter id="filter0_d" x="0" y="0" width="1153" height="2832" filterUnits="userSpaceOnUse" color-interpolation-filters="sRGB">
<feFlood flood-opacity="0" result="BackgroundImageFix"/>
<feColorMatrix in="SourceAlpha" type="matrix" values="0 0 0 0 0 0 0 0 0 0 0 0 0 0 0 0 0 0 127 0" result="hardAlpha"/>
<feOffset dy="4"/>
<feGaussianBlur stdDeviation="125"/>
<feComposite in2="hardAlpha" operator="out"/>
<feColorMatrix type="matrix" values="0 0 0 0 0 0 0 0 0 0 0 0 0 0 0 0 0 0 0.14 0"/>
<feBlend mode="normal" in2="BackgroundImageFix" result="effect1_dropShadow"/>
<feBlend mode="normal" in="SourceGraphic" in2="effect1_dropShadow" result="shape"/>
</filter>
</defs>
</svg>
