<svg width="1007" height="2314" viewBox="0 0 1007 2314" fill="none" xmlns="http://www.w3.org/2000/svg">
<g filter="url(#filter0_d)">
<path d="M321.833 1216.94C326.143 1192.4 313.406 1170.79 306.499 1163.06C299.453 1156.42 312.392 1131.55 313.544 1124.92C332.194 1017.56 331.365 1022.12 331.365 1004.3C331.365 986.476 329.293 943.782 331.365 913.522C333.437 883.263 348.772 891.553 347.943 848.444C347.114 805.335 357.89 768.859 359.547 763.47C361.205 758.081 366.593 747.304 365.35 783.781C364.106 820.258 373.639 837.667 379.441 870.413C385.243 903.16 367.836 991.036 363.277 1008.86C358.719 1026.68 341.312 1167.2 341.726 1190C342.141 1212.8 342.555 1296.94 344.213 1309.38C345.871 1321.81 356.232 1450.31 352.502 1484.3C348.772 1518.29 336.753 1622.33 336.753 1626.06C336.753 1629.8 329.293 1716.43 348.772 1747.1C368.251 1777.78 386.072 1900.06 383.585 1922.02C374.467 1958.09 382.756 1946.07 371.566 1972.59C360.376 1999.12 352.087 2028.97 350.844 2042.65C349.601 2056.33 367.422 2054.25 375.711 2054.25C408.037 2051.35 419.642 2052.18 420.471 2054.25C421.3 2056.33 419.642 2057.98 424.201 2059.64C441.607 2062.13 449.067 2050.94 449.067 2048.45C449.067 2045.96 450.725 2043.06 452.383 2021.51C453.709 2004.26 450.725 1985.58 449.067 1978.4C448.1 1973.98 446.747 1961.65 449.067 1947.72L449.207 1946.89C452.007 1930.1 453.125 1923.39 447.824 1905.86C442.436 1888.03 437.877 1868.97 437.049 1843.68C436.22 1818.4 439.535 1768.66 441.607 1759.12C443.68 1749.59 459.014 1670 447.824 1626.06C436.634 1582.13 440.779 1565.13 454.87 1530.73C468.961 1496.32 476.835 1362.85 477.25 1327.62C477.664 1292.38 495.485 1266.27 497.972 1255.91C500.459 1245.54 500.459 1219.85 500.873 1214.87C501.205 1210.89 503.774 1209.9 505.018 1209.9V246.162C490.098 245.333 476.421 247.82 465.645 250.721C415.083 266.887 423.786 339.426 423.786 348.131C423.786 356.836 424.615 358.079 423.786 359.323C411.767 363.468 416.326 381.706 417.155 399.945C417.984 418.183 432.075 415.282 432.075 421.085C431.661 454.246 443.68 448.857 448.239 464.194C458.6 499.013 451.14 519.738 446.581 523.054C399.749 556.629 374.053 554.971 344.213 559.531C260.91 583.158 274.586 653.625 262.982 704.195C251.377 754.765 255.522 805.75 255.522 825.646C255.522 845.543 262.567 850.931 255.522 891.139C248.477 931.346 249.72 948.341 250.963 964.093C252.206 979.844 258.009 1065.65 257.594 1105.85C257.18 1146.06 256.351 1167.2 255.522 1175.91C254.693 1184.61 249.305 1200.78 250.134 1248.45C250.963 1296.11 294.065 1325.54 309.814 1331.35C322.413 1335.99 324.734 1333.28 324.32 1331.35C322.662 1324.72 324.32 1320.16 325.149 1319.74C330.951 1319.74 327.635 1313.52 326.807 1312.7C313.213 1300.43 310.92 1294.04 311.472 1292.38C328.05 1295.29 321.833 1287.41 319.347 1285.34C300.116 1273.4 289.506 1260.74 286.605 1255.91C280.969 1245.63 281.632 1236.84 283.704 1232.28C286.606 1227.31 293.858 1229.79 294.894 1233.94C298.541 1248.53 304.15 1261.02 306.499 1265.44C309.814 1272.9 322.958 1270.83 320.59 1262.54C317.274 1250.93 316.445 1247.62 321.833 1216.94Z" fill="white"/>
<path d="M685.167 1216.94C680.857 1192.4 693.594 1170.79 700.501 1163.06C707.547 1156.42 694.608 1131.55 693.456 1124.92C674.806 1017.56 675.635 1022.12 675.635 1004.3C675.635 986.476 677.707 943.782 675.635 913.522C673.563 883.263 658.228 891.553 659.057 848.444C659.886 805.335 649.11 768.859 647.453 763.47C645.795 758.081 640.407 747.304 641.65 783.781C642.894 820.258 633.361 837.667 627.559 870.413C621.757 903.16 639.164 991.036 643.723 1008.86C648.281 1026.68 665.688 1167.2 665.274 1190C664.859 1212.8 664.445 1296.94 662.787 1309.38C661.129 1321.81 650.768 1450.31 654.498 1484.3C658.228 1518.29 670.247 1622.33 670.247 1626.06C670.247 1629.8 677.707 1716.43 658.228 1747.1C638.749 1777.78 620.928 1900.06 623.415 1922.02C632.533 1958.09 624.244 1946.07 635.434 1972.59C646.624 1999.12 654.913 2028.97 656.156 2042.65C657.399 2056.33 639.578 2054.25 631.289 2054.25C598.963 2051.35 587.358 2052.18 586.529 2054.25C585.7 2056.33 587.358 2057.98 582.799 2059.64C565.393 2062.13 557.932 2050.94 557.932 2048.45C557.932 2045.96 556.275 2043.06 554.617 2021.51C553.291 2004.26 556.275 1985.58 557.932 1978.4C558.9 1973.98 560.253 1961.65 557.932 1947.72L557.793 1946.89C554.993 1930.1 553.875 1923.39 559.176 1905.86C564.564 1888.03 569.123 1868.97 569.951 1843.68C570.78 1818.4 567.465 1768.66 565.392 1759.12C563.32 1749.59 547.986 1670 559.176 1626.06C570.366 1582.13 566.221 1565.13 552.13 1530.73C538.039 1496.32 530.165 1362.85 529.75 1327.62C529.336 1292.38 511.515 1266.27 509.028 1255.91C506.541 1245.54 506.541 1219.85 506.127 1214.87C505.795 1210.89 503.226 1209.9 501.982 1209.9V246.162C516.902 245.333 530.579 247.82 541.355 250.721C591.917 266.887 583.214 339.426 583.214 348.131C583.214 356.836 582.385 358.079 583.214 359.323C595.233 363.468 590.674 381.706 589.845 399.945C589.016 418.183 574.925 415.282 574.925 421.085C575.339 454.246 563.32 448.857 558.761 464.194C548.4 499.013 555.86 519.738 560.419 523.054C607.251 556.629 632.947 554.971 662.787 559.531C746.09 583.158 732.414 653.625 744.018 704.195C755.623 754.765 751.478 805.75 751.478 825.646C751.478 845.543 744.433 850.931 751.478 891.139C758.523 931.346 757.28 948.341 756.037 964.093C754.794 979.844 748.991 1065.65 749.406 1105.85C749.82 1146.06 750.649 1167.2 751.478 1175.91C752.307 1184.61 757.695 1200.78 756.866 1248.45C756.037 1296.11 712.935 1325.54 697.186 1331.35C684.587 1335.99 682.266 1333.28 682.68 1331.35C684.338 1324.72 682.68 1320.16 681.851 1319.74C676.049 1319.74 679.365 1313.52 680.193 1312.7C693.787 1300.43 696.08 1294.04 695.528 1292.38C678.95 1295.29 685.167 1287.41 687.653 1285.34C706.884 1273.4 717.494 1260.74 720.395 1255.91C726.031 1245.63 725.368 1236.84 723.296 1232.28C720.394 1227.31 713.142 1229.79 712.106 1233.94C708.459 1248.53 702.85 1261.02 700.501 1265.44C697.186 1272.9 684.042 1270.83 686.41 1262.54C689.726 1250.93 690.555 1247.62 685.167 1216.94Z" fill="white"/>
</g>
<mask maskUnits="userSpaceOnUse" x="0" y="0" width="0" height="0" fill="black">
<rect fill="white" width="0" height="0"/>
</mask>
<path d="M786.5 1015L789.387 1010L783.613 1010L786.5 1015ZM786.5 871L783.613 876L789.387 876L786.5 871ZM787 1010.5L787 875.5L786 875.5L786 1010.5L787 1010.5Z" fill="#DA1E28" mask="url(#)"/>
<g filter="url(#filter1_d)">
<path d="M685.509 1217C681.219 1192.46 693.896 1170.85 700.77 1163.11C707.782 1156.47 694.905 1131.6 693.759 1124.96C675.198 1017.58 676.022 1022.14 676.022 1004.31C676.022 986.484 678.085 943.78 676.022 913.513C673.96 883.247 658.698 891.539 659.523 848.42C660.348 805.301 649.624 768.816 647.974 763.426C643.7 691.543 640.769 550.109 663.236 559.44C746.142 583.072 732.531 653.555 744.08 704.137C755.629 754.719 751.504 805.716 751.504 825.617C751.504 845.518 744.492 850.908 751.504 891.125C758.516 931.341 757.279 948.34 756.042 964.095C754.804 979.85 749.03 1065.67 749.442 1105.89C749.855 1146.11 750.679 1167.25 751.504 1175.96C752.329 1184.67 757.691 1200.84 756.866 1248.51C756.041 1296.19 713.144 1325.63 697.47 1331.44C684.931 1336.08 682.622 1333.37 683.034 1331.44C684.684 1324.8 683.034 1320.24 682.209 1319.83C676.434 1319.83 679.734 1313.61 680.559 1312.78C694.088 1300.51 696.371 1294.12 695.821 1292.46C679.322 1295.37 685.509 1287.49 687.984 1285.41C707.122 1273.47 717.682 1260.82 720.569 1255.98C726.179 1245.7 725.519 1236.91 723.456 1232.35C720.569 1227.37 713.351 1229.86 712.32 1234C708.69 1248.6 703.108 1261.09 700.77 1265.51C697.471 1272.98 684.389 1270.9 686.746 1262.61C690.046 1251 690.871 1247.69 685.509 1217Z" fill="#F9D2D4"/>
</g>
<defs>
<filter id="filter0_d" x="0" y="0" width="1007" height="2314" filterUnits="userSpaceOnUse" color-interpolation-filters="sRGB">
<feFlood flood-opacity="0" result="BackgroundImageFix"/>
<feColorMatrix in="SourceAlpha" type="matrix" values="0 0 0 0 0 0 0 0 0 0 0 0 0 0 0 0 0 0 127 0" result="hardAlpha"/>
<feOffset dy="4"/>
<feGaussianBlur stdDeviation="125"/>
<feComposite in2="hardAlpha" operator="out"/>
<feColorMatrix type="matrix" values="0 0 0 0 0 0 0 0 0 0 0 0 0 0 0 0 0 0 0.14 0"/>
<feBlend mode="normal" in2="BackgroundImageFix" result="effect1_dropShadow"/>
<feBlend mode="normal" in="SourceGraphic" in2="effect1_dropShadow" result="shape"/>
</filter>
<filter id="filter1_d" x="395" y="313" width="612" height="1275" filterUnits="userSpaceOnUse" color-interpolation-filters="sRGB">
<feFlood flood-opacity="0" result="BackgroundImageFix"/>
<feColorMatrix in="SourceAlpha" type="matrix" values="0 0 0 0 0 0 0 0 0 0 0 0 0 0 0 0 0 0 127 0" result="hardAlpha"/>
<feOffset dy="4"/>
<feGaussianBlur stdDeviation="125"/>
<feComposite in2="hardAlpha" operator="out"/>
<feColorMatrix type="matrix" values="0 0 0 0 0 0 0 0 0 0 0 0 0 0 0 0 0 0 0.14 0"/>
<feBlend mode="normal" in2="BackgroundImageFix" result="effect1_dropShadow"/>
<feBlend mode="normal" in="SourceGraphic" in2="effect1_dropShadow" result="shape"/>
</filter>
</defs>
</svg>
