<svg width="213" height="803" viewBox="0 0 213 803" fill="none" xmlns="http://www.w3.org/2000/svg">
<path d="M38.3734 265.745C41.7808 255.944 47.6805 226.795 50.2045 213.445C50.5608 211.56 51.194 211.56 51.6242 213.445C53.9904 223.81 56.8298 227.109 59.196 231.821C61.5623 236.532 64.875 258.677 63.4552 271.87C62.0355 285.063 62.982 282.236 56.8298 297.785C18.0239 371.759 46.8917 461.752 50.2044 483.426C53.5171 505.1 52.5706 518.293 50.2044 538.082C47.8382 557.871 46.4185 587.555 46.8917 602.161C47.365 616.768 65.3482 705.819 66.7679 715.714C68.1877 725.608 68.1877 736.445 66.7679 744.455C65.3482 752.465 62.5087 768.014 59.196 776.495C55.8833 784.976 57.3031 792.044 60.1425 793.457C62.982 794.871 72.9201 799.582 76.2328 801.467C79.5455 803.352 87.5906 804.765 89.9568 797.698C92.323 790.63 93.2695 777.908 90.9033 765.187C88.5371 752.465 92.323 742.099 93.2695 734.089C94.216 726.08 91.8498 726.08 89.0103 719.012C86.1709 711.944 86.1709 699.223 86.1709 687.915C86.1709 676.606 88.0639 656.817 89.0103 648.336C89.9568 639.855 94.6893 601.69 91.8498 583.786C89.0103 565.881 86.6441 558.814 91.8498 533.37C97.0555 507.927 100.368 477.772 101.315 472.118C102.261 466.464 103.681 454.214 104.154 449.502C104.627 444.79 105.574 441.021 105.574 436.78C105.574 433.388 106.52 431.597 106.994 431.126V0.00410705C80.1134 -0.37283 75.2863 25.2903 76.2328 38.1689C74.3398 37.2267 71.0271 39.5827 71.0271 47.5923C71.0271 64.0834 77.1793 65.4969 77.6525 68.3239C80.0187 89.9978 86.6441 89.5266 88.0639 92.3536C89.4836 95.1807 89.9568 100.835 89.0103 109.787C88.0639 118.739 77.1793 124.865 56.8298 130.047C21.3366 137.115 19.9169 160.202 20.3901 171.982C20.8634 183.761 17.5507 237.946 14.7112 251.138C11.8717 264.331 8.0858 286.948 7.61256 293.544C7.13931 300.14 7.13931 345.844 7.13931 354.325C7.13931 362.806 5.24642 383.538 4.29993 388.249C3.35345 392.961 -0.432496 402.385 0.0407474 417.933C0.51399 433.482 1.93372 440.078 7.13939 444.79C12.3451 449.502 12.3451 444.79 12.3451 444.319C12.3451 443.848 13.2916 441.492 14.7113 443.376C16.131 445.261 25.1226 447.617 28.4353 444.79C31.748 441.963 29.3818 440.078 28.9086 439.607C28.4353 439.136 28.4353 438.665 28.9086 438.194C29.3818 437.722 32.2213 436.78 26.0691 428.77C19.917 420.76 20.8634 414.164 21.3367 406.625C21.8099 399.086 20.8636 394.375 19.9171 390.134C18.9707 385.894 19.4439 381.653 19.9171 379.297C20.3904 376.941 21.3369 371.758 25.1228 360.921C34.5877 334.065 36.0072 299.669 36.4805 292.602C36.9537 285.534 34.1142 277.995 38.3734 265.745Z" fill="#F3F2F0"/>
<path d="M174.627 265.745C171.219 255.944 165.319 226.795 162.796 213.445C162.439 211.56 161.806 211.56 161.376 213.445C159.01 223.81 156.17 227.109 153.804 231.821C151.438 236.532 148.125 258.677 149.545 271.87C150.965 285.063 150.018 282.236 156.17 297.785C194.976 371.759 166.108 461.752 162.796 483.426C159.483 505.1 160.429 518.293 162.796 538.082C165.162 557.871 166.582 587.555 166.108 602.161C165.635 616.768 147.652 705.819 146.232 715.714C144.812 725.608 144.812 736.445 146.232 744.455C147.652 752.465 150.491 768.014 153.804 776.495C157.117 784.976 155.697 792.044 152.857 793.457C150.018 794.871 140.08 799.582 136.767 801.467C133.455 803.352 125.409 804.765 123.043 797.698C120.677 790.63 119.73 777.908 122.097 765.187C124.463 752.465 120.677 742.099 119.73 734.089C118.784 726.08 121.15 726.08 123.99 719.012C126.829 711.944 126.829 699.223 126.829 687.915C126.829 676.606 124.936 656.817 123.99 648.336C123.043 639.855 118.311 601.69 121.15 583.786C123.99 565.881 126.356 558.814 121.15 533.37C115.945 507.927 112.632 477.772 111.685 472.118C110.739 466.464 109.319 454.214 108.846 449.502C108.373 444.79 107.426 441.021 107.426 436.78C107.426 433.388 106.48 431.597 106.006 431.126V0.00410705C132.887 -0.37283 137.714 25.2903 136.767 38.1689C138.66 37.2267 141.973 39.5827 141.973 47.5923C141.973 64.0834 135.821 65.4969 135.347 68.3239C132.981 89.9978 126.356 89.5266 124.936 92.3536C123.516 95.1807 123.043 100.835 123.99 109.787C124.936 118.739 135.821 124.865 156.17 130.047C191.663 137.115 193.083 160.202 192.61 171.982C192.137 183.761 195.449 237.946 198.289 251.138C201.128 264.331 204.914 286.948 205.387 293.544C205.861 300.14 205.861 345.844 205.861 354.325C205.861 362.806 207.754 383.538 208.7 388.249C209.647 392.961 213.433 402.385 212.959 417.933C212.486 433.482 211.066 440.078 205.861 444.79C200.655 449.502 200.655 444.79 200.655 444.319C200.655 443.848 199.708 441.492 198.289 443.376C196.869 445.261 187.877 447.617 184.565 444.79C181.252 441.963 183.618 440.078 184.091 439.607C184.565 439.136 184.565 438.665 184.091 438.194C183.618 437.722 180.779 436.78 186.931 428.77C193.083 420.76 192.137 414.164 191.663 406.625C191.19 399.086 192.136 394.375 193.083 390.134C194.029 385.894 193.556 381.653 193.083 379.297C192.61 376.941 191.663 371.758 187.877 360.921C178.412 334.065 176.993 299.669 176.52 292.602C176.046 285.534 178.886 277.995 174.627 265.745Z" fill="#F3F2F0"/>
</svg>
