<svg width="1051" height="2832" viewBox="0 0 1051 2832" fill="none" xmlns="http://www.w3.org/2000/svg">
<g filter="url(#filter0_i)">
<path d="M246.786 1089.57C257.6 1058.46 276.324 965.924 284.334 923.547C285.465 917.565 287.475 917.565 288.84 923.547C296.35 956.452 305.361 966.922 312.871 981.879C320.381 996.835 330.894 1067.13 326.388 1109.01C321.883 1150.89 324.886 1141.91 305.361 1191.27C182.203 1426.09 273.821 1711.76 284.334 1780.56C294.848 1849.36 291.844 1891.24 284.334 1954.06C276.825 2016.88 272.319 2111.1 273.821 2157.47C275.323 2203.83 332.396 2486.51 336.902 2517.92C341.408 2549.33 341.408 2583.73 336.902 2609.16C332.396 2634.58 323.385 2683.94 312.871 2710.86C302.357 2737.79 306.863 2760.22 315.875 2764.71C324.886 2769.19 356.427 2784.15 366.941 2790.13C377.454 2796.12 402.987 2800.6 410.497 2778.17C418.006 2755.73 421.01 2715.35 413.501 2674.97C405.991 2634.58 418.006 2601.68 421.01 2576.25C424.014 2550.83 416.505 2550.83 407.493 2528.39C398.481 2505.96 398.481 2465.57 398.481 2429.68C398.481 2393.78 404.489 2330.97 407.493 2304.04C410.497 2277.12 425.516 2155.97 416.505 2099.14C407.493 2042.3 399.983 2019.87 416.505 1939.1C433.026 1858.34 443.539 1762.61 446.543 1744.67C449.547 1726.72 454.053 1687.83 455.555 1672.87C457.057 1657.92 460.061 1645.95 460.061 1632.49C460.061 1621.72 463.065 1616.04 464.566 1614.54V246.013C379.257 244.817 363.937 326.28 366.941 367.161C360.933 364.17 350.419 371.649 350.419 397.075C350.419 449.423 369.945 453.91 371.446 462.884C378.956 531.684 399.983 530.188 404.489 539.162C408.995 548.136 410.497 566.084 407.493 594.502C404.489 622.92 369.945 642.363 305.361 658.815C192.716 681.25 188.21 754.538 189.712 791.929C191.214 829.321 180.701 1001.32 171.689 1043.2C162.677 1085.08 150.662 1156.87 149.16 1177.81C147.658 1198.75 147.658 1343.83 147.658 1370.75C147.658 1397.67 141.651 1463.48 138.647 1478.44C135.643 1493.39 123.627 1523.31 125.129 1572.66C126.631 1622.02 131.137 1642.96 147.658 1657.92C164.18 1672.87 164.18 1657.92 164.18 1656.42C164.18 1654.93 167.184 1647.45 171.689 1653.43C176.195 1659.41 204.732 1666.89 215.245 1657.92C225.759 1648.94 218.249 1642.96 216.747 1641.47C215.245 1639.97 215.245 1638.47 216.747 1636.98C218.249 1635.48 227.261 1632.49 207.736 1607.06C188.211 1581.64 191.214 1560.7 192.716 1536.77C194.218 1512.84 191.215 1497.88 188.211 1484.42C185.207 1470.96 186.709 1457.5 188.211 1450.02C189.713 1442.54 192.717 1426.09 204.733 1391.69C234.771 1306.44 239.276 1197.25 240.778 1174.82C242.28 1152.38 233.269 1128.45 246.786 1089.57Z" fill="white"/>
<path d="M679.214 1089.57C668.4 1058.46 649.676 965.924 641.666 923.547C640.535 917.565 638.525 917.565 637.16 923.547C629.65 956.452 620.639 966.922 613.129 981.879C605.619 996.835 595.106 1067.13 599.612 1109.01C604.117 1150.89 601.114 1141.91 620.639 1191.27C743.797 1426.09 652.179 1711.76 641.666 1780.56C631.152 1849.36 634.156 1891.24 641.666 1954.06C649.175 2016.88 653.681 2111.1 652.179 2157.47C650.677 2203.83 593.604 2486.51 589.098 2517.92C584.592 2549.33 584.592 2583.73 589.098 2609.16C593.604 2634.58 602.615 2683.94 613.129 2710.86C623.643 2737.79 619.137 2760.22 610.125 2764.71C601.114 2769.19 569.573 2784.15 559.059 2790.13C548.546 2796.12 523.013 2800.6 515.503 2778.17C507.994 2755.73 504.99 2715.35 512.499 2674.97C520.009 2634.58 507.994 2601.68 504.99 2576.25C501.986 2550.83 509.495 2550.83 518.507 2528.39C527.519 2505.96 527.519 2465.57 527.519 2429.68C527.519 2393.78 521.511 2330.97 518.507 2304.04C515.503 2277.12 500.484 2155.97 509.495 2099.14C518.507 2042.3 526.017 2019.87 509.495 1939.1C492.974 1858.34 482.461 1762.61 479.457 1744.67C476.453 1726.72 471.947 1687.83 470.445 1672.87C468.943 1657.92 465.939 1645.95 465.939 1632.49C465.939 1621.72 462.935 1616.04 461.434 1614.54V246.013C546.743 244.817 562.063 326.28 559.059 367.161C565.067 364.17 575.581 371.649 575.581 397.075C575.581 449.423 556.055 453.91 554.554 462.884C547.044 531.684 526.017 530.188 521.511 539.162C517.005 548.136 515.503 566.084 518.507 594.502C521.511 622.92 556.055 642.363 620.639 658.815C733.284 681.25 737.79 754.538 736.288 791.929C734.786 829.321 745.299 1001.32 754.311 1043.2C763.323 1085.08 775.338 1156.87 776.84 1177.81C778.342 1198.75 778.342 1343.83 778.342 1370.75C778.342 1397.67 784.349 1463.48 787.353 1478.44C790.357 1493.39 802.373 1523.31 800.871 1572.66C799.369 1622.02 794.863 1642.96 778.342 1657.92C761.82 1672.87 761.82 1657.92 761.82 1656.42C761.82 1654.93 758.816 1647.45 754.311 1653.43C749.805 1659.41 721.268 1666.89 710.755 1657.92C700.241 1648.94 707.751 1642.96 709.253 1641.47C710.755 1639.97 710.755 1638.47 709.253 1636.98C707.751 1635.48 698.739 1632.49 718.264 1607.06C737.789 1581.64 734.786 1560.7 733.284 1536.77C731.782 1512.84 734.785 1497.88 737.789 1484.42C740.793 1470.96 739.291 1457.5 737.789 1450.02C736.287 1442.54 733.283 1426.09 721.267 1391.69C691.229 1306.44 686.724 1197.25 685.222 1174.82C683.72 1152.38 692.731 1128.45 679.214 1089.57Z" fill="white"/>
</g>
<defs>
<filter id="filter0_i" x="125" y="246" width="676.001" height="2553" filterUnits="userSpaceOnUse" color-interpolation-filters="sRGB">
<feFlood flood-opacity="0" result="BackgroundImageFix"/>
<feBlend mode="normal" in="SourceGraphic" in2="BackgroundImageFix" result="shape"/>
<feColorMatrix in="SourceAlpha" type="matrix" values="0 0 0 0 0 0 0 0 0 0 0 0 0 0 0 0 0 0 127 0" result="hardAlpha"/>
<feOffset dy="4"/>
<feGaussianBlur stdDeviation="125"/>
<feComposite in2="hardAlpha" operator="arithmetic" k2="-1" k3="1"/>
<feColorMatrix type="matrix" values="0 0 0 0 0 0 0 0 0 0 0 0 0 0 0 0 0 0 0.14 0"/>
<feBlend mode="normal" in2="shape" result="effect1_innerShadow"/>
</filter>
</defs>
</svg>
