<svg width="34" height="34" viewBox="0 0 34 34" fill="none" xmlns="http://www.w3.org/2000/svg">
<path d="M17 0C7.61126 0 0 7.61126 0 17C0 26.3887 7.61126 34 17 34C26.3887 34 34 26.3887 34 17C33.9895 7.61569 26.3843 0.0105144 17 0ZM17 32.8667C8.23714 32.8667 1.13333 25.7629 1.13333 17C1.13333 8.23714 8.23714 1.13333 17 1.13333C25.7629 1.13333 32.8667 8.23714 32.8667 17C32.8567 25.7587 25.7587 32.8567 17 32.8667Z" fill="#6A5B40"/>
<path d="M17 0C7.61126 0 0 7.61126 0 17C0 26.3887 7.61126 34 17 34C26.3887 34 34 26.3887 34 17C33.9895 7.61569 26.3843 0.0105144 17 0ZM17 32.8667C8.23714 32.8667 1.13333 25.7629 1.13333 17C1.13333 8.23714 8.23714 1.13333 17 1.13333C25.7629 1.13333 32.8667 8.23714 32.8667 17C32.8567 25.7587 25.7587 32.8567 17 32.8667Z" stroke="black"/>
<path d="M24.9333 10.1992H9.06667C8.75373 10.1992 8.5 10.4529 8.5 10.7659V23.2325C8.5 23.5455 8.75373 23.7992 9.06667 23.7992H24.9333C25.2463 23.7992 25.5 23.5455 25.5 23.2325V10.7659C25.5 10.4529 25.2463 10.1992 24.9333 10.1992ZM23.4032 11.3326L17 16.8196L10.5968 11.3326H23.4032ZM9.63333 22.6659V11.9977L16.6312 17.9959C16.8431 18.1774 17.1558 18.1774 17.3677 17.9959L24.3667 11.9977V22.6659H9.63333Z" fill="#6A5B40"/>
<path d="M24.9333 10.1992H9.06667C8.75373 10.1992 8.5 10.4529 8.5 10.7659V23.2325C8.5 23.5455 8.75373 23.7992 9.06667 23.7992H24.9333C25.2463 23.7992 25.5 23.5455 25.5 23.2325V10.7659C25.5 10.4529 25.2463 10.1992 24.9333 10.1992ZM23.4032 11.3326L17 16.8196L10.5968 11.3326H23.4032ZM9.63333 22.6659V11.9977L16.6312 17.9959C16.8431 18.1774 17.1558 18.1774 17.3677 17.9959L24.3667 11.9977V22.6659H9.63333Z" stroke="black"/>
</svg>
