<svg width="34" height="34" viewBox="0 0 34 34" fill="none" xmlns="http://www.w3.org/2000/svg">
<path d="M17 0C7.62615 0 0 7.62615 0 17C0 26.3738 7.62615 34 17 34C26.3738 34 34 26.3738 34 17C34 7.62615 26.3738 0 17 0ZM17 32.055C8.69861 32.055 1.94501 25.3013 1.94501 17C1.94501 8.69872 8.69861 1.94501 17 1.94501C25.3014 1.94501 32.055 8.69872 32.055 17C32.055 25.3013 25.3014 32.055 17 32.055Z" fill="#1877F2"/>
<path d="M20.937 7.77539H18.6318C16.745 7.77539 15.21 9.31043 15.21 11.1972V13.7905H13.0623C12.5252 13.7905 12.0898 14.2259 12.0898 14.763C12.0898 15.3002 12.5252 15.7355 13.0623 15.7355H15.21V24.7402C15.21 25.2773 15.6453 25.7127 16.1825 25.7127C16.7196 25.7127 17.155 25.2773 17.155 24.7402V15.7355H20.4777C21.0148 15.7355 21.4502 15.3002 21.4502 14.763C21.4502 14.2259 21.0148 13.7905 20.4777 13.7905H17.155V11.1972C17.155 10.3829 17.8175 9.7204 18.6318 9.7204H20.9369C21.4741 9.7204 21.9094 9.28504 21.9094 8.74789C21.9094 8.21075 21.4741 7.77539 20.937 7.77539Z" fill="#1877F2"/>
</svg>
