<svg width="34" height="34" viewBox="0 0 34 34" fill="none" xmlns="http://www.w3.org/2000/svg">
<path d="M17 0C7.61126 0 0 7.61126 0 17C0 26.3887 7.61126 34 17 34C26.3887 34 34 26.3887 34 17C33.9895 7.61569 26.3843 0.0105144 17 0ZM17 32.8667C8.23714 32.8667 1.13333 25.7629 1.13333 17C1.13333 8.23714 8.23714 1.13333 17 1.13333C25.7629 1.13333 32.8667 8.23714 32.8667 17C32.8567 25.7587 25.7587 32.8567 17 32.8667Z" fill="url(#paint0_linear)"/>
<path d="M24.3674 6.80078H9.63411C8.06997 6.80272 6.80272 8.06997 6.80078 9.63411V24.3674C6.80272 25.9316 8.06997 27.1988 9.63411 27.2008H24.3674C25.9316 27.1988 27.1988 25.9316 27.2008 24.3674V9.63411C27.1988 8.06997 25.9316 6.80272 24.3674 6.80078ZM26.0674 24.3674C26.0674 25.3063 25.3063 26.0674 24.3674 26.0674H9.63411C8.6953 26.0674 7.93411 25.3063 7.93411 24.3674V9.63411C7.93411 8.6953 8.6953 7.93411 9.63411 7.93411H24.3674C25.3063 7.93411 26.0674 8.6953 26.0674 9.63411V24.3674Z" fill="url(#paint1_linear)"/>
<path d="M17.0007 11.334C13.871 11.334 11.334 13.871 11.334 17.0007C11.334 20.1303 13.871 22.6673 17.0007 22.6673C20.1303 22.6673 22.6673 20.1303 22.6673 17.0007C22.664 13.8724 20.1289 11.3373 17.0007 11.334ZM17.0007 21.534C14.4969 21.534 12.4673 19.5044 12.4673 17.0007C12.4673 14.4969 14.4969 12.4673 17.0007 12.4673C19.5044 12.4673 21.534 14.4969 21.534 17.0007C21.5312 19.5031 19.5031 21.5312 17.0007 21.534Z" fill="url(#paint2_linear)"/>
<path d="M23.2332 9.06641C22.2944 9.06641 21.5332 9.82759 21.5332 10.7664C21.5332 11.7052 22.2944 12.4664 23.2332 12.4664C24.172 12.4664 24.9332 11.7052 24.9332 10.7664C24.9332 9.82759 24.172 9.06641 23.2332 9.06641ZM23.2332 11.3331C22.9203 11.3331 22.6665 11.0793 22.6665 10.7664C22.6665 10.4535 22.9203 10.1997 23.2332 10.1997C23.5461 10.1997 23.7999 10.4535 23.7999 10.7664C23.7999 11.0793 23.5461 11.3331 23.2332 11.3331Z" fill="url(#paint3_linear)"/>
<defs>
<linearGradient id="paint0_linear" x1="-1.2274" y1="34.268" x2="34.6613" y2="0.268033" gradientUnits="userSpaceOnUse">
<stop stop-color="#FFF200"/>
<stop offset="1" stop-color="#CD118C"/>
</linearGradient>
<linearGradient id="paint1_linear" x1="-1.22662" y1="34.2688" x2="34.6621" y2="0.268814" gradientUnits="userSpaceOnUse">
<stop stop-color="#FFF200"/>
<stop offset="1" stop-color="#CD118C"/>
</linearGradient>
<linearGradient id="paint2_linear" x1="-1.22675" y1="34.2687" x2="34.662" y2="0.268685" gradientUnits="userSpaceOnUse">
<stop stop-color="#FFF200"/>
<stop offset="1" stop-color="#CD118C"/>
</linearGradient>
<linearGradient id="paint3_linear" x1="-1.39131" y1="34.0949" x2="34.4974" y2="0.0949217" gradientUnits="userSpaceOnUse">
<stop stop-color="#FFF200"/>
<stop offset="1" stop-color="#CD118C"/>
</linearGradient>
</defs>
</svg>
