<svg width="34" height="34" viewBox="0 0 34 34" fill="none" xmlns="http://www.w3.org/2000/svg">
<g clip-path="url(#clip0)">
<path d="M28.7455 4.83145C22.0756 -1.61048 11.5013 -1.61048 4.83149 4.83145C-1.77221 11.6688 -1.58282 22.5648 5.25451 29.1685C11.9244 35.6104 22.4987 35.6104 29.1685 29.1685C35.7722 22.3312 35.5828 11.4351 28.7455 4.83145ZM28.3596 28.3595L28.3539 28.3538C22.0776 34.6244 11.9064 34.6197 5.63585 28.3435C-0.634705 22.0672 -0.630065 11.8961 5.64621 5.62553C11.9225 -0.645027 22.0937 -0.640388 28.3642 5.63582C31.3762 8.65051 33.0668 12.7384 33.0641 17C33.0644 21.2605 31.3721 25.3467 28.3596 28.3595Z" fill="#C71919"/>
<path d="M26.6675 21.8998L23.4432 18.687C22.7114 17.9535 21.5236 17.952 20.7901 18.6838C20.789 18.6849 20.788 18.6859 20.7869 18.687L18.9396 20.5343C18.7998 20.6744 18.5795 20.6938 18.4175 20.5802C17.4064 19.8736 16.4599 19.0787 15.5891 18.205C14.8092 17.4269 14.0918 16.5886 13.4434 15.6979C13.3259 15.5379 13.343 15.316 13.4835 15.1758L15.3768 13.2826C16.1077 12.5502 16.1077 11.3644 15.3768 10.632L12.1525 7.40773C11.4096 6.69742 10.2392 6.69742 9.49626 7.40773L8.47506 8.42892C6.93282 9.95382 6.38226 12.2181 7.05223 14.2808C7.55217 15.79 8.25884 17.2226 9.15203 18.5378C9.95612 19.7435 10.8786 20.8659 11.9059 21.8883C13.0227 23.0131 14.2597 24.0116 15.5948 24.8659C17.0625 25.8236 18.674 26.5402 20.3681 26.9886C20.8037 27.096 21.2506 27.1499 21.6991 27.1492C23.2368 27.1398 24.7079 26.5209 25.7897 25.4281L26.6675 24.5503C27.3984 23.818 27.3984 22.6322 26.6675 21.8998ZM25.855 23.7678C25.8543 23.7686 25.8535 23.7694 25.8527 23.7701L25.8585 23.7529L24.9807 24.6307C23.8528 25.7728 22.2103 26.2427 20.6491 25.8699C19.0762 25.4489 17.5809 24.7788 16.22 23.8849C14.9557 23.0768 13.7839 22.1322 12.7261 21.0679C11.7528 20.1017 10.8784 19.0408 10.1157 17.901C9.28145 16.6746 8.62116 15.3385 8.15356 13.9309C7.61752 12.2772 8.06172 10.4627 9.30101 9.24365L10.3222 8.22245C10.6061 7.93725 11.0675 7.93625 11.3526 8.22017C11.3533 8.22091 11.3542 8.22165 11.3549 8.22245L14.5792 11.4467C14.8644 11.7306 14.8654 12.192 14.5814 12.4771C14.5807 12.4779 14.58 12.4786 14.5792 12.4794L12.6859 14.3727C12.1427 14.91 12.0743 15.7638 12.5253 16.3807C13.21 17.3205 13.9678 18.2048 14.7915 19.0255C15.7098 19.9478 16.7081 20.7868 17.7748 21.5327C18.3911 21.9626 19.2267 21.8901 19.7598 21.3606L21.5899 19.5018C21.8739 19.2166 22.3352 19.2155 22.6203 19.4995C22.6211 19.5002 22.6218 19.5009 22.6226 19.5018L25.8527 22.7375C26.1379 23.0214 26.1389 23.4826 25.855 23.7678Z" fill="#C71919"/>
</g>
<defs>
<clipPath id="clip0">
<rect width="34" height="34" fill="white"/>
</clipPath>
</defs>
</svg>
