<svg width="148" height="284" viewBox="0 0 148 284" fill="none" xmlns="http://www.w3.org/2000/svg">
<path d="M74.0042 54.3951C89.0179 54.3951 101.192 42.2166 101.192 27.1982C101.191 12.1744 89.0179 0 74.0042 0C58.9858 0 46.8066 12.1744 46.8066 27.1976C46.806 42.2166 58.9852 54.3951 74.0042 54.3951Z" fill="#857250"/>
<path d="M146.434 147.607L116.122 78.091C113.067 71.0815 106.637 66.4303 99.2628 65.1782C98.1472 64.884 49.86 64.8793 48.7064 65.1883C41.3422 66.4439 34.9258 71.0952 31.8765 78.0958L1.56806 147.602C-0.24867 151.777 0.158209 156.583 2.65169 160.393C5.14517 164.203 9.39014 166.496 13.9435 166.496C19.3142 166.496 24.1701 163.317 26.319 158.394L37.7413 132.201V269.272C37.7413 277.408 44.3351 284.001 52.4703 284.001C60.6103 284.001 67.2034 277.408 67.2034 269.272V176.812H80.8031V269.272C80.8031 277.408 87.3968 284.001 95.5315 284.001C103.661 284.001 110.256 277.408 110.256 269.277V132.192L121.683 158.4C123.831 163.322 128.688 166.502 134.059 166.502C138.611 166.502 142.857 164.209 145.35 160.398C147.845 156.592 148.255 151.782 146.434 147.607Z" fill="#857250"/>
</svg>
