<svg width="71" height="71" viewBox="0 0 71 71" fill="none" xmlns="http://www.w3.org/2000/svg">
<path d="M7.5276 70.1128H62.5844C64.5802 70.1108 66.4937 69.3171 67.905 67.9058C69.3163 66.4945 70.11 64.581 70.112 62.5852V7.52838C70.11 5.53247 69.3163 3.61886 67.9051 2.20746C66.4938 0.796069 64.5803 0.00217813 62.5844 0H7.5276C5.53169 0.00217813 3.61816 0.796069 2.20691 2.20746C0.795662 3.61886 0.00197058 5.53247 0 7.52838V62.5852C0.00200048 64.581 0.795726 66.4945 2.20699 67.9058C3.61826 69.3171 5.53177 70.1108 7.5276 70.1128ZM3.19514 7.52838C3.1964 6.37965 3.65324 5.27833 4.46544 4.46599C5.27763 3.65365 6.37887 3.19661 7.5276 3.19514H62.5844C63.7331 3.19661 64.8344 3.65365 65.6466 4.46599C66.4588 5.27833 66.9156 6.37965 66.9169 7.52838V62.5852C66.9154 63.7338 66.4585 64.8349 65.6463 65.6471C64.8342 66.4593 63.733 66.9162 62.5844 66.9176H7.5276C6.37899 66.9162 5.27785 66.4593 4.46566 65.6471C3.65348 64.8349 3.19656 63.7338 3.19514 62.5852V7.52838Z" fill="#9D8E73"/>
<path d="M15.414 54.1199C15.5503 54.3757 15.7535 54.5895 16.0019 54.7388C16.2503 54.888 16.5346 54.9669 16.8243 54.9671H57.2144C57.4949 54.967 57.7705 54.893 58.0134 54.7526C58.2562 54.6122 58.4579 54.4103 58.598 54.1672C58.7381 53.9242 58.8117 53.6485 58.8115 53.368C58.8112 53.0875 58.7372 52.8119 58.5967 52.5691L45.1328 29.3272C44.9978 29.0947 44.8064 28.9 44.5763 28.761C44.3461 28.6221 44.0847 28.5434 43.8161 28.5323C43.5471 28.5193 43.2794 28.5754 43.0382 28.6951C42.7971 28.8149 42.5906 28.9943 42.4385 29.2164L34.6862 40.3643L28.6766 35.8976C28.5033 35.7687 28.3055 35.6762 28.0954 35.6259C27.8853 35.5756 27.6672 35.5685 27.4542 35.605C27.2413 35.6414 27.0379 35.7207 26.8565 35.8381C26.6751 35.9554 26.5194 36.1084 26.3988 36.2877L15.4998 52.4771C15.3376 52.7173 15.2439 52.9972 15.2287 53.2866C15.2136 53.5761 15.2777 53.8642 15.414 54.1199ZM28.1134 39.461L34.1027 43.912C34.2745 44.0398 34.4702 44.1317 34.6782 44.1824C34.8863 44.233 35.1024 44.2414 35.3137 44.2069C35.525 44.1724 35.7272 44.0958 35.9083 43.9816C36.0894 43.8674 36.2458 43.718 36.368 43.5423L43.6273 33.1027L54.4421 51.7719H19.826L28.1134 39.461Z" fill="#9D8E73"/>
<path d="M18.2669 29.0011C19.2169 29.0014 20.1457 28.7199 20.9357 28.1923C21.7257 27.6646 22.3416 26.9146 22.7053 26.0369C23.069 25.1593 23.1644 24.1935 22.9792 23.2617C22.794 22.3299 22.3367 21.474 21.665 20.8021C20.9934 20.1302 20.1376 19.6726 19.2058 19.4871C18.2741 19.3016 17.3082 19.3966 16.4305 19.7601C15.5527 20.1235 14.8025 20.7391 14.2746 21.529C13.7467 22.3188 13.4649 23.2475 13.4648 24.1975C13.4662 25.4709 13.9725 26.6917 14.8727 27.5922C15.7729 28.4927 16.9936 28.9994 18.2669 29.0011ZM18.2669 22.5898C18.585 22.5896 18.8961 22.6837 19.1607 22.8603C19.4253 23.0369 19.6316 23.288 19.7535 23.5818C19.8753 23.8756 19.9073 24.199 19.8454 24.5111C19.7834 24.8231 19.6303 25.1097 19.4055 25.3347C19.1806 25.5597 18.894 25.713 18.582 25.7751C18.27 25.8372 17.9466 25.8053 17.6527 25.6836C17.3588 25.5619 17.1076 25.3557 16.9309 25.0912C16.7542 24.8266 16.6599 24.5157 16.66 24.1975C16.6608 23.7715 16.8303 23.3632 17.1314 23.0618C17.4326 22.7605 17.8409 22.5908 18.2669 22.5898Z" fill="#9D8E73"/>
</svg>
