<svg width="71" height="71" viewBox="0 0 71 71" fill="none" xmlns="http://www.w3.org/2000/svg">
<path d="M7.5276 70.1128H62.5844C64.5802 70.1108 66.4937 69.3171 67.905 67.9058C69.3163 66.4945 70.11 64.581 70.112 62.5852V7.52838C70.11 5.53247 69.3163 3.61886 67.9051 2.20746C66.4938 0.796069 64.5803 0.00217813 62.5844 0H7.5276C5.53169 0.00217813 3.61816 0.796069 2.20691 2.20746C0.795662 3.61886 0.00197058 5.53247 0 7.52838V62.5852C0.00200048 64.581 0.795726 66.4945 2.20699 67.9058C3.61826 69.3171 5.53177 70.1108 7.5276 70.1128ZM3.19514 7.52838C3.1964 6.37965 3.65324 5.27833 4.46544 4.46599C5.27763 3.65365 6.37887 3.19661 7.5276 3.19514H62.5844C63.7331 3.19661 64.8344 3.65365 65.6466 4.46599C66.4588 5.27833 66.9156 6.37965 66.9169 7.52838V62.5852C66.9154 63.7338 66.4585 64.8349 65.6463 65.6471C64.8342 66.4593 63.733 66.9162 62.5844 66.9176H7.5276C6.37899 66.9162 5.27785 66.4593 4.46566 65.6471C3.65348 64.8349 3.19656 63.7338 3.19514 62.5852V7.52838Z" fill="#9D8E73"/>
<path d="M15.414 54.12C15.5503 54.3757 15.7535 54.5896 16.0019 54.7388C16.2503 54.888 16.5346 54.9669 16.8243 54.9671H57.2144C57.4949 54.967 57.7705 54.893 58.0134 54.7526C58.2562 54.6122 58.4579 54.4103 58.598 54.1673C58.7381 53.9242 58.8117 53.6486 58.8115 53.368C58.8112 53.0875 58.7372 52.812 58.5967 52.5692L45.1328 29.3272C44.9978 29.0947 44.8064 28.9 44.5763 28.7611C44.3461 28.6221 44.0847 28.5435 43.8161 28.5324C43.5471 28.5194 43.2794 28.5754 43.0382 28.6951C42.7971 28.8149 42.5906 28.9944 42.4385 29.2165L34.6862 40.3643L28.6766 35.8977C28.5033 35.7687 28.3055 35.6763 28.0954 35.626C27.8853 35.5757 27.6672 35.5685 27.4542 35.605C27.2413 35.6415 27.0379 35.7208 26.8565 35.8381C26.6751 35.9555 26.5194 36.1084 26.3988 36.2877L15.4998 52.4772C15.3376 52.7173 15.2439 52.9972 15.2287 53.2866C15.2136 53.5761 15.2777 53.8642 15.414 54.12ZM28.1134 39.461L34.1027 43.9121C34.2745 44.0398 34.4702 44.1318 34.6782 44.1824C34.8863 44.2331 35.1024 44.2414 35.3137 44.2069C35.525 44.1724 35.7272 44.0958 35.9083 43.9816C36.0894 43.8675 36.2458 43.7181 36.368 43.5423L43.6273 33.1027L54.4421 51.7719H19.826L28.1134 39.461Z" fill="#9D8E73"/>
</svg>
