<svg width="100" height="95" viewBox="0 0 100 95" fill="none" xmlns="http://www.w3.org/2000/svg">
<path d="M75.6539 80.718C75.7219 80.726 75.7909 80.731 75.8589 80.731C76.2579 80.731 76.6469 80.593 76.9599 80.339C77.3259 80.04 77.5549 79.607 77.5959 79.137L77.7749 77.05H44.7539L75.6539 80.718Z" fill="#857250"/>
<path d="M88.5583 69.007L84.8633 48.625V58.392V69.593V71.352L87.0843 71.042C87.5553 70.978 87.9783 70.724 88.2563 70.339C88.5333 69.954 88.6433 69.473 88.5583 69.007Z" fill="#857250"/>
<path d="M15.404 79.273C15.529 80.141 16.274 80.766 17.126 80.766C17.206 80.766 17.287 80.761 17.368 80.749L43.939 77.049H15.082L15.404 79.273Z" fill="#857250"/>
<path d="M80.1838 22.814L79.9228 21.373C79.7548 20.453 78.9028 19.825 77.9638 19.959L57.8828 22.81H80.1618C80.1708 22.81 80.1768 22.814 80.1838 22.814Z" fill="#857250"/>
<path d="M81.3839 24.548H80.5018L80.4888 24.486C80.3948 24.524 80.2918 24.545 80.1848 24.548C80.1768 24.548 80.1709 24.552 80.1638 24.552L13.5818 24.548C12.6198 24.548 11.8398 25.328 11.8398 26.29V73.548C11.8398 74.51 12.6198 75.29 13.5818 75.29H81.3839C82.3379 75.29 83.1108 74.523 83.1228 73.573V58.55V26.265C83.1098 25.315 82.3379 24.548 81.3839 24.548ZM33.3848 69.519C33.2478 69.8 33.2008 70.099 33.2188 70.39H23.8068C26.8968 65.056 30.2928 60.6 31.4838 60.363C32.2688 60.509 33.8818 62.291 35.7308 64.892C34.7438 66.769 33.9378 68.385 33.3848 69.519ZM36.8398 70.39C36.8578 70.355 36.8748 70.319 36.8928 70.283C37.2338 69.595 37.5818 68.905 37.9368 68.216C38.5538 67.019 39.1868 65.823 39.8318 64.648C41.5968 61.426 43.4378 58.337 45.1858 55.681L45.4488 56.193C45.6578 56.6 46.0338 56.895 46.4788 57.003C46.9238 57.109 47.3928 57.016 47.7628 56.748L50.0188 55.115L50.7978 58.753C50.9348 59.401 51.4658 59.892 52.1218 59.98C52.1918 59.989 52.2628 59.994 52.3308 59.994C52.9108 59.994 53.4518 59.672 53.7238 59.144L55.5498 55.606L56.5828 56.542C56.9348 56.86 57.4048 57 57.8788 56.928C58.3468 56.855 58.7568 56.573 58.9928 56.161L59.8648 54.648C60.8278 56.068 61.8268 57.633 62.8338 59.297C63.0318 59.625 63.2298 59.956 63.4288 60.292C63.5278 60.458 63.6268 60.626 63.7258 60.794C64.0168 61.29 64.3078 61.793 64.5988 62.302C64.8398 62.724 65.0798 63.15 65.3208 63.579C66.5068 65.702 67.6668 67.898 68.7508 70.08C68.7848 70.148 68.8168 70.217 68.8518 70.284C68.8698 70.32 68.8878 70.356 68.9048 70.391H36.8398V70.39ZM47.2058 52.75C49.6158 49.434 51.6828 47.299 52.8708 47.299C53.9478 47.299 55.7448 49.049 57.8658 51.845C57.8568 51.861 57.8448 51.872 57.8348 51.889L57.2458 52.91L56.1418 51.911C55.7818 51.585 55.2888 51.447 54.8098 51.531C54.3308 51.618 53.9188 51.922 53.6968 52.355L52.9458 53.808L52.5818 52.104C52.4718 51.584 52.1058 51.158 51.6108 50.967C51.1178 50.779 50.5588 50.851 50.1288 51.161L47.4028 53.134L47.2058 52.75ZM77.1828 68.903V70.389H76.5938H74.8458H72.5238C72.5428 70.117 72.4978 69.837 72.3778 69.572C72.3708 69.554 72.3668 69.537 72.3578 69.518C71.4088 67.573 69.7118 64.205 67.6358 60.538C67.6608 60.506 67.6848 60.475 67.7098 60.443C69.2238 58.533 70.2918 57.354 70.8988 56.933C71.2148 57.054 71.6318 57.364 72.1178 57.817C73.0608 58.697 74.2718 60.142 75.5688 61.916C76.0798 62.614 76.6008 63.359 77.1268 64.145C77.1458 64.172 77.1628 64.199 77.1818 64.226V68.903H77.1828ZM77.1828 58.255C76.7938 57.773 76.3998 57.307 76.0018 56.866C75.7288 56.562 75.4518 56.27 75.1758 55.995C74.7218 55.541 74.2668 55.132 73.8168 54.777C73.2538 54.332 72.6958 53.977 72.1568 53.739C71.6628 53.521 71.1818 53.396 70.7248 53.396C69.6308 53.396 68.4178 54.116 65.7598 57.327C61.6548 50.537 56.6398 43.814 52.8698 43.814C50.2818 43.814 47.1048 46.988 44.0388 51.175C43.9588 51.284 43.8778 51.395 43.7978 51.506C41.5648 54.601 39.4018 58.2 37.5778 61.478C35.5168 58.847 33.3628 56.88 31.5248 56.88C27.7738 56.88 22.7018 65.073 19.8068 70.389H17.7818V29.448H77.1828V58.255Z" fill="#857250"/>
<path d="M24.0419 45.292C24.3589 45.888 24.7509 46.437 25.1999 46.935C26.6999 48.598 28.8629 49.651 31.2729 49.651C35.7869 49.651 39.4599 45.979 39.4599 41.464C39.4599 37.037 35.9259 33.429 31.5329 33.29C31.4459 33.287 31.3609 33.277 31.2729 33.277C30.6739 33.277 30.0919 33.346 29.5289 33.468C28.6919 33.651 27.9049 33.964 27.1849 34.381C24.7389 35.798 23.0859 38.439 23.0859 41.464C23.0859 41.961 23.1379 42.445 23.2229 42.917C23.3749 43.76 23.6519 44.559 24.0419 45.292ZM29.8019 37.021C30.2679 36.866 30.7569 36.762 31.2739 36.762C33.8669 36.762 35.9769 38.872 35.9769 41.465C35.9769 44.058 33.8669 46.168 31.2739 46.168C29.3049 46.168 27.6209 44.949 26.9209 43.229C26.6989 42.683 26.5709 42.09 26.5709 41.465C26.5709 39.388 27.9319 37.642 29.8019 37.021Z" fill="#857250"/>
</svg>
