  <svg width="28" height="23" viewBox="0 0 28 23" fill="none" xmlns="http://www.w3.org/2000/svg">
  <path d="M1.9574 9.02448L6.03367 8.17112C6.26908 8.12311 6.49984 8.27334 6.5494 8.5103C6.55559 8.53972 6.55869 8.56915 6.55869 8.59857V21.704H21.4281V8.59857C21.4281 8.35697 21.6232 8.16183 21.8648 8.16183C21.9082 8.16183 21.95 8.16648 21.9887 8.17887L26.0309 9.02448L27.0454 4.34265L18.7627 1.06398C18.6202 2.12796 18.1215 3.08508 17.389 3.81144C16.5171 4.67718 15.3152 5.21459 13.9942 5.21459C12.6731 5.21459 11.4697 4.67718 10.5978 3.81144C9.86524 3.08508 9.36655 2.12796 9.22561 1.06398L0.94298 4.34265L1.9574 9.02448V9.02448ZM9.71501 0.0108411C11.146 0.263285 12.574 0.385635 13.9942 0.384086C15.4159 0.382537 16.8423 0.25709 18.2749 0.0108411C18.3554 -0.00774367 18.4437 -0.00154873 18.5273 0.0309747L27.7113 3.66585C27.9064 3.74329 28.0226 3.95237 27.9777 4.16455L26.7929 9.63313C26.7418 9.86699 26.511 10.0157 26.2772 9.96765L22.3031 9.13598V22.1423C22.3031 22.3839 22.1064 22.579 21.8648 22.579H6.12195C5.88035 22.579 5.6852 22.3839 5.6852 22.1423V9.13598L1.71425 9.96765C1.47884 10.0188 1.24498 9.86854 1.19542 9.63313L0.0137394 4.18003C-0.0404663 3.96941 0.0694938 3.74794 0.277024 3.66585L9.44089 0.0387184C9.49664 0.0139386 9.55704 0 9.62054 0C9.65306 0 9.68559 0.00309747 9.71501 0.0108411V0.0108411ZM17.8939 0.955569C16.5976 1.15381 15.2982 1.25447 13.9942 1.25602C12.6901 1.25757 11.3892 1.15845 10.0929 0.958667C10.2106 1.82441 10.6179 2.60342 11.2126 3.19349C11.9251 3.90126 12.9101 4.3411 13.9942 4.3411C15.0767 4.3411 16.0617 3.90126 16.7741 3.19349C17.3704 2.60342 17.7777 1.82286 17.8939 0.955569V0.955569ZM8.7455 8.22223H12.2441C12.4857 8.22223 12.6808 8.41737 12.6808 8.65897V10.8055C12.6808 11.2965 12.4795 11.7441 12.1558 12.0677C11.8321 12.393 11.3845 12.5943 10.892 12.5943H10.0991C9.6066 12.5943 9.15902 12.393 8.83378 12.0693L8.809 12.0414C8.49926 11.7193 8.30876 11.2825 8.30876 10.8055V8.65897C8.30876 8.41737 8.5039 8.22223 8.7455 8.22223V8.22223ZM11.8074 9.09572H9.1838V10.8055C9.1838 11.0487 9.27827 11.2701 9.43314 11.4343L9.45173 11.4513C9.61899 11.6171 9.84665 11.7208 10.0991 11.7208H10.892C11.1429 11.7208 11.3722 11.6171 11.5379 11.4513C11.7051 11.2856 11.8074 11.058 11.8074 10.8055V9.09572V9.09572Z" fill="black"/>
  </svg>
