<svg width="37" height="37" viewBox="0 0 37 37" fill="none" xmlns="http://www.w3.org/2000/svg">
<path d="M27.75 12.3333C30.3043 12.3333 32.375 10.2626 32.375 7.70831C32.375 5.154 30.3043 3.08331 27.75 3.08331C25.1957 3.08331 23.125 5.154 23.125 7.70831C23.125 10.2626 25.1957 12.3333 27.75 12.3333Z" stroke="#6C6C6C" stroke-width="2" stroke-linecap="round" stroke-linejoin="round"/>
<path d="M9.25 23.125C11.8043 23.125 13.875 21.0543 13.875 18.5C13.875 15.9457 11.8043 13.875 9.25 13.875C6.69568 13.875 4.625 15.9457 4.625 18.5C4.625 21.0543 6.69568 23.125 9.25 23.125Z" stroke="#6C6C6C" stroke-width="2" stroke-linecap="round" stroke-linejoin="round"/>
<path d="M27.75 33.9167C30.3043 33.9167 32.375 31.846 32.375 29.2917C32.375 26.7374 30.3043 24.6667 27.75 24.6667C25.1957 24.6667 23.125 26.7374 23.125 29.2917C23.125 31.846 25.1957 33.9167 27.75 33.9167Z" stroke="#6C6C6C" stroke-width="2" stroke-linecap="round" stroke-linejoin="round"/>
<path d="M13.2422 20.8279L23.7718 26.9638" stroke="#6C6C6C" stroke-width="2" stroke-linecap="round" stroke-linejoin="round"/>
<path d="M23.7564 10.0363L13.2422 16.1721" stroke="#6C6C6C" stroke-width="2" stroke-linecap="round" stroke-linejoin="round"/>
</svg>
