<svg width="83" height="101" viewBox="0 0 83 101" fill="none" xmlns="http://www.w3.org/2000/svg">
<path d="M65.2471 28.9833L65.2473 28.9835C69.6649 32.5306 73.271 37.0422 75.7439 42.196C78.1231 47.1542 79.4563 52.7167 79.4563 58.5987C79.4563 69.0803 75.2085 78.5688 68.3392 85.438C61.4701 92.3072 51.9815 96.5551 41.5 96.5551C31.0183 96.5551 21.5299 92.3072 14.6607 85.438C7.79142 78.5688 3.54357 69.0803 3.54357 58.5987C3.54357 52.8201 4.83172 47.3484 7.13539 42.4541C9.53058 37.3653 13.0247 32.8933 17.3121 29.3443C17.9591 28.8089 18.0494 27.8505 17.5142 27.2036C16.9789 26.5566 16.0204 26.4661 15.3735 27.0014L15.3734 27.0015C10.7468 30.8313 6.97441 35.66 4.3866 41.1581C1.89356 46.4549 0.5 52.3672 0.5 58.5987C0.5 69.9203 5.08964 80.171 12.5087 87.59C19.9277 95.009 30.1784 99.5987 41.5 99.5987C52.8216 99.5987 63.0723 95.009 70.4913 87.59C77.9104 80.171 82.5 69.9203 82.5 58.5987C82.5 52.2615 81.0573 46.2529 78.4816 40.8852C75.808 35.3132 71.9153 30.441 67.1508 26.6153L67.0321 26.52L67.0162 26.5186C66.3714 26.1061 65.5058 26.2374 65.0151 26.8475C64.4894 27.5013 64.5933 28.4576 65.2471 28.9833Z" fill="#6A5B40" stroke="#6A5B40"/>
<path d="M18.7281 3.6301L18.7281 3.63011C16.7979 5.56027 15.5979 8.22608 15.5979 11.1601V17.7189V18.1834L15.6719 18.1889C15.87 18.7993 16.4434 19.2407 17.1198 19.2407C17.9602 19.2407 18.6415 18.5593 18.6415 17.7189V11.1601C18.6415 9.06832 19.4976 7.1646 20.8801 5.78208C22.2626 4.39957 24.1663 3.54359 26.2582 3.54359H56.7353C58.8272 3.54359 60.7308 4.39958 62.1134 5.78208C63.4959 7.1646 64.3519 9.06832 64.3519 11.1601V26.4566H17.1198C16.2794 26.4566 15.598 27.138 15.598 27.9784C15.598 28.8188 16.2794 29.5002 17.1198 29.5002H65.8736C66.714 29.5002 67.3954 28.8188 67.3954 27.9784V11.1601C67.3954 8.22608 66.1954 5.56028 64.2652 3.63011L63.9117 3.98366L64.2652 3.6301C62.3351 1.70003 59.6693 0.5 56.7352 0.5H26.2581C23.324 0.5 20.6582 1.70003 18.7281 3.6301Z" fill="#6A5B40" stroke="#6A5B40"/>
<path d="M40.6948 51.7998H41.5009C43.0997 51.7998 44.5482 52.4487 45.5955 53.496L45.242 53.8496L45.5955 53.496C46.6429 54.5434 47.2917 55.9919 47.2917 57.5907C47.2917 58.5274 47.0662 59.4158 46.6667 60.2037C46.3774 60.7742 45.997 61.29 45.545 61.7317V71.0879C45.545 71.8962 45.2128 72.6313 44.6818 73.1643L44.68 73.1661L44.6766 73.1697L44.6765 73.1696L44.6739 73.1722L44.6739 73.1722C44.1412 73.7016 43.4072 74.0328 42.6002 74.0328H40.4014C39.5931 74.0328 38.8581 73.7005 38.3251 73.1696L38.3242 73.1687L38.3197 73.1644L38.3198 73.1643L38.3176 73.1621L38.3176 73.1621C37.7879 72.6293 37.4567 71.8951 37.4567 71.0879V61.7315C37.0046 61.2898 36.6243 60.7742 36.335 60.2037L40.6948 51.7998ZM40.6948 51.7998L40.7207 51.852M40.6948 51.7998L40.7207 51.852M40.7207 51.852C39.4337 52.0255 38.2802 52.622 37.4062 53.496L37.4062 53.496C36.3588 54.5434 35.71 55.9919 35.71 57.5908C35.71 58.5274 35.9354 59.4158 36.335 60.2036L40.7207 51.852ZM43.4436 55.648L43.4487 55.6531C43.9433 56.1503 44.2482 56.8344 44.2482 57.5907C44.2482 58.0433 44.1417 58.4649 43.9548 58.8335L43.9548 58.8335C43.7594 59.219 43.4737 59.5537 43.1248 59.8096L42.7057 60.1171L42.5014 60.2669V60.5202V61.035V70.9892H40.5002V61.0349V60.5202V60.2668L40.2959 60.117L39.8768 59.8096C39.8768 59.8096 39.8768 59.8096 39.8768 59.8096C39.528 59.5537 39.2423 59.2189 39.0469 58.8334L39.0469 58.8334C38.86 58.4648 38.7535 58.0432 38.7535 57.5907C38.7535 56.8318 39.0605 56.1456 39.5581 55.648L39.5581 55.648C40.0557 55.1504 40.742 54.8434 41.5009 54.8434C42.2597 54.8434 42.946 55.1504 43.4436 55.648Z" fill="#6A5B40" stroke="#6A5B40"/>
</svg>
