<svg width="35" height="41" viewBox="0 0 35 41" fill="none" xmlns="http://www.w3.org/2000/svg">
<path d="M27.8907 26.6424C27.7688 26.5473 27.6139 26.5008 27.4576 26.5122C27.3012 26.5236 27.1553 26.5921 27.0497 26.7038L17.4991 36.203L8.46464 27.2106C10.4638 25.8464 12.7668 24.953 15.1889 24.602C17.6109 24.2511 20.0846 24.4524 22.4114 25.1897C22.492 25.2204 22.5782 25.2349 22.6647 25.2323C22.7513 25.2298 22.8365 25.2103 22.9149 25.1749C22.9934 25.1396 23.0636 25.0892 23.1212 25.0268C23.1788 24.9644 23.2226 24.8914 23.2499 24.8122C23.2772 24.7329 23.2875 24.6491 23.2801 24.5659C23.2727 24.4827 23.2478 24.4019 23.2069 24.3283C23.166 24.2547 23.1099 24.1899 23.0422 24.1379C22.9744 24.0859 22.8964 24.0477 22.8128 24.0258C22.2961 23.8604 21.7708 23.721 21.2391 23.6081C22.3391 23.0915 23.3128 22.3557 24.0959 21.4493C24.879 20.5429 25.4536 19.4866 25.7818 18.3502H26.7375V20.8072C26.7503 22.4207 26.1203 23.9774 24.9776 25.1563C23.8348 26.3352 22.2663 27.0463 20.5956 27.143C20.4676 26.7322 20.2057 26.3721 19.8489 26.116C19.492 25.8599 19.059 25.7214 18.6141 25.721H16.3842C15.835 25.721 15.3083 25.9314 14.92 26.3057C14.5316 26.6801 14.3135 27.1879 14.3135 27.7173C14.3135 28.2468 14.5316 28.7545 14.92 29.1289C15.3083 29.5033 15.835 29.7136 16.3842 29.7136H18.6141C19.0421 29.7129 19.4594 29.5844 19.8085 29.3457C20.1577 29.107 20.4215 28.7699 20.5637 28.3807C22.5809 28.2941 24.4845 27.4562 25.8737 26.0436C27.263 24.6309 28.0294 22.7537 28.0118 20.8072V18.1813C28.6715 17.9196 29.2357 17.4748 29.6327 16.9034C30.0298 16.3319 30.2417 15.6597 30.2417 14.9719V12.2079C30.2464 11.8033 30.1672 11.4019 30.0088 11.0272C29.8503 10.6526 29.6159 10.3122 29.3191 10.0261C29.0224 9.74002 28.6693 9.51397 28.2807 9.36123C27.8921 9.20849 27.4757 9.13214 27.0561 9.13667H26.1004C26.1004 6.93745 25.1942 4.82829 23.5811 3.27321C21.9681 1.71812 19.7803 0.844482 17.4991 0.844482C15.2179 0.844482 13.0302 1.71812 11.4171 3.27321C9.80409 4.82829 8.89789 6.93745 8.89789 9.13667H7.9422C7.52255 9.13214 7.10619 9.20849 6.71757 9.36123C6.32895 9.51397 5.9759 9.74002 5.67915 10.0261C5.38239 10.3122 5.14792 10.6526 4.98948 11.0272C4.83105 11.4019 4.75186 11.8033 4.75655 12.2079V14.9719C4.75655 16.7716 6.24425 18.3502 7.9422 18.3502H9.19734C9.52424 19.4897 10.1001 20.5487 10.8864 21.4561C11.6726 22.3635 12.651 23.0982 13.756 23.6111C6.92916 25.0669 0.554688 31.0956 0.554688 39.5414C0.554688 39.7043 0.621813 39.8605 0.741298 39.9757C0.860783 40.0909 1.02284 40.1556 1.19182 40.1556C1.36079 40.1556 1.52285 40.0909 1.64233 39.9757C1.76182 39.8605 1.82895 39.7043 1.82895 39.5414C1.82864 37.3327 2.3315 35.151 3.30197 33.1503C4.27244 31.1496 5.68685 29.3788 7.44524 27.963L17.0404 37.5113C17.0998 37.5708 17.1711 37.618 17.2499 37.6503C17.3287 37.6826 17.4135 37.6993 17.4991 37.6993C17.5848 37.6993 17.6695 37.6826 17.7484 37.6503C17.8272 37.618 17.8984 37.5708 17.9579 37.5113L27.5594 27.9569C30.9808 30.6749 33.1693 35.1588 33.1693 39.5414C33.1693 39.7043 33.2364 39.8605 33.3559 39.9757C33.4754 40.0909 33.6375 40.1556 33.8064 40.1556C33.9754 40.1556 34.1375 40.0909 34.257 39.9757C34.3764 39.8605 34.4436 39.7043 34.4436 39.5414C34.4436 34.5998 31.8696 29.5385 27.8907 26.6424ZM18.6141 28.4851H16.3842C16.1729 28.4851 15.9704 28.4042 15.821 28.2602C15.6717 28.1162 15.5877 27.9209 15.5877 27.7173C15.5877 27.5137 15.6717 27.3184 15.821 27.1744C15.9704 27.0304 16.1729 26.9495 16.3842 26.9495H18.6141C18.8253 26.9495 19.0279 27.0304 19.1773 27.1744C19.3266 27.3184 19.4105 27.5137 19.4105 27.7173C19.4105 27.9209 19.3266 28.1162 19.1773 28.2602C19.0279 28.4042 18.8253 28.4851 18.6141 28.4851ZM28.9675 12.2079V14.9719C28.9675 15.9854 28.1487 17.1217 27.0561 17.1217H26.0462C26.0868 16.7935 26.108 16.4634 26.1099 16.1328V10.3651H27.0656C27.3174 10.3609 27.5674 10.4058 27.8008 10.497C28.0341 10.5883 28.2459 10.724 28.4235 10.8961C28.6011 11.0682 28.7409 11.2731 28.8343 11.4985C28.9278 11.7239 28.9731 11.9652 28.9675 12.2079ZM10.1721 9.13667C10.1721 7.26326 10.9441 5.46657 12.3182 4.14187C13.6922 2.81717 15.5559 2.07295 17.4991 2.07295C19.4424 2.07295 21.306 2.81717 22.6801 4.14187C24.0542 5.46657 24.8261 7.26326 24.8261 9.13667V11.2681C18.5217 10.9794 16.0815 7.51202 15.9796 7.36153C15.9278 7.28445 15.8588 7.21955 15.7775 7.17159C15.6963 7.12363 15.605 7.09384 15.5102 7.08441C15.4155 7.07499 15.3197 7.08616 15.2301 7.11711C15.1404 7.14806 15.059 7.19799 14.992 7.26325C14.9506 7.29396 12.1887 9.9966 10.1721 11.5936V9.13667ZM7.9422 17.1217C6.84952 17.1217 6.03081 15.9854 6.03081 14.9719V12.2079C6.02515 11.9644 6.07073 11.7223 6.16478 11.4963C6.25883 11.2702 6.39942 11.0649 6.57804 10.8927C6.75667 10.7205 6.96964 10.585 7.2041 10.4943C7.43856 10.4036 7.68964 10.3597 7.9422 10.3651H8.89789V16.2004C8.89829 16.5082 8.91637 16.8158 8.95205 17.1217H7.9422ZM10.1721 16.2004V13.1292C11.8064 11.9806 14.3135 9.63113 15.3902 8.60536C16.4511 9.78162 19.3436 12.2539 24.8261 12.4904V16.1328C24.8354 18.0062 24.0724 19.8065 22.7049 21.1375C21.3374 22.4686 19.4774 23.2214 17.5342 23.2303C16.572 23.2348 15.6183 23.0564 14.7276 22.7056C13.8369 22.3547 13.0266 21.8381 12.343 21.1853C10.9623 19.8669 10.1814 18.0738 10.1721 16.2004Z" fill="#857250"/>
</svg>
