<svg width="100" height="136" viewBox="0 0 100 136" fill="none" xmlns="http://www.w3.org/2000/svg">
<path d="M96.3947 90.2467C96.3947 87.939 95.5622 85.8066 94.1747 84.1709C97.2272 82.6081 99.3304 79.4241 99.3304 75.7728C99.3304 70.5734 95.0948 66.3378 89.8954 66.3378H59.6917V44.9557C59.6917 36.1488 52.5351 28.9922 43.7281 28.9922C42.5159 28.9922 41.5374 29.9707 41.5374 31.183C41.5374 48.461 39.8431 64.5122 28.0713 66.1772C27.4287 62.2484 24.0257 59.2397 19.9216 59.2397H8.26658C3.70974 59.2397 0 62.9494 0 67.5063V127.461C0 132.018 3.70974 135.727 8.26658 135.727H19.9216C24.0841 135.727 27.5309 132.631 28.1005 128.629H81.1176C86.3171 128.629 90.5526 124.394 90.5526 119.194C90.5526 116.887 89.7201 114.754 88.3326 113.118C91.3851 111.556 93.4883 108.372 93.4883 104.72C93.4883 102.413 92.6558 100.28 91.2683 98.6447C94.3062 97.0819 96.3947 93.9126 96.3947 90.2467ZM23.8066 127.475C23.8066 129.622 22.0685 131.36 19.9216 131.36H8.26658C6.1196 131.36 4.38158 129.622 4.38158 127.475V67.5063C4.38158 65.3593 6.1196 63.6213 8.26658 63.6213H19.9216C22.0685 63.6213 23.8066 65.3593 23.8066 67.5063V127.475ZM86.9597 95.3001H84.0387C82.8264 95.3001 81.8479 96.2786 81.8479 97.4909C81.8479 98.7031 82.8264 99.6816 84.0387 99.6816C86.8283 99.6816 89.0921 101.945 89.0921 104.735C89.0921 107.525 86.8283 109.788 84.0387 109.788H81.1176C79.9054 109.788 78.9268 110.767 78.9268 111.979C78.9268 113.192 79.9054 114.17 81.1176 114.17C83.9072 114.17 86.171 116.434 86.171 119.223C86.171 122.013 83.9072 124.277 81.1176 124.277H28.1881V70.588C44.8235 68.7915 45.8605 46.5185 45.9189 33.5928C51.2645 34.6152 55.3101 39.3327 55.3101 44.9703V66.3378H52.17C50.9577 66.3378 49.9792 67.3164 49.9792 68.5286C49.9792 69.7409 50.9577 70.7194 52.17 70.7194H89.8808C92.6704 70.7194 94.9342 72.9832 94.9342 75.7728C94.9342 78.5624 92.6704 80.8263 89.8808 80.8263H86.9597C85.7475 80.8263 84.7689 81.8048 84.7689 83.017C84.7689 84.2293 85.7475 85.2078 86.9597 85.2078C89.7493 85.2078 92.0131 87.4717 92.0131 90.2613C92.0131 93.0363 89.7493 95.3001 86.9597 95.3001Z" fill="#857250"/>
<path d="M10.722 42.7947H24.4364C25.6486 42.7947 26.6272 41.8161 26.6272 40.6039C26.6272 39.3916 25.6486 38.4131 24.4364 38.4131H10.722C9.5098 38.4131 8.53125 39.3916 8.53125 40.6039C8.53125 41.8161 9.5098 42.7947 10.722 42.7947Z" fill="#857250"/>
<path d="M30.1176 24.6827C30.5412 25.1062 31.1108 25.3253 31.6658 25.3253C32.2208 25.3253 32.7904 25.1062 33.2139 24.6827C34.0756 23.821 34.0756 22.4335 33.2139 21.5864L23.516 11.8885C22.6543 11.0268 21.2668 11.0268 20.4197 11.8885C19.558 12.7502 19.558 14.1377 20.4197 14.9848L30.1176 24.6827Z" fill="#857250"/>
<path d="M71.6523 40.6039C71.6523 41.8161 72.6309 42.7947 73.8431 42.7947H87.5575C88.7697 42.7947 89.7483 41.8161 89.7483 40.6039C89.7483 39.3916 88.7697 38.4131 87.5575 38.4131H73.8431C72.6309 38.4131 71.6523 39.3916 71.6523 40.6039Z" fill="#857250"/>
<path d="M66.6007 25.3253C67.1557 25.3253 67.7253 25.1062 68.1488 24.6827L77.8467 14.9848C78.7085 14.1231 78.7085 12.7356 77.8467 11.8885C76.985 11.0268 75.5975 11.0268 74.7504 11.8885L65.0525 21.5864C64.1908 22.4481 64.1908 23.8356 65.0525 24.6827C65.4907 25.1062 66.0457 25.3253 66.6007 25.3253Z" fill="#857250"/>
<path d="M49.1322 18.0959C50.3444 18.0959 51.323 17.1174 51.323 15.9051V2.19079C51.323 0.978553 50.3444 0 49.1322 0C47.92 0 46.9414 0.978553 46.9414 2.19079V15.9051C46.9414 17.1028 47.92 18.0959 49.1322 18.0959Z" fill="#857250"/>
</svg>
