<svg width="162" height="162" viewBox="0 0 162 162" fill="none" xmlns="http://www.w3.org/2000/svg">
<path d="M134.152 92.342C127.097 84.8252 118.327 71.3488 118.327 71.3488C122.899 89.4199 122.581 138.397 122.816 139.589C122.816 139.589 118.707 148.914 83.0146 148.914C47.3199 148.914 40.8662 138.633 40.8662 138.633C40.8662 138.633 39.4852 96.072 44.2419 68.8256L26.8897 89.5211L22.1836 45.3478C22.1836 45.3478 41.1619 28.192 45.2139 23.9982C46.19 23.0627 69.0036 13.2839 69.0036 13.2839L96.9749 14.5921C96.9749 14.5921 118.248 22.0137 119.56 24.3425C119.56 24.3425 132.745 37.3612 140.739 44.88L134.152 92.342Z" fill="white"/>
<path opacity="0.35" d="M28.4492 89.5374L31.9828 93.5712L43.09 80.6983L44.2402 70.0286L28.4492 89.5374Z" fill="black"/>
<path opacity="0.35" d="M49.9918 144.71L47.9121 146.863C47.9121 146.863 54.3658 157.148 90.0584 157.148C125.751 157.148 129.979 141.693 129.979 141.693C129.979 141.693 129.542 136.155 127.823 108.127C127.108 96.4546 125.202 90.2622 125.202 90.2622C125.202 90.2622 125.733 92.9109 129.017 96.6936C130.785 92.6557 132.049 91.4954 131.699 91.0479C126.397 84.2398 117.295 70.9781 117.094 68.8296C120.107 87.3199 121.839 116.585 122.343 111.936C121.031 109.607 123.295 140.794 123.295 140.794C123.295 140.794 119.453 148.355 92.5168 149.123C65.5823 149.892 54.8032 147.207 54.8032 147.207" fill="black"/>
<path d="M140.737 46.0807C132.743 38.5619 119.558 25.5431 119.558 25.5431C118.246 23.2164 96.9731 15.7948 96.9731 15.7948L68.9997 14.4846C68.9997 14.4846 46.1881 24.2613 45.21 25.1969C41.16 29.3927 22.1797 46.5485 22.1797 46.5485" fill="white"/>
<path d="M140.737 46.0807C132.743 38.5619 119.558 25.5431 119.558 25.5431C118.246 23.2164 96.9731 15.7948 96.9731 15.7948L68.9997 14.4846C68.9997 14.4846 46.1881 24.2613 45.21 25.1969C41.16 29.3927 22.1797 46.5485 22.1797 46.5485" stroke="black" stroke-width="0.8081" stroke-miterlimit="10"/>
<path d="M26.8867 90.7261L44.2389 70.0286C39.4802 97.279 40.8633 139.836 40.8633 139.836C40.8633 139.836 47.3169 150.121 83.0116 150.121C118.704 150.121 122.813 140.794 122.813 140.794C122.578 139.604 122.896 90.6269 118.324 72.5517C118.324 72.5517 127.094 86.0261 134.149 93.5449" stroke="black" stroke-width="0.8081" stroke-miterlimit="10"/>
<path d="M82.3356 28.4046L65.7954 32.6126C65.7954 32.6126 62.7032 24.9237 63.8939 16.1149L66.5568 8.24981C70.4813 4.32941 82.8965 5.11511 84.3525 5.11511C85.8085 5.11511 94.8177 4.99361 97.029 8.19108C99.2383 11.3865 100.16 17.2793 100.16 17.2793C100.16 17.2793 99.3497 32.8455 97.7499 32.6146C93.8903 32.0658 82.3356 28.4046 82.3356 28.4046Z" fill="white" stroke="black" stroke-width="0.8081" stroke-miterlimit="10"/>
<path d="M82.3354 28.4047C82.3354 28.4047 71.2668 20.0394 66.5566 8.2478L82.3354 28.4047Z" fill="white"/>
<path d="M82.3354 28.4047C82.3354 28.4047 71.2668 20.0394 66.5566 8.2478" stroke="black" stroke-width="0.8081" stroke-miterlimit="10"/>
<path d="M82.334 28.4047C91.8515 21.376 96.7135 7.8125 96.7135 7.8125L82.334 28.4047Z" fill="white"/>
<path d="M82.334 28.4047C91.8515 21.376 96.7135 7.8125 96.7135 7.8125" stroke="black" stroke-width="0.8081" stroke-miterlimit="10"/>
<path d="M47.2263 53.9602C47.2263 53.9602 43.1621 72.25 42.9414 80.9292L47.2263 53.9602Z" fill="white"/>
<path d="M47.2263 53.9602C47.2263 53.9602 43.1621 72.25 42.9414 80.9292" stroke="black" stroke-width="0.8081" stroke-miterlimit="10"/>
<path d="M120.955 90.5843C119.238 74.3195 114.508 56.1006 114.508 56.1006L120.955 90.5843Z" fill="white"/>
<path d="M120.955 90.5843C119.238 74.3195 114.508 56.1006 114.508 56.1006" stroke="black" stroke-width="0.8081" stroke-miterlimit="10"/>
</svg>
