<svg width="164" height="164" viewBox="0 0 164 164" fill="none" xmlns="http://www.w3.org/2000/svg">
<path d="M142.468 46.816C134.375 39.2064 121.025 26.0249 121.025 26.0249C119.699 23.6674 98.1659 16.1562 98.1659 16.1562L69.8451 14.8298C69.8451 14.8298 46.7519 24.7293 45.7617 25.6764C41.6617 29.924 22.4512 47.2916 22.4512 47.2916L27.2133 92.0103L47.1127 71.0593C46.0036 120.366 43.9126 141.727 43.9126 141.727C43.9126 141.727 50.077 152.139 84.1685 152.139C118.258 152.139 122.184 142.697 122.184 142.697C120.23 130.907 119.445 110.796 117.446 73.6136C117.446 73.6136 128.66 87.2563 135.802 94.8639L142.468 46.816Z" fill="white"/>
<path opacity="0.35" d="M28.7969 90.8088L32.3741 94.8903L47.3617 78.9659L47.1136 71.0591L28.7969 90.8088Z" fill="black"/>
<path opacity="0.35" d="M52.6328 146.661L50.6484 148.842C50.6484 148.842 56.8087 159.25 90.9022 159.25C124.99 159.25 129.024 143.607 129.024 143.607C129.024 143.607 128.118 134.945 124.92 106.694C123.671 95.6427 122.925 88.7793 124.006 90.2901C125.285 92.0798 127.074 95.1199 130.393 98.9493C132.183 94.8657 133.671 92.787 133.321 92.3319C127.954 85.4439 117.704 76.0283 117.501 73.8491C117.679 94.2651 119.079 117.414 119.446 113.986C118.12 111.629 122.638 142.694 122.638 142.694C122.638 142.694 118.973 150.349 93.2433 151.126C67.522 151.905 57.231 149.187 57.231 149.187" fill="black"/>
<path d="M142.468 46.816C134.375 39.2064 121.025 26.0249 121.025 26.0249C119.699 23.6674 98.1659 16.1562 98.1659 16.1562L69.8451 14.8298C69.8451 14.8298 46.7519 24.7293 45.7617 25.6764C41.6617 29.924 22.4512 47.2916 22.4512 47.2916" fill="white"/>
<path d="M142.468 46.816C134.375 39.2064 121.025 26.0249 121.025 26.0249C119.699 23.6674 98.1659 16.1562 98.1659 16.1562L69.8451 14.8298C69.8451 14.8298 46.7519 24.7293 45.7617 25.6764C41.6617 29.924 22.4512 47.2916 22.4512 47.2916" stroke="black" stroke-width="0.8081" stroke-miterlimit="10"/>
<path d="M27.2148 92.0101L47.1142 71.0591C46.0051 120.366 43.9141 141.727 43.9141 141.727C43.9141 141.727 50.0785 152.139 84.17 152.139C118.259 152.139 122.185 142.696 122.185 142.696C120.232 130.907 119.446 110.796 117.448 73.6134C117.448 73.6134 128.661 87.2561 135.803 94.8637" stroke="black" stroke-width="0.8081" stroke-miterlimit="10"/>
<path d="M83.3446 28.9213L66.6022 33.1812C66.6022 33.1812 63.4698 25.3974 64.6773 16.4799L67.371 8.51562C71.3459 4.54682 83.9165 5.34222 85.3884 5.34222C86.8603 5.34222 95.9828 5.22127 98.2173 8.45617C100.458 11.6911 101.391 17.6545 101.391 17.6545C101.391 17.6545 100.571 33.4149 98.9512 33.1812C95.0439 32.6277 83.3446 28.9213 83.3446 28.9213Z" fill="white" stroke="black" stroke-width="0.8081" stroke-miterlimit="10"/>
<path d="M83.3447 28.9216C83.3447 28.9216 72.1414 20.453 67.3711 8.51587L83.3447 28.9216Z" fill="white"/>
<path d="M83.3447 28.9216C83.3447 28.9216 72.1414 20.453 67.3711 8.51587" stroke="black" stroke-width="0.8081" stroke-miterlimit="10"/>
<path d="M83.3457 28.9213C92.9807 21.8058 97.9069 8.0769 97.9069 8.0769L83.3457 28.9213Z" fill="white"/>
<path d="M83.3457 28.9213C92.9807 21.8058 97.9069 8.0769 97.9069 8.0769" stroke="black" stroke-width="0.8081" stroke-miterlimit="10"/>
<path d="M47.0781 53.4907C47.0781 53.4907 47.7177 68.138 47.0781 79.4909" stroke="black" stroke-width="0.8081" stroke-miterlimit="10"/>
<path d="M117.944 84.3062C116.644 70.8705 116.921 55.6575 116.921 55.6575" stroke="black" stroke-width="0.8081" stroke-miterlimit="10"/>
</svg>
