<svg width="164" height="164" viewBox="0 0 209 209" fill="none" xmlns="http://www.w3.org/2000/svg">
<path d="M181.054 59.9097C170.737 50.2069 153.724 33.4138 153.724 33.4138C152.037 30.4094 124.595 20.8372 124.595 20.8372L88.5058 19.1443C88.5058 19.1443 59.0708 31.7601 57.809 32.967C52.584 38.3801 28.0996 60.5132 28.0996 60.5132L34.1684 117.502L61.9602 90.8026C69.722 152.499 58.0963 180.861 58.0963 180.861C58.0963 180.861 65.5811 194.13 106.953 194.13C148.327 194.13 154.356 180.861 154.356 180.861C154.356 166.223 139.408 138.632 147.117 94.0577C147.117 94.0577 163.453 111.441 172.56 121.142L181.054 59.9097Z" fill="white"/>
<path opacity="0.35" d="M36.1875 116.421L40.7463 121.625L63.6057 100.153L61.9624 91.2522L36.1875 116.421Z" fill="black"/>
<path opacity="0.35" d="M68.6802 187.601L66.2715 190.375C66.2715 190.375 73.7537 203.644 115.133 203.644C156.502 203.644 163.807 185.493 163.807 185.493C163.807 185.493 156.269 166.249 151.473 135.286C149.31 121.298 151.094 109.286 152.403 111.214C153.952 113.49 162.226 119.015 166.458 123.895C168.736 118.691 169.839 118.942 169.392 118.364C162.55 109.584 147.766 97.0334 147.523 94.2537C144.022 117.86 144.095 141.114 144.539 136.743C142.935 133.742 153.432 179.918 153.432 179.918C153.432 179.918 149.195 192.298 117.975 193.291C86.7483 194.278 74.2605 190.814 74.2605 190.814" fill="black"/>
<path d="M181.054 60.3592C170.737 50.659 153.724 33.8632 153.724 33.8632C152.037 30.8588 124.595 21.2866 124.595 21.2866L88.5058 19.5938C88.5058 19.5938 59.0708 32.2095 57.809 33.4165C52.584 38.8296 28.0996 60.9627 28.0996 60.9627" fill="white"/>
<path d="M181.054 60.3592C170.737 50.659 153.724 33.8632 153.724 33.8632C152.037 30.8588 124.595 21.2866 124.595 21.2866L88.5058 19.5938C88.5058 19.5938 59.0708 32.2095 57.809 33.4165C52.584 38.8296 28.0996 60.9627 28.0996 60.9627" stroke="black" stroke-width="0.8081" stroke-miterlimit="10"/>
<path d="M34.1719 117.952L61.9637 91.2493C69.7254 152.943 58.0998 181.31 58.0998 181.31C58.0998 181.31 65.5846 194.576 106.956 194.576C148.33 194.576 154.36 181.31 154.36 181.31C154.36 166.672 139.411 139.082 147.121 94.5044C147.121 94.5044 163.457 111.891 172.564 121.588" stroke="black" stroke-width="0.8081" stroke-miterlimit="10"/>
<path d="M105.705 37.5519L84.3661 42.9833C84.3661 42.9833 80.3768 33.061 81.9156 21.6967L85.3484 11.5471C90.414 6.49191 106.434 7.50294 108.31 7.50294C110.188 7.50294 121.811 7.34881 124.667 11.4713C127.514 15.5939 128.703 23.1962 128.703 23.1962C128.703 23.1962 127.66 43.2811 125.597 42.9833C120.615 42.2753 105.705 37.5519 105.705 37.5519Z" fill="white" stroke="black" stroke-width="0.8081" stroke-miterlimit="10"/>
<path d="M105.706 37.5519C105.706 37.5519 91.4289 26.7623 85.3496 11.5471L105.706 37.5519Z" fill="white"/>
<path d="M105.706 37.5519C105.706 37.5519 91.4289 26.7623 85.3496 11.5471" stroke="black" stroke-width="0.8081" stroke-miterlimit="10"/>
<path d="M105.705 37.5521C117.981 28.4867 124.262 10.9856 124.262 10.9856L105.705 37.5521Z" fill="white"/>
<path d="M105.705 37.5521C117.981 28.4867 124.262 10.9856 124.262 10.9856" stroke="black" stroke-width="0.8081" stroke-miterlimit="10"/>
<path d="M58.8633 62.2793C58.8633 62.2793 63.0642 90.0841 63.1922 102.666" stroke="black" stroke-width="0.8081" stroke-miterlimit="10"/>
<path d="M145.085 120.886C144.309 101.117 149.356 63.51 149.356 63.51" stroke="black" stroke-width="0.8081" stroke-miterlimit="10"/>
</svg>
