<svg width="208" height="743" viewBox="0 0 208 743" fill="none" xmlns="http://www.w3.org/2000/svg">
<path d="M29.47 397.691C31.2383 387.64 26.0128 378.789 23.1789 375.619C20.2886 372.903 25.5967 362.716 26.0693 360C33.7205 316.027 33.3806 317.894 33.3806 310.594C33.3806 303.293 32.5304 285.806 33.3806 273.412C34.2307 261.018 40.5218 264.414 40.1817 246.756C39.8417 229.099 44.2624 214.159 44.9425 211.952C45.6226 209.744 47.833 205.33 47.3229 220.271C46.8128 235.211 50.7235 242.342 53.1039 255.755C55.4843 269.167 48.3431 305.161 46.4728 312.461C44.6025 319.762 37.4613 377.317 37.6313 386.655C37.8013 395.993 37.9714 430.458 38.6515 435.552C39.3316 440.645 43.5823 493.277 42.052 507.199C40.5218 521.121 35.5909 563.735 35.5909 565.264C35.5909 566.792 32.5304 602.276 40.5218 614.839C48.5131 627.403 55.8244 677.488 54.8042 686.486C51.0636 701.257 54.4641 696.334 49.8734 707.2C45.2826 718.065 41.882 730.29 41.3719 735.892C40.8618 741.495 48.1731 740.646 51.5736 740.646C64.8359 739.458 69.5967 739.797 69.9367 740.646C70.2768 741.495 69.5967 742.174 71.467 742.853C78.6082 743.872 81.6687 739.288 81.6687 738.269C81.6687 737.251 82.3488 736.062 83.0289 727.234C83.573 720.171 82.3488 712.519 81.6687 709.576C81.272 707.765 80.7166 702.717 81.6687 697.013L81.7259 696.671C82.8747 689.793 83.3333 687.048 81.1586 679.865C78.9483 672.564 77.0779 664.755 76.7379 654.398C76.3978 644.041 77.7581 623.668 78.6082 619.763C79.4583 615.858 85.7494 583.26 81.1586 565.264C76.5679 547.267 78.2681 540.306 84.0491 526.214C89.8301 512.122 93.0606 457.453 93.2307 443.022C93.4007 428.591 100.712 417.895 101.732 413.65C102.752 409.406 102.752 398.879 102.922 396.842C103.058 395.212 104.112 394.804 104.623 394.804V0.066203C98.5016 -0.273357 92.8906 0.745323 88.4699 1.93378C67.7264 8.5552 71.297 38.2667 71.297 41.8321C71.297 45.3974 71.637 45.9068 71.297 46.4161C66.3661 48.1139 68.2365 55.5842 68.5765 63.0545C68.9166 70.5249 74.6975 69.3364 74.6975 71.7133C74.5275 85.2957 79.4583 83.0886 81.3287 89.3704C85.5794 103.632 82.5189 112.121 80.6485 113.479C61.4353 127.231 50.8935 126.552 38.6515 128.42C4.47571 138.097 10.0867 166.96 5.32585 187.673C0.565046 208.386 2.26546 229.269 2.26546 237.418C2.26546 245.568 5.15587 247.775 2.26546 264.244C-0.624954 280.712 -0.115022 287.673 0.395064 294.125C0.90515 300.577 3.28555 335.721 3.11552 352.19C2.94549 368.658 2.60551 377.317 2.26546 380.883C1.9254 384.448 -0.284974 391.069 0.0550835 410.594C0.395141 430.119 18.0781 442.173 24.5392 444.55C29.7081 446.451 30.6602 445.342 30.4902 444.55C29.8101 441.833 30.4902 439.966 30.8303 439.796C33.2107 439.796 31.8504 437.249 31.5104 436.91C25.9334 431.884 24.9926 429.27 25.2193 428.591C32.0205 429.779 29.47 426.553 28.4499 425.704C20.5605 420.815 16.2078 415.631 15.0176 413.65C12.7052 409.439 12.9773 405.84 13.8274 403.973C15.0176 401.935 17.9931 402.954 18.4181 404.652C19.9144 410.628 22.2155 415.744 23.1789 417.555C24.5392 420.611 29.9315 419.762 28.9599 416.367C27.5997 411.613 27.2596 410.254 29.47 397.691Z" fill="#F3F2F0"/>
<path d="M178.53 397.691C176.762 387.64 181.987 378.789 184.821 375.619C187.711 372.903 182.403 362.716 181.931 360C174.279 316.027 174.619 317.894 174.619 310.594C174.619 303.293 175.47 285.806 174.619 273.412C173.769 261.018 167.478 264.414 167.818 246.756C168.158 229.099 163.738 214.159 163.057 211.952C162.377 209.744 160.167 205.33 160.677 220.271C161.187 235.211 157.277 242.342 154.896 255.755C152.516 269.167 159.657 305.161 161.527 312.461C163.398 319.762 170.539 377.317 170.369 386.655C170.199 395.993 170.029 430.458 169.349 435.552C168.668 440.645 164.418 493.277 165.948 507.199C167.478 521.121 172.409 563.735 172.409 565.264C172.409 566.792 175.47 602.276 167.478 614.839C159.487 627.403 152.176 677.488 153.196 686.486C156.936 701.257 153.536 696.334 158.127 707.2C162.717 718.065 166.118 730.29 166.628 735.892C167.138 741.495 159.827 740.646 156.426 740.646C143.164 739.458 138.403 739.797 138.063 740.646C137.723 741.495 138.403 742.174 136.533 742.853C129.392 743.872 126.331 739.288 126.331 738.269C126.331 737.251 125.651 736.062 124.971 727.234C124.427 720.171 125.651 712.519 126.331 709.576C126.728 707.765 127.283 702.717 126.331 697.013L126.274 696.671C125.125 689.793 124.667 687.048 126.841 679.865C129.052 672.564 130.922 664.755 131.262 654.398C131.602 644.041 130.242 623.668 129.392 619.763C128.542 615.858 122.251 583.26 126.841 565.264C131.432 547.267 129.732 540.306 123.951 526.214C118.17 512.122 114.939 457.453 114.769 443.022C114.599 428.591 107.288 417.895 106.268 413.65C105.248 409.406 105.248 398.879 105.078 396.842C104.942 395.212 103.888 394.804 103.377 394.804V0.066203C109.498 -0.273357 115.109 0.745323 119.53 1.93378C140.274 8.5552 136.703 38.2667 136.703 41.8321C136.703 45.3974 136.363 45.9068 136.703 46.4161C141.634 48.1139 139.764 55.5842 139.423 63.0545C139.083 70.5249 133.302 69.3364 133.302 71.7133C133.472 85.2957 128.542 83.0886 126.671 89.3704C122.421 103.632 125.481 112.121 127.351 113.479C146.565 127.231 157.106 126.552 169.349 128.42C203.524 138.097 197.913 166.96 202.674 187.673C207.435 208.386 205.735 229.269 205.735 237.418C205.735 245.568 202.844 247.775 205.735 264.244C208.625 280.712 208.115 287.673 207.605 294.125C207.095 300.577 204.714 335.721 204.884 352.19C205.055 368.658 205.394 377.317 205.735 380.883C206.075 384.448 208.285 391.069 207.945 410.594C207.605 430.119 189.922 442.173 183.461 444.55C178.292 446.451 177.34 445.342 177.51 444.55C178.19 441.833 177.51 439.966 177.17 439.796C174.789 439.796 176.15 437.249 176.49 436.91C182.067 431.884 183.007 429.27 182.781 428.591C175.98 429.779 178.53 426.553 179.55 425.704C187.439 420.815 191.792 415.631 192.982 413.65C195.295 409.439 195.023 405.84 194.173 403.973C192.982 401.935 190.007 402.954 189.582 404.652C188.086 410.628 185.785 415.744 184.821 417.555C183.461 420.611 178.069 419.762 179.04 416.367C180.4 411.613 180.74 410.254 178.53 397.691Z" fill="#F3F2F0"/>
</svg>
