<svg width="653" height="2333" viewBox="0 0 653 2333" fill="none" xmlns="http://www.w3.org/2000/svg">
<g filter="url(#filter0_i)">
<path d="M92.519 1248.2C98.07 1216.66 81.665 1188.88 72.769 1178.93C63.694 1170.4 80.359 1138.43 81.843 1129.9C105.863 991.89 104.796 997.75 104.796 974.84C104.796 951.92 102.127 897.04 104.796 858.14C107.465 819.24 127.215 829.9 126.147 774.48C125.08 719.057 138.958 672.164 141.094 665.237C143.229 658.309 150.168 644.455 148.567 691.348C146.965 738.241 159.243 760.62 166.716 802.72C174.189 844.82 151.769 957.79 145.898 980.7C140.026 1003.61 117.607 1184.26 118.141 1213.57C118.674 1242.87 119.208 1351.05 121.343 1367.03C123.478 1383.02 136.823 1548.21 132.019 1591.91C127.215 1635.6 111.735 1769.36 111.735 1774.15C111.735 1778.95 102.127 1890.32 127.215 1929.75C152.303 1969.18 175.256 2126.38 172.054 2154.62C160.31 2200.98 170.986 2185.53 156.574 2219.64C142.161 2253.74 131.485 2292.11 129.884 2309.69C128.283 2327.28 151.236 2324.61 161.911 2324.61C203.547 2320.88 218.493 2321.95 219.561 2324.61C220.629 2327.28 218.493 2329.41 224.365 2331.54C246.784 2334.74 256.393 2320.35 256.393 2317.15C256.393 2313.95 258.528 2310.22 260.663 2282.51C262.371 2260.35 258.528 2236.33 256.393 2227.1C255.147 2221.41 253.403 2205.57 256.393 2187.66L256.572 2186.59C260.179 2165 261.618 2156.39 254.791 2133.84C247.852 2110.93 241.98 2086.42 240.913 2053.91C239.845 2021.41 244.115 1957.46 246.784 1945.2C249.453 1932.95 269.204 1830.64 254.791 1774.15C240.379 1717.67 245.717 1695.82 263.866 1651.59C282.015 1607.36 292.157 1435.78 292.69 1390.48C293.224 1345.19 316.177 1311.62 319.38 1298.29C322.583 1284.97 322.583 1251.93 323.117 1245.54C323.544 1240.42 326.853 1239.14 328.455 1239.14V0.208007C309.238 -0.857993 291.623 2.33902 277.744 6.06902C212.622 26.852 223.831 120.105 223.831 131.295C223.831 142.486 224.899 144.084 223.831 145.683C208.351 151.012 214.223 174.458 215.291 197.905C216.358 221.351 234.507 217.621 234.507 225.081C233.973 267.711 249.453 260.784 255.325 280.5C268.67 325.262 259.062 351.906 253.19 356.169C192.871 399.332 159.776 397.2 121.343 403.062C14.051 433.436 31.666 524.025 16.72 589.036C1.77403 654.046 7.11203 719.59 7.11203 745.168C7.11203 770.75 16.186 777.67 7.11203 829.36C-1.96197 881.05 -0.360965 902.9 1.24003 923.15C2.84203 943.4 10.315 1053.7 9.78103 1105.39C9.24703 1157.08 8.18003 1184.26 7.11203 1195.45C6.04503 1206.64 -0.894967 1227.42 0.173033 1288.7C1.24103 1349.98 56.755 1387.82 77.039 1395.28C93.266 1401.24 96.255 1397.76 95.722 1395.28C93.587 1386.75 95.722 1380.89 96.789 1380.36C104.262 1380.36 99.992 1372.36 98.924 1371.3C81.416 1355.52 78.462 1347.32 79.174 1345.19C100.526 1348.92 92.519 1338.79 89.316 1336.13C64.548 1320.78 50.883 1304.51 47.147 1298.29C39.887 1285.08 40.741 1273.78 43.41 1267.92C47.147 1261.52 56.488 1264.72 57.822 1270.05C62.52 1288.81 69.744 1304.87 72.769 1310.55C77.039 1320.14 93.968 1317.48 90.917 1306.82C86.647 1291.9 85.58 1287.64 92.519 1248.2Z" fill="white"/>
<path d="M560.481 1248.2C554.93 1216.66 571.335 1188.88 580.231 1178.93C589.306 1170.4 572.641 1138.43 571.157 1129.9C547.137 991.89 548.204 997.75 548.204 974.84C548.204 951.92 550.873 897.04 548.204 858.14C545.535 819.24 525.785 829.9 526.853 774.48C527.92 719.057 514.042 672.164 511.906 665.237C509.771 658.309 502.832 644.455 504.433 691.348C506.035 738.241 493.757 760.62 486.284 802.72C478.811 844.82 501.231 957.79 507.102 980.7C512.974 1003.61 535.393 1184.26 534.859 1213.57C534.326 1242.87 533.792 1351.05 531.657 1367.03C529.522 1383.02 516.177 1548.21 520.981 1591.91C525.785 1635.6 541.265 1769.36 541.265 1774.15C541.265 1778.95 550.873 1890.32 525.785 1929.75C500.697 1969.18 477.744 2126.38 480.946 2154.62C492.69 2200.98 482.014 2185.53 496.426 2219.64C510.839 2253.74 521.515 2292.11 523.116 2309.69C524.717 2327.28 501.764 2324.61 491.089 2324.61C449.453 2320.88 434.507 2321.95 433.439 2324.61C432.371 2327.28 434.507 2329.41 428.635 2331.54C406.216 2334.74 396.607 2320.35 396.607 2317.15C396.607 2313.95 394.472 2310.22 392.337 2282.51C390.629 2260.35 394.472 2236.33 396.607 2227.1C397.853 2221.41 399.597 2205.57 396.607 2187.66L396.428 2186.59C392.821 2165 391.382 2156.39 398.209 2133.84C405.148 2110.93 411.02 2086.42 412.087 2053.91C413.155 2021.41 408.885 1957.46 406.216 1945.2C403.547 1932.95 383.796 1830.64 398.209 1774.15C412.621 1717.67 407.283 1695.82 389.134 1651.59C370.985 1607.36 360.843 1435.78 360.309 1390.48C359.776 1345.19 336.823 1311.62 333.62 1298.29C330.417 1284.97 330.417 1251.93 329.883 1245.54C329.456 1240.42 326.147 1239.14 324.545 1239.14V0.208007C343.762 -0.857993 361.377 2.33902 375.256 6.06902C440.378 26.852 429.169 120.105 429.169 131.295C429.169 142.486 428.101 144.084 429.169 145.683C444.649 151.012 438.777 174.458 437.709 197.905C436.642 221.351 418.493 217.621 418.493 225.081C419.027 267.711 403.547 260.784 397.675 280.5C384.33 325.262 393.938 351.906 399.81 356.169C460.129 399.332 493.224 397.2 531.657 403.062C638.949 433.436 621.334 524.025 636.28 589.036C651.226 654.046 645.888 719.59 645.888 745.168C645.888 770.75 636.814 777.67 645.888 829.36C654.962 881.05 653.361 902.9 651.76 923.15C650.158 943.4 642.685 1053.7 643.219 1105.39C643.753 1157.08 644.82 1184.26 645.888 1195.45C646.955 1206.64 653.895 1227.42 652.827 1288.7C651.759 1349.98 596.245 1387.82 575.961 1395.28C559.734 1401.24 556.745 1397.76 557.278 1395.28C559.413 1386.75 557.278 1380.89 556.211 1380.36C548.738 1380.36 553.008 1372.36 554.076 1371.3C571.584 1355.52 574.538 1347.32 573.826 1345.19C552.474 1348.92 560.481 1338.79 563.684 1336.13C588.452 1320.78 602.117 1304.51 605.853 1298.29C613.113 1285.08 612.259 1273.78 609.59 1267.92C605.853 1261.52 596.512 1264.72 595.178 1270.05C590.48 1288.81 583.256 1304.87 580.231 1310.55C575.961 1320.14 559.032 1317.48 562.083 1306.82C566.353 1291.9 567.42 1287.64 560.481 1248.2Z" fill="white"/>
</g>
<defs>
<filter id="filter0_i" x="0" y="0.00012207" width="653" height="2336" filterUnits="userSpaceOnUse" color-interpolation-filters="sRGB">
<feFlood flood-opacity="0" result="BackgroundImageFix"/>
<feBlend mode="normal" in="SourceGraphic" in2="BackgroundImageFix" result="shape"/>
<feColorMatrix in="SourceAlpha" type="matrix" values="0 0 0 0 0 0 0 0 0 0 0 0 0 0 0 0 0 0 127 0" result="hardAlpha"/>
<feOffset dy="4"/>
<feGaussianBlur stdDeviation="125"/>
<feComposite in2="hardAlpha" operator="arithmetic" k2="-1" k3="1"/>
<feColorMatrix type="matrix" values="0 0 0 0 0 0 0 0 0 0 0 0 0 0 0 0 0 0 0.14 0"/>
<feBlend mode="normal" in2="shape" result="effect1_innerShadow"/>
</filter>
</defs>
</svg>
