<svg width="22" height="18" viewBox="0 0 22 18" fill="none" xmlns="http://www.w3.org/2000/svg">
<path d="M15.3838 7.87578H18.1253V6.06641C17.7268 6.54964 17.1753 6.99102 16.4843 7.37103C16.1297 7.56472 15.7619 7.73338 15.3838 7.87578V7.87578Z" fill="white"/>
<path d="M11 5.25C12.864 5.25 14.375 4.74632 14.375 4.125C14.375 3.50368 12.864 3 11 3C9.13604 3 7.625 3.50368 7.625 4.125C7.625 4.74632 9.13604 5.25 11 5.25Z" fill="white"/>
<path d="M5.87745 1.53675C4.58614 2.247 3.875 3.16613 3.875 4.125C3.875 5.08387 4.58614 6.003 5.87745 6.71325C7.23955 7.4625 9.05881 7.875 11 7.875C12.9412 7.875 14.7605 7.4625 16.1225 6.71325C17.4139 6.003 18.125 5.08387 18.125 4.125C18.125 3.16613 17.4139 2.247 16.1225 1.53675C14.7605 0.7875 12.9412 0.375 11 0.375C9.05881 0.375 7.23955 0.7875 5.87745 1.53675ZM15.125 4.125C15.125 4.68942 14.6512 5.18972 13.7909 5.53383C13.0394 5.83444 12.0482 6 11 6C9.95178 6 8.96061 5.83444 8.20906 5.53383C7.34877 5.18972 6.875 4.68942 6.875 4.125C6.875 3.56058 7.34877 3.06028 8.20906 2.71617C8.96061 2.41556 9.95178 2.25 11 2.25C12.0482 2.25 13.0394 2.41556 13.7909 2.71617C14.6512 3.06028 15.125 3.56058 15.125 4.125Z" fill="white"/>
<path d="M20 13.7794V14.6243H19.25V13.8743H18.125V14.6243H17.375V13.8743H16.25V16.1243H15.5V13.8743H14.375V14.6243H13.625V13.8743H12.5V14.6243H11.75V13.8743H10.625V16.1243H9.875V13.8743H8.75V14.6243H8V13.8743H6.875V14.6243H6.125V13.8743H5V17.6243H19.25C19.8465 17.6237 20.4184 17.3864 20.8402 16.9646C21.262 16.5428 21.4993 15.9709 21.5 15.3743V12.8555C21.1036 13.3065 20.5811 13.6283 20 13.7794Z" fill="white"/>
<path d="M4.25 13.875H0.5V17.625H4.25V13.875ZM2 16.875H1.25V14.625H2V16.875ZM3.5 16.875H2.75V16.125H3.5V16.875ZM3.5 15.375H2.75V14.625H3.5V15.375Z" fill="white"/>
<path d="M20 8.75464V9.37564H19.25V8.62564H18.125V9.37564H17.375V8.62564H16.25V10.8756H15.5V8.62564H14.375V9.37564H13.625V8.62564H12.5V9.37564H11.75V8.62564H11C10.8745 8.62564 10.7495 8.62399 10.625 8.62067V10.8756H9.875V8.58083C9.49255 8.55017 9.1167 8.50405 8.75 8.44278V9.37564H8V8.29344C7.6195 8.20576 7.24397 8.09779 6.875 7.97V9.37564H6.125V7.673C5.91425 7.57878 5.71125 7.47813 5.516 7.37103C4.82502 6.99102 4.27381 6.54964 3.875 6.06641V9.37564C3.875 10.3345 4.58614 11.2536 5.87745 11.9639C7.23955 12.7131 9.05881 13.1256 11 13.1256H19.25C19.7806 13.1254 20.2941 12.9377 20.6997 12.5956C21.1053 12.2535 21.377 11.7791 21.4667 11.2561C21.5564 10.7332 21.4584 10.1953 21.1901 9.73761C20.9217 9.27988 20.5002 8.93172 20 8.75464V8.75464Z" fill="white"/>
</svg>
