<svg width="207" height="55" viewBox="0 0 207 55" fill="none" xmlns="http://www.w3.org/2000/svg">
<g clip-path="url(#clip0)">
<path d="M52.1232 49.2517H21.2928C11.3624 49.2517 3.32568 41.227 3.32568 31.3629V3.8399H34.1792C44.1096 3.8399 52.1463 11.8646 52.1463 21.7287V49.2517H52.1232Z" fill="white"/>
<path d="M46.465 42.8595C45.957 42.9745 45.4027 43.0665 44.8254 43.0895C44.2942 43.1125 43.7399 43.1355 43.1395 43.1355L37.3891 42.9515L37.0196 41.9858L37.1813 41.8478C37.5277 41.5489 38.0819 40.9741 38.8209 40.1923C39.5369 39.4105 40.6223 38.2379 42.1465 36.6054C42.7007 36.0075 43.255 35.3407 43.8554 34.6049C44.4328 33.8691 44.9639 33.0874 45.4489 32.2826C45.8877 31.5468 46.0263 30.972 46.211 30.1212L46.2341 30.0293C46.4419 29.1785 46.3958 28.6727 46.3727 28.1438C46.3727 27.9599 46.3496 27.7529 46.3496 27.523C46.3496 26.8102 46.2341 26.1434 45.9801 25.5226C45.726 24.9707 45.1487 24.143 45.1487 24.143C44.9408 23.8901 44.733 23.6601 44.479 23.4532C43.9016 22.9473 43.2088 22.5564 42.4467 22.2575C41.6846 21.9816 40.8532 21.8207 39.9987 21.8207C39.0981 21.8207 38.2898 21.9816 37.597 22.2805C36.9041 22.6024 36.3037 23.0163 35.7956 23.5681C35.2876 24.12 34.8719 24.7638 34.5486 25.5226C34.5024 25.6145 34.4793 25.6835 34.4562 25.7755C34.6409 25.5686 34.8257 25.3386 35.0335 25.1547C35.4492 24.7178 35.9342 24.3729 36.4654 24.074C37.0427 23.7751 37.7586 23.6141 38.6362 23.6141C39.4907 23.6141 40.2759 23.7751 40.9687 24.097C41.6615 24.4189 42.2619 24.8328 42.7469 25.3846C43.2319 25.9135 43.6014 26.5573 43.8554 27.2471C44.1095 27.9369 44.2249 28.6727 44.2249 29.4314C44.2249 30.5351 43.9709 31.6848 43.4628 32.8344C42.9778 33.9611 42.2619 35.1338 41.3844 36.3754C40.9456 36.9962 40.3682 37.686 39.6523 38.3988C39.5138 38.5368 39.3521 38.6977 39.2135 38.8357L38.105 39.9624C37.8972 40.1693 37.6893 40.3763 37.4815 40.5832C36.7194 41.365 35.9573 42.1927 35.1721 43.0895C34.664 43.6643 34.1791 44.2851 33.7403 44.9289H46.6036C46.6498 44.8829 46.7191 44.791 46.7884 44.63C46.9962 44.2621 47.2271 43.8023 47.435 43.2734C47.5735 42.9285 47.689 42.5836 47.8045 42.2387C47.3888 42.5606 46.9269 42.7446 46.465 42.8595ZM46.465 42.8595C45.957 42.9745 45.4027 43.0665 44.8254 43.0895C44.2942 43.1125 43.7399 43.1355 43.1395 43.1355L37.3891 42.9515L37.0196 41.9858L37.1813 41.8478C37.5277 41.5489 38.0819 40.9741 38.8209 40.1923C39.5369 39.4105 40.6223 38.2379 42.1465 36.6054C42.7007 36.0075 43.255 35.3407 43.8554 34.6049C44.4328 33.8691 44.9639 33.0874 45.4489 32.2826C45.8877 31.5468 46.0263 30.972 46.211 30.1212L46.2341 30.0293C46.4419 29.1785 46.3958 28.6727 46.3727 28.1438C46.3727 27.9599 46.3496 27.7529 46.3496 27.523C46.3496 26.8102 46.2341 26.1434 45.9801 25.5226C45.726 24.9707 45.1487 24.143 45.1487 24.143C44.9408 23.8901 44.733 23.6601 44.479 23.4532C43.9016 22.9473 43.2088 22.5564 42.4467 22.2575C41.6846 21.9816 40.8532 21.8207 39.9987 21.8207C39.0981 21.8207 38.2898 21.9816 37.597 22.2805C36.9041 22.6024 36.3037 23.0163 35.7956 23.5681C35.2876 24.12 34.8719 24.7638 34.5486 25.5226C34.5024 25.6145 34.4793 25.6835 34.4562 25.7755C34.6409 25.5686 34.8257 25.3386 35.0335 25.1547C35.4492 24.7178 35.9342 24.3729 36.4654 24.074C37.0427 23.7751 37.7586 23.6141 38.6362 23.6141C39.4907 23.6141 40.2759 23.7751 40.9687 24.097C41.6615 24.4189 42.2619 24.8328 42.7469 25.3846C43.2319 25.9135 43.6014 26.5573 43.8554 27.2471C44.1095 27.9369 44.2249 28.6727 44.2249 29.4314C44.2249 30.5351 43.9709 31.6848 43.4628 32.8344C42.9778 33.9611 42.2619 35.1338 41.3844 36.3754C40.9456 36.9962 40.3682 37.686 39.6523 38.3988C39.5138 38.5368 39.3521 38.6977 39.2135 38.8357L38.105 39.9624C37.8972 40.1693 37.6893 40.3763 37.4815 40.5832C36.7194 41.365 35.9573 42.1927 35.1721 43.0895C34.664 43.6643 34.1791 44.2851 33.7403 44.9289H46.6036C46.6498 44.8829 46.7191 44.791 46.7884 44.63C46.9962 44.2621 47.2271 43.8023 47.435 43.2734C47.5735 42.9285 47.689 42.5836 47.8045 42.2387C47.3888 42.5606 46.9269 42.7446 46.465 42.8595ZM46.465 42.8595C45.957 42.9745 45.4027 43.0665 44.8254 43.0895C44.2942 43.1125 43.7399 43.1355 43.1395 43.1355L37.3891 42.9515L37.0196 41.9858L37.1813 41.8478C37.5277 41.5489 38.0819 40.9741 38.8209 40.1923C39.5369 39.4105 40.6223 38.2379 42.1465 36.6054C42.7007 36.0075 43.255 35.3407 43.8554 34.6049C44.4328 33.8691 44.9639 33.0874 45.4489 32.2826C45.8877 31.5468 46.0263 30.972 46.211 30.1212L46.2341 30.0293C46.4419 29.1785 46.3958 28.6727 46.3727 28.1438C46.3727 27.9599 46.3496 27.7529 46.3496 27.523C46.3496 26.8102 46.2341 26.1434 45.9801 25.5226C45.726 24.9707 45.1487 24.143 45.1487 24.143C44.9408 23.8901 44.733 23.6601 44.479 23.4532C43.9016 22.9473 43.2088 22.5564 42.4467 22.2575C41.6846 21.9816 40.8532 21.8207 39.9987 21.8207C39.0981 21.8207 38.2898 21.9816 37.597 22.2805C36.9041 22.6024 36.3037 23.0163 35.7956 23.5681C35.2876 24.12 34.8719 24.7638 34.5486 25.5226C34.5024 25.6145 34.4793 25.6835 34.4562 25.7755C34.6409 25.5686 34.8257 25.3386 35.0335 25.1547C35.4492 24.7178 35.9342 24.3729 36.4654 24.074C37.0427 23.7751 37.7586 23.6141 38.6362 23.6141C39.4907 23.6141 40.2759 23.7751 40.9687 24.097C41.6615 24.4189 42.2619 24.8328 42.7469 25.3846C43.2319 25.9135 43.6014 26.5573 43.8554 27.2471C44.1095 27.9369 44.2249 28.6727 44.2249 29.4314C44.2249 30.5351 43.9709 31.6848 43.4628 32.8344C42.9778 33.9611 42.2619 35.1338 41.3844 36.3754C40.9456 36.9962 40.3682 37.686 39.6523 38.3988C39.5138 38.5368 39.3521 38.6977 39.2135 38.8357L38.105 39.9624C37.8972 40.1693 37.6893 40.3763 37.4815 40.5832C36.7194 41.365 35.9573 42.1927 35.1721 43.0895C34.664 43.6643 34.1791 44.2851 33.7403 44.9289H46.6036C46.6498 44.8829 46.7191 44.791 46.7884 44.63C46.9962 44.2621 47.2271 43.8023 47.435 43.2734C47.5735 42.9285 47.689 42.5836 47.8045 42.2387C47.3888 42.5606 46.9269 42.7446 46.465 42.8595ZM46.465 42.8595C45.957 42.9745 45.4027 43.0665 44.8254 43.0895C44.2942 43.1125 43.7399 43.1355 43.1395 43.1355L37.3891 42.9515L37.0196 41.9858L37.1813 41.8478C37.5277 41.5489 38.0819 40.9741 38.8209 40.1923C39.5369 39.4105 40.6223 38.2379 42.1465 36.6054C42.7007 36.0075 43.255 35.3407 43.8554 34.6049C44.4328 33.8691 44.9639 33.0874 45.4489 32.2826C45.8877 31.5468 46.0263 30.972 46.211 30.1212L46.2341 30.0293C46.4419 29.1785 46.3958 28.6727 46.3727 28.1438C46.3727 27.9599 46.3496 27.7529 46.3496 27.523C46.3496 26.8102 46.2341 26.1434 45.9801 25.5226C45.726 24.9707 45.1487 24.143 45.1487 24.143C44.9408 23.8901 44.733 23.6601 44.479 23.4532C43.9016 22.9473 43.2088 22.5564 42.4467 22.2575C41.6846 21.9816 40.8532 21.8207 39.9987 21.8207C39.0981 21.8207 38.2898 21.9816 37.597 22.2805C36.9041 22.6024 36.3037 23.0163 35.7956 23.5681C35.2876 24.12 34.8719 24.7638 34.5486 25.5226C34.5024 25.6145 34.4793 25.6835 34.4562 25.7755C34.6409 25.5686 34.8257 25.3386 35.0335 25.1547C35.4492 24.7178 35.9342 24.3729 36.4654 24.074C37.0427 23.7751 37.7586 23.6141 38.6362 23.6141C39.4907 23.6141 40.2759 23.7751 40.9687 24.097C41.6615 24.4189 42.2619 24.8328 42.7469 25.3846C43.2319 25.9135 43.6014 26.5573 43.8554 27.2471C44.1095 27.9369 44.2249 28.6727 44.2249 29.4314C44.2249 30.5351 43.9709 31.6848 43.4628 32.8344C42.9778 33.9611 42.2619 35.1338 41.3844 36.3754C40.9456 36.9962 40.3682 37.686 39.6523 38.3988C39.5138 38.5368 39.3521 38.6977 39.2135 38.8357L38.105 39.9624C37.8972 40.1693 37.6893 40.3763 37.4815 40.5832C36.7194 41.365 35.9573 42.1927 35.1721 43.0895C34.664 43.6643 34.1791 44.2851 33.7403 44.9289H46.6036C46.6498 44.8829 46.7191 44.791 46.7884 44.63C46.9962 44.2621 47.2271 43.8023 47.435 43.2734C47.5735 42.9285 47.689 42.5836 47.8045 42.2387C47.3888 42.5606 46.9269 42.7446 46.465 42.8595ZM46.465 42.8595C45.957 42.9745 45.4027 43.0665 44.8254 43.0895C44.2942 43.1125 43.7399 43.1355 43.1395 43.1355L37.3891 42.9515L37.0196 41.9858L37.1813 41.8478C37.5277 41.5489 38.0819 40.9741 38.8209 40.1923C39.5369 39.4105 40.6223 38.2379 42.1465 36.6054C42.7007 36.0075 43.255 35.3407 43.8554 34.6049C44.4328 33.8691 44.9639 33.0874 45.4489 32.2826C45.8877 31.5468 46.0263 30.972 46.211 30.1212L46.2341 30.0293C46.4419 29.1785 46.3958 28.6727 46.3727 28.1438C46.3727 27.9599 46.3496 27.7529 46.3496 27.523C46.3496 26.8102 46.2341 26.1434 45.9801 25.5226C45.726 24.9707 45.1487 24.143 45.1487 24.143C44.9408 23.8901 44.733 23.6601 44.479 23.4532C43.9016 22.9473 43.2088 22.5564 42.4467 22.2575C41.6846 21.9816 40.8532 21.8207 39.9987 21.8207C39.0981 21.8207 38.2898 21.9816 37.597 22.2805C36.9041 22.6024 36.3037 23.0163 35.7956 23.5681C35.2876 24.12 34.8719 24.7638 34.5486 25.5226C34.5024 25.6145 34.4793 25.6835 34.4562 25.7755C34.6409 25.5686 34.8257 25.3386 35.0335 25.1547C35.4492 24.7178 35.9342 24.3729 36.4654 24.074C37.0427 23.7751 37.7586 23.6141 38.6362 23.6141C39.4907 23.6141 40.2759 23.7751 40.9687 24.097C41.6615 24.4189 42.2619 24.8328 42.7469 25.3846C43.2319 25.9135 43.6014 26.5573 43.8554 27.2471C44.1095 27.9369 44.2249 28.6727 44.2249 29.4314C44.2249 30.5351 43.9709 31.6848 43.4628 32.8344C42.9778 33.9611 42.2619 35.1338 41.3844 36.3754C40.9456 36.9962 40.3682 37.686 39.6523 38.3988C39.5138 38.5368 39.3521 38.6977 39.2135 38.8357L38.105 39.9624C37.8972 40.1693 37.6893 40.3763 37.4815 40.5832C36.7194 41.365 35.9573 42.1927 35.1721 43.0895C34.664 43.6643 34.1791 44.2851 33.7403 44.9289H46.6036C46.6498 44.8829 46.7191 44.791 46.7884 44.63C46.9962 44.2621 47.2271 43.8023 47.435 43.2734C47.5735 42.9285 47.689 42.5836 47.8045 42.2387C47.3888 42.5606 46.9269 42.7446 46.465 42.8595ZM46.465 42.8595C45.957 42.9745 45.4027 43.0665 44.8254 43.0895C44.2942 43.1125 43.7399 43.1355 43.1395 43.1355L37.3891 42.9515L37.0196 41.9858L37.1813 41.8478C37.5277 41.5489 38.0819 40.9741 38.8209 40.1923C39.5369 39.4105 40.6223 38.2379 42.1465 36.6054C42.7007 36.0075 43.255 35.3407 43.8554 34.6049C44.4328 33.8691 44.9639 33.0874 45.4489 32.2826C45.8877 31.5468 46.0263 30.972 46.211 30.1212L46.2341 30.0293C46.4419 29.1785 46.3958 28.6727 46.3727 28.1438C46.3727 27.9599 46.3496 27.7529 46.3496 27.523C46.3496 26.8102 46.2341 26.1434 45.9801 25.5226C45.726 24.9707 45.1487 24.143 45.1487 24.143C44.9408 23.8901 44.733 23.6601 44.479 23.4532C43.9016 22.9473 43.2088 22.5564 42.4467 22.2575C41.6846 21.9816 40.8532 21.8207 39.9987 21.8207C39.0981 21.8207 38.2898 21.9816 37.597 22.2805C36.9041 22.6024 36.3037 23.0163 35.7956 23.5681C35.2876 24.12 34.8719 24.7638 34.5486 25.5226C34.5024 25.6145 34.4793 25.6835 34.4562 25.7755C34.6409 25.5686 34.8257 25.3386 35.0335 25.1547C35.4492 24.7178 35.9342 24.3729 36.4654 24.074C37.0427 23.7751 37.7586 23.6141 38.6362 23.6141C39.4907 23.6141 40.2759 23.7751 40.9687 24.097C41.6615 24.4189 42.2619 24.8328 42.7469 25.3846C43.2319 25.9135 43.6014 26.5573 43.8554 27.2471C44.1095 27.9369 44.2249 28.6727 44.2249 29.4314C44.2249 30.5351 43.9709 31.6848 43.4628 32.8344C42.9778 33.9611 42.2619 35.1338 41.3844 36.3754C40.9456 36.9962 40.3682 37.686 39.6523 38.3988C39.5138 38.5368 39.3521 38.6977 39.2135 38.8357L38.105 39.9624C37.8972 40.1693 37.6893 40.3763 37.4815 40.5832C36.7194 41.365 35.9573 42.1927 35.1721 43.0895C34.664 43.6643 34.1791 44.2851 33.7403 44.9289H46.6036C46.6498 44.8829 46.7191 44.791 46.7884 44.63C46.9962 44.2621 47.2271 43.8023 47.435 43.2734C47.5735 42.9285 47.689 42.5836 47.8045 42.2387C47.3888 42.5606 46.9269 42.7446 46.465 42.8595ZM46.465 42.8595C45.957 42.9745 45.4027 43.0665 44.8254 43.0895C44.2942 43.1125 43.7399 43.1355 43.1395 43.1355L37.3891 42.9515L37.0196 41.9858L37.1813 41.8478C37.5277 41.5489 38.0819 40.9741 38.8209 40.1923C39.5369 39.4105 40.6223 38.2379 42.1465 36.6054C42.7007 36.0075 43.255 35.3407 43.8554 34.6049C44.4328 33.8691 44.9639 33.0874 45.4489 32.2826C45.8877 31.5468 46.0263 30.972 46.211 30.1212L46.2341 30.0293C46.4419 29.1785 46.3958 28.6727 46.3727 28.1438C46.3727 27.9599 46.3496 27.7529 46.3496 27.523C46.3496 26.8102 46.2341 26.1434 45.9801 25.5226C45.726 24.9707 45.1487 24.143 45.1487 24.143C44.9408 23.8901 44.733 23.6601 44.479 23.4532C43.9016 22.9473 43.2088 22.5564 42.4467 22.2575C41.6846 21.9816 40.8532 21.8207 39.9987 21.8207C39.0981 21.8207 38.2898 21.9816 37.597 22.2805C36.9041 22.6024 36.3037 23.0163 35.7956 23.5681C35.2876 24.12 34.8719 24.7638 34.5486 25.5226C34.5024 25.6145 34.4793 25.6835 34.4562 25.7755C34.6409 25.5686 34.8257 25.3386 35.0335 25.1547C35.4492 24.7178 35.9342 24.3729 36.4654 24.074C37.0427 23.7751 37.7586 23.6141 38.6362 23.6141C39.4907 23.6141 40.2759 23.7751 40.9687 24.097C41.6615 24.4189 42.2619 24.8328 42.7469 25.3846C43.2319 25.9135 43.6014 26.5573 43.8554 27.2471C44.1095 27.9369 44.2249 28.6727 44.2249 29.4314C44.2249 30.5351 43.9709 31.6848 43.4628 32.8344C42.9778 33.9611 42.2619 35.1338 41.3844 36.3754C40.9456 36.9962 40.3682 37.686 39.6523 38.3988C39.5138 38.5368 39.3521 38.6977 39.2135 38.8357L38.105 39.9624C37.8972 40.1693 37.6893 40.3763 37.4815 40.5832C36.7194 41.365 35.9573 42.1927 35.1721 43.0895C34.664 43.6643 34.1791 44.2851 33.7403 44.9289H46.6036C46.6498 44.8829 46.7191 44.791 46.7884 44.63C46.9962 44.2621 47.2271 43.8023 47.435 43.2734C47.5735 42.9285 47.689 42.5836 47.8045 42.2387C47.3888 42.5606 46.9269 42.7446 46.465 42.8595ZM46.465 42.8595C45.957 42.9745 45.4027 43.0665 44.8254 43.0895C44.2942 43.1125 43.7399 43.1355 43.1395 43.1355L37.3891 42.9515L37.0196 41.9858L37.1813 41.8478C37.5277 41.5489 38.0819 40.9741 38.8209 40.1923C39.5369 39.4105 40.6223 38.2379 42.1465 36.6054C42.7007 36.0075 43.255 35.3407 43.8554 34.6049C44.4328 33.8691 44.9639 33.0874 45.4489 32.2826C45.8877 31.5468 46.0263 30.972 46.211 30.1212L46.2341 30.0293C46.4419 29.1785 46.3958 28.6727 46.3727 28.1438C46.3727 27.9599 46.3496 27.7529 46.3496 27.523C46.3496 26.8102 46.2341 26.1434 45.9801 25.5226C45.726 24.9707 45.1487 24.143 45.1487 24.143C44.9408 23.8901 44.733 23.6601 44.479 23.4532C43.9016 22.9473 43.2088 22.5564 42.4467 22.2575C41.6846 21.9816 40.8532 21.8207 39.9987 21.8207C39.0981 21.8207 38.2898 21.9816 37.597 22.2805C36.9041 22.6024 36.3037 23.0163 35.7956 23.5681C35.2876 24.12 34.8719 24.7638 34.5486 25.5226C34.5024 25.6145 34.4793 25.6835 34.4562 25.7755C34.6409 25.5686 34.8257 25.3386 35.0335 25.1547C35.4492 24.7178 35.9342 24.3729 36.4654 24.074C37.0427 23.7751 37.7586 23.6141 38.6362 23.6141C39.4907 23.6141 40.2759 23.7751 40.9687 24.097C41.6615 24.4189 42.2619 24.8328 42.7469 25.3846C43.2319 25.9135 43.6014 26.5573 43.8554 27.2471C44.1095 27.9369 44.2249 28.6727 44.2249 29.4314C44.2249 30.5351 43.9709 31.6848 43.4628 32.8344C42.9778 33.9611 42.2619 35.1338 41.3844 36.3754C40.9456 36.9962 40.3682 37.686 39.6523 38.3988C39.5138 38.5368 39.3521 38.6977 39.2135 38.8357L38.105 39.9624C37.8972 40.1693 37.6893 40.3763 37.4815 40.5832C36.7194 41.365 35.9573 42.1927 35.1721 43.0895C34.664 43.6643 34.1791 44.2851 33.7403 44.9289H46.6036C46.6498 44.8829 46.7191 44.791 46.7884 44.63C46.9962 44.2621 47.2271 43.8023 47.435 43.2734C47.5735 42.9285 47.689 42.5836 47.8045 42.2387C47.3888 42.5606 46.9269 42.7446 46.465 42.8595ZM44.8254 43.0895C44.2942 43.1125 43.7399 43.1355 43.1395 43.1355L37.3891 42.9515L37.0196 41.9858L37.1813 41.8478C37.5277 41.5489 38.0819 40.9741 38.8209 40.1923C39.5369 39.4105 40.6223 38.2379 42.1465 36.6054C42.7007 36.0075 43.255 35.3407 43.8554 34.6049C44.4328 33.8691 44.9639 33.0874 45.4489 32.2826C45.8877 31.5468 46.0263 30.972 46.211 30.1212L46.2341 30.0293C46.4419 29.1785 46.3958 28.6727 46.3727 28.1438C46.3727 27.9599 46.3496 27.7529 46.3496 27.523C46.3496 26.8102 46.2341 26.1434 45.9801 25.5226C45.726 24.9707 45.1487 24.143 45.1487 24.143C44.9408 23.8901 44.733 23.6601 44.479 23.4532C43.9016 22.9473 43.2088 22.5564 42.4467 22.2575C41.6846 21.9816 40.8532 21.8207 39.9987 21.8207C39.0981 21.8207 38.2898 21.9816 37.597 22.2805C36.9041 22.6024 36.3037 23.0163 35.7956 23.5681C35.2876 24.12 34.8719 24.7638 34.5486 25.5226C34.5024 25.6145 34.4793 25.6835 34.4562 25.7755C34.6409 25.5686 34.8257 25.3386 35.0335 25.1547C35.4492 24.7178 35.9342 24.3729 36.4654 24.074C37.0427 23.7751 37.7586 23.6141 38.6362 23.6141C39.4907 23.6141 40.2759 23.7751 40.9687 24.097C41.6615 24.4189 42.2619 24.8328 42.7469 25.3846C43.2319 25.9135 43.6014 26.5573 43.8554 27.2471C44.1095 27.9369 44.2249 28.6727 44.2249 29.4314C44.2249 30.5351 43.9709 31.6848 43.4628 32.8344C42.9778 33.9611 42.2619 35.1338 41.3844 36.3754C40.9456 36.9962 40.3682 37.686 39.6523 38.3988C39.5138 38.5368 39.3521 38.6977 39.2135 38.8357L38.105 39.9624C37.8972 40.1693 37.6893 40.3763 37.4815 40.5832C36.7194 41.365 35.9573 42.1927 35.1721 43.0895C34.664 43.6643 34.1791 44.2851 33.7403 44.9289H46.6036C46.6498 44.8829 46.7191 44.791 46.7884 44.63C46.9962 44.2621 47.2271 43.8023 47.435 43.2734C47.5735 42.9285 47.689 42.5836 47.8045 42.2387C47.3657 42.4916 46.8807 42.6756 46.4188 42.7906C45.9339 42.9975 45.4027 43.0665 44.8254 43.0895ZM37.7817 0H0V37.6171C0 47.2283 7.82885 55.023 17.4821 55.023H55.2638V17.4059C55.2407 7.79473 47.435 0 37.7817 0ZM27.9899 7.93269H38.105L38.4745 8.96739L38.2898 9.10535C37.8972 9.40426 37.4584 9.6342 36.9965 9.77216C36.6963 9.86413 36.4192 10.0481 36.142 10.347C35.8649 10.6459 35.6109 11.1518 35.403 11.8645C35.1952 12.6003 35.0797 13.773 35.0797 15.3365V21.4068C34.9642 21.4987 34.8719 21.5907 34.7564 21.6827C34.6409 21.7747 34.5486 21.8896 34.4331 22.0046C34.41 22.0276 34.3869 22.0506 34.3869 22.0736L34.3638 22.0966C34.2714 22.2115 34.156 22.3265 34.0636 22.4185C33.9481 22.5564 33.8557 22.6714 33.7403 22.8094V15.3595C33.7403 13.658 33.8557 12.4164 34.1098 11.5196C34.3869 10.5999 34.7102 9.93311 35.1721 9.47324C35.2414 9.40426 35.3107 9.33528 35.3799 9.2663H30.6226C30.6919 9.33528 30.7381 9.40426 30.8073 9.47324C31.1999 9.91012 31.5232 10.5539 31.7773 11.4507C32.0082 12.3014 32.1237 13.4971 32.1237 15.1756V18.2567H30.8073V15.1296C30.8073 13.612 30.715 12.4854 30.5071 11.7726C30.3224 11.1058 30.0914 10.6229 29.8374 10.324C29.5834 10.0481 29.3293 9.86413 29.0522 9.77216C28.6134 9.6342 28.1746 9.40426 27.8051 9.10535L27.6204 8.96739L27.9899 7.93269ZM23.0709 43.2044C24.8953 43.2044 26.3271 42.8135 27.3201 42.0318C28.3363 41.227 29.1215 40.1923 29.6295 38.9507C30.1607 37.663 30.484 36.2375 30.6226 34.6969C30.7381 33.1104 30.8073 31.5468 30.8073 30.0982V20.2801H32.1237V30.0982C32.1237 31.5698 32.0544 33.1564 31.9389 34.7889C31.8004 36.4674 31.454 38.0309 30.8535 39.4565C30.2531 40.9051 29.3293 42.1237 28.1284 43.0665C26.9045 44.0322 25.1955 44.538 23.0478 44.538C21.2695 44.538 19.7915 44.1702 18.6599 43.4574C17.5283 42.7446 16.6276 41.7559 16.0041 40.5142C15.4037 39.3186 14.988 37.893 14.7801 36.2834C14.5723 34.7199 14.4799 33.0184 14.4799 31.2249V20.2801H15.7963V31.2479C15.7963 32.9724 15.8886 34.6279 16.0965 36.1225C16.2812 37.5941 16.6507 38.8587 17.205 39.9394C17.7362 40.9511 18.4521 41.7788 19.3758 42.3537C20.2996 42.9285 21.5236 43.2044 23.0709 43.2044ZM30.2993 44.561C28.1284 46.2395 25.2648 47.0903 21.8007 47.0903C20.4612 47.0903 19.1449 46.9523 17.9209 46.6994C16.6507 46.4235 15.496 45.9866 14.4337 45.3428C13.3714 44.722 12.4245 43.8482 11.5932 42.8135C10.7618 41.7788 10.0921 40.4682 9.5609 38.9277V38.9047C9.02974 37.1342 8.7757 34.0761 8.7757 29.5924V15.1296C8.7757 13.612 8.68333 12.4854 8.47548 11.7726C8.29073 11.1058 8.05979 10.6229 7.80576 10.324C7.55172 10.0481 7.29769 9.86413 7.04366 9.77216C6.62796 9.6342 6.21227 9.40426 5.81968 9.10535L5.63492 8.96739L6.00443 7.93269H18.4983L18.8909 8.9444L18.7292 9.08236C18.3828 9.38127 17.9671 9.6112 17.5283 9.77216C17.2743 9.86413 17.0202 10.0481 16.7662 10.324C16.5122 10.5999 16.2812 11.1058 16.0965 11.7726C15.8886 12.4854 15.7963 13.612 15.7963 15.1296V18.2107H14.4799V15.1296C14.4799 13.4741 14.5954 12.2554 14.8263 11.4047C15.0804 10.5309 15.3806 9.88712 15.7963 9.42726C15.8655 9.35828 15.9117 9.2893 15.981 9.22032H8.61404C8.68333 9.2893 8.75261 9.35828 8.7988 9.42726C9.19139 9.86413 9.51471 10.5079 9.76874 11.4047C9.99968 12.2554 10.1152 13.4511 10.1152 15.1296V29.5464C10.1152 33.8462 10.3692 36.8583 10.8542 38.4678C11.3391 39.8704 11.9396 41.0431 12.6786 41.9628C13.3945 42.8825 14.2259 43.6413 15.1496 44.1702C16.0734 44.722 17.1126 45.1359 18.2211 45.3658C19.3527 45.5957 20.5767 45.7337 21.8238 45.7337C24.9877 45.7337 27.5742 44.9749 29.5141 43.5033C30.484 42.7446 31.2692 41.8708 31.8235 40.9051C32.3777 39.9394 32.8165 38.8817 33.0936 37.778C33.3708 36.6513 33.5555 35.4557 33.6479 34.1911C33.7403 32.9034 33.7865 31.5928 33.7865 30.3052V29.7074C33.9019 29.6384 33.9943 29.5464 34.1098 29.4774C34.2252 29.3855 34.3176 29.2935 34.4331 29.2015C34.4562 29.1785 34.4793 29.1785 34.4793 29.1555C34.5947 29.0635 34.6871 28.9486 34.8026 28.8566C34.9181 28.7416 35.0104 28.6267 35.1259 28.4887V30.3052C35.1259 31.6388 35.0797 32.9724 34.9873 34.283C34.895 35.6166 34.6871 36.9043 34.41 38.0999C34.1098 39.3186 33.6248 40.4912 33.0013 41.5719C32.3084 42.6756 31.4078 43.6643 30.2993 44.561ZM49.5827 40.5832C49.5596 40.9511 49.4442 41.4339 49.2594 42.0548C49.0747 42.6296 48.8668 43.2274 48.659 43.8023C48.428 44.3771 48.174 44.9059 47.943 45.3198C47.689 45.7567 47.3426 46.2396 46.7884 46.2396H32.4239L31.962 45.4348L32.0544 45.2738C32.701 44.2161 33.44 43.2274 34.2252 42.3077C35.0104 41.411 35.7956 40.5602 36.5808 39.7554C36.7887 39.5255 36.9965 39.3186 37.2044 39.1116L38.3129 37.9849L38.4052 37.893C38.5207 37.778 38.6593 37.64 38.7747 37.5251C39.4445 36.8583 39.9756 36.2375 40.3682 35.6856C41.1996 34.513 41.8693 33.3863 42.3312 32.3516C42.77 31.3629 43.0009 30.3742 43.0009 29.4544C43.0009 28.8336 42.9086 28.2358 42.7007 27.6839C42.516 27.1321 42.2157 26.6492 41.8462 26.2354C41.4767 25.8215 41.0149 25.4996 40.4837 25.2467C39.9525 25.0167 39.329 24.8788 38.6593 24.8788C37.9896 24.8788 37.4815 24.9937 37.0889 25.1777C36.6732 25.4076 36.2806 25.6835 35.9573 26.0284C35.6109 26.3963 35.2876 26.7872 34.9873 27.1781C34.6409 27.661 34.1791 28.0978 33.671 28.4657L33.5093 28.5807L32.6548 28.0748L32.6779 27.8679C32.7934 26.8562 33.0474 25.9135 33.417 25.0397C33.7865 24.143 34.2945 23.3612 34.895 22.7174C35.5185 22.0506 36.2575 21.5217 37.0889 21.1309C37.9434 20.74 38.9133 20.556 39.9987 20.556C41.0149 20.556 41.9848 20.717 42.8855 21.0619C43.7861 21.4068 44.5944 21.8896 45.3103 22.4875C45.7029 22.8324 46.0493 23.2003 46.3496 23.6141C46.9269 24.4419 47.1348 24.9937 47.1348 24.9937C47.4581 25.7525 47.6197 26.6033 47.6197 27.5C47.6197 28.4197 47.435 29.3855 47.0886 30.3512C46.7422 31.2709 46.3034 32.1906 45.7953 33.0644C45.2872 33.9151 44.7099 34.7429 44.1095 35.5247C43.509 36.2834 42.9086 36.9962 42.3543 37.5941C41.4306 38.5828 40.7377 39.4105 40.1835 40.0543C39.814 40.4912 39.4907 40.8591 39.2135 41.181C39.0057 41.411 38.8902 41.5949 38.7517 41.8018C38.7517 41.8018 38.7517 41.8018 38.7517 41.8248L43.1626 41.8478C43.7399 41.8478 44.2942 41.8478 44.8023 41.8248C45.2872 41.8018 45.7491 41.7329 46.1879 41.6409C46.6036 41.5489 47.0193 41.365 47.3888 41.135C47.7583 40.9051 48.1278 40.5832 48.4973 40.1463L48.6359 39.9624L49.6289 40.3533L49.5827 40.5832ZM44.8254 43.0895C44.2942 43.1125 43.7399 43.1355 43.1395 43.1355L37.3891 42.9515L37.0196 41.9858L37.1813 41.8478C37.5277 41.5489 38.0819 40.9741 38.8209 40.1923C39.5369 39.4105 40.6223 38.2379 42.1465 36.6054C42.7007 36.0075 43.255 35.3407 43.8554 34.6049C44.4328 33.8691 44.9639 33.0874 45.4489 32.2826C45.8877 31.5468 46.0263 30.972 46.211 30.1212L46.2341 30.0293C46.4419 29.1785 46.3958 28.6727 46.3727 28.1438C46.3727 27.9599 46.3496 27.7529 46.3496 27.523C46.3496 26.8102 46.2341 26.1434 45.9801 25.5226C45.726 24.9707 45.1487 24.143 45.1487 24.143C44.9408 23.8901 44.733 23.6601 44.479 23.4532C43.9016 22.9473 43.2088 22.5564 42.4467 22.2575C41.6846 21.9816 40.8532 21.8207 39.9987 21.8207C39.0981 21.8207 38.2898 21.9816 37.597 22.2805C36.9041 22.6024 36.3037 23.0163 35.7956 23.5681C35.2876 24.12 34.8719 24.7638 34.5486 25.5226C34.5024 25.6145 34.4793 25.6835 34.4562 25.7755C34.6409 25.5686 34.8257 25.3386 35.0335 25.1547C35.4492 24.7178 35.9342 24.3729 36.4654 24.074C37.0427 23.7751 37.7586 23.6141 38.6362 23.6141C39.4907 23.6141 40.2759 23.7751 40.9687 24.097C41.6615 24.4189 42.2619 24.8328 42.7469 25.3846C43.2319 25.9135 43.6014 26.5573 43.8554 27.2471C44.1095 27.9369 44.2249 28.6727 44.2249 29.4314C44.2249 30.5351 43.9709 31.6848 43.4628 32.8344C42.9778 33.9611 42.2619 35.1338 41.3844 36.3754C40.9456 36.9962 40.3682 37.686 39.6523 38.3988C39.5138 38.5368 39.3521 38.6977 39.2135 38.8357L38.105 39.9624C37.8972 40.1693 37.6893 40.3763 37.4815 40.5832C36.7194 41.365 35.9573 42.1927 35.1721 43.0895C34.664 43.6643 34.1791 44.2851 33.7403 44.9289H46.6036C46.6498 44.8829 46.7191 44.791 46.7884 44.63C46.9962 44.2621 47.2271 43.8023 47.435 43.2734C47.5735 42.9285 47.689 42.5836 47.8045 42.2387C47.3657 42.4916 46.8807 42.6756 46.4188 42.7906C45.9339 42.9975 45.4027 43.0665 44.8254 43.0895ZM46.465 42.8595C45.957 42.9745 45.4027 43.0665 44.8254 43.0895C44.2942 43.1125 43.7399 43.1355 43.1395 43.1355L37.3891 42.9515L37.0196 41.9858L37.1813 41.8478C37.5277 41.5489 38.0819 40.9741 38.8209 40.1923C39.5369 39.4105 40.6223 38.2379 42.1465 36.6054C42.7007 36.0075 43.255 35.3407 43.8554 34.6049C44.4328 33.8691 44.9639 33.0874 45.4489 32.2826C45.8877 31.5468 46.0263 30.972 46.211 30.1212L46.2341 30.0293C46.4419 29.1785 46.3958 28.6727 46.3727 28.1438C46.3727 27.9599 46.3496 27.7529 46.3496 27.523C46.3496 26.8102 46.2341 26.1434 45.9801 25.5226C45.726 24.9707 45.1487 24.143 45.1487 24.143C44.9408 23.8901 44.733 23.6601 44.479 23.4532C43.9016 22.9473 43.2088 22.5564 42.4467 22.2575C41.6846 21.9816 40.8532 21.8207 39.9987 21.8207C39.0981 21.8207 38.2898 21.9816 37.597 22.2805C36.9041 22.6024 36.3037 23.0163 35.7956 23.5681C35.2876 24.12 34.8719 24.7638 34.5486 25.5226C34.5024 25.6145 34.4793 25.6835 34.4562 25.7755C34.6409 25.5686 34.8257 25.3386 35.0335 25.1547C35.4492 24.7178 35.9342 24.3729 36.4654 24.074C37.0427 23.7751 37.7586 23.6141 38.6362 23.6141C39.4907 23.6141 40.2759 23.7751 40.9687 24.097C41.6615 24.4189 42.2619 24.8328 42.7469 25.3846C43.2319 25.9135 43.6014 26.5573 43.8554 27.2471C44.1095 27.9369 44.2249 28.6727 44.2249 29.4314C44.2249 30.5351 43.9709 31.6848 43.4628 32.8344C42.9778 33.9611 42.2619 35.1338 41.3844 36.3754C40.9456 36.9962 40.3682 37.686 39.6523 38.3988C39.5138 38.5368 39.3521 38.6977 39.2135 38.8357L38.105 39.9624C37.8972 40.1693 37.6893 40.3763 37.4815 40.5832C36.7194 41.365 35.9573 42.1927 35.1721 43.0895C34.664 43.6643 34.1791 44.2851 33.7403 44.9289H46.6036C46.6498 44.8829 46.7191 44.791 46.7884 44.63C46.9962 44.2621 47.2271 43.8023 47.435 43.2734C47.5735 42.9285 47.689 42.5836 47.8045 42.2387C47.3888 42.5606 46.9269 42.7446 46.465 42.8595ZM46.465 42.8595C45.957 42.9745 45.4027 43.0665 44.8254 43.0895C44.2942 43.1125 43.7399 43.1355 43.1395 43.1355L37.3891 42.9515L37.0196 41.9858L37.1813 41.8478C37.5277 41.5489 38.0819 40.9741 38.8209 40.1923C39.5369 39.4105 40.6223 38.2379 42.1465 36.6054C42.7007 36.0075 43.255 35.3407 43.8554 34.6049C44.4328 33.8691 44.9639 33.0874 45.4489 32.2826C45.8877 31.5468 46.0263 30.972 46.211 30.1212L46.2341 30.0293C46.4419 29.1785 46.3958 28.6727 46.3727 28.1438C46.3727 27.9599 46.3496 27.7529 46.3496 27.523C46.3496 26.8102 46.2341 26.1434 45.9801 25.5226C45.726 24.9707 45.1487 24.143 45.1487 24.143C44.9408 23.8901 44.733 23.6601 44.479 23.4532C43.9016 22.9473 43.2088 22.5564 42.4467 22.2575C41.6846 21.9816 40.8532 21.8207 39.9987 21.8207C39.0981 21.8207 38.2898 21.9816 37.597 22.2805C36.9041 22.6024 36.3037 23.0163 35.7956 23.5681C35.2876 24.12 34.8719 24.7638 34.5486 25.5226C34.5024 25.6145 34.4793 25.6835 34.4562 25.7755C34.6409 25.5686 34.8257 25.3386 35.0335 25.1547C35.4492 24.7178 35.9342 24.3729 36.4654 24.074C37.0427 23.7751 37.7586 23.6141 38.6362 23.6141C39.4907 23.6141 40.2759 23.7751 40.9687 24.097C41.6615 24.4189 42.2619 24.8328 42.7469 25.3846C43.2319 25.9135 43.6014 26.5573 43.8554 27.2471C44.1095 27.9369 44.2249 28.6727 44.2249 29.4314C44.2249 30.5351 43.9709 31.6848 43.4628 32.8344C42.9778 33.9611 42.2619 35.1338 41.3844 36.3754C40.9456 36.9962 40.3682 37.686 39.6523 38.3988C39.5138 38.5368 39.3521 38.6977 39.2135 38.8357L38.105 39.9624C37.8972 40.1693 37.6893 40.3763 37.4815 40.5832C36.7194 41.365 35.9573 42.1927 35.1721 43.0895C34.664 43.6643 34.1791 44.2851 33.7403 44.9289H46.6036C46.6498 44.8829 46.7191 44.791 46.7884 44.63C46.9962 44.2621 47.2271 43.8023 47.435 43.2734C47.5735 42.9285 47.689 42.5836 47.8045 42.2387C47.3888 42.5606 46.9269 42.7446 46.465 42.8595ZM46.465 42.8595C45.957 42.9745 45.4027 43.0665 44.8254 43.0895C44.2942 43.1125 43.7399 43.1355 43.1395 43.1355L37.3891 42.9515L37.0196 41.9858L37.1813 41.8478C37.5277 41.5489 38.0819 40.9741 38.8209 40.1923C39.5369 39.4105 40.6223 38.2379 42.1465 36.6054C42.7007 36.0075 43.255 35.3407 43.8554 34.6049C44.4328 33.8691 44.9639 33.0874 45.4489 32.2826C45.8877 31.5468 46.0263 30.972 46.211 30.1212L46.2341 30.0293C46.4419 29.1785 46.3958 28.6727 46.3727 28.1438C46.3727 27.9599 46.3496 27.7529 46.3496 27.523C46.3496 26.8102 46.2341 26.1434 45.9801 25.5226C45.726 24.9707 45.1487 24.143 45.1487 24.143C44.9408 23.8901 44.733 23.6601 44.479 23.4532C43.9016 22.9473 43.2088 22.5564 42.4467 22.2575C41.6846 21.9816 40.8532 21.8207 39.9987 21.8207C39.0981 21.8207 38.2898 21.9816 37.597 22.2805C36.9041 22.6024 36.3037 23.0163 35.7956 23.5681C35.2876 24.12 34.8719 24.7638 34.5486 25.5226C34.5024 25.6145 34.4793 25.6835 34.4562 25.7755C34.6409 25.5686 34.8257 25.3386 35.0335 25.1547C35.4492 24.7178 35.9342 24.3729 36.4654 24.074C37.0427 23.7751 37.7586 23.6141 38.6362 23.6141C39.4907 23.6141 40.2759 23.7751 40.9687 24.097C41.6615 24.4189 42.2619 24.8328 42.7469 25.3846C43.2319 25.9135 43.6014 26.5573 43.8554 27.2471C44.1095 27.9369 44.2249 28.6727 44.2249 29.4314C44.2249 30.5351 43.9709 31.6848 43.4628 32.8344C42.9778 33.9611 42.2619 35.1338 41.3844 36.3754C40.9456 36.9962 40.3682 37.686 39.6523 38.3988C39.5138 38.5368 39.3521 38.6977 39.2135 38.8357L38.105 39.9624C37.8972 40.1693 37.6893 40.3763 37.4815 40.5832C36.7194 41.365 35.9573 42.1927 35.1721 43.0895C34.664 43.6643 34.1791 44.2851 33.7403 44.9289H46.6036C46.6498 44.8829 46.7191 44.791 46.7884 44.63C46.9962 44.2621 47.2271 43.8023 47.435 43.2734C47.5735 42.9285 47.689 42.5836 47.8045 42.2387C47.3888 42.5606 46.9269 42.7446 46.465 42.8595ZM46.465 42.8595C45.957 42.9745 45.4027 43.0665 44.8254 43.0895C44.2942 43.1125 43.7399 43.1355 43.1395 43.1355L37.3891 42.9515L37.0196 41.9858L37.1813 41.8478C37.5277 41.5489 38.0819 40.9741 38.8209 40.1923C39.5369 39.4105 40.6223 38.2379 42.1465 36.6054C42.7007 36.0075 43.255 35.3407 43.8554 34.6049C44.4328 33.8691 44.9639 33.0874 45.4489 32.2826C45.8877 31.5468 46.0263 30.972 46.211 30.1212L46.2341 30.0293C46.4419 29.1785 46.3958 28.6727 46.3727 28.1438C46.3727 27.9599 46.3496 27.7529 46.3496 27.523C46.3496 26.8102 46.2341 26.1434 45.9801 25.5226C45.726 24.9707 45.1487 24.143 45.1487 24.143C44.9408 23.8901 44.733 23.6601 44.479 23.4532C43.9016 22.9473 43.2088 22.5564 42.4467 22.2575C41.6846 21.9816 40.8532 21.8207 39.9987 21.8207C39.0981 21.8207 38.2898 21.9816 37.597 22.2805C36.9041 22.6024 36.3037 23.0163 35.7956 23.5681C35.2876 24.12 34.8719 24.7638 34.5486 25.5226C34.5024 25.6145 34.4793 25.6835 34.4562 25.7755C34.6409 25.5686 34.8257 25.3386 35.0335 25.1547C35.4492 24.7178 35.9342 24.3729 36.4654 24.074C37.0427 23.7751 37.7586 23.6141 38.6362 23.6141C39.4907 23.6141 40.2759 23.7751 40.9687 24.097C41.6615 24.4189 42.2619 24.8328 42.7469 25.3846C43.2319 25.9135 43.6014 26.5573 43.8554 27.2471C44.1095 27.9369 44.2249 28.6727 44.2249 29.4314C44.2249 30.5351 43.9709 31.6848 43.4628 32.8344C42.9778 33.9611 42.2619 35.1338 41.3844 36.3754C40.9456 36.9962 40.3682 37.686 39.6523 38.3988C39.5138 38.5368 39.3521 38.6977 39.2135 38.8357L38.105 39.9624C37.8972 40.1693 37.6893 40.3763 37.4815 40.5832C36.7194 41.365 35.9573 42.1927 35.1721 43.0895C34.664 43.6643 34.1791 44.2851 33.7403 44.9289H46.6036C46.6498 44.8829 46.7191 44.791 46.7884 44.63C46.9962 44.2621 47.2271 43.8023 47.435 43.2734C47.5735 42.9285 47.689 42.5836 47.8045 42.2387C47.3888 42.5606 46.9269 42.7446 46.465 42.8595ZM46.465 42.8595C45.957 42.9745 45.4027 43.0665 44.8254 43.0895C44.2942 43.1125 43.7399 43.1355 43.1395 43.1355L37.3891 42.9515L37.0196 41.9858L37.1813 41.8478C37.5277 41.5489 38.0819 40.9741 38.8209 40.1923C39.5369 39.4105 40.6223 38.2379 42.1465 36.6054C42.7007 36.0075 43.255 35.3407 43.8554 34.6049C44.4328 33.8691 44.9639 33.0874 45.4489 32.2826C45.8877 31.5468 46.0263 30.972 46.211 30.1212L46.2341 30.0293C46.4419 29.1785 46.3958 28.6727 46.3727 28.1438C46.3727 27.9599 46.3496 27.7529 46.3496 27.523C46.3496 26.8102 46.2341 26.1434 45.9801 25.5226C45.726 24.9707 45.1487 24.143 45.1487 24.143C44.9408 23.8901 44.733 23.6601 44.479 23.4532C43.9016 22.9473 43.2088 22.5564 42.4467 22.2575C41.6846 21.9816 40.8532 21.8207 39.9987 21.8207C39.0981 21.8207 38.2898 21.9816 37.597 22.2805C36.9041 22.6024 36.3037 23.0163 35.7956 23.5681C35.2876 24.12 34.8719 24.7638 34.5486 25.5226C34.5024 25.6145 34.4793 25.6835 34.4562 25.7755C34.6409 25.5686 34.8257 25.3386 35.0335 25.1547C35.4492 24.7178 35.9342 24.3729 36.4654 24.074C37.0427 23.7751 37.7586 23.6141 38.6362 23.6141C39.4907 23.6141 40.2759 23.7751 40.9687 24.097C41.6615 24.4189 42.2619 24.8328 42.7469 25.3846C43.2319 25.9135 43.6014 26.5573 43.8554 27.2471C44.1095 27.9369 44.2249 28.6727 44.2249 29.4314C44.2249 30.5351 43.9709 31.6848 43.4628 32.8344C42.9778 33.9611 42.2619 35.1338 41.3844 36.3754C40.9456 36.9962 40.3682 37.686 39.6523 38.3988C39.5138 38.5368 39.3521 38.6977 39.2135 38.8357L38.105 39.9624C37.8972 40.1693 37.6893 40.3763 37.4815 40.5832C36.7194 41.365 35.9573 42.1927 35.1721 43.0895C34.664 43.6643 34.1791 44.2851 33.7403 44.9289H46.6036C46.6498 44.8829 46.7191 44.791 46.7884 44.63C46.9962 44.2621 47.2271 43.8023 47.435 43.2734C47.5735 42.9285 47.689 42.5836 47.8045 42.2387C47.3888 42.5606 46.9269 42.7446 46.465 42.8595ZM46.465 42.8595C45.957 42.9745 45.4027 43.0665 44.8254 43.0895C44.2942 43.1125 43.7399 43.1355 43.1395 43.1355L37.3891 42.9515L37.0196 41.9858L37.1813 41.8478C37.5277 41.5489 38.0819 40.9741 38.8209 40.1923C39.5369 39.4105 40.6223 38.2379 42.1465 36.6054C42.7007 36.0075 43.255 35.3407 43.8554 34.6049C44.4328 33.8691 44.9639 33.0874 45.4489 32.2826C45.8877 31.5468 46.0263 30.972 46.211 30.1212L46.2341 30.0293C46.4419 29.1785 46.3958 28.6727 46.3727 28.1438C46.3727 27.9599 46.3496 27.7529 46.3496 27.523C46.3496 26.8102 46.2341 26.1434 45.9801 25.5226C45.726 24.9707 45.1487 24.143 45.1487 24.143C44.9408 23.8901 44.733 23.6601 44.479 23.4532C43.9016 22.9473 43.2088 22.5564 42.4467 22.2575C41.6846 21.9816 40.8532 21.8207 39.9987 21.8207C39.0981 21.8207 38.2898 21.9816 37.597 22.2805C36.9041 22.6024 36.3037 23.0163 35.7956 23.5681C35.2876 24.12 34.8719 24.7638 34.5486 25.5226C34.5024 25.6145 34.4793 25.6835 34.4562 25.7755C34.6409 25.5686 34.8257 25.3386 35.0335 25.1547C35.4492 24.7178 35.9342 24.3729 36.4654 24.074C37.0427 23.7751 37.7586 23.6141 38.6362 23.6141C39.4907 23.6141 40.2759 23.7751 40.9687 24.097C41.6615 24.4189 42.2619 24.8328 42.7469 25.3846C43.2319 25.9135 43.6014 26.5573 43.8554 27.2471C44.1095 27.9369 44.2249 28.6727 44.2249 29.4314C44.2249 30.5351 43.9709 31.6848 43.4628 32.8344C42.9778 33.9611 42.2619 35.1338 41.3844 36.3754C40.9456 36.9962 40.3682 37.686 39.6523 38.3988C39.5138 38.5368 39.3521 38.6977 39.2135 38.8357L38.105 39.9624C37.8972 40.1693 37.6893 40.3763 37.4815 40.5832C36.7194 41.365 35.9573 42.1927 35.1721 43.0895C34.664 43.6643 34.1791 44.2851 33.7403 44.9289H46.6036C46.6498 44.8829 46.7191 44.791 46.7884 44.63C46.9962 44.2621 47.2271 43.8023 47.435 43.2734C47.5735 42.9285 47.689 42.5836 47.8045 42.2387C47.3888 42.5606 46.9269 42.7446 46.465 42.8595ZM46.465 42.8595C45.957 42.9745 45.4027 43.0665 44.8254 43.0895C44.2942 43.1125 43.7399 43.1355 43.1395 43.1355L37.3891 42.9515L37.0196 41.9858L37.1813 41.8478C37.5277 41.5489 38.0819 40.9741 38.8209 40.1923C39.5369 39.4105 40.6223 38.2379 42.1465 36.6054C42.7007 36.0075 43.255 35.3407 43.8554 34.6049C44.4328 33.8691 44.9639 33.0874 45.4489 32.2826C45.8877 31.5468 46.0263 30.972 46.211 30.1212L46.2341 30.0293C46.4419 29.1785 46.3958 28.6727 46.3727 28.1438C46.3727 27.9599 46.3496 27.7529 46.3496 27.523C46.3496 26.8102 46.2341 26.1434 45.9801 25.5226C45.726 24.9707 45.1487 24.143 45.1487 24.143C44.9408 23.8901 44.733 23.6601 44.479 23.4532C43.9016 22.9473 43.2088 22.5564 42.4467 22.2575C41.6846 21.9816 40.8532 21.8207 39.9987 21.8207C39.0981 21.8207 38.2898 21.9816 37.597 22.2805C36.9041 22.6024 36.3037 23.0163 35.7956 23.5681C35.2876 24.12 34.8719 24.7638 34.5486 25.5226C34.5024 25.6145 34.4793 25.6835 34.4562 25.7755C34.6409 25.5686 34.8257 25.3386 35.0335 25.1547C35.4492 24.7178 35.9342 24.3729 36.4654 24.074C37.0427 23.7751 37.7586 23.6141 38.6362 23.6141C39.4907 23.6141 40.2759 23.7751 40.9687 24.097C41.6615 24.4189 42.2619 24.8328 42.7469 25.3846C43.2319 25.9135 43.6014 26.5573 43.8554 27.2471C44.1095 27.9369 44.2249 28.6727 44.2249 29.4314C44.2249 30.5351 43.9709 31.6848 43.4628 32.8344C42.9778 33.9611 42.2619 35.1338 41.3844 36.3754C40.9456 36.9962 40.3682 37.686 39.6523 38.3988C39.5138 38.5368 39.3521 38.6977 39.2135 38.8357L38.105 39.9624C37.8972 40.1693 37.6893 40.3763 37.4815 40.5832C36.7194 41.365 35.9573 42.1927 35.1721 43.0895C34.664 43.6643 34.1791 44.2851 33.7403 44.9289H46.6036C46.6498 44.8829 46.7191 44.791 46.7884 44.63C46.9962 44.2621 47.2271 43.8023 47.435 43.2734C47.5735 42.9285 47.689 42.5836 47.8045 42.2387C47.3888 42.5606 46.9269 42.7446 46.465 42.8595Z" fill="#6D5B41"/>
<path d="M81.0595 3.83989C81.2212 3.93186 81.3828 4.06982 81.5445 4.23077C81.7523 4.4837 81.9371 4.8286 82.0756 5.33445C82.2142 5.81731 82.2835 6.53011 82.2835 7.49582V16.3253C82.2835 17.199 82.2373 18.1187 82.168 19.0845C82.0987 20.0732 81.8909 20.9699 81.5445 21.7747C81.1981 22.6024 80.6669 23.2922 79.9741 23.8441C79.2813 24.3959 78.2882 24.6718 77.0873 24.6718C76.0712 24.6718 75.2167 24.4649 74.5701 24.074C73.9235 23.6601 73.4154 23.1083 73.069 22.3955C72.7226 21.7057 72.4686 20.8779 72.3531 19.9352C72.2376 19.0155 72.1683 18.0268 72.1683 16.9691V7.47283C72.1683 6.50711 72.2376 5.79432 72.3762 5.31146C72.5147 4.8286 72.6995 4.46071 72.9073 4.20778C73.0459 4.04683 73.2076 3.90887 73.3692 3.81689H68.0576C68.2193 3.90887 68.3809 4.04683 68.5195 4.20778C68.7273 4.46071 68.9121 4.80561 69.0507 5.31146C69.1892 5.79432 69.2585 6.50711 69.2585 7.47283V15.9804C69.2585 18.5326 69.3971 20.3261 69.6973 21.3148C69.9744 22.1426 70.3439 22.8554 70.8058 23.4302C71.2446 23.982 71.7526 24.4419 72.3069 24.7868C72.8612 25.1317 73.5078 25.3616 74.1775 25.4996C74.8703 25.6375 75.5862 25.7295 76.3483 25.7295C78.242 25.7295 79.8124 25.2697 80.9902 24.3729C81.5907 23.9131 82.0525 23.3842 82.399 22.7864C82.7454 22.2115 82.9994 21.5677 83.1611 20.9009C83.3227 20.2341 83.4382 19.4983 83.4844 18.7625C83.5306 18.0038 83.5537 17.222 83.5537 16.4402V7.5878C83.5537 6.59909 83.6229 5.8633 83.7615 5.38044C83.9232 4.87459 84.1079 4.4837 84.3389 4.23077C84.5005 4.06982 84.6622 3.93186 84.8469 3.83989H81.0595Z" fill="#010101"/>
<path d="M103.668 25.6606H107.571C107.525 25.6146 107.456 25.5686 107.41 25.5226C107.225 25.3386 107.04 25.1547 106.855 24.9248C106.671 24.7178 106.463 24.4419 106.232 24.143C106.001 23.8441 105.747 23.4762 105.424 23.0163L105.377 22.9473V7.47285C105.377 6.78305 105.4 6.2542 105.47 5.84032C105.516 5.42644 105.654 5.08154 105.862 4.80562C106.07 4.5297 106.37 4.29977 106.763 4.09283C106.902 4.02385 107.063 3.95487 107.225 3.8629H102.213C102.329 3.90888 102.468 3.95487 102.583 4.00086C102.791 4.06984 102.976 4.13882 103.16 4.23079C103.368 4.32276 103.53 4.48372 103.691 4.69066C104.038 5.12753 104.223 6.04726 104.223 7.47285V21.4298L91.2901 3.8399H87.3872C87.4565 3.88589 87.5258 3.95487 87.572 4.00086C87.7567 4.16181 87.9415 4.34576 88.1262 4.5297C88.311 4.73664 88.5188 4.96658 88.7267 5.2425C88.9576 5.51842 89.2116 5.88631 89.5349 6.32318L89.5811 6.39216V22.0736C89.5811 22.7404 89.558 23.2693 89.4888 23.6831C89.4426 24.12 89.304 24.4649 89.0962 24.7408C88.8883 25.0167 88.5881 25.2467 88.1955 25.4536C88.0569 25.5226 87.8953 25.5916 87.7336 25.6835H92.6757C92.5371 25.6376 92.4217 25.5916 92.3062 25.5456C92.0984 25.4766 91.9136 25.3846 91.7289 25.2927C91.5441 25.1777 91.3594 25.0397 91.2208 24.8788C90.8513 24.4189 90.6896 23.5222 90.6896 22.0736V7.9787L103.668 25.6606Z" fill="#010101"/>
<path d="M117.317 25.6376C116.925 25.5226 116.555 25.3616 116.209 25.1317C115.839 24.9018 115.539 24.5339 115.285 24.074C115.031 23.5912 114.915 22.9244 114.915 21.9816V7.56482C114.915 6.5991 115.054 5.88631 115.331 5.40345C115.608 4.92059 115.931 4.5527 116.301 4.32276C116.647 4.11582 116.994 3.95487 117.363 3.8399H109.835C110.204 3.93188 110.551 4.09283 110.874 4.32276C111.243 4.5527 111.544 4.92059 111.798 5.42644C112.052 5.9323 112.167 6.6221 112.167 7.58781V22.0046C112.167 22.9703 112.029 23.6831 111.751 24.166C111.474 24.6489 111.151 24.9938 110.758 25.2467C110.389 25.4766 110.019 25.6376 109.627 25.7295C109.604 25.7295 109.581 25.7295 109.581 25.7525H117.502C117.456 25.6836 117.386 25.6606 117.317 25.6376Z" fill="#010101"/>
<path d="M138.586 10.6459C138.125 9.35828 137.478 8.18562 136.647 7.17392C135.815 6.16221 134.799 5.35745 133.621 4.73663C132.443 4.1388 131.104 3.81689 129.626 3.81689C128.171 3.81689 126.832 4.11581 125.654 4.71363C124.453 5.31146 123.414 6.11623 122.582 7.10494C121.728 8.11664 121.058 9.2893 120.596 10.6229C120.134 11.9565 119.88 13.3591 119.88 14.8307C119.88 16.2333 120.111 17.5899 120.55 18.9005C120.989 20.2111 121.636 21.3838 122.444 22.3725C123.252 23.3842 124.268 24.189 125.469 24.7868C126.647 25.3846 128.009 25.6835 129.534 25.6835C129.857 25.6835 130.203 25.6605 130.527 25.6375C130.85 25.6146 131.173 25.5456 131.474 25.4766H131.497H131.52C131.935 25.4766 132.305 25.4766 132.628 25.4996C132.952 25.4996 133.252 25.5456 133.506 25.5916C133.783 25.6605 134.037 25.7295 134.245 25.8445C134.453 25.9595 134.684 26.1204 134.915 26.3273C135.076 26.4653 135.192 26.6263 135.261 26.8562C135.33 27.0401 135.376 27.2471 135.423 27.454C135.469 27.661 135.515 27.8449 135.561 28.0518C135.607 28.2358 135.654 28.3738 135.7 28.4887C135.792 28.6727 135.977 28.8106 136.208 28.9256C136.485 29.0406 136.762 29.1325 137.039 29.2015C137.132 29.2245 137.247 29.2475 137.339 29.2705C137.155 29.1095 137.016 28.9486 136.924 28.7876C136.693 28.4657 136.554 28.1438 136.508 27.8449C136.462 27.546 136.439 27.2471 136.462 26.9712C136.485 26.7182 136.462 26.4883 136.439 26.2814C136.369 25.7985 136.139 25.4306 135.792 25.1547C135.4 24.8558 135.053 24.6488 134.73 24.5109L134.314 24.3499L134.684 24.097C135.423 23.5911 136.069 22.9933 136.623 22.3265C137.178 21.6367 137.663 20.8779 138.078 20.0732C138.471 19.2684 138.771 18.3947 138.979 17.4979C139.187 16.6012 139.302 15.6584 139.302 14.7157C139.279 13.3131 139.025 11.9565 138.586 10.6459ZM135.723 18.1877C135.561 19.3604 135.261 20.4411 134.799 21.4068C134.337 22.3725 133.691 23.2003 132.859 23.7981C132.028 24.4189 130.919 24.7408 129.603 24.7408C128.217 24.7408 127.086 24.4189 126.231 23.7521C125.4 23.1083 124.73 22.2805 124.291 21.2918C123.853 20.3261 123.552 19.2224 123.391 18.0727C123.229 16.9231 123.16 15.7964 123.16 14.7617C123.16 13.727 123.229 12.6233 123.391 11.4737C123.552 10.301 123.853 9.22032 124.291 8.2546C124.753 7.26589 125.4 6.43813 126.231 5.79432C127.086 5.12751 128.217 4.80561 129.603 4.80561C130.989 4.80561 132.12 5.12751 132.975 5.79432C133.806 6.43813 134.453 7.26589 134.891 8.2546C135.33 9.22032 135.63 10.301 135.769 11.4737C135.908 12.6233 135.954 13.704 135.954 14.6927C135.954 15.8654 135.861 17.038 135.723 18.1877Z" fill="#010101"/>
<path d="M154.244 3.83989C154.406 3.93186 154.568 4.06982 154.729 4.23077C154.937 4.4837 155.122 4.8286 155.261 5.33445C155.399 5.81731 155.468 6.53011 155.468 7.49582V16.3253C155.468 17.199 155.422 18.1187 155.353 19.0845C155.284 20.0732 155.076 20.9699 154.729 21.7747C154.383 22.6024 153.852 23.2922 153.182 23.8441C152.489 24.3959 151.496 24.6718 150.295 24.6718C149.279 24.6718 148.425 24.4649 147.778 24.074C147.132 23.6601 146.623 23.1083 146.277 22.3955C145.931 21.7057 145.677 20.8779 145.561 19.9352C145.446 19.0155 145.376 18.0268 145.376 16.9691V7.47283C145.376 6.50711 145.446 5.79432 145.584 5.31146C145.723 4.8286 145.908 4.46071 146.115 4.20778C146.254 4.04683 146.416 3.90887 146.577 3.81689H141.266C141.427 3.90887 141.589 4.04683 141.728 4.20778C141.935 4.46071 142.12 4.80561 142.259 5.31146C142.397 5.79432 142.467 6.50711 142.467 7.47283V15.9804C142.467 18.5326 142.605 20.3261 142.905 21.3148C143.182 22.1426 143.552 22.8554 144.014 23.4302C144.453 23.982 144.961 24.4419 145.515 24.7868C146.069 25.1317 146.716 25.3616 147.386 25.4996C148.078 25.6375 148.794 25.7295 149.556 25.7295C151.45 25.7295 153.02 25.2697 154.198 24.3729C154.799 23.9131 155.261 23.3842 155.607 22.7864C155.953 22.2115 156.207 21.5677 156.369 20.9009C156.531 20.2341 156.646 19.4983 156.692 18.7625C156.739 18.0038 156.762 17.222 156.762 16.4402V7.5878C156.762 6.59909 156.831 5.8633 156.97 5.38044C157.108 4.87459 157.316 4.4837 157.547 4.23077C157.709 4.06982 157.87 3.93186 158.055 3.83989H154.244Z" fill="#010101"/>
<path d="M175.93 21.5448C175.676 21.9816 175.398 22.3725 175.121 22.7404C174.844 23.1083 174.521 23.4532 174.198 23.7291C173.851 24.028 173.482 24.235 173.089 24.3499C172.743 24.4649 172.258 24.5339 171.657 24.5799C171.08 24.6259 170.456 24.6489 169.833 24.6489H166.022C165.884 24.6489 165.722 24.6489 165.537 24.6259C165.329 24.6259 165.145 24.5799 164.983 24.5339C164.798 24.4879 164.614 24.3959 164.475 24.281C164.313 24.166 164.198 24.005 164.105 23.8211C163.99 23.4992 163.921 22.8784 163.921 21.8897V14.6468H170.618C171.011 14.6468 171.357 14.6698 171.657 14.7387C171.957 14.8077 172.235 14.9227 172.489 15.0836C172.627 15.1756 172.789 15.2906 172.974 15.4285V13.1062C172.789 13.2442 172.627 13.3591 172.489 13.4511C172.235 13.6121 171.934 13.727 171.634 13.796C171.334 13.842 170.987 13.888 170.572 13.888H163.898V4.96658H170.272C171.011 4.96658 171.68 4.98957 172.211 5.03556C172.766 5.08154 173.274 5.2195 173.713 5.42644C174.151 5.65638 174.567 6.00128 174.913 6.46114C175.098 6.71407 175.306 7.05897 175.491 7.42686C175.491 7.2889 175.514 7.15094 175.514 6.98999C175.56 6.46114 175.56 5.95529 175.537 5.44944C175.514 4.96658 175.468 4.5527 175.375 4.2078C175.283 3.88589 175.144 3.8399 175.006 3.8399H160.018C160.041 3.8629 160.064 3.8629 160.087 3.88589C160.341 4.06984 160.572 4.29977 160.734 4.59868C160.895 4.8976 160.988 5.26549 161.034 5.74835C161.08 6.20822 161.126 6.78305 161.126 7.49584V22.0046C161.126 22.7404 161.103 23.3612 161.034 23.7981C160.988 24.258 160.872 24.6259 160.711 24.9248C160.549 25.2007 160.341 25.4536 160.087 25.6376C160.041 25.6606 160.018 25.6836 159.972 25.7065H175.029C175.214 25.7065 175.352 25.5456 175.491 25.2237C175.652 24.8328 175.791 24.3499 175.883 23.7751C175.976 23.2003 176.045 22.5795 176.114 21.9126C176.137 21.6597 176.161 21.4068 176.184 21.1769L175.93 21.5448Z" fill="#010101"/>
<path d="M205.836 22.2345C205.813 22.1196 205.79 21.9816 205.744 21.8667C205.605 22.3725 205.398 22.7864 205.074 23.1083C204.889 23.3152 204.635 23.4762 204.312 23.6141C204.012 23.7291 203.619 23.7751 203.204 23.7291C202.788 23.6831 202.418 23.5682 202.072 23.3842C201.726 23.2003 201.402 22.9703 201.125 22.6944C200.848 22.4185 200.548 22.1196 200.271 21.7747C199.994 21.4298 199.67 21.0849 199.37 20.763L199.255 20.625L199.347 20.4641C199.901 19.6133 200.34 18.7396 200.617 17.8888C200.894 17.0381 201.056 16.2333 201.079 15.5205C201.102 14.8077 201.01 14.2099 200.779 13.75C200.733 13.658 200.686 13.5431 200.617 13.4741C200.64 13.5431 200.64 13.635 200.663 13.727C200.779 14.5088 200.663 15.4515 200.363 16.5092C200.063 17.5669 199.578 18.6936 198.908 19.7973L198.747 20.0732L198.539 19.8202C197.73 18.8315 196.922 17.7738 196.137 16.6932C195.352 15.6125 194.567 14.4858 193.781 13.2901L193.666 13.1062L193.851 12.9912C194.613 12.4854 195.282 11.9335 195.79 11.3357C196.299 10.7149 196.691 10.209 196.922 9.77217C197.453 8.80645 197.638 7.84073 197.476 6.85202C197.315 5.84031 196.853 5.12752 196.068 4.64466C195.282 4.13881 194.382 3.90887 193.435 3.90887C192.211 3.90887 191.241 4.25377 190.548 4.92058C189.555 5.79433 189.186 7.10495 189.44 8.82944C189.601 9.6802 189.855 10.462 190.179 11.1978C190.502 11.9335 190.895 12.6923 191.31 13.4511L191.403 13.635L191.218 13.75C189.232 15.0836 187.892 16.4402 187.223 17.7738C186.969 18.3027 186.761 18.8775 186.668 19.4753C186.576 20.0732 186.576 20.671 186.668 21.2918C186.784 21.9586 187.015 22.5794 187.361 23.1313C187.708 23.6831 188.123 24.166 188.608 24.5569C189.116 24.9478 189.671 25.2467 190.294 25.4536C190.918 25.6605 191.587 25.7755 192.257 25.7755C193.458 25.7755 194.497 25.4996 195.329 24.9708C196.16 24.4189 196.991 23.6831 197.753 22.7864L197.915 22.5335L198.1 22.7174C198.516 23.1313 198.885 23.4992 199.185 23.8441C199.509 24.189 199.832 24.4879 200.132 24.7408C200.432 24.9937 200.802 25.2237 201.171 25.3846C201.564 25.5456 202.026 25.6606 202.557 25.7295C202.996 25.7755 203.481 25.6835 203.989 25.4996C204.497 25.3157 204.866 25.0627 205.144 24.7408C205.305 24.5569 205.444 24.3269 205.582 24.051C205.721 23.7751 205.813 23.4762 205.859 23.1773C205.906 22.8554 205.906 22.5565 205.836 22.2345ZM191.195 7.72576C191.102 6.96698 191.195 6.30018 191.472 5.70235C191.888 4.92058 192.511 4.5067 193.389 4.5067C194.058 4.5067 194.682 4.71364 195.236 5.15051C195.791 5.58739 196.137 6.20821 196.275 6.98998C196.322 7.42685 196.322 7.88672 196.252 8.41556C196.206 8.94441 196.045 9.42727 195.837 9.88714C195.583 10.347 195.259 10.8069 194.821 11.2437C194.382 11.6576 193.897 12.0485 193.343 12.3704L193.135 12.4854L193.019 12.2784C192.627 11.5427 192.257 10.8069 191.934 10.0711C191.564 9.35829 191.333 8.55352 191.195 7.72576ZM197.199 22.0966C196.945 22.3725 196.691 22.6484 196.437 22.9014C196.183 23.1543 195.883 23.4072 195.583 23.5912C195.282 23.7981 194.936 23.959 194.59 24.074C194.243 24.189 193.851 24.235 193.412 24.235C192.811 24.235 192.234 24.12 191.703 23.8671C191.195 23.6141 190.733 23.2922 190.34 22.8554C189.948 22.4415 189.624 21.9586 189.393 21.4298C189.139 20.9009 189.001 20.3491 188.932 19.7973C188.747 18.7626 188.885 17.7738 189.347 16.8541C189.832 15.9114 190.594 15.0836 191.611 14.3708L191.818 14.2329L191.934 14.4398C192.719 15.7504 193.55 17.0151 194.451 18.1877C195.352 19.3834 196.275 20.579 197.222 21.7747L197.338 21.9356L197.199 22.0966Z" fill="#010101"/>
<path d="M79.3042 32.3061C79.4197 32.3751 79.512 32.467 79.6044 32.582C79.7892 32.789 79.9508 33.1109 80.0663 33.5247C80.1818 33.9386 80.228 34.5364 80.228 35.3642V42.883C80.228 43.6188 80.2049 44.4236 80.1356 45.2283C80.0663 46.0561 79.8815 46.8379 79.6044 47.5277C79.3042 48.2405 78.8654 48.8383 78.265 49.2981C77.6645 49.781 76.8331 50.0109 75.7939 50.0109C74.9163 50.0109 74.2004 49.827 73.6462 49.4821C73.0919 49.1372 72.6531 48.6543 72.3529 48.0565C72.0527 47.4587 71.8448 46.7689 71.7525 45.9641C71.6601 45.1823 71.5908 44.3316 71.5908 43.4349V35.3642C71.5908 34.5364 71.637 33.9386 71.7525 33.5247C71.8679 33.0879 72.0296 32.789 72.2144 32.582C72.3067 32.467 72.4222 32.3751 72.5146 32.3061H68.2422C68.3577 32.3751 68.45 32.467 68.5424 32.582C68.7272 32.789 68.8888 33.1109 69.0043 33.5247C69.1198 33.9386 69.1659 34.5364 69.1659 35.3642V42.6071C69.1659 44.7915 69.2814 46.309 69.5355 47.1138C69.7895 47.8266 70.0897 48.4244 70.4592 48.8843C70.8287 49.3671 71.2675 49.735 71.7294 50.0109C72.2144 50.2869 72.7224 50.4938 73.2998 50.6318C73.8771 50.7467 74.5006 50.8157 75.1242 50.8157C76.7408 50.8157 78.0571 50.4248 79.0502 49.666C79.5582 49.2752 79.9508 48.8153 80.228 48.3324C80.5051 47.8496 80.736 47.2977 80.8746 46.7459C81.0132 46.1711 81.1055 45.5502 81.1517 44.9294C81.1979 44.2856 81.221 43.6188 81.221 42.975V35.4562C81.221 34.6054 81.2903 33.9846 81.4057 33.5707C81.5443 33.1339 81.706 32.8119 81.9138 32.582C82.0293 32.467 82.1217 32.3751 82.2371 32.3061H79.3042V32.3061Z" fill="#010101"/>
<path d="M98.4258 50.7922H101.636C101.613 50.7692 101.59 50.7463 101.567 50.7233C101.405 50.5853 101.243 50.4014 101.082 50.2174C100.92 50.0335 100.758 49.8035 100.55 49.5506C100.366 49.2977 100.135 48.9758 99.8576 48.6079L99.8114 48.5389V35.3407C99.8114 34.7429 99.8345 34.283 99.8807 33.9611C99.9269 33.5932 100.042 33.2943 100.227 33.0644C100.412 32.8345 100.666 32.6275 101.012 32.4436C101.082 32.3976 101.174 32.3746 101.266 32.3286H97.3403C97.3865 32.3516 97.4327 32.3516 97.4789 32.3746C97.6406 32.4206 97.8253 32.4896 97.9639 32.5815C98.1486 32.6735 98.2872 32.8115 98.4258 32.9724C98.726 33.3633 98.8876 34.1451 98.8876 35.3637V47.3432L87.8487 32.3286H84.6387C84.6618 32.3516 84.708 32.3746 84.731 32.3976C84.8927 32.5356 85.0544 32.6965 85.216 32.8575C85.3777 33.0184 85.5393 33.2254 85.7241 33.4783C85.9088 33.7312 86.1398 34.0301 86.4169 34.398L86.4631 34.467V47.8031C86.4631 48.3779 86.44 48.8378 86.3938 49.1827C86.3476 49.5506 86.2322 49.8725 86.0474 50.1024C85.8627 50.3324 85.6086 50.5393 85.2622 50.7233C85.1929 50.7692 85.1006 50.7922 85.0082 50.8382H88.8649C88.8187 50.8152 88.7725 50.8152 88.7263 50.7922C88.5416 50.7233 88.3799 50.6543 88.2182 50.5623C88.0566 50.4703 87.8949 50.3554 87.7795 50.1944C87.4561 49.8035 87.3176 49.0218 87.3176 47.8031V35.7316L98.4258 50.7922Z" fill="#010101"/>
<path d="M105.308 49.5506C105.077 49.9645 104.776 50.2634 104.453 50.4703C104.199 50.6313 103.922 50.7462 103.668 50.8382H109.95C109.626 50.7462 109.326 50.6083 109.026 50.4243C108.702 50.2174 108.448 49.9185 108.218 49.5046C107.987 49.0907 107.894 48.5159 107.894 47.7111V35.4557C107.894 34.6279 108.01 34.0301 108.241 33.5932C108.472 33.1794 108.749 32.8574 109.072 32.6505C109.303 32.5125 109.534 32.3976 109.765 32.3056H103.807C104.037 32.3976 104.268 32.5125 104.499 32.6505C104.823 32.8574 105.077 33.1794 105.308 33.5932C105.539 34.0301 105.631 34.6279 105.631 35.4557V47.7111C105.677 48.5159 105.539 49.1367 105.308 49.5506Z" fill="#010101"/>
<path d="M123.945 32.3056C124.084 32.3746 124.199 32.4666 124.314 32.5585C124.499 32.7195 124.638 32.9034 124.73 33.1104C124.846 33.3173 124.892 33.5702 124.892 33.8691C124.892 34.0301 124.869 34.237 124.823 34.536C124.776 34.8119 124.684 35.1338 124.545 35.5017L121.127 45.4808L117.363 35.1798C117.248 34.8809 117.178 34.5589 117.178 34.214C117.178 33.8462 117.248 33.5472 117.386 33.2943C117.525 33.0644 117.686 32.8574 117.917 32.6965C118.102 32.5585 118.31 32.4436 118.541 32.3286H112.86C112.883 32.3516 112.929 32.3516 112.952 32.3746C113.229 32.5355 113.483 32.7195 113.691 32.9494C113.899 33.1564 114.084 33.4093 114.222 33.6852C114.361 33.9611 114.5 34.283 114.638 34.6739L120.412 50.3324L125.631 35.0418C125.885 34.329 126.162 33.7312 126.508 33.2253C126.739 32.9034 126.993 32.6045 127.317 32.3286H123.945V32.3056Z" fill="#010101"/>
<path d="M142.905 47.3432C142.674 47.7111 142.443 48.056 142.212 48.3779C141.958 48.6998 141.704 48.9757 141.427 49.2287C141.127 49.4816 140.804 49.6655 140.457 49.7575C140.157 49.8495 139.741 49.9185 139.233 49.9645C138.725 50.0104 138.217 50.0104 137.686 50.0104H134.453C134.337 50.0104 134.199 50.0104 134.037 49.9874C133.875 49.9874 133.714 49.9645 133.552 49.9185C133.39 49.8725 133.229 49.8035 133.113 49.7115C132.975 49.5966 132.859 49.4586 132.79 49.2976C132.675 49.0217 132.628 48.4929 132.628 47.6421V41.4339H138.356C138.702 41.4339 139.002 41.4569 139.256 41.5259C139.51 41.5949 139.764 41.6869 139.972 41.8248C140.088 41.8938 140.203 41.9858 140.319 42.0777V40.2383C140.18 40.3532 140.065 40.4222 139.972 40.4912C139.741 40.6292 139.51 40.7211 139.233 40.7901C138.979 40.8361 138.679 40.8591 138.333 40.8591H132.628V33.2253H138.079C138.725 33.2253 139.279 33.2483 139.741 33.2713C140.226 33.3173 140.665 33.4323 141.035 33.6162C141.427 33.8002 141.774 34.0991 142.051 34.49C142.189 34.6969 142.351 34.9268 142.489 35.2027C142.489 35.1338 142.489 35.0418 142.513 34.9498C142.536 34.5129 142.559 34.0761 142.536 33.6392C142.513 33.2253 142.466 32.8804 142.397 32.5815C142.328 32.2826 142.189 32.2826 142.12 32.2826H129.488C129.695 32.4435 129.88 32.6275 129.996 32.8804C130.134 33.1333 130.227 33.4553 130.273 33.8691C130.319 34.26 130.342 34.7659 130.342 35.3637V47.6881C130.342 48.3319 130.319 48.8378 130.273 49.2287C130.227 49.6425 130.134 49.9415 129.996 50.1944C129.857 50.4473 129.672 50.6542 129.441 50.7922H142.12C142.259 50.7922 142.374 50.6543 142.489 50.4013C142.628 50.0564 142.744 49.6655 142.813 49.1827C142.882 48.6998 142.951 48.171 142.998 47.5961C143.021 47.4352 143.021 47.2742 143.044 47.1133L142.905 47.3432Z" fill="#010101"/>
<path d="M160.503 50.8152C160.272 50.6543 160.018 50.4473 159.718 50.1944C159.417 49.9415 159.071 49.5966 158.701 49.1597C158.309 48.7228 157.87 48.171 157.385 47.4812L153.575 42.3077L153.921 42.2387C154.452 42.1237 154.983 41.9628 155.491 41.7099C155.976 41.4799 156.415 41.158 156.785 40.7441C157.154 40.3533 157.454 39.8704 157.662 39.2956C157.87 38.7207 157.986 38.0309 157.986 37.2262C157.986 36.2145 157.801 35.3637 157.454 34.7429C157.085 34.1221 156.6 33.6162 155.976 33.2483C155.353 32.8804 154.614 32.6275 153.759 32.5125C152.905 32.3746 151.958 32.3056 150.942 32.3056H145.723C145.746 32.3056 145.769 32.3286 145.792 32.3516C146.069 32.5125 146.277 32.7425 146.415 33.0184C146.554 33.2713 146.623 33.6162 146.669 33.9841C146.716 34.352 146.716 34.8349 146.716 35.4557V47.7111C146.716 48.125 146.693 48.4699 146.669 48.7918C146.646 49.1367 146.554 49.4586 146.415 49.7575C146.277 50.0564 146.069 50.3324 145.815 50.5623C145.723 50.6543 145.607 50.7462 145.492 50.8382H150.18C150.11 50.7922 150.064 50.7462 150.018 50.7003C149.764 50.4933 149.579 50.2404 149.441 49.9645C149.325 49.6886 149.233 49.3666 149.21 48.9988C149.187 48.6539 149.141 48.217 149.094 47.7341V41.8708L149.395 41.9628C149.949 42.1467 150.549 42.2617 151.196 42.3537L151.288 42.3767L157.547 50.8382H160.457C160.526 50.8152 160.503 50.8152 160.503 50.8152ZM151.45 41.6869C150.803 41.6869 150.11 41.6409 149.348 41.5259L149.141 41.5029V32.9494L149.348 32.9264C150.18 32.8115 150.988 32.8115 151.727 32.9494C152.466 33.0644 153.136 33.3173 153.713 33.7082C154.29 34.0991 154.752 34.6049 155.076 35.2258C155.399 35.8466 155.561 36.6283 155.538 37.5021C155.514 38.3299 155.399 38.9967 155.214 39.5485C155.006 40.1003 154.729 40.5372 154.337 40.8591C153.967 41.181 153.528 41.411 153.043 41.5259C152.535 41.6179 152.004 41.6869 151.45 41.6869Z" fill="#010101"/>
<path d="M161.38 50.9072V51.1601L161.565 51.0682L161.38 50.9072Z" fill="#010101"/>
<path d="M173.273 44.9979C173.112 44.561 172.858 44.1701 172.534 43.8252C172.211 43.4573 171.795 43.0894 171.31 42.7675C170.825 42.4226 170.248 42.0547 169.625 41.6868L166.83 40.0083C166.507 39.8244 166.137 39.5944 165.791 39.3875C165.422 39.1576 165.098 38.9046 164.798 38.6517C164.498 38.3758 164.244 38.0539 164.013 37.732C163.782 37.3871 163.666 36.9732 163.62 36.4903C163.574 36.0535 163.643 35.5936 163.782 35.1567C163.92 34.7199 164.151 34.329 164.428 33.9841C164.729 33.6392 165.098 33.3403 165.537 33.1333C165.976 32.9264 166.484 32.8114 167.061 32.8114C168.262 32.8114 169.371 33.2943 170.317 34.237C171.056 34.9498 171.68 35.8925 172.211 37.0192V33.2253C172.026 33.2483 171.865 33.2483 171.703 33.2483C171.472 33.2483 171.264 33.2023 171.033 33.1563C170.825 33.1103 170.595 33.0643 170.364 32.9954C170.133 32.9264 169.856 32.8574 169.532 32.7654C169.07 32.6275 168.632 32.5355 168.216 32.4665C167.8 32.4205 167.454 32.3745 167.154 32.3515C166.322 32.3056 165.56 32.4205 164.89 32.6505C164.221 32.8804 163.666 33.2253 163.204 33.6852C162.743 34.145 162.396 34.6969 162.165 35.3177C161.911 35.9615 161.819 36.6743 161.819 37.4561C161.819 38.2148 161.934 38.8816 162.188 39.3875C162.442 39.9163 162.766 40.3992 163.181 40.7901C163.597 41.181 164.082 41.5489 164.636 41.8478C165.214 42.1697 165.814 42.4686 166.415 42.7675C167.315 43.2044 168.1 43.6183 168.724 44.0092C169.347 44.4 169.832 44.7679 170.156 45.0898C170.479 45.4117 170.733 45.7566 170.918 46.1475C171.103 46.5384 171.195 46.9293 171.195 47.3202C171.195 47.6651 171.126 48.033 170.964 48.4009C170.802 48.7688 170.571 49.0907 170.271 49.3666C169.994 49.6425 169.648 49.8495 169.232 50.0334C168.839 50.2173 168.378 50.2863 167.869 50.2863C166.276 50.2863 164.937 49.8265 163.92 48.9297C163.112 48.2399 162.419 47.3432 161.842 46.2855V50.4243C162.119 50.2863 162.327 50.1944 162.489 50.1484C162.696 50.0794 162.927 50.0564 163.112 50.0564C163.228 50.0564 163.389 50.0794 163.597 50.1024C163.805 50.1484 164.059 50.2173 164.359 50.3093C164.937 50.4933 165.56 50.6312 166.161 50.7002C166.761 50.7922 167.361 50.8382 167.893 50.8382C168.608 50.8382 169.324 50.7462 169.994 50.5852C170.664 50.4013 171.264 50.1484 171.795 49.7805C172.304 49.4126 172.742 48.9527 173.043 48.4239C173.366 47.895 173.527 47.2282 173.527 46.4694C173.527 45.8946 173.435 45.4117 173.273 44.9979Z" fill="#010101"/>
<path d="M161.38 50.9072V51.1601L161.565 51.0681L161.38 50.9072Z" fill="#010101"/>
<path d="M185.906 50.5853C185.813 50.6772 185.698 50.7462 185.559 50.8382H190.409C190.317 50.7692 190.247 50.7002 190.155 50.6313C189.878 50.3783 189.624 50.1024 189.416 49.7805C189.208 49.4816 189.023 49.1137 188.885 48.7458C188.746 48.3779 188.608 47.987 188.446 47.5961L182.742 32.7195L176.853 47.4352C176.599 48.125 176.345 48.7228 176.091 49.2517C175.837 49.7805 175.606 50.1254 175.421 50.3323C175.259 50.5163 175.098 50.6543 174.936 50.7462C174.89 50.7692 174.844 50.8152 174.774 50.8612H178.077C177.961 50.7922 177.846 50.7002 177.754 50.6313C177.592 50.4933 177.476 50.3324 177.361 50.1484C177.245 49.9645 177.199 49.7115 177.199 49.4126C177.199 49.2057 177.222 48.9757 177.292 48.6998C177.338 48.4239 177.453 48.102 177.592 47.7341L178.816 44.653H184.843L185.883 47.4812C186.206 48.3779 186.368 49.0217 186.368 49.4586C186.368 49.7345 186.321 49.9645 186.229 50.1484C186.183 50.3094 186.044 50.4473 185.906 50.5853ZM179.185 43.8942L181.98 36.8813L184.612 43.8942H179.185Z" fill="#010101"/>
<path d="M206.437 47.2743C206.321 47.5962 206.159 47.9181 205.952 48.24C205.721 48.5849 205.397 48.9068 204.935 49.1597C204.497 49.4126 203.896 49.6426 203.18 49.8265C202.464 50.0105 201.518 50.0794 200.34 50.0794H199.716C198.007 50.0794 197.545 49.9645 197.361 49.8725C197.13 49.7805 196.922 49.6196 196.783 49.3666C196.622 49.0447 196.529 48.4929 196.529 47.6881V35.7546C196.529 34.8579 196.645 34.214 196.899 33.7542C197.153 33.3173 197.453 32.9724 197.823 32.7655C198.169 32.5585 198.538 32.3976 198.931 32.3056C198.954 32.3056 198.954 32.3056 198.977 32.3056H192.095C192.442 32.3976 192.742 32.5355 193.042 32.7195C193.342 32.9034 193.596 33.2253 193.827 33.6162C194.035 34.0301 194.127 34.6279 194.127 35.4327V47.6881C194.127 48.4699 194.035 49.0447 193.827 49.4586C193.619 49.8725 193.365 50.1714 193.065 50.3783C192.788 50.5623 192.488 50.7232 192.141 50.8152H205.282C205.351 50.8152 205.605 50.8152 205.813 50.3554C205.998 49.9645 206.136 49.5046 206.252 48.9758C206.367 48.4239 206.46 47.8491 206.529 47.2972C206.552 47.1363 206.575 46.9753 206.575 46.8144C206.552 46.9523 206.506 47.1133 206.437 47.2743Z" fill="#010101"/>
</g>
<defs>
<clipPath id="clip0">
<rect width="206.622" height="55" fill="white"/>
</clipPath>
</defs>
</svg>
