<svg width="56" height="56" viewBox="0 0 56 56" fill="none" xmlns="http://www.w3.org/2000/svg">
<path d="M46.26 42.8595C45.7542 42.9745 45.2024 43.0665 44.6276 43.0895C44.0988 43.1125 43.547 43.1355 42.9492 43.1355L37.2241 42.9515L36.8563 41.9858L37.0172 41.8478C37.3621 41.5489 37.9139 40.9741 38.6497 40.1923C39.3624 39.4105 40.443 38.2379 41.9605 36.6054C42.5123 36.0075 43.0641 35.3407 43.6619 34.6049C44.2367 33.8691 44.7655 33.0874 45.2484 32.2826C45.6852 31.5468 45.8232 30.972 46.0071 30.1212L46.0301 30.0293C46.237 29.1785 46.191 28.6727 46.1681 28.1438C46.1681 27.9599 46.1451 27.7529 46.1451 27.523C46.1451 26.8102 46.0301 26.1434 45.7772 25.5226C45.5243 24.9707 44.9495 24.143 44.9495 24.143C44.7425 23.8901 44.5356 23.6601 44.2827 23.4532C43.7079 22.9473 43.0181 22.5564 42.2594 22.2575C41.5007 21.9816 40.673 21.8207 39.8222 21.8207C38.9256 21.8207 38.1208 21.9816 37.4311 22.2805C36.7413 22.6024 36.1435 23.0163 35.6377 23.5681C35.1319 24.12 34.718 24.7638 34.3961 25.5226C34.3501 25.6145 34.3271 25.6835 34.3042 25.7755C34.4881 25.5686 34.672 25.3386 34.879 25.1547C35.2928 24.7178 35.7756 24.3729 36.3045 24.074C36.8793 23.7751 37.592 23.6141 38.4657 23.6141C39.3164 23.6141 40.0982 23.7751 40.7879 24.097C41.4777 24.4189 42.0755 24.8328 42.5583 25.3846C43.0411 25.9135 43.409 26.5573 43.6619 27.2471C43.9148 27.9369 44.0298 28.6727 44.0298 29.4314C44.0298 30.5351 43.7769 31.6848 43.2711 32.8344C42.7882 33.9611 42.0755 35.1338 41.2018 36.3754C40.7649 36.9962 40.1901 37.686 39.4774 38.3988C39.3394 38.5368 39.1785 38.6977 39.0405 38.8357L37.9369 39.9624C37.73 40.1693 37.523 40.3763 37.3161 40.5832C36.5574 41.365 35.7986 42.1927 35.0169 43.0895C34.5111 43.6643 34.0282 44.2851 33.5914 44.9289H46.398C46.444 44.8829 46.5129 44.791 46.5819 44.63C46.7888 44.2621 47.0188 43.8023 47.2257 43.2734C47.3636 42.9285 47.4786 42.5836 47.5936 42.2387C47.1797 42.5606 46.7199 42.7446 46.26 42.8595ZM46.26 42.8595C45.7542 42.9745 45.2024 43.0665 44.6276 43.0895C44.0988 43.1125 43.547 43.1355 42.9492 43.1355L37.2241 42.9515L36.8563 41.9858L37.0172 41.8478C37.3621 41.5489 37.9139 40.9741 38.6497 40.1923C39.3624 39.4105 40.443 38.2379 41.9605 36.6054C42.5123 36.0075 43.0641 35.3407 43.6619 34.6049C44.2367 33.8691 44.7655 33.0874 45.2484 32.2826C45.6852 31.5468 45.8232 30.972 46.0071 30.1212L46.0301 30.0293C46.237 29.1785 46.191 28.6727 46.1681 28.1438C46.1681 27.9599 46.1451 27.7529 46.1451 27.523C46.1451 26.8102 46.0301 26.1434 45.7772 25.5226C45.5243 24.9707 44.9495 24.143 44.9495 24.143C44.7425 23.8901 44.5356 23.6601 44.2827 23.4532C43.7079 22.9473 43.0181 22.5564 42.2594 22.2575C41.5007 21.9816 40.673 21.8207 39.8222 21.8207C38.9256 21.8207 38.1208 21.9816 37.4311 22.2805C36.7413 22.6024 36.1435 23.0163 35.6377 23.5681C35.1319 24.12 34.718 24.7638 34.3961 25.5226C34.3501 25.6145 34.3271 25.6835 34.3042 25.7755C34.4881 25.5686 34.672 25.3386 34.879 25.1547C35.2928 24.7178 35.7756 24.3729 36.3045 24.074C36.8793 23.7751 37.592 23.6141 38.4657 23.6141C39.3164 23.6141 40.0982 23.7751 40.7879 24.097C41.4777 24.4189 42.0755 24.8328 42.5583 25.3846C43.0411 25.9135 43.409 26.5573 43.6619 27.2471C43.9148 27.9369 44.0298 28.6727 44.0298 29.4314C44.0298 30.5351 43.7769 31.6848 43.2711 32.8344C42.7882 33.9611 42.0755 35.1338 41.2018 36.3754C40.7649 36.9962 40.1901 37.686 39.4774 38.3988C39.3394 38.5368 39.1785 38.6977 39.0405 38.8357L37.9369 39.9624C37.73 40.1693 37.523 40.3763 37.3161 40.5832C36.5574 41.365 35.7986 42.1927 35.0169 43.0895C34.5111 43.6643 34.0282 44.2851 33.5914 44.9289H46.398C46.444 44.8829 46.5129 44.791 46.5819 44.63C46.7888 44.2621 47.0188 43.8023 47.2257 43.2734C47.3636 42.9285 47.4786 42.5836 47.5936 42.2387C47.1797 42.5606 46.7199 42.7446 46.26 42.8595ZM46.26 42.8595C45.7542 42.9745 45.2024 43.0665 44.6276 43.0895C44.0988 43.1125 43.547 43.1355 42.9492 43.1355L37.2241 42.9515L36.8563 41.9858L37.0172 41.8478C37.3621 41.5489 37.9139 40.9741 38.6497 40.1923C39.3624 39.4105 40.443 38.2379 41.9605 36.6054C42.5123 36.0075 43.0641 35.3407 43.6619 34.6049C44.2367 33.8691 44.7655 33.0874 45.2484 32.2826C45.6852 31.5468 45.8232 30.972 46.0071 30.1212L46.0301 30.0293C46.237 29.1785 46.191 28.6727 46.1681 28.1438C46.1681 27.9599 46.1451 27.7529 46.1451 27.523C46.1451 26.8102 46.0301 26.1434 45.7772 25.5226C45.5243 24.9707 44.9495 24.143 44.9495 24.143C44.7425 23.8901 44.5356 23.6601 44.2827 23.4532C43.7079 22.9473 43.0181 22.5564 42.2594 22.2575C41.5007 21.9816 40.673 21.8207 39.8222 21.8207C38.9256 21.8207 38.1208 21.9816 37.4311 22.2805C36.7413 22.6024 36.1435 23.0163 35.6377 23.5681C35.1319 24.12 34.718 24.7638 34.3961 25.5226C34.3501 25.6145 34.3271 25.6835 34.3042 25.7755C34.4881 25.5686 34.672 25.3386 34.879 25.1547C35.2928 24.7178 35.7756 24.3729 36.3045 24.074C36.8793 23.7751 37.592 23.6141 38.4657 23.6141C39.3164 23.6141 40.0982 23.7751 40.7879 24.097C41.4777 24.4189 42.0755 24.8328 42.5583 25.3846C43.0411 25.9135 43.409 26.5573 43.6619 27.2471C43.9148 27.9369 44.0298 28.6727 44.0298 29.4314C44.0298 30.5351 43.7769 31.6848 43.2711 32.8344C42.7882 33.9611 42.0755 35.1338 41.2018 36.3754C40.7649 36.9962 40.1901 37.686 39.4774 38.3988C39.3394 38.5368 39.1785 38.6977 39.0405 38.8357L37.9369 39.9624C37.73 40.1693 37.523 40.3763 37.3161 40.5832C36.5574 41.365 35.7986 42.1927 35.0169 43.0895C34.5111 43.6643 34.0282 44.2851 33.5914 44.9289H46.398C46.444 44.8829 46.5129 44.791 46.5819 44.63C46.7888 44.2621 47.0188 43.8023 47.2257 43.2734C47.3636 42.9285 47.4786 42.5836 47.5936 42.2387C47.1797 42.5606 46.7199 42.7446 46.26 42.8595ZM46.26 42.8595C45.7542 42.9745 45.2024 43.0665 44.6276 43.0895C44.0988 43.1125 43.547 43.1355 42.9492 43.1355L37.2241 42.9515L36.8563 41.9858L37.0172 41.8478C37.3621 41.5489 37.9139 40.9741 38.6497 40.1923C39.3624 39.4105 40.443 38.2379 41.9605 36.6054C42.5123 36.0075 43.0641 35.3407 43.6619 34.6049C44.2367 33.8691 44.7655 33.0874 45.2484 32.2826C45.6852 31.5468 45.8232 30.972 46.0071 30.1212L46.0301 30.0293C46.237 29.1785 46.191 28.6727 46.1681 28.1438C46.1681 27.9599 46.1451 27.7529 46.1451 27.523C46.1451 26.8102 46.0301 26.1434 45.7772 25.5226C45.5243 24.9707 44.9495 24.143 44.9495 24.143C44.7425 23.8901 44.5356 23.6601 44.2827 23.4532C43.7079 22.9473 43.0181 22.5564 42.2594 22.2575C41.5007 21.9816 40.673 21.8207 39.8222 21.8207C38.9256 21.8207 38.1208 21.9816 37.4311 22.2805C36.7413 22.6024 36.1435 23.0163 35.6377 23.5681C35.1319 24.12 34.718 24.7638 34.3961 25.5226C34.3501 25.6145 34.3271 25.6835 34.3042 25.7755C34.4881 25.5686 34.672 25.3386 34.879 25.1547C35.2928 24.7178 35.7756 24.3729 36.3045 24.074C36.8793 23.7751 37.592 23.6141 38.4657 23.6141C39.3164 23.6141 40.0982 23.7751 40.7879 24.097C41.4777 24.4189 42.0755 24.8328 42.5583 25.3846C43.0411 25.9135 43.409 26.5573 43.6619 27.2471C43.9148 27.9369 44.0298 28.6727 44.0298 29.4314C44.0298 30.5351 43.7769 31.6848 43.2711 32.8344C42.7882 33.9611 42.0755 35.1338 41.2018 36.3754C40.7649 36.9962 40.1901 37.686 39.4774 38.3988C39.3394 38.5368 39.1785 38.6977 39.0405 38.8357L37.9369 39.9624C37.73 40.1693 37.523 40.3763 37.3161 40.5832C36.5574 41.365 35.7986 42.1927 35.0169 43.0895C34.5111 43.6643 34.0282 44.2851 33.5914 44.9289H46.398C46.444 44.8829 46.5129 44.791 46.5819 44.63C46.7888 44.2621 47.0188 43.8023 47.2257 43.2734C47.3636 42.9285 47.4786 42.5836 47.5936 42.2387C47.1797 42.5606 46.7199 42.7446 46.26 42.8595ZM46.26 42.8595C45.7542 42.9745 45.2024 43.0665 44.6276 43.0895C44.0988 43.1125 43.547 43.1355 42.9492 43.1355L37.2241 42.9515L36.8563 41.9858L37.0172 41.8478C37.3621 41.5489 37.9139 40.9741 38.6497 40.1923C39.3624 39.4105 40.443 38.2379 41.9605 36.6054C42.5123 36.0075 43.0641 35.3407 43.6619 34.6049C44.2367 33.8691 44.7655 33.0874 45.2484 32.2826C45.6852 31.5468 45.8232 30.972 46.0071 30.1212L46.0301 30.0293C46.237 29.1785 46.191 28.6727 46.1681 28.1438C46.1681 27.9599 46.1451 27.7529 46.1451 27.523C46.1451 26.8102 46.0301 26.1434 45.7772 25.5226C45.5243 24.9707 44.9495 24.143 44.9495 24.143C44.7425 23.8901 44.5356 23.6601 44.2827 23.4532C43.7079 22.9473 43.0181 22.5564 42.2594 22.2575C41.5007 21.9816 40.673 21.8207 39.8222 21.8207C38.9256 21.8207 38.1208 21.9816 37.4311 22.2805C36.7413 22.6024 36.1435 23.0163 35.6377 23.5681C35.1319 24.12 34.718 24.7638 34.3961 25.5226C34.3501 25.6145 34.3271 25.6835 34.3042 25.7755C34.4881 25.5686 34.672 25.3386 34.879 25.1547C35.2928 24.7178 35.7756 24.3729 36.3045 24.074C36.8793 23.7751 37.592 23.6141 38.4657 23.6141C39.3164 23.6141 40.0982 23.7751 40.7879 24.097C41.4777 24.4189 42.0755 24.8328 42.5583 25.3846C43.0411 25.9135 43.409 26.5573 43.6619 27.2471C43.9148 27.9369 44.0298 28.6727 44.0298 29.4314C44.0298 30.5351 43.7769 31.6848 43.2711 32.8344C42.7882 33.9611 42.0755 35.1338 41.2018 36.3754C40.7649 36.9962 40.1901 37.686 39.4774 38.3988C39.3394 38.5368 39.1785 38.6977 39.0405 38.8357L37.9369 39.9624C37.73 40.1693 37.523 40.3763 37.3161 40.5832C36.5574 41.365 35.7986 42.1927 35.0169 43.0895C34.5111 43.6643 34.0282 44.2851 33.5914 44.9289H46.398C46.444 44.8829 46.5129 44.791 46.5819 44.63C46.7888 44.2621 47.0188 43.8023 47.2257 43.2734C47.3636 42.9285 47.4786 42.5836 47.5936 42.2387C47.1797 42.5606 46.7199 42.7446 46.26 42.8595ZM46.26 42.8595C45.7542 42.9745 45.2024 43.0665 44.6276 43.0895C44.0988 43.1125 43.547 43.1355 42.9492 43.1355L37.2241 42.9515L36.8563 41.9858L37.0172 41.8478C37.3621 41.5489 37.9139 40.9741 38.6497 40.1923C39.3624 39.4105 40.443 38.2379 41.9605 36.6054C42.5123 36.0075 43.0641 35.3407 43.6619 34.6049C44.2367 33.8691 44.7655 33.0874 45.2484 32.2826C45.6852 31.5468 45.8232 30.972 46.0071 30.1212L46.0301 30.0293C46.237 29.1785 46.191 28.6727 46.1681 28.1438C46.1681 27.9599 46.1451 27.7529 46.1451 27.523C46.1451 26.8102 46.0301 26.1434 45.7772 25.5226C45.5243 24.9707 44.9495 24.143 44.9495 24.143C44.7425 23.8901 44.5356 23.6601 44.2827 23.4532C43.7079 22.9473 43.0181 22.5564 42.2594 22.2575C41.5007 21.9816 40.673 21.8207 39.8222 21.8207C38.9256 21.8207 38.1208 21.9816 37.4311 22.2805C36.7413 22.6024 36.1435 23.0163 35.6377 23.5681C35.1319 24.12 34.718 24.7638 34.3961 25.5226C34.3501 25.6145 34.3271 25.6835 34.3042 25.7755C34.4881 25.5686 34.672 25.3386 34.879 25.1547C35.2928 24.7178 35.7756 24.3729 36.3045 24.074C36.8793 23.7751 37.592 23.6141 38.4657 23.6141C39.3164 23.6141 40.0982 23.7751 40.7879 24.097C41.4777 24.4189 42.0755 24.8328 42.5583 25.3846C43.0411 25.9135 43.409 26.5573 43.6619 27.2471C43.9148 27.9369 44.0298 28.6727 44.0298 29.4314C44.0298 30.5351 43.7769 31.6848 43.2711 32.8344C42.7882 33.9611 42.0755 35.1338 41.2018 36.3754C40.7649 36.9962 40.1901 37.686 39.4774 38.3988C39.3394 38.5368 39.1785 38.6977 39.0405 38.8357L37.9369 39.9624C37.73 40.1693 37.523 40.3763 37.3161 40.5832C36.5574 41.365 35.7986 42.1927 35.0169 43.0895C34.5111 43.6643 34.0282 44.2851 33.5914 44.9289H46.398C46.444 44.8829 46.5129 44.791 46.5819 44.63C46.7888 44.2621 47.0188 43.8023 47.2257 43.2734C47.3636 42.9285 47.4786 42.5836 47.5936 42.2387C47.1797 42.5606 46.7199 42.7446 46.26 42.8595ZM46.26 42.8595C45.7542 42.9745 45.2024 43.0665 44.6276 43.0895C44.0988 43.1125 43.547 43.1355 42.9492 43.1355L37.2241 42.9515L36.8563 41.9858L37.0172 41.8478C37.3621 41.5489 37.9139 40.9741 38.6497 40.1923C39.3624 39.4105 40.443 38.2379 41.9605 36.6054C42.5123 36.0075 43.0641 35.3407 43.6619 34.6049C44.2367 33.8691 44.7655 33.0874 45.2484 32.2826C45.6852 31.5468 45.8232 30.972 46.0071 30.1212L46.0301 30.0293C46.237 29.1785 46.191 28.6727 46.1681 28.1438C46.1681 27.9599 46.1451 27.7529 46.1451 27.523C46.1451 26.8102 46.0301 26.1434 45.7772 25.5226C45.5243 24.9707 44.9495 24.143 44.9495 24.143C44.7425 23.8901 44.5356 23.6601 44.2827 23.4532C43.7079 22.9473 43.0181 22.5564 42.2594 22.2575C41.5007 21.9816 40.673 21.8207 39.8222 21.8207C38.9256 21.8207 38.1208 21.9816 37.4311 22.2805C36.7413 22.6024 36.1435 23.0163 35.6377 23.5681C35.1319 24.12 34.718 24.7638 34.3961 25.5226C34.3501 25.6145 34.3271 25.6835 34.3042 25.7755C34.4881 25.5686 34.672 25.3386 34.879 25.1547C35.2928 24.7178 35.7756 24.3729 36.3045 24.074C36.8793 23.7751 37.592 23.6141 38.4657 23.6141C39.3164 23.6141 40.0982 23.7751 40.7879 24.097C41.4777 24.4189 42.0755 24.8328 42.5583 25.3846C43.0411 25.9135 43.409 26.5573 43.6619 27.2471C43.9148 27.9369 44.0298 28.6727 44.0298 29.4314C44.0298 30.5351 43.7769 31.6848 43.2711 32.8344C42.7882 33.9611 42.0755 35.1338 41.2018 36.3754C40.7649 36.9962 40.1901 37.686 39.4774 38.3988C39.3394 38.5368 39.1785 38.6977 39.0405 38.8357L37.9369 39.9624C37.73 40.1693 37.523 40.3763 37.3161 40.5832C36.5574 41.365 35.7986 42.1927 35.0169 43.0895C34.5111 43.6643 34.0282 44.2851 33.5914 44.9289H46.398C46.444 44.8829 46.5129 44.791 46.5819 44.63C46.7888 44.2621 47.0188 43.8023 47.2257 43.2734C47.3636 42.9285 47.4786 42.5836 47.5936 42.2387C47.1797 42.5606 46.7199 42.7446 46.26 42.8595ZM46.26 42.8595C45.7542 42.9745 45.2024 43.0665 44.6276 43.0895C44.0988 43.1125 43.547 43.1355 42.9492 43.1355L37.2241 42.9515L36.8563 41.9858L37.0172 41.8478C37.3621 41.5489 37.9139 40.9741 38.6497 40.1923C39.3624 39.4105 40.443 38.2379 41.9605 36.6054C42.5123 36.0075 43.0641 35.3407 43.6619 34.6049C44.2367 33.8691 44.7655 33.0874 45.2484 32.2826C45.6852 31.5468 45.8232 30.972 46.0071 30.1212L46.0301 30.0293C46.237 29.1785 46.191 28.6727 46.1681 28.1438C46.1681 27.9599 46.1451 27.7529 46.1451 27.523C46.1451 26.8102 46.0301 26.1434 45.7772 25.5226C45.5243 24.9707 44.9495 24.143 44.9495 24.143C44.7425 23.8901 44.5356 23.6601 44.2827 23.4532C43.7079 22.9473 43.0181 22.5564 42.2594 22.2575C41.5007 21.9816 40.673 21.8207 39.8222 21.8207C38.9256 21.8207 38.1208 21.9816 37.4311 22.2805C36.7413 22.6024 36.1435 23.0163 35.6377 23.5681C35.1319 24.12 34.718 24.7638 34.3961 25.5226C34.3501 25.6145 34.3271 25.6835 34.3042 25.7755C34.4881 25.5686 34.672 25.3386 34.879 25.1547C35.2928 24.7178 35.7756 24.3729 36.3045 24.074C36.8793 23.7751 37.592 23.6141 38.4657 23.6141C39.3164 23.6141 40.0982 23.7751 40.7879 24.097C41.4777 24.4189 42.0755 24.8328 42.5583 25.3846C43.0411 25.9135 43.409 26.5573 43.6619 27.2471C43.9148 27.9369 44.0298 28.6727 44.0298 29.4314C44.0298 30.5351 43.7769 31.6848 43.2711 32.8344C42.7882 33.9611 42.0755 35.1338 41.2018 36.3754C40.7649 36.9962 40.1901 37.686 39.4774 38.3988C39.3394 38.5368 39.1785 38.6977 39.0405 38.8357L37.9369 39.9624C37.73 40.1693 37.523 40.3763 37.3161 40.5832C36.5574 41.365 35.7986 42.1927 35.0169 43.0895C34.5111 43.6643 34.0282 44.2851 33.5914 44.9289H46.398C46.444 44.8829 46.5129 44.791 46.5819 44.63C46.7888 44.2621 47.0188 43.8023 47.2257 43.2734C47.3636 42.9285 47.4786 42.5836 47.5936 42.2387C47.1797 42.5606 46.7199 42.7446 46.26 42.8595ZM44.6276 43.0895C44.0988 43.1125 43.547 43.1355 42.9492 43.1355L37.2241 42.9515L36.8563 41.9858L37.0172 41.8478C37.3621 41.5489 37.9139 40.9741 38.6497 40.1923C39.3624 39.4105 40.443 38.2379 41.9605 36.6054C42.5123 36.0075 43.0641 35.3407 43.6619 34.6049C44.2367 33.8691 44.7655 33.0874 45.2484 32.2826C45.6852 31.5468 45.8232 30.972 46.0071 30.1212L46.0301 30.0293C46.237 29.1785 46.191 28.6727 46.1681 28.1438C46.1681 27.9599 46.1451 27.7529 46.1451 27.523C46.1451 26.8102 46.0301 26.1434 45.7772 25.5226C45.5243 24.9707 44.9495 24.143 44.9495 24.143C44.7425 23.8901 44.5356 23.6601 44.2827 23.4532C43.7079 22.9473 43.0181 22.5564 42.2594 22.2575C41.5007 21.9816 40.673 21.8207 39.8222 21.8207C38.9256 21.8207 38.1208 21.9816 37.4311 22.2805C36.7413 22.6024 36.1435 23.0163 35.6377 23.5681C35.1319 24.12 34.718 24.7638 34.3961 25.5226C34.3501 25.6145 34.3271 25.6835 34.3042 25.7755C34.4881 25.5686 34.672 25.3386 34.879 25.1547C35.2928 24.7178 35.7756 24.3729 36.3045 24.074C36.8793 23.7751 37.592 23.6141 38.4657 23.6141C39.3164 23.6141 40.0982 23.7751 40.7879 24.097C41.4777 24.4189 42.0755 24.8328 42.5583 25.3846C43.0411 25.9135 43.409 26.5573 43.6619 27.2471C43.9148 27.9369 44.0298 28.6727 44.0298 29.4314C44.0298 30.5351 43.7769 31.6848 43.2711 32.8344C42.7882 33.9611 42.0755 35.1338 41.2018 36.3754C40.7649 36.9962 40.1901 37.686 39.4774 38.3988C39.3394 38.5368 39.1785 38.6977 39.0405 38.8357L37.9369 39.9624C37.73 40.1693 37.523 40.3763 37.3161 40.5832C36.5574 41.365 35.7986 42.1927 35.0169 43.0895C34.5111 43.6643 34.0282 44.2851 33.5914 44.9289H46.398C46.444 44.8829 46.5129 44.791 46.5819 44.63C46.7888 44.2621 47.0188 43.8023 47.2257 43.2734C47.3636 42.9285 47.4786 42.5836 47.5936 42.2387C47.1567 42.4916 46.6739 42.6756 46.214 42.7906C45.7312 42.9975 45.2024 43.0665 44.6276 43.0895ZM37.615 0H0V37.6171C0 47.2283 7.79431 55.023 17.405 55.023H55.02V17.4059C54.997 7.79473 47.2257 0 37.615 0ZM27.8664 7.93269H37.9369L38.3048 8.96739L38.1208 9.10535C37.73 9.40426 37.2931 9.6342 36.8333 9.77216C36.5344 9.86413 36.2585 10.0481 35.9826 10.347C35.7067 10.6459 35.4538 11.1518 35.2468 11.8645C35.0399 12.6003 34.9249 13.773 34.9249 15.3365V21.4068C34.81 21.4987 34.718 21.5907 34.603 21.6827C34.4881 21.7747 34.3961 21.8896 34.2812 22.0046C34.2582 22.0276 34.2352 22.0506 34.2352 22.0736L34.2122 22.0966C34.1202 22.2115 34.0053 22.3265 33.9133 22.4185C33.7983 22.5564 33.7064 22.6714 33.5914 22.8094V15.3595C33.5914 13.658 33.7064 12.4164 33.9593 11.5196C34.2352 10.5999 34.5571 9.93311 35.0169 9.47324C35.0859 9.40426 35.1549 9.33528 35.2238 9.2663H30.4875C30.5564 9.33528 30.6024 9.40426 30.6714 9.47324C31.0623 9.91012 31.3842 10.5539 31.6371 11.4507C31.867 12.3014 31.982 13.4971 31.982 15.1756V18.2567H30.6714V15.1296C30.6714 13.612 30.5794 12.4854 30.3725 11.7726C30.1886 11.1058 29.9587 10.6229 29.7057 10.324C29.4528 10.0481 29.1999 9.86413 28.924 9.77216C28.4872 9.6342 28.0503 9.40426 27.6824 9.10535L27.4985 8.96739L27.8664 7.93269ZM22.9691 43.2044C24.7854 43.2044 26.2109 42.8135 27.1996 42.0318C28.2113 41.227 28.993 40.1923 29.4988 38.9507C30.0276 37.663 30.3495 36.2375 30.4875 34.6969C30.6024 33.1104 30.6714 31.5468 30.6714 30.0982V20.2801H31.982V30.0982C31.982 31.5698 31.913 33.1564 31.798 34.7889C31.6601 36.4674 31.3152 38.0309 30.7174 39.4565C30.1196 40.9051 29.1999 42.1237 28.0043 43.0665C26.7858 44.0322 25.0843 44.538 22.9461 44.538C21.1757 44.538 19.7042 44.1702 18.5776 43.4574C17.451 42.7446 16.5543 41.7559 15.9335 40.5142C15.3357 39.3186 14.9218 37.893 14.7149 36.2834C14.508 34.7199 14.416 33.0184 14.416 31.2249V20.2801H15.7266V31.2479C15.7266 32.9724 15.8185 34.6279 16.0255 36.1225C16.2094 37.5941 16.5773 38.8587 17.1291 39.9394C17.6579 40.9511 18.3707 41.7788 19.2903 42.3537C20.21 42.9285 21.4286 43.2044 22.9691 43.2044ZM30.1656 44.561C28.0043 46.2395 25.1533 47.0903 21.7045 47.0903C20.371 47.0903 19.0604 46.9523 17.8418 46.6994C16.5773 46.4235 15.4277 45.9866 14.37 45.3428C13.3124 44.722 12.3697 43.8482 11.542 42.8135C10.7143 41.7788 10.0475 40.4682 9.51871 38.9277V38.9047C8.9899 37.1342 8.73698 34.0761 8.73698 29.5924V15.1296C8.73698 13.612 8.64501 12.4854 8.43809 11.7726C8.25415 11.1058 8.02423 10.6229 7.77132 10.324C7.5184 10.0481 7.26549 9.86413 7.01258 9.77216C6.59872 9.6342 6.18486 9.40426 5.794 9.10535L5.61006 8.96739L5.97794 7.93269H18.4166L18.8075 8.9444L18.6466 9.08236C18.3017 9.38127 17.8878 9.6112 17.451 9.77216C17.1981 9.86413 16.9451 10.0481 16.6922 10.324C16.4393 10.5999 16.2094 11.1058 16.0255 11.7726C15.8185 12.4854 15.7266 13.612 15.7266 15.1296V18.2107H14.416V15.1296C14.416 13.4741 14.531 12.2554 14.7609 11.4047C15.0138 10.5309 15.3127 9.88712 15.7266 9.42726C15.7955 9.35828 15.8415 9.2893 15.9105 9.22032H8.57604C8.64501 9.2893 8.71399 9.35828 8.75997 9.42726C9.15084 9.86413 9.47273 10.5079 9.72564 11.4047C9.95556 12.2554 10.0705 13.4511 10.0705 15.1296V29.5464C10.0705 33.8462 10.3234 36.8583 10.8063 38.4678C11.2891 39.8704 11.8869 41.0431 12.6226 41.9628C13.3354 42.8825 14.1631 43.6413 15.0828 44.1702C16.0025 44.722 17.0371 45.1359 18.1407 45.3658C19.2673 45.5957 20.4859 45.7337 21.7275 45.7337C24.8774 45.7337 27.4525 44.9749 29.3839 43.5033C30.3495 42.7446 31.1312 41.8708 31.6831 40.9051C32.2349 39.9394 32.6717 38.8817 32.9476 37.778C33.2235 36.6513 33.4075 35.4557 33.4994 34.1911C33.5914 32.9034 33.6374 31.5928 33.6374 30.3052V29.7074C33.7523 29.6384 33.8443 29.5464 33.9593 29.4774C34.0742 29.3855 34.1662 29.2935 34.2812 29.2015C34.3042 29.1785 34.3271 29.1785 34.3271 29.1555C34.4421 29.0635 34.5341 28.9486 34.649 28.8566C34.764 28.7416 34.856 28.6267 34.9709 28.4887V30.3052C34.9709 31.6388 34.9249 32.9724 34.833 34.283C34.741 35.6166 34.5341 36.9043 34.2582 38.0999C33.9593 39.3186 33.4764 40.4912 32.8557 41.5719C32.1659 42.6756 31.2692 43.6643 30.1656 44.561ZM49.364 40.5832C49.341 40.9511 49.226 41.4339 49.0421 42.0548C48.8581 42.6296 48.6512 43.2274 48.4443 43.8023C48.2143 44.3771 47.9614 44.9059 47.7315 45.3198C47.4786 45.7567 47.1337 46.2396 46.5819 46.2396H32.2809L31.821 45.4348L31.913 45.2738C32.5568 44.2161 33.2925 43.2274 34.0742 42.3077C34.856 41.411 35.6377 40.5602 36.4194 39.7554C36.6263 39.5255 36.8333 39.3186 37.0402 39.1116L38.1438 37.9849L38.2358 37.893C38.3508 37.778 38.4887 37.64 38.6037 37.5251C39.2704 36.8583 39.7993 36.2375 40.1901 35.6856C41.0178 34.513 41.6846 33.3863 42.1444 32.3516C42.5813 31.3629 42.8112 30.3742 42.8112 29.4544C42.8112 28.8336 42.7192 28.2358 42.5123 27.6839C42.3284 27.1321 42.0295 26.6492 41.6616 26.2354C41.2937 25.8215 40.8339 25.4996 40.3051 25.2467C39.7763 25.0167 39.1555 24.8788 38.4887 24.8788C37.8219 24.8788 37.3161 24.9937 36.9252 25.1777C36.5114 25.4076 36.1205 25.6835 35.7986 26.0284C35.4538 26.3963 35.1319 26.7872 34.833 27.1781C34.4881 27.661 34.0282 28.0978 33.5224 28.4657L33.3615 28.5807L32.5108 28.0748L32.5338 27.8679C32.6487 26.8562 32.9016 25.9135 33.2695 25.0397C33.6374 24.143 34.1432 23.3612 34.741 22.7174C35.3618 22.0506 36.0975 21.5217 36.9252 21.1309C37.776 20.74 38.7416 20.556 39.8222 20.556C40.8339 20.556 41.7996 20.717 42.6963 21.0619C43.5929 21.4068 44.3977 21.8896 45.1104 22.4875C45.5013 22.8324 45.8462 23.2003 46.1451 23.6141C46.7199 24.4419 46.9268 24.9937 46.9268 24.9937C47.2487 25.7525 47.4096 26.6033 47.4096 27.5C47.4096 28.4197 47.2257 29.3855 46.8808 30.3512C46.5359 31.2709 46.0991 32.1906 45.5933 33.0644C45.0874 33.9151 44.5126 34.7429 43.9148 35.5247C43.317 36.2834 42.7192 36.9962 42.1674 37.5941C41.2478 38.5828 40.558 39.4105 40.0062 40.0543C39.6383 40.4912 39.3164 40.8591 39.0405 41.181C38.8336 41.411 38.7186 41.5949 38.5807 41.8018C38.5807 41.8018 38.5807 41.8018 38.5807 41.8248L42.9722 41.8478C43.547 41.8478 44.0988 41.8478 44.6046 41.8248C45.0874 41.8018 45.5473 41.7329 45.9841 41.6409C46.398 41.5489 46.8118 41.365 47.1797 41.135C47.5476 40.9051 47.9155 40.5832 48.2833 40.1463L48.4213 39.9624L49.4099 40.3533L49.364 40.5832ZM44.6276 43.0895C44.0988 43.1125 43.547 43.1355 42.9492 43.1355L37.2241 42.9515L36.8563 41.9858L37.0172 41.8478C37.3621 41.5489 37.9139 40.9741 38.6497 40.1923C39.3624 39.4105 40.443 38.2379 41.9605 36.6054C42.5123 36.0075 43.0641 35.3407 43.6619 34.6049C44.2367 33.8691 44.7655 33.0874 45.2484 32.2826C45.6852 31.5468 45.8232 30.972 46.0071 30.1212L46.0301 30.0293C46.237 29.1785 46.191 28.6727 46.1681 28.1438C46.1681 27.9599 46.1451 27.7529 46.1451 27.523C46.1451 26.8102 46.0301 26.1434 45.7772 25.5226C45.5243 24.9707 44.9495 24.143 44.9495 24.143C44.7425 23.8901 44.5356 23.6601 44.2827 23.4532C43.7079 22.9473 43.0181 22.5564 42.2594 22.2575C41.5007 21.9816 40.673 21.8207 39.8222 21.8207C38.9256 21.8207 38.1208 21.9816 37.4311 22.2805C36.7413 22.6024 36.1435 23.0163 35.6377 23.5681C35.1319 24.12 34.718 24.7638 34.3961 25.5226C34.3501 25.6145 34.3271 25.6835 34.3042 25.7755C34.4881 25.5686 34.672 25.3386 34.879 25.1547C35.2928 24.7178 35.7756 24.3729 36.3045 24.074C36.8793 23.7751 37.592 23.6141 38.4657 23.6141C39.3164 23.6141 40.0982 23.7751 40.7879 24.097C41.4777 24.4189 42.0755 24.8328 42.5583 25.3846C43.0411 25.9135 43.409 26.5573 43.6619 27.2471C43.9148 27.9369 44.0298 28.6727 44.0298 29.4314C44.0298 30.5351 43.7769 31.6848 43.2711 32.8344C42.7882 33.9611 42.0755 35.1338 41.2018 36.3754C40.7649 36.9962 40.1901 37.686 39.4774 38.3988C39.3394 38.5368 39.1785 38.6977 39.0405 38.8357L37.9369 39.9624C37.73 40.1693 37.523 40.3763 37.3161 40.5832C36.5574 41.365 35.7986 42.1927 35.0169 43.0895C34.5111 43.6643 34.0282 44.2851 33.5914 44.9289H46.398C46.444 44.8829 46.5129 44.791 46.5819 44.63C46.7888 44.2621 47.0188 43.8023 47.2257 43.2734C47.3636 42.9285 47.4786 42.5836 47.5936 42.2387C47.1567 42.4916 46.6739 42.6756 46.214 42.7906C45.7312 42.9975 45.2024 43.0665 44.6276 43.0895ZM46.26 42.8595C45.7542 42.9745 45.2024 43.0665 44.6276 43.0895C44.0988 43.1125 43.547 43.1355 42.9492 43.1355L37.2241 42.9515L36.8563 41.9858L37.0172 41.8478C37.3621 41.5489 37.9139 40.9741 38.6497 40.1923C39.3624 39.4105 40.443 38.2379 41.9605 36.6054C42.5123 36.0075 43.0641 35.3407 43.6619 34.6049C44.2367 33.8691 44.7655 33.0874 45.2484 32.2826C45.6852 31.5468 45.8232 30.972 46.0071 30.1212L46.0301 30.0293C46.237 29.1785 46.191 28.6727 46.1681 28.1438C46.1681 27.9599 46.1451 27.7529 46.1451 27.523C46.1451 26.8102 46.0301 26.1434 45.7772 25.5226C45.5243 24.9707 44.9495 24.143 44.9495 24.143C44.7425 23.8901 44.5356 23.6601 44.2827 23.4532C43.7079 22.9473 43.0181 22.5564 42.2594 22.2575C41.5007 21.9816 40.673 21.8207 39.8222 21.8207C38.9256 21.8207 38.1208 21.9816 37.4311 22.2805C36.7413 22.6024 36.1435 23.0163 35.6377 23.5681C35.1319 24.12 34.718 24.7638 34.3961 25.5226C34.3501 25.6145 34.3271 25.6835 34.3042 25.7755C34.4881 25.5686 34.672 25.3386 34.879 25.1547C35.2928 24.7178 35.7756 24.3729 36.3045 24.074C36.8793 23.7751 37.592 23.6141 38.4657 23.6141C39.3164 23.6141 40.0982 23.7751 40.7879 24.097C41.4777 24.4189 42.0755 24.8328 42.5583 25.3846C43.0411 25.9135 43.409 26.5573 43.6619 27.2471C43.9148 27.9369 44.0298 28.6727 44.0298 29.4314C44.0298 30.5351 43.7769 31.6848 43.2711 32.8344C42.7882 33.9611 42.0755 35.1338 41.2018 36.3754C40.7649 36.9962 40.1901 37.686 39.4774 38.3988C39.3394 38.5368 39.1785 38.6977 39.0405 38.8357L37.9369 39.9624C37.73 40.1693 37.523 40.3763 37.3161 40.5832C36.5574 41.365 35.7986 42.1927 35.0169 43.0895C34.5111 43.6643 34.0282 44.2851 33.5914 44.9289H46.398C46.444 44.8829 46.5129 44.791 46.5819 44.63C46.7888 44.2621 47.0188 43.8023 47.2257 43.2734C47.3636 42.9285 47.4786 42.5836 47.5936 42.2387C47.1797 42.5606 46.7199 42.7446 46.26 42.8595ZM46.26 42.8595C45.7542 42.9745 45.2024 43.0665 44.6276 43.0895C44.0988 43.1125 43.547 43.1355 42.9492 43.1355L37.2241 42.9515L36.8563 41.9858L37.0172 41.8478C37.3621 41.5489 37.9139 40.9741 38.6497 40.1923C39.3624 39.4105 40.443 38.2379 41.9605 36.6054C42.5123 36.0075 43.0641 35.3407 43.6619 34.6049C44.2367 33.8691 44.7655 33.0874 45.2484 32.2826C45.6852 31.5468 45.8232 30.972 46.0071 30.1212L46.0301 30.0293C46.237 29.1785 46.191 28.6727 46.1681 28.1438C46.1681 27.9599 46.1451 27.7529 46.1451 27.523C46.1451 26.8102 46.0301 26.1434 45.7772 25.5226C45.5243 24.9707 44.9495 24.143 44.9495 24.143C44.7425 23.8901 44.5356 23.6601 44.2827 23.4532C43.7079 22.9473 43.0181 22.5564 42.2594 22.2575C41.5007 21.9816 40.673 21.8207 39.8222 21.8207C38.9256 21.8207 38.1208 21.9816 37.4311 22.2805C36.7413 22.6024 36.1435 23.0163 35.6377 23.5681C35.1319 24.12 34.718 24.7638 34.3961 25.5226C34.3501 25.6145 34.3271 25.6835 34.3042 25.7755C34.4881 25.5686 34.672 25.3386 34.879 25.1547C35.2928 24.7178 35.7756 24.3729 36.3045 24.074C36.8793 23.7751 37.592 23.6141 38.4657 23.6141C39.3164 23.6141 40.0982 23.7751 40.7879 24.097C41.4777 24.4189 42.0755 24.8328 42.5583 25.3846C43.0411 25.9135 43.409 26.5573 43.6619 27.2471C43.9148 27.9369 44.0298 28.6727 44.0298 29.4314C44.0298 30.5351 43.7769 31.6848 43.2711 32.8344C42.7882 33.9611 42.0755 35.1338 41.2018 36.3754C40.7649 36.9962 40.1901 37.686 39.4774 38.3988C39.3394 38.5368 39.1785 38.6977 39.0405 38.8357L37.9369 39.9624C37.73 40.1693 37.523 40.3763 37.3161 40.5832C36.5574 41.365 35.7986 42.1927 35.0169 43.0895C34.5111 43.6643 34.0282 44.2851 33.5914 44.9289H46.398C46.444 44.8829 46.5129 44.791 46.5819 44.63C46.7888 44.2621 47.0188 43.8023 47.2257 43.2734C47.3636 42.9285 47.4786 42.5836 47.5936 42.2387C47.1797 42.5606 46.7199 42.7446 46.26 42.8595ZM46.26 42.8595C45.7542 42.9745 45.2024 43.0665 44.6276 43.0895C44.0988 43.1125 43.547 43.1355 42.9492 43.1355L37.2241 42.9515L36.8563 41.9858L37.0172 41.8478C37.3621 41.5489 37.9139 40.9741 38.6497 40.1923C39.3624 39.4105 40.443 38.2379 41.9605 36.6054C42.5123 36.0075 43.0641 35.3407 43.6619 34.6049C44.2367 33.8691 44.7655 33.0874 45.2484 32.2826C45.6852 31.5468 45.8232 30.972 46.0071 30.1212L46.0301 30.0293C46.237 29.1785 46.191 28.6727 46.1681 28.1438C46.1681 27.9599 46.1451 27.7529 46.1451 27.523C46.1451 26.8102 46.0301 26.1434 45.7772 25.5226C45.5243 24.9707 44.9495 24.143 44.9495 24.143C44.7425 23.8901 44.5356 23.6601 44.2827 23.4532C43.7079 22.9473 43.0181 22.5564 42.2594 22.2575C41.5007 21.9816 40.673 21.8207 39.8222 21.8207C38.9256 21.8207 38.1208 21.9816 37.4311 22.2805C36.7413 22.6024 36.1435 23.0163 35.6377 23.5681C35.1319 24.12 34.718 24.7638 34.3961 25.5226C34.3501 25.6145 34.3271 25.6835 34.3042 25.7755C34.4881 25.5686 34.672 25.3386 34.879 25.1547C35.2928 24.7178 35.7756 24.3729 36.3045 24.074C36.8793 23.7751 37.592 23.6141 38.4657 23.6141C39.3164 23.6141 40.0982 23.7751 40.7879 24.097C41.4777 24.4189 42.0755 24.8328 42.5583 25.3846C43.0411 25.9135 43.409 26.5573 43.6619 27.2471C43.9148 27.9369 44.0298 28.6727 44.0298 29.4314C44.0298 30.5351 43.7769 31.6848 43.2711 32.8344C42.7882 33.9611 42.0755 35.1338 41.2018 36.3754C40.7649 36.9962 40.1901 37.686 39.4774 38.3988C39.3394 38.5368 39.1785 38.6977 39.0405 38.8357L37.9369 39.9624C37.73 40.1693 37.523 40.3763 37.3161 40.5832C36.5574 41.365 35.7986 42.1927 35.0169 43.0895C34.5111 43.6643 34.0282 44.2851 33.5914 44.9289H46.398C46.444 44.8829 46.5129 44.791 46.5819 44.63C46.7888 44.2621 47.0188 43.8023 47.2257 43.2734C47.3636 42.9285 47.4786 42.5836 47.5936 42.2387C47.1797 42.5606 46.7199 42.7446 46.26 42.8595ZM46.26 42.8595C45.7542 42.9745 45.2024 43.0665 44.6276 43.0895C44.0988 43.1125 43.547 43.1355 42.9492 43.1355L37.2241 42.9515L36.8563 41.9858L37.0172 41.8478C37.3621 41.5489 37.9139 40.9741 38.6497 40.1923C39.3624 39.4105 40.443 38.2379 41.9605 36.6054C42.5123 36.0075 43.0641 35.3407 43.6619 34.6049C44.2367 33.8691 44.7655 33.0874 45.2484 32.2826C45.6852 31.5468 45.8232 30.972 46.0071 30.1212L46.0301 30.0293C46.237 29.1785 46.191 28.6727 46.1681 28.1438C46.1681 27.9599 46.1451 27.7529 46.1451 27.523C46.1451 26.8102 46.0301 26.1434 45.7772 25.5226C45.5243 24.9707 44.9495 24.143 44.9495 24.143C44.7425 23.8901 44.5356 23.6601 44.2827 23.4532C43.7079 22.9473 43.0181 22.5564 42.2594 22.2575C41.5007 21.9816 40.673 21.8207 39.8222 21.8207C38.9256 21.8207 38.1208 21.9816 37.4311 22.2805C36.7413 22.6024 36.1435 23.0163 35.6377 23.5681C35.1319 24.12 34.718 24.7638 34.3961 25.5226C34.3501 25.6145 34.3271 25.6835 34.3042 25.7755C34.4881 25.5686 34.672 25.3386 34.879 25.1547C35.2928 24.7178 35.7756 24.3729 36.3045 24.074C36.8793 23.7751 37.592 23.6141 38.4657 23.6141C39.3164 23.6141 40.0982 23.7751 40.7879 24.097C41.4777 24.4189 42.0755 24.8328 42.5583 25.3846C43.0411 25.9135 43.409 26.5573 43.6619 27.2471C43.9148 27.9369 44.0298 28.6727 44.0298 29.4314C44.0298 30.5351 43.7769 31.6848 43.2711 32.8344C42.7882 33.9611 42.0755 35.1338 41.2018 36.3754C40.7649 36.9962 40.1901 37.686 39.4774 38.3988C39.3394 38.5368 39.1785 38.6977 39.0405 38.8357L37.9369 39.9624C37.73 40.1693 37.523 40.3763 37.3161 40.5832C36.5574 41.365 35.7986 42.1927 35.0169 43.0895C34.5111 43.6643 34.0282 44.2851 33.5914 44.9289H46.398C46.444 44.8829 46.5129 44.791 46.5819 44.63C46.7888 44.2621 47.0188 43.8023 47.2257 43.2734C47.3636 42.9285 47.4786 42.5836 47.5936 42.2387C47.1797 42.5606 46.7199 42.7446 46.26 42.8595ZM46.26 42.8595C45.7542 42.9745 45.2024 43.0665 44.6276 43.0895C44.0988 43.1125 43.547 43.1355 42.9492 43.1355L37.2241 42.9515L36.8563 41.9858L37.0172 41.8478C37.3621 41.5489 37.9139 40.9741 38.6497 40.1923C39.3624 39.4105 40.443 38.2379 41.9605 36.6054C42.5123 36.0075 43.0641 35.3407 43.6619 34.6049C44.2367 33.8691 44.7655 33.0874 45.2484 32.2826C45.6852 31.5468 45.8232 30.972 46.0071 30.1212L46.0301 30.0293C46.237 29.1785 46.191 28.6727 46.1681 28.1438C46.1681 27.9599 46.1451 27.7529 46.1451 27.523C46.1451 26.8102 46.0301 26.1434 45.7772 25.5226C45.5243 24.9707 44.9495 24.143 44.9495 24.143C44.7425 23.8901 44.5356 23.6601 44.2827 23.4532C43.7079 22.9473 43.0181 22.5564 42.2594 22.2575C41.5007 21.9816 40.673 21.8207 39.8222 21.8207C38.9256 21.8207 38.1208 21.9816 37.4311 22.2805C36.7413 22.6024 36.1435 23.0163 35.6377 23.5681C35.1319 24.12 34.718 24.7638 34.3961 25.5226C34.3501 25.6145 34.3271 25.6835 34.3042 25.7755C34.4881 25.5686 34.672 25.3386 34.879 25.1547C35.2928 24.7178 35.7756 24.3729 36.3045 24.074C36.8793 23.7751 37.592 23.6141 38.4657 23.6141C39.3164 23.6141 40.0982 23.7751 40.7879 24.097C41.4777 24.4189 42.0755 24.8328 42.5583 25.3846C43.0411 25.9135 43.409 26.5573 43.6619 27.2471C43.9148 27.9369 44.0298 28.6727 44.0298 29.4314C44.0298 30.5351 43.7769 31.6848 43.2711 32.8344C42.7882 33.9611 42.0755 35.1338 41.2018 36.3754C40.7649 36.9962 40.1901 37.686 39.4774 38.3988C39.3394 38.5368 39.1785 38.6977 39.0405 38.8357L37.9369 39.9624C37.73 40.1693 37.523 40.3763 37.3161 40.5832C36.5574 41.365 35.7986 42.1927 35.0169 43.0895C34.5111 43.6643 34.0282 44.2851 33.5914 44.9289H46.398C46.444 44.8829 46.5129 44.791 46.5819 44.63C46.7888 44.2621 47.0188 43.8023 47.2257 43.2734C47.3636 42.9285 47.4786 42.5836 47.5936 42.2387C47.1797 42.5606 46.7199 42.7446 46.26 42.8595ZM46.26 42.8595C45.7542 42.9745 45.2024 43.0665 44.6276 43.0895C44.0988 43.1125 43.547 43.1355 42.9492 43.1355L37.2241 42.9515L36.8563 41.9858L37.0172 41.8478C37.3621 41.5489 37.9139 40.9741 38.6497 40.1923C39.3624 39.4105 40.443 38.2379 41.9605 36.6054C42.5123 36.0075 43.0641 35.3407 43.6619 34.6049C44.2367 33.8691 44.7655 33.0874 45.2484 32.2826C45.6852 31.5468 45.8232 30.972 46.0071 30.1212L46.0301 30.0293C46.237 29.1785 46.191 28.6727 46.1681 28.1438C46.1681 27.9599 46.1451 27.7529 46.1451 27.523C46.1451 26.8102 46.0301 26.1434 45.7772 25.5226C45.5243 24.9707 44.9495 24.143 44.9495 24.143C44.7425 23.8901 44.5356 23.6601 44.2827 23.4532C43.7079 22.9473 43.0181 22.5564 42.2594 22.2575C41.5007 21.9816 40.673 21.8207 39.8222 21.8207C38.9256 21.8207 38.1208 21.9816 37.4311 22.2805C36.7413 22.6024 36.1435 23.0163 35.6377 23.5681C35.1319 24.12 34.718 24.7638 34.3961 25.5226C34.3501 25.6145 34.3271 25.6835 34.3042 25.7755C34.4881 25.5686 34.672 25.3386 34.879 25.1547C35.2928 24.7178 35.7756 24.3729 36.3045 24.074C36.8793 23.7751 37.592 23.6141 38.4657 23.6141C39.3164 23.6141 40.0982 23.7751 40.7879 24.097C41.4777 24.4189 42.0755 24.8328 42.5583 25.3846C43.0411 25.9135 43.409 26.5573 43.6619 27.2471C43.9148 27.9369 44.0298 28.6727 44.0298 29.4314C44.0298 30.5351 43.7769 31.6848 43.2711 32.8344C42.7882 33.9611 42.0755 35.1338 41.2018 36.3754C40.7649 36.9962 40.1901 37.686 39.4774 38.3988C39.3394 38.5368 39.1785 38.6977 39.0405 38.8357L37.9369 39.9624C37.73 40.1693 37.523 40.3763 37.3161 40.5832C36.5574 41.365 35.7986 42.1927 35.0169 43.0895C34.5111 43.6643 34.0282 44.2851 33.5914 44.9289H46.398C46.444 44.8829 46.5129 44.791 46.5819 44.63C46.7888 44.2621 47.0188 43.8023 47.2257 43.2734C47.3636 42.9285 47.4786 42.5836 47.5936 42.2387C47.1797 42.5606 46.7199 42.7446 46.26 42.8595ZM46.26 42.8595C45.7542 42.9745 45.2024 43.0665 44.6276 43.0895C44.0988 43.1125 43.547 43.1355 42.9492 43.1355L37.2241 42.9515L36.8563 41.9858L37.0172 41.8478C37.3621 41.5489 37.9139 40.9741 38.6497 40.1923C39.3624 39.4105 40.443 38.2379 41.9605 36.6054C42.5123 36.0075 43.0641 35.3407 43.6619 34.6049C44.2367 33.8691 44.7655 33.0874 45.2484 32.2826C45.6852 31.5468 45.8232 30.972 46.0071 30.1212L46.0301 30.0293C46.237 29.1785 46.191 28.6727 46.1681 28.1438C46.1681 27.9599 46.1451 27.7529 46.1451 27.523C46.1451 26.8102 46.0301 26.1434 45.7772 25.5226C45.5243 24.9707 44.9495 24.143 44.9495 24.143C44.7425 23.8901 44.5356 23.6601 44.2827 23.4532C43.7079 22.9473 43.0181 22.5564 42.2594 22.2575C41.5007 21.9816 40.673 21.8207 39.8222 21.8207C38.9256 21.8207 38.1208 21.9816 37.4311 22.2805C36.7413 22.6024 36.1435 23.0163 35.6377 23.5681C35.1319 24.12 34.718 24.7638 34.3961 25.5226C34.3501 25.6145 34.3271 25.6835 34.3042 25.7755C34.4881 25.5686 34.672 25.3386 34.879 25.1547C35.2928 24.7178 35.7756 24.3729 36.3045 24.074C36.8793 23.7751 37.592 23.6141 38.4657 23.6141C39.3164 23.6141 40.0982 23.7751 40.7879 24.097C41.4777 24.4189 42.0755 24.8328 42.5583 25.3846C43.0411 25.9135 43.409 26.5573 43.6619 27.2471C43.9148 27.9369 44.0298 28.6727 44.0298 29.4314C44.0298 30.5351 43.7769 31.6848 43.2711 32.8344C42.7882 33.9611 42.0755 35.1338 41.2018 36.3754C40.7649 36.9962 40.1901 37.686 39.4774 38.3988C39.3394 38.5368 39.1785 38.6977 39.0405 38.8357L37.9369 39.9624C37.73 40.1693 37.523 40.3763 37.3161 40.5832C36.5574 41.365 35.7986 42.1927 35.0169 43.0895C34.5111 43.6643 34.0282 44.2851 33.5914 44.9289H46.398C46.444 44.8829 46.5129 44.791 46.5819 44.63C46.7888 44.2621 47.0188 43.8023 47.2257 43.2734C47.3636 42.9285 47.4786 42.5836 47.5936 42.2387C47.1797 42.5606 46.7199 42.7446 46.26 42.8595Z" fill="#6D5B41"/>
</svg>
