<svg width="24" height="24" viewBox="0 0 24 24" fill="none" xmlns="http://www.w3.org/2000/svg">
<path d="M21.5598 14.7338V5.99203L11.1812 0L0.802734 5.99203V17.9761L11.1812 23.9681L13.9422 22.3741C14.9228 23.3766 16.2896 24 17.7994 24C20.7757 24 23.1972 21.5785 23.1972 18.6022C23.1972 17.0866 22.569 15.7152 21.5598 14.7338ZM11.1812 1.62591L19.4476 6.39848L16.0185 8.3783L7.75214 3.60572L11.1812 1.62591ZM10.4772 21.9357L2.21086 17.1631V7.61798L10.4772 12.3906V21.9357ZM2.91492 6.39848L6.34402 4.41867L14.6104 9.19125L11.1812 11.1711L2.91492 6.39848ZM11.8853 21.9357V12.3905L20.1516 7.61794V13.7445C19.4402 13.3987 18.6421 13.2045 17.7994 13.2045C14.823 13.2045 12.4016 15.6259 12.4016 18.6022C12.4016 19.5595 12.6524 20.4592 13.0912 21.2395L11.8853 21.9357ZM17.7994 22.5919C15.5995 22.5919 13.8097 20.8021 13.8097 18.6022C13.8097 16.4023 15.5995 14.6125 17.7994 14.6125C19.9993 14.6125 21.789 16.4023 21.789 18.6022C21.789 20.8021 19.9993 22.5919 17.7994 22.5919Z" fill="#6A5B40"/>
</svg>
