<svg width="18" height="18" viewBox="0 0 18 18" fill="none" xmlns="http://www.w3.org/2000/svg">
<path d="M16.1698 11.0503V4.49402L8.38592 0L0.602051 4.49402V13.4821L8.38592 17.9761L10.4566 16.7806C11.1921 17.5325 12.2172 18 13.3495 18C15.5818 18 17.3979 16.1839 17.3979 13.9517C17.3979 12.8149 16.9268 11.7864 16.1698 11.0503ZM8.38592 1.21943L14.5857 4.79886L12.0139 6.28372L5.81411 2.70429L8.38592 1.21943ZM7.85788 16.4518L1.65814 12.8723V5.71349L7.85788 9.29292V16.4518ZM2.18619 4.79886L4.75801 3.314L10.9578 6.89344L8.38592 8.3783L2.18619 4.79886ZM8.91397 16.4518V9.29289L15.1137 5.71345V10.3084C14.5802 10.049 13.9816 9.90334 13.3495 9.90334C11.1173 9.90334 9.30118 11.7194 9.30118 13.9517C9.30118 14.6696 9.48927 15.3444 9.8184 15.9296L8.91397 16.4518ZM13.3495 16.9439C11.6996 16.9439 10.3573 15.6016 10.3573 13.9517C10.3573 12.3017 11.6996 10.9594 13.3495 10.9594C14.9994 10.9594 16.3418 12.3017 16.3418 13.9517C16.3418 15.6016 14.9995 16.9439 13.3495 16.9439Z" fill="#FF543E"/>
</svg>
