<svg width="24" height="24" viewBox="0 0 24 24" fill="none" xmlns="http://www.w3.org/2000/svg">
<g clip-path="url(#clip0_416:1918)">
<path d="M19.4666 16.5566L17.1612 18.8748L16.1285 17.8526L15.1379 18.8533L17.169 20.8639L20.4651 17.5495L19.4666 16.5566Z" fill="#6A5B40"/>
<path d="M16.637 14.457C14.8298 14.457 13.3597 15.9272 13.3597 17.7344C13.3597 19.5415 14.8298 21.0117 16.637 21.0117C18.4445 21.0117 19.9143 19.5415 19.9143 17.7344C19.9143 15.9272 18.4442 14.457 16.637 14.457ZM16.637 19.373C15.7333 19.373 14.9983 18.6381 14.9983 17.7344C14.9983 16.8306 15.7333 16.0957 16.637 16.0957C17.5407 16.0957 18.2757 16.8306 18.2757 17.7344C18.2757 18.6381 17.5407 19.373 16.637 19.373Z" fill="#6A5B40"/>
<path d="M5.43894 14.457C3.63179 14.457 2.16162 15.9272 2.16162 17.7344C2.16162 19.5415 3.63179 21.0117 5.43894 21.0117C7.24609 21.0117 8.71626 19.5415 8.71626 17.7344C8.71626 15.9272 7.24609 14.457 5.43894 14.457ZM5.43894 19.373C4.53524 19.373 3.80028 18.6381 3.80028 17.7344C3.80028 16.8306 4.53524 16.0957 5.43894 16.0957C6.34239 16.0957 7.0776 16.8306 7.0776 17.7344C7.0776 18.6381 6.34264 19.373 5.43894 19.373Z" fill="#6A5B40"/>
<path d="M18.8432 5.07619C18.704 4.79954 18.4207 4.625 18.111 4.625H13.7959V6.26366H17.6058L19.8368 10.7011L21.3012 9.9648L18.8432 5.07619Z" fill="#6A5B40"/>
<path d="M14.1791 16.9434H7.97955V18.582H14.1791V16.9434Z" fill="#6A5B40"/>
<path d="M2.98095 16.9434H0.140655C-0.311908 16.9434 -0.67865 17.3102 -0.67865 17.7627C-0.67865 18.2152 -0.311857 18.582 0.140655 18.582H2.981C3.43357 18.582 3.80031 18.2152 3.80031 17.7627C3.80031 17.3101 3.43351 16.9434 2.98095 16.9434Z" fill="#6A5B40"/>
<path d="M22.8278 11.9334L21.2162 9.85775C21.0614 9.65782 20.8224 9.54092 20.5692 9.54092H14.6154V3.80563C14.6154 3.35307 14.2486 2.98633 13.7961 2.98633H0.140654C-0.311908 2.98633 -0.67865 3.35312 -0.67865 3.80563C-0.67865 4.25815 -0.311857 4.62494 0.140654 4.62494H12.9768V10.3602C12.9768 10.8128 13.3436 11.1795 13.7961 11.1795H20.168L21.3612 12.7166V16.9421H19.0944C18.6418 16.9421 18.2751 17.3089 18.2751 17.7614C18.2751 18.214 18.6419 18.5808 19.0944 18.5808H22.1805C22.6331 18.5808 22.9998 18.214 22.9999 17.7614V12.4359C22.9999 12.254 22.9392 12.077 22.8278 11.9334Z" fill="#6A5B40"/>
<path d="M2.92662 12.793H-0.842317C-1.29488 12.793 -1.66162 13.1598 -1.66162 13.6123C-1.66162 14.0648 -1.29483 14.4316 -0.842317 14.4316H2.92657C3.37913 14.4316 3.74587 14.0648 3.74587 13.6123C3.74592 13.1598 3.37913 12.793 2.92662 12.793Z" fill="#6A5B40"/>
<path d="M4.81092 9.56836H-2.1807C-2.63321 9.56836 -3 9.93515 -3 10.3877C-3 10.8403 -2.63321 11.207 -2.1807 11.207H4.81092C5.26348 11.207 5.63022 10.8402 5.63022 10.3877C5.63022 9.9352 5.26348 9.56836 4.81092 9.56836Z" fill="#6A5B40"/>
<path d="M6.1493 6.3457H-0.842316C-1.29488 6.3457 -1.66162 6.7125 -1.66162 7.16501C-1.66162 7.61757 -1.29483 7.98431 -0.842316 7.98431H6.1493C6.60186 7.98431 6.9686 7.61752 6.9686 7.16501C6.96865 6.7125 6.60186 6.3457 6.1493 6.3457Z" fill="#6A5B40"/>
</g>
<defs>
<clipPath id="clip0_416:1918">
<rect width="24" height="24" fill="white"/>
</clipPath>
</defs>
</svg>
