<svg width="99" height="99" viewBox="0 0 99 99" fill="none" xmlns="http://www.w3.org/2000/svg">
<g filter="url(#filter0_b)">
<path d="M99 49.5C99 76.8381 76.8381 99 49.5 99C22.1619 99 0 76.8381 0 49.5C0 22.1619 22.1619 0 49.5 0C52.0379 0 54.5313 0.191001 56.9664 0.559413C58.0729 0.726814 59.1674 0.930845 60.2486 1.17023C82.4186 6.07891 99 25.8531 99 49.5Z" fill="white" fill-opacity="0.19"/>
<path d="M98.75 49.5C98.75 76.7 76.7 98.75 49.5 98.75C22.3 98.75 0.25 76.7 0.25 49.5C0.25 22.3 22.3 0.25 49.5 0.25C52.0254 0.25 54.5062 0.440054 56.929 0.8066C58.0299 0.973154 59.1188 1.17615 60.1945 1.41432C82.2526 6.29819 98.75 25.9728 98.75 49.5Z" stroke="white" stroke-width="0.5"/>
</g>
<path d="M44 41L58 50L44 59V41Z" fill="white" stroke="white" stroke-width="2" stroke-linecap="round" stroke-linejoin="round"/>
<defs>
<filter id="filter0_b" x="-54" y="-54" width="207" height="207" filterUnits="userSpaceOnUse" color-interpolation-filters="sRGB">
<feFlood flood-opacity="0" result="BackgroundImageFix"/>
<feGaussianBlur in="BackgroundImage" stdDeviation="27"/>
<feComposite in2="SourceAlpha" operator="in" result="effect1_backgroundBlur"/>
<feBlend mode="normal" in="SourceGraphic" in2="effect1_backgroundBlur" result="shape"/>
</filter>
</defs>
</svg>
