<svg width="1152" height="2830" viewBox="0 0 1152 2830" fill="none" xmlns="http://www.w3.org/2000/svg">
<g filter="url(#filter0_d)">
<path d="M342.377 1493.13C347.92 1461.61 331.54 1433.86 322.657 1423.92C313.597 1415.4 330.236 1383.45 331.717 1374.94C355.701 1237.04 354.635 1242.9 354.635 1220C354.635 1197.11 351.97 1142.27 354.635 1103.4C357.3 1064.54 377.02 1075.18 375.954 1019.81C374.888 964.441 388.746 917.588 390.878 910.666C393.009 903.745 399.938 889.902 398.339 936.755C396.74 983.608 408.999 1005.97 416.46 1048.03C423.922 1090.09 401.537 1202.96 395.674 1225.86C389.812 1248.75 367.427 1429.24 367.96 1458.53C368.493 1487.81 369.026 1595.89 371.157 1611.86C373.289 1627.83 386.614 1792.88 381.817 1836.54C377.02 1880.2 361.564 2013.84 361.564 2018.63C361.564 2023.42 351.97 2134.7 377.02 2174.1C402.07 2213.5 424.988 2370.56 421.79 2398.78C410.065 2445.1 420.724 2429.66 406.334 2463.73C391.943 2497.81 381.284 2536.14 379.685 2553.71C378.086 2571.28 401.004 2568.62 411.664 2568.62C453.236 2564.89 468.159 2565.96 469.225 2568.62C470.291 2571.28 468.159 2573.41 474.022 2575.54C496.406 2578.73 506 2564.36 506 2561.16C506 2557.97 508.132 2554.24 510.264 2526.56C511.969 2504.41 508.132 2480.41 506 2471.19C504.756 2465.51 503.015 2449.68 506 2431.79L506.179 2430.71C509.78 2409.15 511.218 2400.54 504.401 2378.01C497.472 2355.12 491.61 2330.63 490.544 2298.15C489.478 2265.67 493.742 2201.78 496.406 2189.54C499.071 2177.29 518.791 2075.07 504.401 2018.63C490.011 1962.19 495.341 1940.36 513.462 1896.17C531.583 1851.98 541.709 1680.54 542.242 1635.29C542.775 1590.03 565.693 1556.49 568.891 1543.18C572.089 1529.87 572.089 1496.86 572.622 1490.47C573.048 1485.36 576.353 1484.08 577.952 1484.08V246.208C558.764 245.143 541.176 248.337 527.319 252.064C462.296 272.829 473.489 366.002 473.489 377.183C473.489 388.363 474.555 389.961 473.489 391.558C458.032 396.882 463.895 420.309 464.961 443.735C466.027 467.161 484.148 463.434 484.148 470.888C483.615 513.482 499.071 506.56 504.934 526.26C518.258 570.983 508.665 597.604 502.802 601.863C442.576 644.989 409.532 642.86 371.157 648.716C264.03 679.064 281.618 769.575 266.694 834.53C251.771 899.485 257.101 964.973 257.101 990.529C257.101 1016.09 266.162 1023.01 257.101 1074.65C248.041 1126.3 249.639 1148.13 251.238 1168.36C252.837 1188.59 260.299 1298.8 259.766 1350.44C259.233 1402.09 258.167 1429.24 257.101 1440.42C256.035 1451.6 249.107 1472.37 250.173 1533.6C251.239 1594.82 306.668 1632.63 326.921 1640.08C343.123 1646.04 346.108 1642.56 345.575 1640.08C343.443 1631.56 345.575 1625.7 346.641 1625.17C354.103 1625.17 349.839 1617.19 348.773 1616.12C331.291 1600.36 328.342 1592.16 329.053 1590.03C350.372 1593.76 342.377 1583.64 339.179 1580.98C314.449 1565.65 300.805 1549.39 297.074 1543.18C289.826 1529.98 290.679 1518.69 293.343 1512.83C297.075 1506.44 306.401 1509.64 307.734 1514.96C312.424 1533.7 319.637 1549.75 322.657 1555.43C326.921 1565.01 343.824 1562.35 340.778 1551.7C336.514 1536.79 335.448 1532.53 342.377 1493.13Z" fill="white"/>
<path d="M809.623 1493.13C804.08 1461.61 820.46 1433.86 829.343 1423.92C838.403 1415.4 821.764 1383.45 820.283 1374.94C796.299 1237.04 797.365 1242.9 797.365 1220C797.365 1197.11 800.03 1142.27 797.365 1103.4C794.7 1064.54 774.98 1075.18 776.046 1019.81C777.112 964.441 763.254 917.588 761.122 910.666C758.991 903.745 752.062 889.902 753.661 936.755C755.26 983.608 743.001 1005.97 735.54 1048.03C728.078 1090.09 750.463 1202.96 756.326 1225.86C762.188 1248.75 784.573 1429.24 784.04 1458.53C783.507 1487.81 782.974 1595.89 780.843 1611.86C778.711 1627.83 765.386 1792.88 770.183 1836.54C774.98 1880.2 790.436 2013.84 790.436 2018.63C790.436 2023.42 800.03 2134.7 774.98 2174.1C749.93 2213.5 727.012 2370.56 730.21 2398.78C741.935 2445.1 731.276 2429.66 745.666 2463.73C760.057 2497.81 770.716 2536.14 772.315 2553.71C773.914 2571.28 750.996 2568.62 740.336 2568.62C698.764 2564.89 683.841 2565.96 682.775 2568.62C681.709 2571.28 683.841 2573.41 677.978 2575.54C655.594 2578.73 646 2564.36 646 2561.16C646 2557.97 643.868 2554.24 641.736 2526.56C640.031 2504.41 643.868 2480.41 646 2471.19C647.244 2465.51 648.985 2449.68 646 2431.79L645.821 2430.71C642.22 2409.15 640.782 2400.54 647.599 2378.01C654.528 2355.12 660.39 2330.63 661.456 2298.15C662.522 2265.67 658.258 2201.78 655.594 2189.54C652.929 2177.29 633.209 2075.07 647.599 2018.63C661.989 1962.19 656.659 1940.36 638.538 1896.17C620.417 1851.98 610.291 1680.54 609.758 1635.29C609.225 1590.03 586.307 1556.49 583.109 1543.18C579.911 1529.87 579.911 1496.86 579.378 1490.47C578.952 1485.36 575.647 1484.08 574.048 1484.08V246.208C593.236 245.143 610.824 248.337 624.681 252.064C689.704 272.829 678.511 366.002 678.511 377.183C678.511 388.363 677.445 389.961 678.511 391.558C693.968 396.882 688.105 420.309 687.039 443.735C685.973 467.161 667.852 463.434 667.852 470.888C668.385 513.482 652.929 506.56 647.066 526.26C633.742 570.983 643.335 597.604 649.198 601.863C709.424 644.989 742.468 642.86 780.843 648.716C887.97 679.064 870.382 769.575 885.306 834.53C900.229 899.485 894.899 964.973 894.899 990.529C894.899 1016.09 885.838 1023.01 894.899 1074.65C903.959 1126.3 902.361 1148.13 900.762 1168.36C899.163 1188.59 891.701 1298.8 892.234 1350.44C892.767 1402.09 893.833 1429.24 894.899 1440.42C895.965 1451.6 902.893 1472.37 901.827 1533.6C900.761 1594.82 845.332 1632.63 825.079 1640.08C808.877 1646.04 805.892 1642.56 806.425 1640.08C808.557 1631.56 806.425 1625.7 805.359 1625.17C797.897 1625.17 802.161 1617.19 803.227 1616.12C820.709 1600.36 823.658 1592.16 822.947 1590.03C801.628 1593.76 809.623 1583.64 812.821 1580.98C837.551 1565.65 851.195 1549.39 854.926 1543.18C862.174 1529.98 861.321 1518.69 858.657 1512.83C854.925 1506.44 845.599 1509.64 844.266 1514.96C839.576 1533.7 832.363 1549.75 829.343 1555.43C825.079 1565.01 808.176 1562.35 811.222 1551.7C815.486 1536.79 816.552 1532.53 809.623 1493.13Z" fill="white"/>
</g>
<path d="M645 2125.5C639 2095.5 642.5 2051 645 2032.5L791.5 2034.5C791.334 2034.83 791.2 2037.8 792 2047C793.5 2059.5 792 2079.5 792 2095.5C792 2108.3 790 2120.83 789 2125.5H645Z" fill="#F9D2D4"/>
<mask maskUnits="userSpaceOnUse" x="0" y="0" width="0" height="0" fill="black">
<rect fill="white" width="0" height="0"/>
</mask>
<path d="M693 2138.5L698 2141.39V2135.61L693 2138.5ZM741 2138.5L736 2135.61V2141.39L741 2138.5ZM697.5 2139H736.5V2138H697.5V2139Z" fill="#DA1E28" mask="url(#)"/>
<defs>
<filter id="filter0_d" x="0" y="0" width="1152" height="2830" filterUnits="userSpaceOnUse" color-interpolation-filters="sRGB">
<feFlood flood-opacity="0" result="BackgroundImageFix"/>
<feColorMatrix in="SourceAlpha" type="matrix" values="0 0 0 0 0 0 0 0 0 0 0 0 0 0 0 0 0 0 127 0" result="hardAlpha"/>
<feOffset dy="4"/>
<feGaussianBlur stdDeviation="125"/>
<feComposite in2="hardAlpha" operator="out"/>
<feColorMatrix type="matrix" values="0 0 0 0 0 0 0 0 0 0 0 0 0 0 0 0 0 0 0.14 0"/>
<feBlend mode="normal" in2="BackgroundImageFix" result="effect1_dropShadow"/>
<feBlend mode="normal" in="SourceGraphic" in2="effect1_dropShadow" result="shape"/>
</filter>
</defs>
</svg>
