<svg width="924" height="2014" viewBox="0 0 924 2014" fill="none" xmlns="http://www.w3.org/2000/svg">
<g filter="url(#filter0_d)">
<path d="M310.073 1056.37C313.678 1035.89 303.026 1017.85 297.249 1011.39C291.357 1005.86 302.178 985.101 303.141 979.566C318.738 889.963 318.045 893.768 318.045 878.892C318.045 864.016 316.312 828.382 318.045 803.127C319.778 777.872 332.602 784.792 331.909 748.812C331.216 712.832 340.227 682.388 341.614 677.891C343 673.393 347.506 664.398 346.466 694.842C345.426 725.287 353.398 739.817 358.25 767.148C363.103 794.478 348.546 867.821 344.733 882.698C340.92 897.574 326.363 1014.85 326.71 1033.88C327.057 1052.91 327.403 1123.14 328.79 1133.52C330.176 1143.9 338.841 1251.14 335.721 1279.51C332.602 1307.88 322.551 1394.72 322.551 1397.83C322.551 1400.94 316.312 1473.25 332.602 1498.85C348.892 1524.45 363.796 1626.51 361.716 1644.84C354.091 1674.94 361.023 1664.91 351.665 1687.05C342.307 1709.19 335.375 1734.1 334.335 1745.52C333.295 1756.93 348.199 1755.2 355.131 1755.2C382.165 1752.78 391.87 1753.47 392.563 1755.2C393.257 1756.93 391.87 1758.32 395.683 1759.7C410.24 1761.78 416.479 1752.44 416.479 1750.36C416.479 1748.28 417.865 1745.86 419.251 1727.87C420.36 1713.48 417.865 1697.89 416.479 1691.89C415.67 1688.2 414.538 1677.92 416.479 1666.29L416.595 1665.6C418.937 1651.58 419.872 1645.99 415.439 1631.35C410.933 1616.47 407.12 1600.56 406.427 1579.46C405.734 1558.35 408.507 1516.84 410.24 1508.88C411.973 1500.92 424.797 1434.5 415.439 1397.83C406.081 1361.16 409.547 1346.97 421.331 1318.26C433.115 1289.54 439.701 1178.15 440.047 1148.74C440.394 1119.33 455.297 1097.54 457.377 1088.89C459.457 1080.24 459.457 1058.79 459.803 1054.64C460.08 1051.32 462.229 1050.49 463.269 1050.49V246.135C450.792 245.443 439.354 247.519 430.342 249.94C388.058 263.433 395.336 323.975 395.336 331.241C395.336 338.506 396.029 339.544 395.336 340.581C385.285 344.041 389.097 359.263 389.791 374.485C390.484 389.707 402.268 387.286 402.268 392.129C401.921 419.806 411.973 415.308 415.785 428.109C424.45 457.169 418.212 474.467 414.399 477.235C375.234 505.257 353.744 503.874 328.79 507.679C259.124 527.399 270.561 586.212 260.857 628.418C251.152 670.625 254.618 713.178 254.618 729.784C254.618 746.39 260.51 750.888 254.618 784.445C248.726 818.003 249.766 832.188 250.805 845.334C251.845 858.48 256.697 930.094 256.351 963.652C256.004 997.21 255.311 1014.85 254.618 1022.12C253.925 1029.38 249.419 1042.88 250.112 1082.66C250.805 1122.45 286.852 1147.01 300.022 1151.85C310.559 1155.73 312.5 1153.47 312.153 1151.85C310.767 1146.32 312.153 1142.51 312.846 1142.17C317.699 1142.17 314.926 1136.98 314.233 1136.28C302.864 1126.04 300.946 1120.72 301.409 1119.33C315.273 1121.75 310.074 1115.18 307.994 1113.45C291.912 1103.49 283.039 1092.92 280.613 1088.89C275.899 1080.31 276.454 1072.97 278.187 1069.17C280.613 1065.02 286.678 1067.09 287.545 1070.55C290.595 1082.73 295.285 1093.16 297.249 1096.85C300.022 1103.07 311.014 1101.34 309.034 1094.42C306.261 1084.74 305.568 1081.97 310.073 1056.37Z" fill="white"/>
<path d="M613.927 1056.37C610.322 1035.89 620.974 1017.85 626.751 1011.39C632.643 1005.86 621.822 985.101 620.859 979.566C605.262 889.963 605.955 893.768 605.955 878.892C605.955 864.016 607.688 828.382 605.955 803.127C604.222 777.872 591.398 784.792 592.091 748.812C592.784 712.832 583.773 682.388 582.386 677.891C581 673.393 576.494 664.398 577.534 694.842C578.574 725.287 570.602 739.817 565.75 767.148C560.897 794.478 575.454 867.821 579.267 882.698C583.08 897.574 597.637 1014.85 597.29 1033.88C596.943 1052.91 596.597 1123.14 595.21 1133.52C593.824 1143.9 585.159 1251.14 588.279 1279.51C591.398 1307.88 601.449 1394.72 601.449 1397.83C601.449 1400.94 607.688 1473.25 591.398 1498.85C575.108 1524.45 560.204 1626.51 562.284 1644.84C569.909 1674.94 562.977 1664.91 572.335 1687.05C581.693 1709.19 588.625 1734.1 589.665 1745.52C590.705 1756.93 575.801 1755.2 568.869 1755.2C541.835 1752.78 532.13 1753.47 531.437 1755.2C530.743 1756.93 532.13 1758.32 528.317 1759.7C513.76 1761.78 507.521 1752.44 507.521 1750.36C507.521 1748.28 506.135 1745.86 504.749 1727.87C503.64 1713.48 506.135 1697.89 507.521 1691.89C508.33 1688.2 509.462 1677.92 507.521 1666.29L507.405 1665.6C505.063 1651.58 504.128 1645.99 508.561 1631.35C513.067 1616.47 516.88 1600.56 517.573 1579.46C518.266 1558.35 515.493 1516.84 513.76 1508.88C512.027 1500.92 499.203 1434.5 508.561 1397.83C517.919 1361.16 514.453 1346.97 502.669 1318.26C490.885 1289.54 484.299 1178.15 483.953 1148.74C483.606 1119.33 468.703 1097.54 466.623 1088.89C464.543 1080.24 464.543 1058.79 464.197 1054.64C463.92 1051.32 461.771 1050.49 460.731 1050.49V246.135C473.208 245.443 484.646 247.519 493.658 249.94C535.942 263.433 528.664 323.975 528.664 331.241C528.664 338.506 527.971 339.544 528.664 340.581C538.715 344.041 534.903 359.263 534.209 374.485C533.516 389.707 521.732 387.286 521.732 392.129C522.079 419.806 512.027 415.308 508.215 428.109C499.55 457.169 505.788 474.467 509.601 477.235C548.766 505.257 570.256 503.874 595.21 507.679C664.876 527.399 653.439 586.212 663.143 628.418C672.848 670.625 669.382 713.178 669.382 729.784C669.382 746.39 663.49 750.888 669.382 784.445C675.274 818.003 674.234 832.188 673.195 845.334C672.155 858.48 667.303 930.094 667.649 963.652C667.996 997.21 668.689 1014.85 669.382 1022.12C670.075 1029.38 674.581 1042.88 673.888 1082.66C673.195 1122.45 637.148 1147.01 623.978 1151.85C613.441 1155.73 611.5 1153.47 611.847 1151.85C613.233 1146.32 611.847 1142.51 611.154 1142.17C606.301 1142.17 609.074 1136.98 609.767 1136.28C621.136 1126.04 623.054 1120.72 622.591 1119.33C608.727 1121.75 613.926 1115.18 616.006 1113.45C632.088 1103.49 640.961 1092.92 643.387 1088.89C648.101 1080.31 647.546 1072.97 645.813 1069.17C643.387 1065.02 637.322 1067.09 636.455 1070.55C633.405 1082.73 628.715 1093.16 626.751 1096.85C623.978 1103.07 612.986 1101.34 614.966 1094.42C617.739 1084.74 618.432 1081.97 613.927 1056.37Z" fill="white"/>
</g>
<path d="M593.5 1157C602.3 1085 596 991 582.5 900.5C548.333 900.5 478 904.8 470 922C460 943.5 464 1050.5 463.5 1053C463 1055.5 463.5 1086 469 1095C474.5 1104 483.5 1133.5 484.5 1157C485.5 1180.5 493 1299 504.5 1322.5C516 1346 513 1383.5 509 1396C505 1408.5 503 1467.5 513 1504.5C523 1541.5 514.5 1609.5 511.5 1620.5C508.5 1631.5 504.5 1644 505.5 1651.5C506.5 1659 509.5 1676 508.5 1687L508.5 1687C507.5 1698 505.5 1720 505 1736.5C504.5 1753 514.5 1759.5 524 1760C533.5 1760.5 528.5 1757 533 1754C537.5 1751 569.5 1756 581 1755C592.5 1754 590.5 1742.5 588 1735.5C585.5 1728.5 563 1667 563 1626C563 1585 582 1516.5 587 1507.5C592 1498.5 602.5 1478.5 602.5 1428.5C602.5 1378.5 582.5 1247 593.5 1157Z" fill="#F9D2D4"/>
<mask maskUnits="userSpaceOnUse" x="0" y="0" width="0" height="0" fill="black">
<rect fill="white" width="0" height="0"/>
</mask>
<path d="M616.5 1270L613.613 1275L619.387 1275L616.5 1270ZM616.5 1370L619.387 1365L613.613 1365L616.5 1370ZM616 1274.5L616 1365.5L617 1365.5L617 1274.5L616 1274.5Z" fill="#DA1E28" mask="url(#)"/>
<defs>
<filter id="filter0_d" x="0" y="0" width="924" height="2014" filterUnits="userSpaceOnUse" color-interpolation-filters="sRGB">
<feFlood flood-opacity="0" result="BackgroundImageFix"/>
<feColorMatrix in="SourceAlpha" type="matrix" values="0 0 0 0 0 0 0 0 0 0 0 0 0 0 0 0 0 0 127 0" result="hardAlpha"/>
<feOffset dy="4"/>
<feGaussianBlur stdDeviation="125"/>
<feComposite in2="hardAlpha" operator="out"/>
<feColorMatrix type="matrix" values="0 0 0 0 0 0 0 0 0 0 0 0 0 0 0 0 0 0 0.14 0"/>
<feBlend mode="normal" in2="BackgroundImageFix" result="effect1_dropShadow"/>
<feBlend mode="normal" in="SourceGraphic" in2="effect1_dropShadow" result="shape"/>
</filter>
</defs>
</svg>
