<svg width="1018" height="2350" viewBox="0 0 1018 2350" fill="none" xmlns="http://www.w3.org/2000/svg">
<g filter="url(#filter0_d)">
<path d="M323.392 1236.21C327.795 1211.19 314.782 1189.15 307.724 1181.26C300.526 1174.49 313.746 1149.13 314.923 1142.37C333.977 1032.88 333.13 1037.53 333.13 1019.35C333.13 1001.17 331.013 957.629 333.13 926.77C335.248 895.91 350.915 904.365 350.068 860.4C349.221 816.436 360.23 779.235 361.924 773.739C363.618 768.244 369.123 757.253 367.852 794.453C366.582 831.654 376.321 849.409 382.249 882.805C388.177 916.201 370.393 1005.82 365.735 1024C361.077 1042.18 343.293 1185.48 343.716 1208.73C344.14 1231.99 344.563 1317.8 346.257 1330.48C347.951 1343.16 358.537 1474.21 354.726 1508.88C350.915 1543.54 338.635 1649.65 338.635 1653.45C338.635 1657.26 331.013 1745.61 350.915 1776.89C370.816 1808.17 389.024 1932.88 386.484 1955.29C377.168 1992.06 385.637 1979.8 374.204 2006.86C362.771 2033.92 354.302 2064.35 353.032 2078.3C351.762 2092.25 369.969 2090.14 378.438 2090.14C411.466 2087.18 423.322 2088.03 424.169 2090.14C425.016 2092.25 423.322 2093.94 427.98 2095.63C445.765 2098.17 453.387 2086.76 453.387 2084.22C453.387 2081.68 455.08 2078.73 456.774 2056.74C458.129 2039.16 455.08 2020.11 453.387 2012.78C452.398 2008.27 451.015 1995.7 453.387 1981.5L453.529 1980.64C456.39 1963.52 457.532 1956.68 452.116 1938.8C446.612 1920.62 441.954 1901.18 441.107 1875.39C440.26 1849.6 443.647 1798.87 445.765 1789.15C447.882 1779.43 463.549 1698.26 452.116 1653.45C440.683 1608.64 444.918 1591.31 459.315 1556.22C473.711 1521.14 481.757 1385.02 482.18 1349.08C482.604 1313.15 500.811 1286.52 503.352 1275.95C505.893 1265.38 505.893 1239.17 506.316 1234.1C506.655 1230.04 509.28 1229.03 510.55 1229.03V246.165C495.307 245.319 481.333 247.856 470.324 250.815C418.665 267.302 427.557 341.28 427.557 350.158C427.557 359.035 428.404 360.304 427.557 361.572C415.277 365.799 419.935 384.399 420.782 403C421.629 421.6 436.026 418.641 436.026 424.559C435.602 458.378 447.882 452.883 452.54 468.524C463.126 504.034 455.504 525.171 450.846 528.552C402.998 562.794 376.744 561.103 346.257 565.753C261.146 589.849 275.12 661.714 263.263 713.288C251.407 764.862 255.642 816.858 255.642 837.15C255.642 857.441 262.84 862.937 255.642 903.942C248.444 944.947 249.714 962.279 250.984 978.343C252.254 994.407 258.182 1081.91 257.759 1122.92C257.335 1163.92 256.489 1185.48 255.642 1194.36C254.795 1203.24 249.29 1219.73 250.137 1268.34C250.984 1316.95 295.021 1346.97 311.112 1352.89C323.985 1357.62 326.356 1354.86 325.932 1352.89C324.239 1346.12 325.932 1341.47 326.779 1341.05C332.707 1341.05 329.32 1334.71 328.473 1333.86C314.584 1321.35 312.241 1314.84 312.806 1313.15C329.743 1316.11 323.392 1308.08 320.851 1305.96C301.204 1293.79 290.364 1280.88 287.4 1275.95C281.641 1265.47 282.318 1256.5 284.435 1251.85C287.4 1246.78 294.81 1249.32 295.868 1253.54C299.595 1268.42 305.325 1281.16 307.724 1285.67C311.112 1293.28 324.541 1291.17 322.121 1282.71C318.734 1270.88 317.887 1267.49 323.392 1236.21Z" fill="white"/>
<path d="M694.608 1236.21C690.205 1211.19 703.218 1189.15 710.276 1181.26C717.474 1174.49 704.254 1149.13 703.077 1142.37C684.023 1032.88 684.87 1037.53 684.87 1019.35C684.87 1001.17 686.987 957.629 684.87 926.77C682.752 895.91 667.085 904.365 667.932 860.4C668.779 816.436 657.77 779.235 656.076 773.739C654.382 768.244 648.877 757.253 650.148 794.453C651.418 831.654 641.679 849.409 635.751 882.805C629.823 916.201 647.607 1005.82 652.265 1024C656.923 1042.18 674.707 1185.48 674.284 1208.73C673.86 1231.99 673.437 1317.8 671.743 1330.48C670.049 1343.16 659.463 1474.21 663.274 1508.88C667.085 1543.54 679.365 1649.65 679.365 1653.45C679.365 1657.26 686.987 1745.61 667.085 1776.89C647.184 1808.17 628.976 1932.88 631.516 1955.29C640.832 1992.06 632.363 1979.8 643.796 2006.86C655.229 2033.92 663.698 2064.35 664.968 2078.3C666.238 2092.25 648.031 2090.14 639.562 2090.14C606.534 2087.18 594.677 2088.03 593.831 2090.14C592.984 2092.25 594.677 2093.94 590.02 2095.63C572.235 2098.17 564.613 2086.76 564.613 2084.22C564.613 2081.68 562.92 2078.73 561.226 2056.74C559.871 2039.16 562.92 2020.11 564.613 2012.78C565.602 2008.27 566.985 1995.7 564.613 1981.5L564.471 1980.64C561.61 1963.52 560.468 1956.68 565.884 1938.8C571.388 1920.62 576.046 1901.18 576.893 1875.39C577.74 1849.6 574.353 1798.87 572.235 1789.15C570.118 1779.43 554.451 1698.26 565.884 1653.45C577.317 1608.64 573.082 1591.31 558.685 1556.22C544.289 1521.14 536.243 1385.02 535.82 1349.08C535.396 1313.15 517.189 1286.52 514.648 1275.95C512.107 1265.38 512.107 1239.17 511.684 1234.1C511.345 1230.04 508.72 1229.03 507.45 1229.03V246.165C522.693 245.319 536.667 247.856 547.676 250.815C599.335 267.302 590.443 341.28 590.443 350.158C590.443 359.035 589.596 360.304 590.443 361.572C602.723 365.799 598.065 384.399 597.218 403C596.371 421.6 581.974 418.641 581.974 424.559C582.398 458.378 570.118 452.883 565.46 468.524C554.874 504.034 562.496 525.171 567.154 528.552C615.002 562.794 641.256 561.103 671.743 565.753C756.854 589.849 742.88 661.714 754.737 713.288C766.593 764.862 762.358 816.858 762.358 837.15C762.358 857.441 755.16 862.937 762.358 903.942C769.556 944.947 768.286 962.279 767.016 978.343C765.746 994.407 759.818 1081.91 760.241 1122.92C760.665 1163.92 761.511 1185.48 762.358 1194.36C763.205 1203.24 768.71 1219.73 767.863 1268.34C767.016 1316.95 722.979 1346.97 706.888 1352.89C694.015 1357.62 691.644 1354.86 692.068 1352.89C693.761 1346.12 692.068 1341.47 691.221 1341.05C685.293 1341.05 688.68 1334.71 689.527 1333.86C703.416 1321.35 705.759 1314.84 705.194 1313.15C688.257 1316.11 694.608 1308.08 697.149 1305.96C716.796 1293.79 727.636 1280.88 730.6 1275.95C736.359 1265.47 735.682 1256.5 733.565 1251.85C730.6 1246.78 723.19 1249.32 722.132 1253.54C718.406 1268.42 712.675 1281.16 710.276 1285.67C706.888 1293.28 693.459 1291.17 695.879 1282.71C699.266 1270.88 700.113 1267.49 694.608 1236.21Z" fill="white"/>
</g>
<path d="M336 1689.87C336 1627.81 361.121 1464.6 347.305 1352.89C346.572 1346.43 345.108 1330.49 345.108 1318.49C345.108 1306.5 344.602 1286.5 344.602 1278H505C501.964 1289 492.35 1302 489.82 1312.99C487.796 1321.79 485.241 1343.26 484.216 1352.89C482.96 1382.06 473.539 1529.14 459.095 1558.31C444.65 1587.47 448.418 1634.02 453.442 1649.53C458.467 1665.05 460.979 1738.28 448.418 1784.2C435.857 1830.12 446.534 1914.52 450.302 1928.17L385.615 1935C385.615 1884.11 361.749 1799.09 355.469 1787.92C349.189 1776.75 336 1751.93 336 1689.87Z" fill="#F9D2D4"/>
<mask maskUnits="userSpaceOnUse" x="0" y="0" width="0" height="0" fill="black">
<rect fill="white" width="0" height="0"/>
</mask>
<path d="M514.5 1567L511.613 1572L517.387 1572L514.5 1567ZM514.5 1645L517.387 1640L511.613 1640L514.5 1645ZM514 1571.5L514 1640.5L515 1640.5L515 1571.5L514 1571.5Z" fill="#DA1E28" mask="url(#)"/>
<defs>
<filter id="filter0_d" x="0" y="0" width="1018" height="2350" filterUnits="userSpaceOnUse" color-interpolation-filters="sRGB">
<feFlood flood-opacity="0" result="BackgroundImageFix"/>
<feColorMatrix in="SourceAlpha" type="matrix" values="0 0 0 0 0 0 0 0 0 0 0 0 0 0 0 0 0 0 127 0" result="hardAlpha"/>
<feOffset dy="4"/>
<feGaussianBlur stdDeviation="125"/>
<feComposite in2="hardAlpha" operator="out"/>
<feColorMatrix type="matrix" values="0 0 0 0 0 0 0 0 0 0 0 0 0 0 0 0 0 0 0.14 0"/>
<feBlend mode="normal" in2="BackgroundImageFix" result="effect1_dropShadow"/>
<feBlend mode="normal" in="SourceGraphic" in2="effect1_dropShadow" result="shape"/>
</filter>
</defs>
</svg>
