<svg width="1154" height="2838" viewBox="0 0 1154 2838" fill="none" xmlns="http://www.w3.org/2000/svg">
<g filter="url(#filter0_d)">
<path d="M342.661 1497.41C348.22 1465.79 331.79 1437.93 322.88 1427.96C313.792 1419.41 330.482 1387.36 331.968 1378.81C356.025 1240.44 354.956 1246.32 354.956 1223.35C354.956 1200.37 352.283 1145.35 354.956 1106.35C357.629 1067.35 377.41 1078.03 376.341 1022.47C375.271 966.907 389.171 919.894 391.31 912.948C393.448 906.003 400.398 892.113 398.794 939.127C397.19 986.14 409.486 1008.58 416.971 1050.78C424.455 1092.99 402.002 1206.25 396.121 1229.22C390.24 1252.2 367.787 1433.3 368.321 1462.69C368.856 1492.07 369.391 1600.52 371.529 1616.55C373.668 1632.58 387.033 1798.2 382.221 1842C377.41 1885.81 361.906 2019.91 361.906 2024.72C361.906 2029.52 352.283 2141.18 377.41 2180.72C402.536 2220.25 425.525 2377.85 422.317 2406.17C410.556 2452.65 421.248 2437.15 406.813 2471.35C392.379 2505.54 381.687 2544 380.083 2561.63C378.479 2579.26 401.467 2576.59 412.159 2576.59C453.859 2572.85 468.828 2573.92 469.897 2576.59C470.966 2579.26 468.828 2581.4 474.709 2583.54C497.162 2586.74 506.785 2572.32 506.785 2569.11C506.785 2565.91 508.924 2562.17 511.062 2534.39C512.773 2512.16 508.924 2488.09 506.785 2478.83C505.538 2473.13 503.791 2457.24 506.785 2439.29L506.965 2438.21C510.577 2416.57 512.019 2407.93 505.181 2385.33C498.232 2362.36 492.351 2337.78 491.282 2305.2C490.212 2272.61 494.489 2208.5 497.162 2196.21C499.835 2183.92 519.616 2081.35 505.181 2024.72C490.747 1968.09 496.093 1946.18 514.27 1901.84C532.447 1857.5 542.604 1685.47 543.139 1640.06C543.673 1594.65 566.662 1560.99 569.869 1547.63C573.077 1534.28 573.077 1501.15 573.611 1494.74C574.039 1489.61 577.354 1488.33 578.958 1488.33V246.208C559.712 245.14 542.069 248.345 528.17 252.085C462.947 272.921 474.174 366.414 474.174 377.633C474.174 388.852 475.243 390.455 474.174 392.058C458.67 397.4 464.551 420.907 465.62 444.414C466.69 467.921 484.866 464.181 484.866 471.66C484.332 514.4 499.835 507.455 505.716 527.222C519.081 572.099 509.458 598.811 503.578 603.085C443.167 646.359 410.021 644.222 371.529 650.099C264.073 680.551 281.715 771.373 266.746 836.551C251.777 901.729 257.123 967.441 257.123 993.085C257.123 1018.73 266.211 1025.67 257.123 1077.5C248.035 1129.32 249.638 1151.22 251.242 1171.52C252.846 1191.83 260.331 1302.41 259.796 1354.24C259.261 1406.06 258.192 1433.3 257.123 1444.52C256.054 1455.74 249.104 1476.58 250.173 1538.02C251.242 1599.46 306.842 1637.39 327.157 1644.87C343.409 1650.85 346.403 1647.36 345.868 1644.87C343.73 1636.32 345.868 1630.44 346.937 1629.91C354.422 1629.91 350.145 1621.89 349.076 1620.83C331.541 1605.01 328.583 1596.78 329.295 1594.65C350.68 1598.39 342.661 1588.24 339.453 1585.57C314.647 1570.18 300.961 1553.87 297.219 1547.63C289.948 1534.38 290.803 1523.06 293.476 1517.18C297.219 1510.77 306.574 1513.98 307.911 1519.32C312.615 1538.12 319.851 1554.22 322.88 1559.92C327.157 1569.54 344.112 1566.87 341.057 1556.18C336.78 1541.22 335.711 1536.95 342.661 1497.41Z" fill="white"/>
<path d="M811.34 1497.41C805.78 1465.79 822.21 1437.93 831.12 1427.96C840.208 1419.41 823.518 1387.36 822.032 1378.81C797.975 1240.44 799.044 1246.32 799.044 1223.35C799.044 1200.37 801.717 1145.35 799.044 1106.35C796.371 1067.35 776.59 1078.03 777.659 1022.47C778.729 966.907 764.829 919.894 762.69 912.948C760.552 906.003 753.602 892.113 755.206 939.127C756.81 986.14 744.514 1008.58 737.029 1050.78C729.545 1092.99 751.998 1206.25 757.879 1229.22C763.76 1252.2 786.213 1433.3 785.679 1462.69C785.144 1492.07 784.609 1600.52 782.471 1616.55C780.332 1632.58 766.967 1798.2 771.779 1842C776.59 1885.81 792.094 2019.91 792.094 2024.72C792.094 2029.52 801.717 2141.18 776.59 2180.72C751.464 2220.25 728.475 2377.85 731.683 2406.17C743.444 2452.65 732.752 2437.15 747.187 2471.35C761.621 2505.54 772.313 2544 773.917 2561.63C775.521 2579.26 752.533 2576.59 741.841 2576.59C700.141 2572.85 685.172 2573.92 684.103 2576.59C683.034 2579.26 685.172 2581.4 679.291 2583.54C656.838 2586.74 647.215 2572.32 647.215 2569.11C647.215 2565.91 645.076 2562.17 642.938 2534.39C641.227 2512.16 645.076 2488.09 647.215 2478.83C648.462 2473.13 650.209 2457.24 647.215 2439.29L647.035 2438.21C643.423 2416.57 641.981 2407.93 648.819 2385.33C655.768 2362.36 661.649 2337.78 662.718 2305.2C663.788 2272.61 659.511 2208.5 656.838 2196.21C654.165 2183.92 634.384 2081.35 648.819 2024.72C663.253 1968.09 657.907 1946.18 639.73 1901.84C621.553 1857.5 611.396 1685.47 610.861 1640.06C610.327 1594.65 587.338 1560.99 584.131 1547.63C580.923 1534.28 580.923 1501.15 580.389 1494.74C579.961 1489.61 576.646 1488.33 575.042 1488.33V246.208C594.288 245.14 611.931 248.345 625.83 252.085C691.053 272.921 679.826 366.414 679.826 377.633C679.826 388.852 678.757 390.455 679.826 392.058C695.33 397.4 689.449 420.907 688.38 444.414C687.31 467.921 669.134 464.181 669.134 471.66C669.668 514.4 654.165 507.455 648.284 527.222C634.919 572.099 644.542 598.811 650.422 603.085C710.833 646.359 743.979 644.222 782.471 650.099C889.927 680.551 872.285 771.373 887.254 836.551C902.223 901.729 896.877 967.441 896.877 993.085C896.877 1018.73 887.789 1025.67 896.877 1077.5C905.965 1129.32 904.362 1151.22 902.758 1171.52C901.154 1191.83 893.669 1302.41 894.204 1354.24C894.739 1406.06 895.808 1433.3 896.877 1444.52C897.946 1455.74 904.896 1476.58 903.827 1538.02C902.758 1599.46 847.158 1637.39 826.843 1644.87C810.591 1650.85 807.597 1647.36 808.132 1644.87C810.27 1636.32 808.132 1630.44 807.063 1629.91C799.578 1629.91 803.855 1621.89 804.924 1620.83C822.459 1605.01 825.417 1596.78 824.705 1594.65C803.32 1598.39 811.339 1588.24 814.547 1585.57C839.353 1570.18 853.039 1553.87 856.781 1547.63C864.052 1534.38 863.197 1523.06 860.524 1517.18C856.781 1510.77 847.426 1513.98 846.089 1519.32C841.385 1538.12 834.15 1554.22 831.12 1559.92C826.843 1569.54 809.888 1566.87 812.943 1556.18C817.22 1541.22 818.289 1536.95 811.34 1497.41Z" fill="white"/>
</g>
<path d="M391 1278C394.572 1259.28 405.054 1196.2 409.849 1167H745.567C746.503 1171 747.5 1181.5 752.111 1200.85C757.065 1221.63 764.244 1263.5 765.728 1278H391Z" fill="#F9D2D4"/>
<path d="M762.728 1278C759.157 1259.28 748.674 1196.2 743.879 1167H408.162C407.226 1171 406.228 1181.5 401.617 1200.85C396.663 1221.63 389.484 1263.5 388 1278H762.728Z" fill="#F9D2D4"/>
<mask maskUnits="userSpaceOnUse" x="0" y="0" width="0" height="0" fill="black">
<rect fill="white" width="0" height="0"/>
</mask>
<path d="M553 1295.5L558 1298.39V1292.61L553 1295.5ZM601 1295.5L596 1292.61V1298.39L601 1295.5ZM557.5 1296H596.5V1295H557.5V1296Z" fill="#DA1E28" mask="url(#)"/>
<defs>
<filter id="filter0_d" x="0" y="0" width="1154" height="2838" filterUnits="userSpaceOnUse" color-interpolation-filters="sRGB">
<feFlood flood-opacity="0" result="BackgroundImageFix"/>
<feColorMatrix in="SourceAlpha" type="matrix" values="0 0 0 0 0 0 0 0 0 0 0 0 0 0 0 0 0 0 127 0" result="hardAlpha"/>
<feOffset dy="4"/>
<feGaussianBlur stdDeviation="125"/>
<feComposite in2="hardAlpha" operator="out"/>
<feColorMatrix type="matrix" values="0 0 0 0 0 0 0 0 0 0 0 0 0 0 0 0 0 0 0.14 0"/>
<feBlend mode="normal" in2="BackgroundImageFix" result="effect1_dropShadow"/>
<feBlend mode="normal" in="SourceGraphic" in2="effect1_dropShadow" result="shape"/>
</filter>
</defs>
</svg>
