<svg width="32" height="32" viewBox="0 0 32 32" fill="none" xmlns="http://www.w3.org/2000/svg">
<circle cx="16" cy="16" r="16" fill="#FF543E" fill-opacity="0.24"/>
<path d="M23.1698 18.0503V11.494L15.3859 7L7.60205 11.494V20.4821L15.3859 24.9761L17.4566 23.7806C18.1921 24.5325 19.2172 25 20.3495 25C22.5818 25 24.3979 23.1839 24.3979 20.9517C24.3979 19.8149 23.9268 18.7864 23.1698 18.0503ZM15.3859 8.21943L21.5857 11.7989L19.0139 13.2837L12.8141 9.70429L15.3859 8.21943ZM14.8579 23.4518L8.65814 19.8723V12.7135L14.8579 16.2929V23.4518ZM9.18619 11.7989L11.758 10.314L17.9578 13.8934L15.3859 15.3783L9.18619 11.7989ZM15.914 23.4518V16.2929L22.1137 12.7135V17.3084C21.5802 17.049 20.9816 16.9033 20.3495 16.9033C18.1173 16.9033 16.3012 18.7194 16.3012 20.9517C16.3012 21.6696 16.4893 22.3444 16.8184 22.9296L15.914 23.4518ZM20.3495 23.9439C18.6996 23.9439 17.3573 22.6016 17.3573 20.9517C17.3573 19.3017 18.6996 17.9594 20.3495 17.9594C21.9994 17.9594 23.3418 19.3017 23.3418 20.9517C23.3418 22.6016 21.9995 23.9439 20.3495 23.9439Z" fill="#FF543E"/>
<path d="M21.5998 19.418L19.8708 21.1566L19.0962 20.3899L18.3533 21.1404L19.8766 22.6484L22.3487 20.1626L21.5998 19.418Z" fill="#FF543E"/>
</svg>
