<svg width="15" height="13" viewBox="0 0 15 13" fill="none" xmlns="http://www.w3.org/2000/svg">
<path d="M0 5.65241C0.0619835 5.65241 0.123967 5.65241 0.18595 5.58961C2.97521 3.95676 5.82645 2.32391 8.67769 0.628259C9.54545 0.125844 10.5372 -0.125364 11.5289 0.063042C12.5207 0.251448 13.3884 0.691061 14.0702 1.50749C14.5661 2.13551 14.938 2.88913 15 3.70555C15.124 4.89879 14.876 5.96642 14.1322 6.84565C13.7603 7.34807 13.3264 7.66208 12.8306 7.97609C9.97934 9.60894 7.19008 11.3046 4.33884 12.9374C4.27686 12.9374 4.21488 13.0002 4.15289 13.0002C4.09091 12.9374 4.09091 12.8746 4.09091 12.8746C2.78926 10.551 1.42562 8.22729 0.123967 5.90362C0.0619835 5.84082 0.0619835 5.77802 0 5.65241C0 5.71522 0 5.71522 0 5.65241ZM0.805785 5.90362C1.98347 7.97608 3.16116 10.1114 4.40083 12.1838C4.46281 12.1838 4.46281 12.1838 4.46281 12.121C7.19008 10.551 9.91736 8.91811 12.6446 7.34807C14.0083 6.53164 14.6901 5.15 14.3802 3.57995C14.1942 2.32391 13.4504 1.38188 12.2727 0.879467C11.157 0.377052 10.0413 0.502656 8.9876 1.06787C6.88017 2.32391 4.83471 3.57995 2.72727 4.77319C2.10744 5.15 1.4876 5.52681 0.805785 5.90362Z" fill="#6A5B40"/>
<path d="M4.58702 11.3673C3.59529 9.60888 2.60355 7.91323 1.61182 6.15477C1.6738 6.09197 1.6738 6.09197 1.73578 6.09197C4.27711 4.58472 6.81843 3.14028 9.29777 1.63303C10.2275 1.13062 11.1573 1.06782 12.087 1.44463C13.2647 1.94704 14.0085 3.32869 13.8226 4.58473C13.6986 5.58956 13.2027 6.34318 12.335 6.84559C9.79363 8.35284 7.19033 9.86009 4.58702 11.3673C4.64901 11.3673 4.64901 11.3673 4.58702 11.3673ZM9.29777 3.7683C9.1738 3.8311 9.04983 3.95671 8.92587 4.01951C8.8019 4.08231 8.8019 4.14511 8.86388 4.20791C9.04983 4.71033 9.1738 5.14994 9.35975 5.65236C9.29777 5.65236 9.29777 5.71516 9.35975 5.77796C8.98785 5.33835 8.61595 4.83593 8.18206 4.39632C7.99611 4.52192 7.87215 4.58472 7.6862 4.71033C8.24405 5.33835 8.8019 5.90357 9.35975 6.53158C9.48372 6.46878 9.66967 6.34318 9.79363 6.28038C9.85562 6.21758 9.85562 6.21758 9.85562 6.15477C9.79363 5.96637 9.73165 5.77796 9.66967 5.58956C9.5457 5.27555 9.42173 4.89873 9.35975 4.58473C9.73165 5.02434 10.1036 5.46395 10.4755 5.90357C10.5994 5.84076 10.7854 5.71516 10.9093 5.65236C10.9713 5.58956 10.9713 5.58956 10.9713 5.52675C10.8474 5.08714 10.7234 4.58472 10.5994 4.14511C10.5374 3.8311 10.4135 3.51709 10.3515 3.20308C10.1655 3.32869 10.0416 3.39149 9.85562 3.51709C10.0416 4.08231 10.2275 4.64753 10.4755 5.27555C10.0416 4.64753 9.66967 4.20791 9.29777 3.7683ZM6.94239 7.91323C6.50851 7.22241 6.13661 6.53158 5.76471 5.77796C5.57876 5.90357 5.45479 5.96637 5.26884 6.09197C5.57876 6.53158 5.88868 7.034 6.13661 7.53642H6.07463C5.57876 7.22241 5.08289 6.9084 4.64901 6.59439C4.58702 6.59439 4.52504 6.53158 4.52504 6.59439C4.33909 6.65719 4.21512 6.78279 4.02917 6.9084C4.46306 7.59922 4.83496 8.29004 5.20686 9.04366C5.33082 8.98086 5.51678 8.85526 5.64074 8.79245C5.33082 8.29004 5.02091 7.78762 4.77297 7.28521C4.83496 7.28521 4.83496 7.28521 4.83496 7.34801C5.33082 7.66202 5.82669 7.97603 6.32256 8.29004C6.38454 8.29004 6.44653 8.35284 6.50851 8.29004C6.63248 8.10163 6.75644 8.03883 6.94239 7.91323ZM7.3143 7.66202C7.74818 7.41081 8.18206 7.1596 8.61595 6.9084C8.55396 6.78279 8.49198 6.65719 8.36801 6.53158C8.0581 6.71999 7.81016 6.84559 7.50025 7.034C7.37628 6.84559 7.3143 6.71999 7.19033 6.53158C7.43826 6.40598 7.6862 6.21758 7.93413 6.09197C7.87215 5.96637 7.81016 5.84076 7.6862 5.71516C7.43826 5.84076 7.19033 6.02917 6.94239 6.15477C6.88041 6.02917 6.75644 5.84076 6.69446 5.71516C6.94239 5.52675 7.25231 5.40115 7.50025 5.21274C7.43826 5.08714 7.37628 4.96154 7.25231 4.83593C6.81843 5.08714 6.38454 5.33835 5.95066 5.58956C6.57049 6.28038 6.94239 6.9712 7.3143 7.66202ZM12.211 4.08231C12.5829 4.08231 12.8308 3.8311 12.8308 3.45429C12.8308 3.07748 12.5829 2.82627 12.211 2.82627C11.8391 2.82627 11.5912 3.07748 11.5912 3.45429C11.5912 3.7683 11.8391 4.08231 12.211 4.08231Z" fill="#6A5B40"/>
</svg>
