<svg width="34" height="34" viewBox="0 0 34 34" fill="none" xmlns="http://www.w3.org/2000/svg">
<g clip-path="url(#clip0)">
<path d="M17.1277 0.246826C7.97237 0.246826 0.538574 7.68062 0.538574 16.8359C0.538574 25.9912 7.97237 33.425 17.1277 33.425C26.283 33.425 33.7168 25.9912 33.7168 16.8359C33.7168 7.68062 26.283 0.246826 17.1277 0.246826ZM17.1277 31.86C8.83313 31.86 2.10358 25.1305 2.10358 16.8359C2.10358 8.54138 8.83313 1.81184 17.1277 1.81184C25.4222 1.81184 32.1518 8.54138 32.1518 16.8359C32.1518 25.1305 25.4222 31.86 17.1277 31.86Z" fill="#9D9D9D"/>
<path d="M17.1278 5.02026C10.633 5.02026 5.31201 10.3413 5.31201 16.8361C5.31201 23.3309 10.633 28.6519 17.1278 28.6519C23.6226 28.6519 28.9437 23.3309 28.9437 16.8361C28.9437 10.3413 23.6226 5.02026 17.1278 5.02026ZM17.1278 27.0869C11.4938 27.0869 6.87702 22.4701 6.87702 16.8361C6.87702 11.2021 11.4938 6.58527 17.1278 6.58527C22.7619 6.58527 27.3787 11.2021 27.3787 16.8361C27.3787 22.4701 22.7619 27.0869 17.1278 27.0869Z" fill="#9D9D9D"/>
<path d="M13.1367 15.1925C14.1307 15.1925 14.9364 14.3868 14.9364 13.3928C14.9364 12.3988 14.1307 11.593 13.1367 11.593C12.1427 11.593 11.3369 12.3988 11.3369 13.3928C11.3369 14.3868 12.1427 15.1925 13.1367 15.1925Z" fill="#9D9D9D"/>
<path d="M21.1186 15.1925C22.1126 15.1925 22.9184 14.3868 22.9184 13.3928C22.9184 12.3988 22.1126 11.593 21.1186 11.593C20.1246 11.593 19.3188 12.3988 19.3188 13.3928C19.3188 14.3868 20.1246 15.1925 21.1186 15.1925Z" fill="#9D9D9D"/>
<path d="M13.1367 22.0788C14.1307 22.0788 14.9364 21.273 14.9364 20.279C14.9364 19.285 14.1307 18.4792 13.1367 18.4792C12.1427 18.4792 11.3369 19.285 11.3369 20.279C11.3369 21.273 12.1427 22.0788 13.1367 22.0788Z" fill="#9D9D9D"/>
<path d="M21.1186 22.0788C22.1126 22.0788 22.9184 21.273 22.9184 20.279C22.9184 19.285 22.1126 18.4792 21.1186 18.4792C20.1246 18.4792 19.3188 19.285 19.3188 20.279C19.3188 21.273 20.1246 22.0788 21.1186 22.0788Z" fill="#9D9D9D"/>
</g>
<defs>
<clipPath id="clip0">
<rect width="33.1782" height="33.1782" fill="white" transform="translate(0.538574 0.246826)"/>
</clipPath>
</defs>
</svg>
