<svg width="40" height="35" viewBox="0 0 40 35" fill="none" xmlns="http://www.w3.org/2000/svg">
<path d="M28.5565 27.7034C27.7962 28.5524 26.9915 29.4711 26.1299 30.4975C27.7322 30.2123 29.3556 30.0618 30.9831 30.0476C30.2101 29.2578 29.4013 28.4763 28.5565 27.7034Z" fill="#9D9D9D"/>
<path d="M33.4351 15.6849C31.9068 13.9238 30.278 12.2526 28.5566 10.6797C26.7636 12.6818 25.0149 14.7916 23.5957 16.5339C24.9959 17.611 26.7065 18.9732 28.4742 20.5381C30.0297 18.823 31.6862 17.2024 33.4351 15.6849Z" fill="#9D9D9D"/>
<path d="M28.5566 22.325C27.9737 22.9796 27.3634 23.6787 26.7256 24.4221C27.3592 24.9226 27.904 25.4231 28.4679 25.9173C29.1015 25.2267 29.7351 24.5868 30.3053 23.9849C29.7414 23.4274 29.1585 22.8762 28.5566 22.325Z" fill="#9D9D9D"/>
<path d="M28.5503 5.30029C27.9674 5.93386 27.3655 6.64346 26.7256 7.39108C27.3592 7.89794 27.9104 8.39846 28.4742 8.89264C29.1078 8.20205 29.7414 7.56848 30.3053 6.99193C29.7414 6.40904 29.1585 5.8515 28.5503 5.30029Z" fill="#9D9D9D"/>
<path d="M20.9092 14.4936C21.4794 14.9244 22.0369 15.3426 22.5881 15.7607C24.02 13.9994 25.794 11.8579 27.6187 9.82414C27.0738 9.33629 26.5036 8.84844 25.9017 8.35425C24.2354 10.331 22.5375 12.4345 20.9092 14.4936Z" fill="#9D9D9D"/>
<path d="M5.43066 24.9033V29.8452C6.22897 29.1863 7.05472 28.4408 7.90794 27.6087C7.05472 26.7386 6.22897 25.8368 5.43066 24.9033Z" fill="#9D9D9D"/>
<path d="M31.2109 6.07971C32.2802 5.03367 33.4031 4.04396 34.5752 3.11459V1.21387C33.9697 1.09584 33.3586 1.00914 32.7442 0.954102C31.6861 1.96782 30.5837 3.08291 29.4053 4.36273C30.0262 4.93294 30.6281 5.50316 31.2109 6.07971Z" fill="#9D9D9D"/>
<path d="M11.5387 31.0869C10.6644 32.0373 9.82804 32.9053 9.00439 33.6973C10.6862 33.6803 12.3632 33.5149 14.016 33.2031C13.1416 32.5061 12.3243 31.7775 11.5387 31.0869Z" fill="#9D9D9D"/>
<path d="M18.21 17.8451L19.8953 19.1123C20.5288 18.314 21.1624 17.5263 21.796 16.7491L20.1107 15.4819C19.4771 16.2718 18.8435 17.0595 18.21 17.8451Z" fill="#9D9D9D"/>
<path d="M27.6056 21.4691C25.8632 19.9295 24.1716 18.5864 22.7904 17.522C22.1568 18.3013 21.5232 19.0932 20.8896 19.8789C22.5369 21.1016 24.1336 22.3181 25.7428 23.6359C26.3954 22.8503 27.0163 22.1407 27.6056 21.4691Z" fill="#9D9D9D"/>
<path d="M24.9263 24.5865C23.317 23.3194 21.7014 22.0522 20.1111 20.8674C18.4512 22.9456 16.7595 25.049 15.0806 27.0448C16.6898 28.3119 18.3054 29.5791 19.8957 30.7639C21.5557 28.7048 23.2473 26.5823 24.9263 24.5865Z" fill="#9D9D9D"/>
<path d="M24.1594 30.8715C25.4266 29.3509 26.5607 28.0331 27.6124 26.8547C27.0675 26.3668 26.4973 25.8853 25.9017 25.3911C24.2354 27.3742 22.5375 29.465 20.9092 31.5241C21.1246 31.6888 20.5861 31.6255 24.1594 30.8715Z" fill="#9D9D9D"/>
<path d="M12.3999 24.7701C12.9448 25.258 13.515 25.7458 14.1169 26.24C15.7705 24.2696 17.4685 22.1661 19.0968 20.107C18.5266 19.6762 17.969 19.258 17.4178 18.8398C15.9859 20.5948 14.2119 22.7363 12.3999 24.7701Z" fill="#9D9D9D"/>
<path d="M34.5749 21.7354C33.7766 22.3943 32.9509 23.1398 32.0977 23.9719C32.9424 24.8546 33.7682 25.7564 34.5749 26.6772V21.7354Z" fill="#9D9D9D"/>
<path d="M34.5757 17.0276C34.468 16.9009 34.3666 16.7742 34.2589 16.6538C32.551 18.134 30.9326 19.7144 29.4121 21.3866C30.0457 21.9505 30.6286 22.5207 31.2115 23.0972C32.2807 22.0512 33.4036 21.0615 34.5757 20.1321V17.0276Z" fill="#9D9D9D"/>
<path d="M34.5757 11.6555C33.4923 10.3313 32.3772 9.08948 31.1988 7.854C30.6222 8.43689 30.0267 9.0578 29.4121 9.75473C31.1774 11.3726 32.8486 13.0903 34.4173 14.8994L34.5757 14.7663V11.6555Z" fill="#9D9D9D"/>
<path d="M10.6006 7.83455C9.39683 6.73213 8.27541 5.62971 7.192 4.47661C6.60911 4.42592 6.01989 4.3499 5.43066 4.24219V5.92749C6.51407 7.25166 7.62916 8.4998 8.80761 9.72894C9.38416 9.12704 9.97972 8.50614 10.6006 7.83455Z" fill="#9D9D9D"/>
<path d="M34.5752 30.3584V28.7047C33.4918 27.3806 32.3767 26.1324 31.1983 24.9033C30.6217 25.4925 30.0262 26.1134 29.4053 26.804C30.6091 27.9064 31.7305 29.0089 32.8139 30.162C33.3968 30.1746 33.986 30.2507 34.5752 30.3584Z" fill="#9D9D9D"/>
<path d="M13.8766 4.10962C12.2741 4.39286 10.6507 4.54122 9.02344 4.55312C9.7964 5.3472 10.6053 6.12861 11.45 6.89734C12.2103 6.04836 13.034 5.12967 13.8766 4.10962Z" fill="#9D9D9D"/>
<path d="M18.7741 32.1582L19.1035 31.7527C17.5069 30.5616 15.885 29.3261 14.263 28.0146C13.6083 28.7792 12.9748 29.4909 12.3623 30.1498C13.3634 31.0368 14.4404 31.9365 15.6252 32.8868C16.7023 32.6651 17.7413 32.418 18.7741 32.1582Z" fill="#9D9D9D"/>
<path d="M14.1042 9.21011C15.7705 7.22703 17.4685 5.13623 19.0968 3.07712C18.8814 2.91873 19.4199 2.97575 15.8465 3.71069C14.5794 5.23127 13.4453 6.5491 12.3936 7.72755C12.9384 8.23441 13.5086 8.71592 14.1042 9.21011Z" fill="#9D9D9D"/>
<path d="M19.8957 13.7331C21.5557 11.655 23.2473 9.55151 24.9263 7.55575C23.317 6.2886 21.7014 5.02145 20.1111 3.83667C18.4512 5.91479 16.7595 8.01826 15.0806 10.014C16.6898 11.3128 18.3054 12.542 19.8957 13.7331Z" fill="#9D9D9D"/>
<path d="M34.5749 4.74268C33.7766 5.40159 32.9509 6.1471 32.0977 6.97919C32.9424 7.85775 33.7682 8.75953 34.5749 9.68455V4.74268Z" fill="#9D9D9D"/>
<path d="M27.6065 4.45139C26.6055 3.56439 25.5284 2.66472 24.3436 1.71436C23.2982 1.93611 22.2592 2.1832 21.2264 2.44297L20.897 2.84845C22.4936 4.03957 24.1155 5.27504 25.7375 6.58654C26.3964 5.82202 27.0194 5.11031 27.6065 4.45139Z" fill="#9D9D9D"/>
<path d="M30.9891 0.903809C29.3073 0.920757 27.6303 1.08613 25.9775 1.398C26.8645 2.12027 27.6819 2.82354 28.4675 3.51413C29.3418 2.56799 30.1824 1.69789 30.9891 0.903809Z" fill="#9D9D9D"/>
<path d="M10.6006 30.238C9.96705 29.6678 9.37783 29.0975 8.79494 28.521C7.72569 29.567 6.60274 30.5568 5.43066 31.4861V33.3868C6.03621 33.5044 6.64734 33.5911 7.26169 33.6466C8.31976 32.6329 9.42218 31.5115 10.6006 30.238Z" fill="#9D9D9D"/>
<path d="M10.5943 24.8585C8.829 23.2406 7.15785 21.5229 5.58906 19.7139L5.43066 19.8342V22.9387C6.51408 24.2629 7.62917 25.5047 8.80762 26.7402C9.38418 26.17 9.97974 25.5364 10.5943 24.8585Z" fill="#9D9D9D"/>
<path d="M12.3999 13.1312C14.1422 14.6708 15.8339 16.0139 17.2151 17.0783C17.8486 16.299 18.4822 15.5071 19.1158 14.7215C17.4685 13.4987 15.8719 12.2822 14.2626 10.9644C13.61 11.75 12.9891 12.4596 12.3999 13.1312Z" fill="#9D9D9D"/>
<path d="M10.5943 13.2141C9.96073 12.6502 9.37784 12.08 8.79495 11.5034C7.7257 12.5495 6.60275 13.5392 5.43066 14.4685V17.5731C5.53837 17.6998 5.63974 17.8265 5.74745 17.9469C7.45537 16.4666 9.07384 14.8863 10.5943 13.2141Z" fill="#9D9D9D"/>
<path d="M9.70117 10.6162C10.2651 11.1738 10.8479 11.725 11.4498 12.2762C12.0327 11.6215 12.6431 10.9225 13.2809 10.1791C12.679 9.67855 12.1024 9.17802 11.5385 8.68384C10.905 9.37443 10.2967 10.0143 9.70117 10.6162Z" fill="#9D9D9D"/>
<path d="M5.43066 7.89819V12.8654C6.22897 12.2065 7.05472 11.461 7.90794 10.6289C7.05472 9.73345 6.22897 8.82321 5.43066 7.89819Z" fill="#9D9D9D"/>
<path d="M11.4562 29.2999C12.0391 28.6663 12.641 27.9567 13.2809 27.2091C12.6473 26.7022 12.0961 26.2017 11.5322 25.7075C10.8986 26.3981 10.2967 27.0317 9.70117 27.6083C10.2651 28.1911 10.8479 28.7487 11.4562 29.2999Z" fill="#9D9D9D"/>
<path d="M6.57129 18.9164C8.09952 20.6775 9.72842 22.3488 11.4498 23.9216C13.2428 21.9195 14.9915 19.8097 16.4107 18.0674C15.0105 16.9903 13.2998 15.6282 11.5322 14.0632C9.9767 15.7783 8.32012 17.399 6.57129 18.9164Z" fill="#9D9D9D"/>
<path d="M38.6358 1.21398C37.7346 0.808079 36.7998 0.481606 35.8418 0.238281V1.54344C36.6201 1.76148 37.3805 2.03895 38.1163 2.37342C38.1979 2.4106 38.2864 2.43003 38.3761 2.43045C38.6793 2.43605 38.944 2.22593 39.0074 1.92929C39.0707 1.63266 38.9149 1.33274 38.6358 1.21398Z" fill="#9D9D9D"/>
<path d="M38.6358 5.01574C37.7346 4.60984 36.7998 4.28336 35.8418 4.04004V5.3452C36.6201 5.56323 37.3805 5.8407 38.1163 6.17518C38.1979 6.21235 38.2864 6.23178 38.3761 6.2322C38.6793 6.2378 38.944 6.02768 39.0074 5.73104C39.0707 5.43441 38.9149 5.1345 38.6358 5.01574Z" fill="#9D9D9D"/>
<path d="M38.6358 8.81726C37.7346 8.41135 36.7998 8.08488 35.8418 7.84155V9.14672C36.6201 9.36475 37.3805 9.64222 38.1163 9.9767C38.1979 10.0139 38.2864 10.0333 38.3761 10.0337C38.6793 10.0393 38.944 9.8292 39.0074 9.53256C39.0707 9.23593 38.9149 8.93601 38.6358 8.81726Z" fill="#9D9D9D"/>
<path d="M38.6358 12.618C37.7346 12.2121 36.7998 11.8857 35.8418 11.6423V12.9475C36.6201 13.1655 37.3805 13.443 38.1163 13.7775C38.1979 13.8146 38.2864 13.8341 38.3761 13.8345C38.6793 13.8401 38.944 13.63 39.0074 13.3333C39.0707 13.0367 38.9149 12.7368 38.6358 12.618Z" fill="#9D9D9D"/>
<path d="M38.6358 20.2213C37.7346 19.8154 36.7998 19.4889 35.8418 19.2456V20.5508C36.6201 20.7688 37.3805 21.0463 38.1163 21.3808C38.1979 21.4179 38.2864 21.4374 38.3761 21.4378C38.6793 21.4434 38.944 21.2333 39.0074 20.9366C39.0707 20.64 38.9149 20.3401 38.6358 20.2213Z" fill="#9D9D9D"/>
<path d="M38.6358 24.0228C37.7346 23.6169 36.7998 23.2904 35.8418 23.0471V24.3523C36.6201 24.5703 37.3805 24.8478 38.1163 25.1823C38.1979 25.2194 38.2864 25.2389 38.3761 25.2393C38.6793 25.2449 38.944 25.0348 39.0074 24.7381C39.0707 24.4415 38.9149 24.1416 38.6358 24.0228Z" fill="#9D9D9D"/>
<path d="M38.6358 27.8243C37.7346 27.4184 36.7998 27.092 35.8418 26.8486V28.1538C36.6201 28.3718 37.3805 28.6493 38.1163 28.9838C38.1979 29.021 38.2864 29.0404 38.3761 29.0408C38.6793 29.0464 38.944 28.8363 39.0074 28.5397C39.0707 28.243 38.9149 27.9431 38.6358 27.8243Z" fill="#9D9D9D"/>
<path d="M38.6358 31.6251C37.7346 31.2192 36.7998 30.8927 35.8418 30.6494V31.9546C36.6201 32.1726 37.3805 32.4501 38.1163 32.7846C38.1979 32.8217 38.2864 32.8412 38.3761 32.8416C38.6793 32.8472 38.944 32.6371 39.0074 32.3404C39.0707 32.0438 38.9149 31.7439 38.6358 31.6251Z" fill="#9D9D9D"/>
<path d="M38.6358 16.4195C37.7346 16.0136 36.7998 15.6872 35.8418 15.4438V16.749C36.6201 16.967 37.3805 17.2445 38.1163 17.579C38.1979 17.6162 38.2864 17.6356 38.3761 17.636C38.6793 17.6416 38.944 17.4315 39.0074 17.1349C39.0707 16.8382 38.9149 16.5383 38.6358 16.4195Z" fill="#9D9D9D"/>
<path d="M1.36979 2.97539C2.27098 3.3813 3.20588 3.70777 4.16385 3.9511V2.64593C3.38555 2.4279 2.62513 2.15042 1.88932 1.81595C1.56915 1.67249 1.1933 1.81573 1.04984 2.13591C0.906372 2.45608 1.04962 2.83193 1.36979 2.97539Z" fill="#9D9D9D"/>
<path d="M1.36979 6.77715C2.27098 7.18305 3.20588 7.50953 4.16385 7.75285V6.44769C3.38555 6.22966 2.62513 5.95218 1.88932 5.61771C1.56915 5.47424 1.1933 5.61749 1.04984 5.93766C0.906372 6.25783 1.04962 6.63368 1.36979 6.77715Z" fill="#9D9D9D"/>
<path d="M1.36979 10.5779C2.27098 10.9838 3.20588 11.3103 4.16385 11.5536V10.2485C3.38555 10.0304 2.62513 9.75296 1.88932 9.41849C1.56915 9.27502 1.1933 9.41827 1.04984 9.73844C0.906372 10.0586 1.04962 10.4345 1.36979 10.5779Z" fill="#9D9D9D"/>
<path d="M1.36964 14.3793C2.27083 14.7852 3.20573 15.1117 4.1637 15.355V14.0498C3.38539 13.8318 2.62498 13.5543 1.88917 13.2198C1.68206 13.127 1.44117 13.1518 1.25724 13.2847C1.07331 13.4177 0.974287 13.6387 0.997472 13.8645C1.02066 14.0902 1.16253 14.2865 1.36964 14.3793Z" fill="#9D9D9D"/>
<path d="M1.36979 21.9827C2.27098 22.3886 3.20588 22.7151 4.16385 22.9584V21.6533C3.38555 21.4352 2.62513 21.1577 1.88932 20.8233C1.56915 20.6798 1.1933 20.8231 1.04984 21.1432C0.906372 21.4634 1.04962 21.8392 1.36979 21.9827Z" fill="#9D9D9D"/>
<path d="M1.36979 25.7842C2.27098 26.1901 3.20588 26.5166 4.16385 26.7599V25.4548C3.38555 25.2367 2.62513 24.9593 1.88932 24.6248C1.56915 24.4813 1.1933 24.6246 1.04984 24.9447C0.906372 25.2649 1.04962 25.6408 1.36979 25.7842Z" fill="#9D9D9D"/>
<path d="M1.36979 29.585C2.27098 29.9909 3.20588 30.3174 4.16385 30.5607V29.2555C3.38555 29.0375 2.62513 28.76 1.88932 28.4256C1.56915 28.2821 1.1933 28.4254 1.04984 28.7455C0.906372 29.0657 1.04962 29.4415 1.36979 29.585Z" fill="#9D9D9D"/>
<path d="M4.16385 33.0573C3.38555 32.8393 2.62513 32.5618 1.88932 32.2273C1.56915 32.0839 1.1933 32.2271 1.04984 32.5473C0.906372 32.8674 1.04962 33.2433 1.36979 33.3868C2.27098 33.7927 3.20588 34.1191 4.16385 34.3625V33.0573Z" fill="#9D9D9D"/>
<path d="M1.36979 18.181C2.27098 18.5869 3.20588 18.9133 4.16385 19.1567V17.8515C3.38555 17.6335 2.62513 17.356 1.88932 17.0215C1.56915 16.8781 1.1933 17.0213 1.04984 17.3415C0.906372 17.6616 1.04962 18.0375 1.36979 18.181Z" fill="#9D9D9D"/>
</svg>
