<svg width="37" height="38" viewBox="0 0 37 38" fill="none" xmlns="http://www.w3.org/2000/svg">
<path d="M8.53947 33.6929L18.3676 36.0054C18.4547 36.0259 18.5453 36.0259 18.6324 36.0054L28.4605 33.6929C28.5874 33.663 28.7004 33.5912 28.7813 33.4891C28.8622 33.3869 28.9062 33.2604 28.9062 33.1301V30.2395H31.7969C31.933 30.2395 32.0648 30.1914 32.169 30.1038C32.2732 30.0162 32.3431 29.8946 32.3664 29.7605L34.6789 16.4636C34.6959 16.3659 34.6875 16.2656 34.6545 16.1721L31.1858 6.344C31.154 6.2539 31.1004 6.17308 31.0297 6.10878C30.959 6.04448 30.8735 5.9987 30.7808 5.97554L24.0327 4.28852L21.8421 1.55019C21.7885 1.48327 21.7207 1.42909 21.6436 1.39157C21.5666 1.35405 21.4821 1.33413 21.3964 1.33325H15.6036C15.5179 1.33413 15.4334 1.35405 15.3563 1.39157C15.2793 1.42909 15.2115 1.48327 15.1579 1.55019L12.9673 4.28852L6.21913 5.97554C6.12644 5.9987 6.04093 6.04448 5.97026 6.10878C5.8996 6.17308 5.84597 6.2539 5.81419 6.344L2.34544 16.1721C2.31249 16.2656 2.30408 16.3659 2.32102 16.4636L4.63352 29.7605C4.65687 29.8946 4.7268 30.0162 4.83099 30.1038C4.93519 30.1914 5.06696 30.2395 5.20311 30.2395H8.09374V33.1301C8.09372 33.2604 8.13774 33.3869 8.21865 33.4891C8.29956 33.5912 8.41262 33.663 8.53947 33.6929ZM18.5 4.47712L16.8436 2.4895H20.1563L18.5 4.47712ZM28.9062 29.0833V27.3489H31.6122L31.3106 29.0833H28.9062ZM33.5139 16.4144L31.8133 26.1926H28.9062V12.8958H27.75V32.6723L19.0781 34.7127V6.7759L20.9818 8.67957C21.0902 8.78795 21.2372 8.84884 21.3905 8.84888C21.4095 8.84888 21.4286 8.84796 21.4476 8.84605C21.5327 8.83763 21.6149 8.81042 21.6882 8.76639C21.7615 8.72236 21.8242 8.6626 21.8716 8.59143L23.9582 5.46165L30.1989 7.02184L33.5139 16.4144ZM22.9876 4.83305L21.3008 7.36334L19.2821 5.34463L21.3815 2.82542L22.9876 4.83305ZM15.6185 2.82542L17.7178 5.34463L15.6992 7.36334L14.0124 4.83305L15.6185 2.82542ZM6.80107 7.02184L13.0418 5.46165L15.1283 8.59143C15.1758 8.6626 15.2384 8.72236 15.3118 8.76639C15.3851 8.81042 15.4673 8.83763 15.5524 8.84605C15.5715 8.84796 15.5905 8.8489 15.6094 8.84888C15.7627 8.84884 15.9098 8.78795 16.0182 8.67957L17.9219 6.7759V34.7127L9.24999 32.6723V12.8958H8.09374V26.1926H5.18663L3.4861 16.4144L6.80107 7.02184ZM5.38773 27.3489H8.09374V29.0833H5.68935L5.38773 27.3489Z" fill="#9D9D9D"/>
<path d="M20.8125 12.3176C20.6592 12.3176 20.5121 12.3785 20.4037 12.487C20.2953 12.5954 20.2344 12.7424 20.2344 12.8958V17.5208C20.2344 17.6741 20.2953 17.8211 20.4037 17.9295C20.5121 18.038 20.6592 18.0989 20.8125 18.0989H25.4375C25.5908 18.0989 25.7379 18.038 25.8463 17.9295C25.9547 17.8211 26.0156 17.6741 26.0156 17.5208V12.8958C26.0156 12.7424 25.9547 12.5954 25.8463 12.487C25.7379 12.3785 25.5908 12.3176 25.4375 12.3176H20.8125ZM24.8594 16.9426H21.3906V13.4739H24.8594V16.9426Z" fill="#9D9D9D"/>
</svg>
