<svg width="50" height="49" viewBox="0 0 50 49" fill="none" xmlns="http://www.w3.org/2000/svg">
<path d="M23.7238 30.6755C23.3048 30.6755 22.9651 30.3358 22.9651 29.9169C22.9651 29.4979 23.3048 29.1582 23.7238 29.1582C24.1428 29.1582 24.4824 29.4979 24.4824 29.9169C24.4824 30.3358 24.1428 30.6755 23.7238 30.6755Z" fill="#857250"/>
<path d="M23.7072 36.7446C23.2882 36.7446 22.9485 36.4049 22.9485 35.9859C22.9485 35.567 23.2882 35.2273 23.7072 35.2273C24.1262 35.2273 24.4658 35.567 24.4658 35.9859C24.4658 36.4049 24.1262 36.7446 23.7072 36.7446Z" fill="#857250"/>
<path d="M9.32618 6.93432C9.36334 6.81359 9.43005 6.70405 9.52027 6.61563C9.61049 6.52722 9.72136 6.46273 9.84282 6.42802L18.3731 3.9901L19.2352 2.26598C19.2983 2.14026 19.3953 2.03462 19.5151 1.96091C19.635 1.88721 19.773 1.84836 19.9137 1.84873V1.84692H30.5348V1.84892C30.6755 1.84829 30.8136 1.88703 30.9335 1.96076C31.0534 2.03449 31.1503 2.14028 31.2133 2.26617L32.0754 3.9901L40.6058 6.42802C40.7273 6.46273 40.8381 6.52722 40.9284 6.61563C41.0186 6.70405 41.0853 6.81359 41.1225 6.93432C41.1541 7.03741 41.9082 9.52378 42.6665 15.1162C43.926 24.4072 44.1904 34.8937 44.1904 42.0553C44.1904 42.2565 44.1105 42.4494 43.9682 42.5917C43.826 42.734 43.633 42.8139 43.4318 42.8139H38.7945L38.8747 43.4822C38.8898 43.6078 38.8732 43.7353 38.8264 43.8529C38.7797 43.9705 38.7043 44.0745 38.6071 44.1555C33.8615 48.11 26.9496 47.3939 26.6584 47.3613C26.5143 47.3453 26.3779 47.2883 26.2652 47.1972C26.1525 47.1061 26.0682 46.9847 26.0224 46.8472L25.2242 44.4545L24.4267 46.8473C24.3809 46.9848 24.2966 47.1062 24.1839 47.1973C24.0712 47.2884 23.9348 47.3454 23.7908 47.3614C23.2648 47.412 22.7365 47.4356 22.2081 47.4319C19.832 47.4319 15.2709 47.0134 11.8416 44.1556C11.7444 44.0746 11.6689 43.9706 11.6222 43.853C11.5755 43.7354 11.5589 43.6079 11.574 43.4823L11.6539 42.8139H7.01667C6.81546 42.8139 6.62249 42.734 6.48022 42.5917C6.33795 42.4494 6.25802 42.2565 6.25802 42.0553C6.25802 34.8937 6.52241 24.4072 7.78214 15.1162C8.54041 9.52378 9.29451 7.03741 9.32618 6.93432ZM19.7145 4.70001L17.2218 9.68537L19.3389 10.2147C19.4569 10.2442 19.566 10.3016 19.6572 10.3821C19.7483 10.4626 19.8188 10.5638 19.8626 10.6772C19.9064 10.7906 19.9224 10.9129 19.9091 11.0338C19.8958 11.1546 19.8536 11.2705 19.7861 11.3717L18.5495 13.2266L24.713 22.4718L19.7145 4.70001ZM21.3418 4.88152H29.1066L29.5333 3.36422H20.9151L21.3418 4.88152ZM21.7686 6.39881L25.2242 18.6853L28.6798 6.39881H21.7686ZM30.7339 4.70001L26.0123 21.4874L26.1249 21.888L31.8989 13.2266L30.6622 11.3716C30.5948 11.2704 30.5526 11.1545 30.5393 11.0337C30.526 10.9128 30.5419 10.7905 30.5858 10.6771C30.6296 10.5637 30.7001 10.4625 30.7912 10.382C30.8823 10.3015 30.9915 10.2441 31.1094 10.2146L33.2265 9.68528L30.7339 4.70001ZM42.6722 41.2966C42.6304 24.6507 41.2213 14.8388 40.3488 10.3477L36.6155 24.6588L38.6123 41.2966H42.6722ZM36.3557 35.2274H32.0521V36.7447H36.5376L36.3557 35.2274ZM27.301 45.8864C28.8373 45.9633 33.762 45.9677 37.3177 43.2438L37.186 42.1457L36.7198 38.262H31.2934C31.0922 38.262 30.8992 38.1821 30.757 38.0398C30.6147 37.8976 30.5348 37.7046 30.5348 37.5034V34.4688C30.5348 34.2676 30.6147 34.0746 30.757 33.9324C30.8992 33.7901 31.0922 33.7101 31.2934 33.7101H36.1736L35.0921 24.6967C35.0807 24.6024 35.0871 24.5068 35.111 24.4148L39.476 7.6832L32.9959 5.83153L35.0063 9.85237C35.0571 9.95398 35.0845 10.0657 35.0863 10.1793C35.0882 10.2929 35.0645 10.4054 35.017 10.5087C34.9696 10.6119 34.8995 10.7031 34.8121 10.7756C34.7246 10.8481 34.622 10.9001 34.5118 10.9277L32.5216 11.4252L33.4414 12.8054C33.5245 12.93 33.5689 13.0765 33.5689 13.2263C33.5689 13.3761 33.5245 13.5225 33.4414 13.6471L26.6657 23.8118L27.4717 26.6769C27.4906 26.7437 27.5002 26.8129 27.5002 26.8823V38.262C27.5002 38.3585 27.4818 38.4542 27.4459 38.5438L26.0318 42.0789L27.301 45.8864ZM23.1474 45.8864L24.5045 41.8154C24.5092 41.801 24.5163 41.7882 24.5218 41.7744L24.5198 41.7735L25.9829 38.1159V27.112L21.2778 20.0545H16.1204C15.9192 20.0545 15.7263 19.9746 15.584 19.8323C15.4417 19.69 15.3618 19.497 15.3618 19.2958C15.3618 19.0946 15.4417 18.9017 15.584 18.7594C15.7263 18.6171 15.9192 18.5372 16.1204 18.5372H20.2664L17.0065 13.6475C16.9234 13.5229 16.8791 13.3764 16.8791 13.2266C16.8791 13.0769 16.9234 12.9304 17.0065 12.8058L17.9264 11.4256L15.9362 10.928C15.826 10.9005 15.7234 10.8485 15.6359 10.776C15.5485 10.7035 15.4784 10.6123 15.4309 10.509C15.3835 10.4058 15.3598 10.2933 15.3616 10.1797C15.3635 10.0661 15.3908 9.95436 15.4416 9.85275L17.4521 5.83191L10.972 7.68358L15.3372 24.4148C15.3611 24.5068 15.3676 24.6024 15.3562 24.6967L14.2748 33.7101H19.155C19.3562 33.7101 19.5492 33.7901 19.6915 33.9324C19.8338 34.0746 19.9137 34.2676 19.9137 34.4688V37.5034C19.9137 37.7046 19.8338 37.8976 19.6915 38.0398C19.5492 38.1821 19.3562 38.262 19.155 38.262H13.7286L13.2625 42.1456L13.1308 43.2437C16.6871 45.9678 21.6128 45.9631 23.1474 45.8864ZM13.9109 36.7447H18.3964V35.2274H14.0928L13.9109 36.7447ZM11.8364 41.2966L13.8327 24.6588L10.0982 10.343C9.22623 14.8243 7.8178 24.6207 7.77626 41.2966H11.8364Z" fill="#857250"/>
</svg>
