<svg width="13" height="16" viewBox="0 0 13 16" fill="none" xmlns="http://www.w3.org/2000/svg">
<path fill-rule="evenodd" clip-rule="evenodd" d="M11.7188 3.90625H9.375V3.125C9.375 1.39911 7.97589 0 6.25 0C4.52411 0 3.125 1.39911 3.125 3.125V3.90625H0.78125C0.349777 3.90625 0 4.25603 0 4.6875V13.2812C0 14.5757 1.04933 15.625 2.34375 15.625H10.1562C11.4507 15.625 12.5 14.5757 12.5 13.2812V4.6875C12.5 4.25603 12.1502 3.90625 11.7188 3.90625ZM4.6875 3.125C4.6875 2.26205 5.38706 1.5625 6.25 1.5625C7.11295 1.5625 7.8125 2.26205 7.8125 3.125V3.90625H4.6875V3.125ZM10.9375 13.2813C10.9375 13.7127 10.5877 14.0625 10.1563 14.0625H2.34375C1.91228 14.0625 1.5625 13.7127 1.5625 13.2813V5.46875H3.125V6.25C3.125 6.68147 3.47478 7.03125 3.90625 7.03125C4.33772 7.03125 4.6875 6.68147 4.6875 6.25V5.46875H7.8125V6.25C7.8125 6.68147 8.16228 7.03125 8.59375 7.03125C9.02522 7.03125 9.375 6.68147 9.375 6.25V5.46875H10.9375V13.2813Z" fill="white"/>
</svg>
