<svg width="13" height="12" viewBox="0 0 13 12" fill="none" xmlns="http://www.w3.org/2000/svg">
<path d="M3.5 4.5C4.32843 4.5 5 3.82843 5 3C5 2.17157 4.32843 1.5 3.5 1.5C2.67157 1.5 2 2.17157 2 3C2 3.82843 2.67157 4.5 3.5 4.5Z" stroke="#857250" stroke-linecap="round" stroke-linejoin="round"/>
<path d="M3.5 10.5C4.32843 10.5 5 9.82843 5 9C5 8.17157 4.32843 7.5 3.5 7.5C2.67157 7.5 2 8.17157 2 9C2 9.82843 2.67157 10.5 3.5 10.5Z" stroke="#857250" stroke-linecap="round" stroke-linejoin="round"/>
<path d="M10.5001 2L4.56006 7.94" stroke="#857250" stroke-linecap="round" stroke-linejoin="round"/>
<path d="M7.73486 7.23999L10.4999 9.99999" stroke="#857250" stroke-linecap="round" stroke-linejoin="round"/>
<path d="M4.56006 4.06006L6.50006 6.00006" stroke="#857250" stroke-linecap="round" stroke-linejoin="round"/>
</svg>
