<svg width="24" height="25" viewBox="0 0 24 25" fill="none" xmlns="http://www.w3.org/2000/svg">
<path fill-rule="evenodd" clip-rule="evenodd" d="M19 7.5H16V6.5C16 4.29086 14.2091 2.5 12 2.5C9.79086 2.5 8 4.29086 8 6.5V7.5H5C4.44772 7.5 4 7.94771 4 8.5V19.5C4 21.1569 5.34315 22.5 7 22.5H17C18.6569 22.5 20 21.1569 20 19.5V8.5C20 7.94771 19.5523 7.5 19 7.5ZM10 6.49988C10 5.39531 10.8954 4.49988 12 4.49988C13.1046 4.49988 14 5.39531 14 6.49988V7.49988H10V6.49988ZM18 19.5001C18 20.0524 17.5523 20.5001 17 20.5001H7C6.44772 20.5001 6 20.0524 6 19.5001V9.50012H8V10.5001C8 11.0524 8.44772 11.5001 9 11.5001C9.55229 11.5001 10 11.0524 10 10.5001V9.50012H14V10.5001C14 11.0524 14.4477 11.5001 15 11.5001C15.5523 11.5001 16 11.0524 16 10.5001V9.50012H18V19.5001Z" fill="#857250"/>
</svg>
