<svg width="48" height="40" viewBox="0 0 48 40" fill="none" xmlns="http://www.w3.org/2000/svg">
<path d="M7.00645 17.0967H0V36.9935C0 38.1935 0.967742 39.1612 2.16774 39.1612H45.5226C46.8774 39.1612 48 38.0386 48 36.6838V9.78056C48 8.46443 46.9548 7.41927 45.6387 7.41927H34.4903C33.329 7.41927 32.3613 6.56766 32.2068 5.44507L31.8197 2.89024C31.6262 1.76765 30.6585 0.838623 29.5359 0.838623H18.3871C17.2258 0.838623 16.2581 1.72895 16.1032 2.89024L15.7161 5.44507C15.5613 6.56766 14.5548 7.41927 13.4323 7.41927H2.32258C1.04516 7.41927 0 8.46443 0 9.74185V11.6773H7.00645C8.47742 11.6773 9.67742 12.8773 9.67742 14.3483V14.387C9.67742 15.8967 8.47742 17.0967 7.00645 17.0967ZM41.8064 11.7548C43.3161 11.7548 44.5161 12.9548 44.5161 14.4644C44.5161 15.9741 43.3161 17.1741 41.8064 17.1741C40.2968 17.1741 39.0968 15.9741 39.0968 14.4644C39.0968 12.9935 40.2968 11.7548 41.8064 11.7548ZM24.1161 12.7225C30.5423 12.7225 35.729 17.9096 35.729 24.3354C35.729 30.7612 30.5423 35.9483 24.1161 35.9483C17.6903 35.9483 12.5032 30.7612 12.5032 24.3354C12.5032 17.9096 17.729 12.7225 24.1161 12.7225Z" fill="#857250"/>
<path d="M24.0018 30.1417C27.2086 30.1417 29.8082 27.5421 29.8082 24.3353C29.8082 21.1284 27.2086 18.5288 24.0018 18.5288C20.7949 18.5288 18.1953 21.1284 18.1953 24.3353C18.1953 27.5421 20.7949 30.1417 24.0018 30.1417Z" fill="#857250"/>
</svg>
