<svg width="380" height="444" viewBox="0 0 380 444" fill="none" xmlns="http://www.w3.org/2000/svg">
<rect opacity="0.13" x="6.58008" y="6.58008" width="370.13" height="430.996" fill="#857250"/>
<path d="M0 30.1852V13.1534C0 5.90061 5.90061 0 13.1531 0H30.1852C34.8989 0 34.9055 7.13036 30.1852 7.13036H13.1531C9.8323 7.13036 7.13036 9.8323 7.13036 13.1534V30.1852C7.13036 34.8989 0 34.9055 0 30.1852H0Z" fill="#857250"/>
<path d="M0 413.148V430.18C0 437.433 5.90061 443.333 13.1531 443.333H30.1852C34.8989 443.333 34.9055 436.203 30.1852 436.203H13.1531C9.8323 436.203 7.13036 433.501 7.13036 430.18V413.148C7.13036 408.434 0 408.428 0 413.148H0Z" fill="#857250"/>
<path d="M380 30.1852V13.1534C380 5.90061 374.099 0 366.847 0H349.815C345.101 0 345.094 7.13036 349.815 7.13036H366.847C370.168 7.13036 372.87 9.8323 372.87 13.1534V30.1852C372.87 34.8989 380 34.9055 380 30.1852V30.1852Z" fill="#857250"/>
<path d="M380 413.148V430.18C380 437.433 374.099 443.333 366.847 443.333H349.815C345.101 443.333 345.094 436.203 349.815 436.203H366.847C370.168 436.203 372.87 433.501 372.87 430.18V413.148C372.87 408.434 380 408.428 380 413.148V413.148Z" fill="#857250"/>
</svg>
