<svg width="23" height="21" viewBox="0 0 23 21" fill="none" xmlns="http://www.w3.org/2000/svg">
<path d="M20.0606 10.1805C19.6585 10.1805 19.3326 10.5065 19.3326 10.9086V19.4382H1.45609V1.56156H15.8172C16.2193 1.56156 16.5453 1.23557 16.5453 0.833514C16.5453 0.431458 16.2193 0.105469 15.8172 0.105469H0.728045C0.32599 0.105469 0 0.431458 0 0.833514V20.1662C0 20.5683 0.32599 20.8943 0.728045 20.8943H20.0606C20.4626 20.8943 20.7887 20.5683 20.7887 20.1662V10.9086C20.7887 10.5065 20.4627 10.1805 20.0606 10.1805Z" fill="#857250"/>
<path d="M22.7858 0.584309C22.5015 0.300022 22.0405 0.300022 21.7561 0.584309L9.89803 12.4425L6.95183 9.49634C6.66749 9.21205 6.20655 9.21205 5.9222 9.49634C5.63791 9.78069 5.63791 10.2416 5.9222 10.526L9.38321 13.987C9.52538 14.1291 9.7117 14.2002 9.89803 14.2002C10.0843 14.2002 10.2707 14.1291 10.4128 13.987L22.7858 1.61394C23.0702 1.32959 23.0702 0.868654 22.7858 0.584309Z" fill="#857250"/>
</svg>
