<svg width="25" height="25" viewBox="0 0 20 25" fill="none" xmlns="http://www.w3.org/2000/svg">
<path d="M17.9727 3.3374H13.8477V2.5874C13.8477 1.34475 12.8403 0.337402 11.5977 0.337402H8.59766C7.355 0.337402 6.34766 1.34475 6.34766 2.5874V3.3374H2.22266C1.18714 3.3374 0.347656 4.17689 0.347656 5.2124V6.7124C0.347656 7.12664 0.683422 7.4624 1.09766 7.4624H19.0977C19.5119 7.4624 19.8477 7.12664 19.8477 6.7124V5.2124C19.8477 4.17689 19.0082 3.3374 17.9727 3.3374ZM7.84766 2.5874C7.84766 2.17396 8.18422 1.8374 8.59766 1.8374H11.5977C12.0111 1.8374 12.3477 2.17396 12.3477 2.5874V3.3374H7.84766V2.5874Z" fill="#FF0000"/>
<path d="M1.76952 8.9624C1.63569 8.9624 1.52905 9.07425 1.53543 9.20793L2.15418 22.1943C2.21137 23.3961 3.19855 24.3374 4.40137 24.3374H15.7911C16.9939 24.3374 17.9811 23.3961 18.0382 22.1943L18.657 9.20793C18.6634 9.07425 18.5567 8.9624 18.4229 8.9624H1.76952ZM13.0962 10.8374C13.0962 10.423 13.4318 10.0874 13.8462 10.0874C14.2606 10.0874 14.5962 10.423 14.5962 10.8374V20.5874C14.5962 21.0018 14.2606 21.3374 13.8462 21.3374C13.4318 21.3374 13.0962 21.0018 13.0962 20.5874V10.8374ZM9.34621 10.8374C9.34621 10.423 9.68183 10.0874 10.0962 10.0874C10.5106 10.0874 10.8462 10.423 10.8462 10.8374V20.5874C10.8462 21.0018 10.5106 21.3374 10.0962 21.3374C9.68183 21.3374 9.34621 21.0018 9.34621 20.5874V10.8374ZM5.59621 10.8374C5.59621 10.423 5.93183 10.0874 6.34621 10.0874C6.76058 10.0874 7.09621 10.423 7.09621 10.8374V20.5874C7.09621 21.0018 6.76058 21.3374 6.34621 21.3374C5.93183 21.3374 5.59621 21.0018 5.59621 20.5874V10.8374Z" fill="#FF0000"/>
</svg>
