<svg width="43" height="43" viewBox="0 0 34 40" fill="none" xmlns="http://www.w3.org/2000/svg">
<path d="M30.125 5H23.25V3.75C23.25 1.67891 21.5711 0 19.5 0H14.5C12.4289 0 10.75 1.67891 10.75 3.75V5H3.875C2.14914 5 0.75 6.39914 0.75 8.125V10.625C0.75 11.3154 1.30961 11.875 2 11.875H32C32.6904 11.875 33.25 11.3154 33.25 10.625V8.125C33.25 6.39914 31.8509 5 30.125 5ZM13.25 3.75C13.25 3.06094 13.8109 2.5 14.5 2.5H19.5C20.1891 2.5 20.75 3.06094 20.75 3.75V5H13.25V3.75Z" fill="white"/>
<path d="M3.12303 14.375C2.89998 14.375 2.72225 14.5614 2.73287 14.7842L3.76412 36.4281C3.85944 38.4312 5.50475 40 7.50944 40H26.4922C28.4969 40 30.1422 38.4312 30.2376 36.4281L31.2688 14.7842C31.2794 14.5614 31.1017 14.375 30.8787 14.375H3.12303ZM22.0008 17.5C22.0008 16.8094 22.5602 16.25 23.2508 16.25C23.9415 16.25 24.5008 16.8094 24.5008 17.5V33.75C24.5008 34.4406 23.9415 35 23.2508 35C22.5602 35 22.0008 34.4406 22.0008 33.75V17.5ZM15.7508 17.5C15.7508 16.8094 16.3102 16.25 17.0008 16.25C17.6915 16.25 18.2508 16.8094 18.2508 17.5V33.75C18.2508 34.4406 17.6915 35 17.0008 35C16.3102 35 15.7508 34.4406 15.7508 33.75V17.5ZM9.50084 17.5C9.50084 16.8094 10.0602 16.25 10.7508 16.25C11.4415 16.25 12.0008 16.8094 12.0008 17.5V33.75C12.0008 34.4406 11.4415 35 10.7508 35C10.0602 35 9.50084 34.4406 9.50084 33.75V17.5Z" fill="white"/>
</svg>
