<svg width="30" height="22" viewBox="0 0 30 22" fill="none" xmlns="http://www.w3.org/2000/svg">
<path d="M28.9821 9.85804L26.9393 8.97393L25.2046 5.59823C24.7357 4.67393 23.7846 4.09792 22.7465 4.10461H19.7592V3.26069C19.7592 1.73359 18.5402 0.487793 17.0131 0.487793H2.73338C1.20627 0.487793 0.000666496 1.74029 0.000666496 3.26069V16.1875C-0.0127291 17.1185 0.730729 17.882 1.66173 17.8954C1.66842 17.8954 1.67512 17.8954 1.68852 17.8954H2.0435C2.0435 17.9624 2.0368 17.9892 2.0368 18.0294C2.03011 19.945 3.5773 21.5055 5.49288 21.5122C7.40845 21.5189 8.96905 19.9717 8.97575 18.0562C8.97575 18.0428 8.97575 18.0361 8.97575 18.0227C8.97575 17.9758 8.97574 17.9557 8.96905 17.8887H20.5094C20.5094 17.9557 20.5094 17.9825 20.5094 18.0227C20.5027 19.9383 22.0499 21.4988 23.9655 21.5055C25.881 21.5122 27.4416 19.965 27.4483 18.0495C27.4483 18.0361 27.4483 18.0294 27.4483 18.016C27.4483 17.9691 27.4483 17.949 27.4483 17.882H28.3123C29.2433 17.882 30.0002 17.1252 30.0002 16.1942C30.0002 16.1875 30.0002 16.1808 30.0002 16.1674V11.4119C30.0136 10.7555 29.6117 10.1327 28.9821 9.85804ZM5.51297 20.1794C4.33416 20.1794 3.38307 19.2283 3.38307 18.0495C3.38307 16.8707 4.33416 15.9196 5.51297 15.9196C6.69179 15.9196 7.64288 16.8707 7.64288 18.0495C7.64288 19.2216 6.68509 20.1794 5.51297 20.1794ZM18.4197 16.5693H8.65425C8.09163 15.3436 6.85923 14.5599 5.51297 14.5666C4.16001 14.5599 2.93431 15.3369 2.37169 16.5693H1.68852C1.48088 16.5693 1.34023 16.4085 1.34023 16.2009V12.7515H18.4197V16.5693ZM18.4197 3.26739V11.4119H1.34023V3.26739C1.34023 2.48374 1.94973 1.83405 2.73338 1.83405H17.0131C17.7968 1.84075 18.4264 2.48374 18.4197 3.26069V3.26739ZM19.7592 5.45088H22.7465C23.2756 5.44418 23.7712 5.73219 24.019 6.20773L25.3586 8.79979H19.7592V5.45088ZM23.9856 20.1794C22.8067 20.1794 21.8557 19.2283 21.8557 18.0495C21.8557 16.8707 22.8067 15.9196 23.9856 15.9196C25.1644 15.9196 26.1155 16.8707 26.1155 18.0495C26.1155 19.2216 25.1644 20.1794 23.9856 20.1794ZM28.6673 16.2009C28.6673 16.4085 28.5267 16.5693 28.319 16.5693H27.1268C26.3164 14.8345 24.2535 14.0844 22.5187 14.8948C21.782 15.2364 21.1859 15.8325 20.8443 16.5693H19.7592V10.1393H26.3231L28.453 11.077C28.587 11.144 28.674 11.2914 28.6673 11.4387V16.2009Z" fill="#6A5B40"/>
</svg>
