<svg width="32" height="32" viewBox="0 0 32 32" fill="none" xmlns="http://www.w3.org/2000/svg">
<circle cx="16" cy="16" r="16" fill="#FCF2CF"/>
<path d="M20.5931 17.7017C19.342 17.7017 18.3242 18.7195 18.3242 19.9706C18.3242 21.2217 19.342 22.2395 20.5931 22.2395C21.8444 22.2395 22.862 21.2217 22.862 19.9706C22.862 18.7195 21.8442 17.7017 20.5931 17.7017ZM20.5931 21.105C19.9675 21.105 19.4587 20.5962 19.4587 19.9706C19.4587 19.3449 19.9675 18.8361 20.5931 18.8361C21.2188 18.8361 21.7276 19.3449 21.7276 19.9706C21.7276 20.5962 21.2188 21.105 20.5931 21.105Z" fill="#DDAF0E"/>
<path d="M12.8431 17.7017C11.592 17.7017 10.5742 18.7195 10.5742 19.9706C10.5742 21.2217 11.592 22.2395 12.8431 22.2395C14.0942 22.2395 15.112 21.2217 15.112 19.9706C15.112 18.7195 14.0942 17.7017 12.8431 17.7017ZM12.8431 21.105C12.2175 21.105 11.7087 20.5962 11.7087 19.9706C11.7087 19.3449 12.2175 18.8361 12.8431 18.8361C13.4686 18.8361 13.9776 19.3449 13.9776 19.9706C13.9776 20.5962 13.4688 21.105 12.8431 21.105Z" fill="#DDAF0E"/>
<path d="M22.1232 11.2074C22.0268 11.0159 21.8307 10.895 21.6163 10.895H18.6289V12.0295H21.2665L22.8111 15.1016L23.8249 14.5918L22.1232 11.2074Z" fill="#DDAF0E"/>
<path d="M18.8936 19.4224H14.6016V20.5568H18.8936V19.4224Z" fill="#DDAF0E"/>
<path d="M11.139 19.4224H9.17268C8.85937 19.4224 8.60547 19.6763 8.60547 19.9896C8.60547 20.3029 8.8594 20.5568 9.17268 20.5568H11.1391C11.4524 20.5568 11.7063 20.3029 11.7063 19.9896C11.7063 19.6763 11.4524 19.4224 11.139 19.4224Z" fill="#DDAF0E"/>
<path d="M24.8792 15.9546L23.7635 14.5176C23.6563 14.3792 23.4908 14.2983 23.3155 14.2983H19.1937V10.3277C19.1937 10.0144 18.9397 9.7605 18.6265 9.7605H9.17268C8.85937 9.7605 8.60547 10.0144 8.60547 10.3277C8.60547 10.641 8.8594 10.8949 9.17268 10.8949H18.0592V14.8655C18.0592 15.1788 18.3132 15.4327 18.6264 15.4327H23.0378L23.8638 16.4968V19.4222H22.2945C21.9812 19.4222 21.7273 19.6761 21.7273 19.9894C21.7273 20.3027 21.9812 20.5566 22.2945 20.5566H24.431C24.7443 20.5566 24.9982 20.3027 24.9983 19.9894V16.3025C24.9983 16.1766 24.9563 16.0541 24.8792 15.9546Z" fill="#DDAF0E"/>
<path d="M11.1023 16.5483H8.49299C8.17968 16.5483 7.92578 16.8023 7.92578 17.1156C7.92578 17.4289 8.17971 17.6828 8.49299 17.6828H11.1022C11.4155 17.6828 11.6694 17.4288 11.6694 17.1156C11.6695 16.8023 11.4155 16.5483 11.1023 16.5483Z" fill="#DDAF0E"/>
<path d="M12.4076 14.3171H7.56721C7.25393 14.3171 7 14.5711 7 14.8844C7 15.1977 7.25393 15.4516 7.56721 15.4516H12.4076C12.7209 15.4516 12.9748 15.1977 12.9748 14.8844C12.9748 14.5711 12.7209 14.3171 12.4076 14.3171Z" fill="#DDAF0E"/>
<path d="M13.3333 12.0862H8.49299C8.17968 12.0862 7.92578 12.3401 7.92578 12.6534C7.92578 12.9667 8.17971 13.2206 8.49299 13.2206H13.3333C13.6467 13.2206 13.9006 12.9667 13.9006 12.6534C13.9006 12.3401 13.6467 12.0862 13.3333 12.0862Z" fill="#DDAF0E"/>
</svg>
