<svg width="43" height="43" viewBox="0 0 43 43" fill="none" xmlns="http://www.w3.org/2000/svg">
<path d="M28.3813 20.7798L22.8438 26.3187V12.0938C22.8438 11.352 22.2418 10.75 21.5 10.75C20.7583 10.75 20.1562 11.352 20.1562 12.0938V26.3187L14.6187 20.7811C14.0933 20.2557 13.2427 20.2557 12.7186 20.7811C12.1932 21.3065 12.1932 22.1571 12.7186 22.6811L20.3202 30.2827C20.6427 30.6052 21.0834 30.7046 21.5014 30.6307C21.918 30.7046 22.3601 30.6038 22.6826 30.2827L30.2842 22.6811C30.8096 22.1557 30.8096 21.3052 30.2842 20.7811C29.7573 20.2557 28.9068 20.2557 28.3813 20.7798ZM21.5 0C9.62666 0 0 9.62526 0 21.5C0 33.3747 9.62666 43 21.5 43C33.3733 43 43 33.3733 43 21.5C43 9.62666 33.3747 0 21.5 0ZM21.5 40.3125C11.1101 40.3125 2.6875 31.8899 2.6875 21.5C2.6875 11.1101 11.1101 2.6875 21.5 2.6875C31.8899 2.6875 40.3125 11.1101 40.3125 21.5C40.3125 31.8899 31.8899 40.3125 21.5 40.3125Z" fill="white"/>
</svg>
