<svg width="64" height="64" viewBox="0 0 64 64" fill="none" xmlns="http://www.w3.org/2000/svg">
<path d="M32 0L37.2391 3.97347L43.5597 2.16089L47.0096 7.75861L53.5583 8.35172L54.7531 14.8177L60.6452 17.7364L59.4236 24.1973L63.8635 29.0474L60.3904 34.6308L62.7784 40.7572L57.5229 44.7089L57.5366 51.2843L51.2084 53.0706L48.8458 59.2069L42.2997 58.5866L37.88 63.4551L32 60.512L26.12 63.4551L21.7003 58.5866L15.1542 59.2069L12.7916 53.0706L6.46345 51.2843L6.4771 44.7089L1.22158 40.7572L3.60963 34.6308L0.136507 29.0474L4.57643 24.1973L3.35477 17.7364L9.24693 14.8177L10.4417 8.35172L16.9904 7.75861L20.4403 2.16089L26.7609 3.97347L32 0Z" fill="#6A5B40"/>
<path d="M18.3273 39.3C17.5539 39.3 16.8606 39.2267 16.2473 39.08C15.6473 38.9467 15.1139 38.72 14.6473 38.4L14.7873 35.88H14.9873L15.9073 37.52C16.1739 38 16.5006 38.3533 16.8873 38.58C17.2739 38.7933 17.7006 38.9 18.1673 38.9C19.7006 38.9 20.4673 37.7333 20.4673 35.4C20.4673 34.3467 20.2606 33.5467 19.8473 33C19.4473 32.4533 18.8473 32.18 18.0473 32.18C17.6739 32.18 17.3006 32.2333 16.9273 32.34C16.5673 32.4333 16.2339 32.56 15.9273 32.72L15.5673 32.5L16.0073 26.32H23.0073V28.6H16.4073L16.1273 32.06C16.4339 31.8333 16.8473 31.62 17.3673 31.42C17.8873 31.22 18.4339 31.12 19.0073 31.12C19.8739 31.12 20.6406 31.2733 21.3073 31.58C21.9873 31.8867 22.5139 32.34 22.8873 32.94C23.2739 33.5267 23.4673 34.2533 23.4673 35.12C23.4673 36.0133 23.2406 36.7733 22.7873 37.4C22.3473 38.0267 21.7406 38.5 20.9673 38.82C20.1939 39.14 19.3139 39.3 18.3273 39.3ZM29.1118 39.3C28.3118 39.3 27.5585 39.0733 26.8518 38.62C26.1585 38.1667 25.5985 37.4533 25.1718 36.48C24.7451 35.5067 24.5318 34.24 24.5318 32.68C24.5318 31.1067 24.7451 29.8333 25.1718 28.86C25.5985 27.8733 26.1585 27.1533 26.8518 26.7C27.5585 26.2467 28.3118 26.02 29.1118 26.02C29.9118 26.02 30.6585 26.2467 31.3518 26.7C32.0585 27.1533 32.6251 27.8733 33.0518 28.86C33.4918 29.8333 33.7118 31.1067 33.7118 32.68C33.7118 34.24 33.4918 35.5067 33.0518 36.48C32.6251 37.4533 32.0585 38.1667 31.3518 38.62C30.6585 39.0733 29.9118 39.3 29.1118 39.3ZM29.1118 38.9C29.4451 38.9 29.7251 38.8133 29.9518 38.64C30.1918 38.4667 30.3851 38.1533 30.5318 37.7C30.6785 37.2467 30.7851 36.62 30.8518 35.82C30.9185 35.0067 30.9518 33.96 30.9518 32.68C30.9518 31.4 30.9185 30.3533 30.8518 29.54C30.7851 28.7133 30.6785 28.0733 30.5318 27.62C30.3851 27.1667 30.1918 26.8533 29.9518 26.68C29.7251 26.5067 29.4451 26.42 29.1118 26.42C28.7785 26.42 28.4918 26.5067 28.2518 26.68C28.0251 26.8533 27.8385 27.1667 27.6918 27.62C27.5451 28.06 27.4385 28.6933 27.3718 29.52C27.3051 30.3333 27.2718 31.3867 27.2718 32.68C27.2718 33.96 27.3051 35.0067 27.3718 35.82C27.4385 36.6333 27.5451 37.2667 27.6918 37.72C27.8385 38.16 28.0251 38.4667 28.2518 38.64C28.4918 38.8133 28.7785 38.9 29.1118 38.9ZM38.6509 39.42L38.2509 39.14L47.2709 25.92L47.6909 26.2L38.6509 39.42ZM38.2709 26.02C38.7909 26.02 39.2775 26.1667 39.7309 26.46C40.1975 26.74 40.5709 27.1867 40.8509 27.8C41.1309 28.4 41.2709 29.18 41.2709 30.14C41.2709 31.0733 41.1309 31.8467 40.8509 32.46C40.5709 33.06 40.1975 33.5067 39.7309 33.8C39.2775 34.08 38.7909 34.22 38.2709 34.22C37.7509 34.22 37.2575 34.08 36.7909 33.8C36.3375 33.5067 35.9709 33.06 35.6909 32.46C35.4109 31.8467 35.2709 31.0733 35.2709 30.14C35.2709 29.18 35.4109 28.4 35.6909 27.8C35.9709 27.1867 36.3375 26.74 36.7909 26.46C37.2575 26.1667 37.7509 26.02 38.2709 26.02ZM37.1509 30.14C37.1509 31.1533 37.1975 31.9267 37.2909 32.46C37.3975 32.9933 37.5375 33.36 37.7109 33.56C37.8842 33.76 38.0709 33.86 38.2709 33.86C38.4842 33.86 38.6709 33.76 38.8309 33.56C39.0042 33.36 39.1375 32.9933 39.2309 32.46C39.3375 31.9133 39.3909 31.14 39.3909 30.14C39.3909 29.1267 39.3375 28.3533 39.2309 27.82C39.1375 27.2867 39.0042 26.92 38.8309 26.72C38.6709 26.5067 38.4842 26.4 38.2709 26.4C38.0709 26.4 37.8842 26.5 37.7109 26.7C37.5375 26.9 37.3975 27.2733 37.2909 27.82C37.1975 28.3533 37.1509 29.1267 37.1509 30.14ZM47.4109 30.98C47.9309 30.98 48.4175 31.1267 48.8709 31.42C49.3375 31.7 49.7109 32.1467 49.9909 32.76C50.2709 33.36 50.4109 34.14 50.4109 35.1C50.4109 36.0333 50.2709 36.8067 49.9909 37.42C49.7109 38.02 49.3375 38.4667 48.8709 38.76C48.4175 39.04 47.9309 39.18 47.4109 39.18C46.8909 39.18 46.3975 39.04 45.9309 38.76C45.4775 38.4667 45.1109 38.02 44.8309 37.42C44.5509 36.8067 44.4109 36.0333 44.4109 35.1C44.4109 34.14 44.5509 33.36 44.8309 32.76C45.1109 32.1467 45.4775 31.7 45.9309 31.42C46.3975 31.1267 46.8909 30.98 47.4109 30.98ZM46.2909 35.1C46.2909 36.1133 46.3375 36.8867 46.4309 37.42C46.5375 37.9533 46.6775 38.32 46.8509 38.52C47.0242 38.72 47.2109 38.82 47.4109 38.82C47.6242 38.82 47.8109 38.72 47.9709 38.52C48.1442 38.32 48.2775 37.9533 48.3709 37.42C48.4775 36.8733 48.5309 36.1 48.5309 35.1C48.5309 34.0867 48.4775 33.3133 48.3709 32.78C48.2775 32.2467 48.1442 31.88 47.9709 31.68C47.8109 31.4667 47.6242 31.36 47.4109 31.36C47.2109 31.36 47.0242 31.46 46.8509 31.66C46.6775 31.86 46.5375 32.2333 46.4309 32.78C46.3375 33.3133 46.2909 34.0867 46.2909 35.1Z" fill="white"/>
</svg>
