<svg width="18" height="18" viewBox="0 0 18 18" fill="none" xmlns="http://www.w3.org/2000/svg">
<path d="M17.2836 2.27186H6.57445C6.28003 1.39741 5.45292 0.765625 4.48045 0.765625C3.50798 0.765625 2.68088 1.39741 2.38645 2.27186H0.714844C0.326531 2.27186 0.0117188 2.58667 0.0117188 2.97498C0.0117188 3.3633 0.326531 3.67811 0.714844 3.67811H2.3865C2.68092 4.55256 3.50803 5.18434 4.4805 5.18434C5.45297 5.18434 6.28008 4.55256 6.5745 3.67811H17.2836C17.6719 3.67811 17.9867 3.3633 17.9867 2.97498C17.9867 2.58667 17.6719 2.27186 17.2836 2.27186ZM4.48045 3.77809C4.03763 3.77809 3.67734 3.41781 3.67734 2.97498C3.67734 2.53216 4.03763 2.17187 4.48045 2.17187C4.92328 2.17187 5.28356 2.53216 5.28356 2.97498C5.28356 3.41781 4.92328 3.77809 4.48045 3.77809Z" fill="white"/>
<path d="M17.2836 8.29701H15.6119C15.3175 7.42255 14.4903 6.79077 13.5179 6.79077C12.5455 6.79077 11.7184 7.42255 11.424 8.29701H0.714844C0.326531 8.29701 0.0117188 8.61182 0.0117188 9.00013C0.0117188 9.38844 0.326531 9.70326 0.714844 9.70326H11.424C11.7184 10.5777 12.5455 11.2095 13.518 11.2095C14.4904 11.2095 15.3175 10.5777 15.612 9.70326H17.2836C17.6719 9.70326 17.9867 9.38844 17.9867 9.00013C17.9867 8.61182 17.6719 8.29701 17.2836 8.29701ZM13.518 9.80324C13.0751 9.80324 12.7148 9.44296 12.7148 9.00013C12.7148 8.5573 13.0751 8.19702 13.518 8.19702C13.9608 8.19702 14.3211 8.5573 14.3211 9.00013C14.3211 9.44296 13.9608 9.80324 13.518 9.80324Z" fill="white"/>
<path d="M17.2836 14.3219H9.58697C9.29255 13.4475 8.46544 12.8157 7.49297 12.8157C6.5205 12.8157 5.69339 13.4475 5.39897 14.3219H0.714844C0.326531 14.3219 0.0117188 14.6367 0.0117188 15.025C0.0117188 15.4133 0.326531 15.7282 0.714844 15.7282H5.39897C5.69339 16.6026 6.5205 17.2344 7.49297 17.2344C8.46544 17.2344 9.29255 16.6026 9.58697 15.7282H17.2836C17.6719 15.7282 17.9867 15.4133 17.9867 15.025C17.9867 14.6367 17.6719 14.3219 17.2836 14.3219ZM7.49297 15.8282C7.05014 15.8282 6.68986 15.4679 6.68986 15.0251C6.68986 14.5823 7.05014 14.222 7.49297 14.222C7.9358 14.222 8.29608 14.5822 8.29608 15.025C8.29608 15.4679 7.9358 15.8282 7.49297 15.8282Z" fill="white"/>
</svg>
