<svg width="12" height="14" viewBox="0 0 12 14" fill="none" xmlns="http://www.w3.org/2000/svg">
<path fill-rule="evenodd" clip-rule="evenodd" d="M0.999984 5.99945H8.58998L5.28998 2.70945C4.89786 2.31733 4.89786 1.68158 5.28998 1.28945C5.68211 0.897331 6.31786 0.897331 6.70998 1.28945L11.71 6.28945C11.801 6.38456 11.8724 6.4967 11.92 6.61945C12.02 6.86291 12.02 7.13599 11.92 7.37945C11.8724 7.5022 11.801 7.61435 11.71 7.70945L6.70998 12.7095C6.52222 12.8988 6.26662 13.0053 5.99998 13.0053C5.73335 13.0053 5.47775 12.8988 5.28998 12.7095C5.10067 12.5217 4.99418 12.2661 4.99418 11.9995C4.99418 11.7328 5.10067 11.4772 5.28998 11.2895L8.58998 7.99945H0.999984C0.447699 7.99945 -1.52588e-05 7.55174 -1.52588e-05 6.99945C-1.52588e-05 6.44717 0.447699 5.99945 0.999984 5.99945Z" fill="#857250"/>
</svg>
