<svg width="16" height="16" viewBox="0 0 16 16" fill="none" xmlns="http://www.w3.org/2000/svg">
<path d="M2 6.66675C2 11.3334 8 15.3334 8 15.3334C8 15.3334 14 11.3334 14 6.66675C14 5.07545 13.3679 3.54933 12.2426 2.42411C11.1174 1.29889 9.5913 0.666748 8 0.666748C6.4087 0.666748 4.88258 1.29889 3.75736 2.42411C2.63214 3.54933 2 5.07545 2 6.66675Z" stroke="white" stroke-width="0.886667" stroke-linecap="round" stroke-linejoin="round"/>
<path d="M8 8.66675C6.89543 8.66675 6 7.77132 6 6.66675C6 5.56218 6.89543 4.66675 8 4.66675C9.10457 4.66675 10 5.56218 10 6.66675C10 7.77132 9.10457 8.66675 8 8.66675Z" stroke="white" stroke-width="0.886667" stroke-linecap="round" stroke-linejoin="round"/>
</svg>
