<svg width="24" height="24" viewBox="0 0 24 24" fill="none" xmlns="http://www.w3.org/2000/svg">
<g clip-path="url(#clip0)">
<path d="M8.18554 11.7819C10.1741 11.7819 11.7959 10.5607 11.7959 9.06461C11.7959 7.56835 10.1789 6.34717 8.18554 6.34717C6.19213 6.34717 4.5752 7.56835 4.5752 9.06461C4.5752 10.5607 6.19695 11.7819 8.18554 11.7819ZM8.18554 7.31237C9.63343 7.31237 10.8305 8.11369 10.8305 9.06444C10.8305 10.0154 9.61897 10.8165 8.18554 10.8165C6.75194 10.8165 5.5404 10.0154 5.5404 9.06444C5.5404 8.11369 6.75194 7.30755 8.18554 7.30755V7.31237Z" fill="#6A5B40"/>
<path d="M23.4907 14.0842H16.3666V9.05952C16.3666 5.75817 12.6936 3.06982 8.1614 3.06982C3.62906 3.06982 -0.0439453 5.75817 -0.0439453 9.05952V14.9964C-0.0439453 18.0371 3.06925 20.5469 7.08017 20.9282H7.16228C7.49521 20.9573 7.83312 20.9814 8.17586 20.9814H23.4907C23.7572 20.9814 23.9734 20.7652 23.9734 20.4987V14.5667C23.9734 14.3004 23.7572 14.0842 23.4907 14.0842ZM8.1855 4.03985C12.1673 4.03985 15.4255 6.29388 15.4255 9.06451C15.4255 11.835 12.1868 14.089 8.1855 14.089C4.18422 14.089 0.94553 11.835 0.94553 9.06434C0.94553 6.29388 4.20832 4.03985 8.1855 4.03985ZM15.4255 11.8784V14.0842H12.6259C13.7187 13.5889 14.672 12.8312 15.4012 11.8784H15.4255ZM23.008 20.016H22.0426V17.5737C22.0426 17.3074 21.8264 17.091 21.5601 17.091C21.2936 17.091 21.0774 17.3072 21.0774 17.5737V20.0209H19.1467V18.6935C19.1467 18.427 18.9305 18.2108 18.664 18.2108C18.3975 18.2108 18.1813 18.427 18.1813 18.6935V20.0209H16.2507V18.6935C16.2507 18.427 16.0345 18.2108 15.768 18.2108C15.5016 18.2108 15.2853 18.427 15.2853 18.6935V20.0209H13.3546V17.5737C13.3546 17.3074 13.1384 17.091 12.8719 17.091C12.6056 17.091 12.3892 17.3072 12.3892 17.5737V20.0209H10.5408V18.6935C10.5408 18.427 10.3244 18.2108 10.0581 18.2108C9.79159 18.2108 9.57538 18.427 9.57538 18.6935V20.0209H8.18515C8.00182 20.0209 7.82331 20.0209 7.64463 20.0209V18.6935C7.64463 18.427 7.42842 18.2108 7.16194 18.2108C6.89546 18.2108 6.67925 18.427 6.67925 18.6935V19.905C3.42163 19.4223 0.96963 17.4048 0.96963 14.9916V11.8784C2.35004 13.7656 5.06748 15.0494 8.2096 15.0494H23.008V20.016Z" fill="#6A5B40"/>
</g>
<defs>
<clipPath id="clip0">
<rect width="24" height="24" fill="white"/>
</clipPath>
</defs>
</svg>
