<svg width="50" height="47" viewBox="0 0 50 47" fill="none" xmlns="http://www.w3.org/2000/svg">
<path d="M47.546 13.9846H45.9909C44.2612 9.98572 41.4902 6.57478 37.9431 4.09042C34.1224 1.41432 29.6467 0 25.0001 0C20.3532 0 15.8776 1.41432 12.0568 4.09042C8.50985 6.57478 5.73876 9.98572 4.00907 13.9846H2.4539C1.10078 13.9846 0 15.1113 0 16.4965V30.4924C0 31.8776 1.10078 33.0044 2.4539 33.0044H4.00888C5.73856 37.0033 8.50965 40.4144 12.0566 42.8988C15.8774 45.5749 20.3532 46.9894 25.0001 46.9894C29.6468 46.9894 34.1225 45.5749 37.9433 42.8988C41.4902 40.4144 44.2611 37.0033 45.9909 33.0044H47.546C48.899 33.0044 50 31.8777 50 30.4924V16.4965C50 15.1113 48.899 13.9846 47.546 13.9846ZM25.0001 1.99932C33.0717 1.99932 40.3126 6.65615 43.836 13.9846H36.9524C34.093 10.2262 29.6629 7.99699 25.0001 7.99699C20.3372 7.99699 15.9072 10.2263 13.0474 13.9846H10.6533C13.7851 9.01985 19.143 5.99777 25 5.99777C27.091 5.99777 29.1412 6.38454 31.0933 7.14758C31.5974 7.34422 32.1616 7.0859 32.3538 6.57008C32.5462 6.05445 32.2937 5.47655 31.7899 5.27971C29.6145 4.4296 27.3299 3.99855 25 3.99855C21.5086 3.99855 18.0865 4.98002 15.1035 6.83709C12.2921 8.58749 9.97635 11.0505 8.37469 13.9847H6.16395C9.68729 6.65605 16.9282 1.99932 25.0001 1.99932ZM34.3529 13.9846H15.6468C18.1048 11.4588 21.4761 9.99632 25 9.99632C28.5238 9.99632 31.8951 11.4588 34.3529 13.9846ZM25.0001 44.99C16.9282 44.99 9.68729 40.333 6.16376 33.0043H13.0474C15.9068 36.7627 20.337 38.9918 25.0001 38.9918C29.6629 38.9918 34.0931 36.7627 36.9525 33.0043H39.3465C36.2147 37.9691 30.8568 40.9911 25.0001 40.9911C22.9091 40.9911 20.8589 40.6044 18.9064 39.8413C18.4025 39.6447 17.8381 39.903 17.6458 40.4188C17.4535 40.9347 17.706 41.5124 18.2099 41.7092C20.3856 42.5593 22.6703 42.9904 25.0001 42.9904C28.4913 42.9904 31.9132 42.0087 34.8963 40.1517C37.7077 38.4015 40.0235 35.9385 41.6252 33.0043H43.836C40.3125 40.333 33.0717 44.99 25.0001 44.99ZM15.6468 33.0044H34.3533C31.8954 35.5302 28.5242 36.9926 25.0001 36.9926C21.4759 36.9925 18.1047 35.5302 15.6468 33.0044ZM48.0469 30.4925C48.0469 30.7705 47.8175 31.0052 47.546 31.0052H2.4539C2.18252 31.0052 1.95312 30.7705 1.95312 30.4925V16.4965C1.95312 16.2185 2.18252 15.9838 2.4539 15.9838H47.546C47.8175 15.9838 48.0469 16.2185 48.0469 16.4965V30.4925Z" fill="black"/>
<path d="M33.5166 8.32418L33.5584 8.34857C33.7092 8.43484 33.8725 8.47563 34.0338 8.47563C34.3761 8.47563 34.7084 8.29109 34.8871 7.9633C35.1502 7.48146 34.9817 6.87247 34.5108 6.60296L34.5025 6.59826C34.0369 6.31926 33.4388 6.4797 33.1665 6.95654C32.8943 7.43328 33.0511 8.04557 33.5166 8.32418Z" fill="black"/>
<path d="M16.4748 38.6595L16.4497 38.6448C15.9814 38.3709 15.385 38.5375 15.1173 39.0168C14.8498 39.4961 15.0125 40.1068 15.4808 40.3808L15.5058 40.3954C15.6586 40.4849 15.8251 40.5272 15.9894 40.5272C16.3284 40.5272 16.658 40.3462 16.8382 40.0233C17.1058 39.5438 16.9431 38.9333 16.4748 38.6595Z" fill="black"/>
<path d="M9.528 27.108C8.91 27.108 8.367 26.973 7.899 26.703C7.437 26.427 7.074 26.043 6.81 25.551C6.552 25.059 6.423 24.492 6.423 23.85C6.423 23.208 6.552 22.644 6.81 22.158C7.074 21.666 7.437 21.282 7.899 21.006C8.367 20.73 8.91 20.592 9.528 20.592C10.152 20.592 10.695 20.73 11.157 21.006C11.625 21.282 11.988 21.666 12.246 22.158C12.504 22.644 12.633 23.208 12.633 23.85C12.633 24.492 12.504 25.059 12.246 25.551C11.988 26.043 11.625 26.427 11.157 26.703C10.695 26.973 10.152 27.108 9.528 27.108ZM9.528 26.442C9.99 26.442 10.395 26.34 10.743 26.136C11.097 25.926 11.37 25.629 11.562 25.245C11.76 24.855 11.859 24.39 11.859 23.85C11.859 23.31 11.76 22.848 11.562 22.464C11.37 22.08 11.097 21.786 10.743 21.582C10.395 21.372 9.99 21.267 9.528 21.267C9.066 21.267 8.658 21.372 8.304 21.582C7.956 21.786 7.683 22.08 7.485 22.464C7.293 22.848 7.197 23.31 7.197 23.85C7.197 24.39 7.293 24.855 7.485 25.245C7.683 25.629 7.956 25.926 8.304 26.136C8.658 26.34 9.066 26.442 9.528 26.442ZM13.7236 27V20.7H15.7576C16.2496 20.7 16.6516 20.781 16.9636 20.943C17.2756 21.105 17.5066 21.327 17.6566 21.609C17.8066 21.891 17.8816 22.203 17.8816 22.545C17.8816 22.941 17.7736 23.298 17.5576 23.616C17.3476 23.934 17.0176 24.159 16.5676 24.291L17.9446 27H17.0536L15.7756 24.399H15.7216H14.4796V27H13.7236ZM14.4796 23.805H15.7036C16.1896 23.805 16.5436 23.688 16.7656 23.454C16.9876 23.22 17.0986 22.92 17.0986 22.554C17.0986 22.182 16.9876 21.888 16.7656 21.672C16.5496 21.45 16.1926 21.339 15.6946 21.339H14.4796V23.805ZM19.0586 27V20.7H19.8146V27H19.0586ZM23.8594 27.108C23.2714 27.108 22.7554 26.973 22.3114 26.703C21.8674 26.427 21.5224 26.046 21.2764 25.56C21.0304 25.068 20.9074 24.501 20.9074 23.859C20.9074 23.217 21.0304 22.65 21.2764 22.158C21.5284 21.666 21.8824 21.282 22.3384 21.006C22.8004 20.73 23.3434 20.592 23.9674 20.592C24.6754 20.592 25.2634 20.763 25.7314 21.105C26.2054 21.447 26.5114 21.918 26.6494 22.518H25.7764C25.6924 22.14 25.4914 21.84 25.1734 21.618C24.8614 21.396 24.4594 21.285 23.9674 21.285C23.5054 21.285 23.1034 21.39 22.7614 21.6C22.4194 21.804 22.1524 22.098 21.9604 22.482C21.7744 22.866 21.6814 23.325 21.6814 23.859C21.6814 24.393 21.7744 24.852 21.9604 25.236C22.1464 25.62 22.4044 25.917 22.7344 26.127C23.0644 26.331 23.4484 26.433 23.8864 26.433C24.5584 26.433 25.0654 26.238 25.4074 25.848C25.7494 25.452 25.9444 24.912 25.9924 24.228H24.1744V23.634H26.7664V27H26.0734L26.0104 25.965C25.7824 26.331 25.5034 26.613 25.1734 26.811C24.8434 27.009 24.4054 27.108 23.8594 27.108ZM27.9619 27V20.7H28.7179V27H27.9619ZM30.0537 27V20.7H30.8097L34.1667 25.749V20.7H34.9227V27H34.1667L30.8097 21.951V27H30.0537ZM35.8628 27L38.1848 20.7H38.9858L41.2988 27H40.4978L39.9218 25.38H37.2398L36.6548 27H35.8628ZM37.4648 24.768H39.6968L38.5808 21.654L37.4648 24.768ZM42.2353 27V20.7H42.9913V26.397H45.9253V27H42.2353Z" fill="black"/>
</svg>
