<svg width="32" height="32" viewBox="0 0 32 32" fill="none" xmlns="http://www.w3.org/2000/svg">
<circle cx="16" cy="16" r="16" fill="#D9F2E0"/>
<path d="M23.1693 18.0503V11.494L15.3854 7L7.60156 11.494V20.4821L15.3854 24.9761L17.4561 23.7806C18.1916 24.5325 19.2167 25 20.349 25C22.5813 25 24.3974 23.1839 24.3974 20.9517C24.3974 19.8149 23.9263 18.7864 23.1693 18.0503ZM15.3854 8.21943L21.5852 11.7989L19.0134 13.2837L12.8136 9.70429L15.3854 8.21943ZM14.8574 23.4518L8.65766 19.8723V12.7135L14.8574 16.2929V23.4518ZM9.1857 11.7989L11.7575 10.314L17.9573 13.8934L15.3854 15.3783L9.1857 11.7989ZM15.9135 23.4518V16.2929L22.1132 12.7135V17.3084C21.5797 17.049 20.9811 16.9033 20.349 16.9033C18.1168 16.9033 16.3007 18.7194 16.3007 20.9517C16.3007 21.6696 16.4888 22.3444 16.8179 22.9296L15.9135 23.4518ZM20.349 23.9439C18.6991 23.9439 17.3568 22.6016 17.3568 20.9517C17.3568 19.3017 18.6991 17.9594 20.349 17.9594C21.999 17.9594 23.3413 19.3017 23.3413 20.9517C23.3413 22.6016 21.999 23.9439 20.349 23.9439Z" fill="#42BE65"/>
<path d="M21.5981 19.4177L19.869 21.1564L19.0945 20.3897L18.3516 21.1402L19.8749 22.6482L22.347 20.1624L21.5981 19.4177Z" fill="#42BE65"/>
</svg>