<svg width="100" height="25" viewBox="0 0 100 25" fill="none" xmlns="http://www.w3.org/2000/svg">
<g clip-path="url(#clip0)">
<path fill-rule="evenodd" clip-rule="evenodd" d="M8.72684 6.58789H15.5601C19.229 6.58789 20.6101 8.42786 20.3967 11.131C20.0439 15.5938 17.3205 18.0628 13.7081 18.0628H11.8842C11.3885 18.0628 11.0552 18.3878 10.9211 19.2685L10.1468 24.3883C10.0956 24.7202 9.91923 24.9125 9.65465 24.9387H5.36135C4.95742 24.9387 4.81454 24.6329 4.92038 23.9706L7.53799 7.55768C7.64029 6.90067 8.00365 6.58789 8.72684 6.58789Z" fill="#009EE3"/>
<path fill-rule="evenodd" clip-rule="evenodd" d="M38.39 6.2832C40.6954 6.2832 42.8227 7.52208 42.5316 10.6097C42.1789 14.2791 40.1945 16.3096 37.0636 16.3183H34.3278C33.9345 16.3183 33.744 16.6363 33.6417 17.2881L33.1125 20.6203C33.0331 21.1235 32.7721 21.3717 32.3875 21.3717H29.8422C29.4366 21.3717 29.2954 21.1148 29.3854 20.5399L31.4862 7.18484C31.5903 6.52783 31.839 6.2832 32.2923 6.2832H38.3847H38.39ZM34.2449 13.4334H36.3175C37.6139 13.3845 38.4747 12.4951 38.5611 10.891C38.614 9.90024 37.9385 9.19081 36.8643 9.19605L34.9134 9.20479L34.2449 13.4334ZM49.4514 20.3495C49.6842 20.1398 49.9206 20.0314 49.887 20.29L49.8041 20.9086C49.7618 21.2319 49.8906 21.4031 50.194 21.4031H52.4553C52.8363 21.4031 53.0215 21.2511 53.115 20.6675L54.5084 12.0041C54.579 11.569 54.4714 11.3558 54.138 11.3558H51.6509C51.4269 11.3558 51.3176 11.4799 51.2593 11.8188L51.1676 12.3518C51.12 12.6296 50.9912 12.6785 50.8713 12.399C50.4497 11.41 49.3737 10.9661 47.8727 11.0011C44.3855 11.0727 42.0342 13.6955 41.782 17.0574C41.588 19.6575 43.4683 21.7002 45.9483 21.7002C47.7474 21.7002 48.5518 21.176 49.4584 20.3547L49.4514 20.3495ZM47.5569 19.0162C46.0559 19.0162 45.0099 17.8298 45.2269 16.376C45.4438 14.9222 46.8479 13.7357 48.3489 13.7357C49.85 13.7357 50.896 14.9222 50.679 16.376C50.4621 17.8298 49.0598 19.0162 47.5569 19.0162ZM58.934 11.3278H56.641C56.1682 11.3278 55.976 11.6773 56.1259 12.1072L58.9728 20.3652L56.1806 24.295C55.946 24.6235 56.1277 24.9223 56.4575 24.9223H59.0345C59.1847 24.9395 59.3368 24.9136 59.4725 24.8476C59.6082 24.7816 59.7219 24.6783 59.8001 24.5501L68.556 12.1089C68.8259 11.7262 68.6989 11.3243 68.2561 11.3243H65.8167C65.3987 11.3243 65.2311 11.4886 64.9912 11.8328L61.3399 17.0749L59.7084 11.8206C59.6131 11.5026 59.375 11.3278 58.9358 11.3278H58.934Z" fill="#113984"/>
<path fill-rule="evenodd" clip-rule="evenodd" d="M77.6695 6.28377C79.9749 6.28377 82.1022 7.52265 81.8111 10.6102C81.4584 14.2797 79.474 16.3101 76.3431 16.3189H73.6091C73.2157 16.3189 73.0252 16.6369 72.9229 17.2886L72.3937 20.6209C72.3144 21.1241 72.0533 21.3722 71.6688 21.3722H69.1235C68.7178 21.3722 68.5767 21.1154 68.6666 20.5405L70.771 7.18191C70.875 6.5249 71.1237 6.28027 71.5771 6.28027H77.6695V6.28377ZM73.5244 13.434H75.597C76.8934 13.385 77.7542 12.4956 77.8406 10.8916C77.8935 9.90081 77.218 9.19138 76.1438 9.19662L74.1929 9.20536L73.5244 13.434ZM88.7309 20.35C88.9637 20.1403 89.2 20.032 89.1665 20.2906L89.0836 20.9092C89.0413 21.2324 89.1701 21.4037 89.4734 21.4037H91.7347C92.1157 21.4037 92.301 21.2517 92.3945 20.668L93.7879 12.0046C93.8585 11.5695 93.7509 11.3564 93.4175 11.3564H90.934C90.7099 11.3564 90.6006 11.4804 90.5424 11.8194L90.4506 12.3524C90.403 12.6302 90.2743 12.6791 90.1543 12.3995C89.7327 11.4105 88.6568 10.9667 87.1557 11.0016C83.6685 11.0733 81.3172 13.6961 81.065 17.058C80.871 19.6581 82.7513 21.7007 85.2313 21.7007C87.0305 21.7007 87.8348 21.1765 88.7414 20.3553L88.7309 20.35ZM86.8382 19.0168C85.3371 19.0168 84.2912 17.8303 84.5081 16.3765C84.7251 14.9227 86.1291 13.7363 87.6302 13.7363C89.1313 13.7363 90.1772 14.9227 89.9603 16.3765C89.7433 17.8303 88.3393 19.0168 86.8382 19.0168ZM97.2681 21.4177H94.6575C94.6121 21.4197 94.5668 21.4117 94.5249 21.3944C94.4829 21.3771 94.4453 21.3508 94.4148 21.3174C94.3843 21.284 94.3617 21.2443 94.3484 21.2013C94.3352 21.1582 94.3317 21.1127 94.3382 21.0682L96.6313 6.67693C96.6532 6.57871 96.708 6.49072 96.7868 6.42727C96.8656 6.36382 96.9637 6.32864 97.0652 6.32746H99.6758C99.7212 6.32544 99.7665 6.33339 99.8084 6.35073C99.8504 6.36806 99.8879 6.39436 99.9184 6.42775C99.9489 6.46113 99.9716 6.50078 99.9849 6.54385C99.9981 6.58693 100.002 6.63237 99.995 6.67693L97.702 21.0682C97.6808 21.1671 97.6263 21.2558 97.5474 21.32C97.4686 21.3841 97.3701 21.4198 97.2681 21.4212V21.4177Z" fill="#009EE3"/>
<path fill-rule="evenodd" clip-rule="evenodd" d="M4.45175 0.938477H11.2921C13.2183 0.938477 15.5043 0.999634 17.0318 2.33636C18.0531 3.22927 18.5893 4.64987 18.4658 6.18056C18.046 11.3545 14.9222 14.2534 10.7312 14.2534H7.35863C6.78361 14.2534 6.40437 14.6308 6.24209 15.6512L5.30018 21.5923C5.23844 21.9767 5.07087 22.2039 4.77101 22.2318H0.550036C0.0826062 22.2318 -0.0832006 21.8823 0.0385075 21.11L3.07239 2.06727C3.1941 1.30193 3.6192 0.938477 4.45175 0.938477Z" fill="#113984"/>
<path fill-rule="evenodd" clip-rule="evenodd" d="M6.34375 15.0484L7.5379 7.55747C7.64197 6.90047 8.00533 6.58594 8.72852 6.58594H15.5618C16.6925 6.58594 17.6079 6.76067 18.3241 7.08394C17.6379 11.69 14.6305 14.2481 10.6935 14.2481H7.32624C6.87468 14.2499 6.54307 14.4735 6.34375 15.0484Z" fill="#172C70"/>
</g>
<defs>
<clipPath id="clip0">
<rect width="100" height="24" fill="white" transform="translate(0 0.938477)"/>
</clipPath>
</defs>
</svg>
