<svg width="24" height="24" viewBox="0 0 24 24" fill="none" xmlns="http://www.w3.org/2000/svg">
<path fill-rule="evenodd" clip-rule="evenodd" d="M15.71 12.7101C17.7196 11.129 18.5064 8.44794 17.6698 6.03159C16.8332 3.61524 14.5571 1.99463 12 1.99463C9.44291 1.99463 7.16681 3.61524 6.3302 6.03159C5.4936 8.44794 6.28034 11.129 8.28999 12.7101C4.86709 14.0815 2.47661 17.2252 2.06999 20.8901C2.00924 21.4424 2.40771 21.9394 2.95999 22.0001C3.51228 22.0609 4.00924 21.6624 4.06999 21.1101C4.52462 17.0629 7.94728 14.0032 12.02 14.0032C16.0927 14.0032 19.5154 17.0629 19.97 21.1101C20.0263 21.6191 20.458 22.0032 20.97 22.0001H21.08C21.6256 21.9373 22.0185 21.4462 21.96 20.9001C21.5514 17.2244 19.1475 14.0744 15.71 12.7101ZM12 12C9.79087 12 8.00001 10.2091 8.00001 7.99996C8.00001 5.79082 9.79087 3.99996 12 3.99996C14.2091 3.99996 16 5.79082 16 7.99996C16 9.06082 15.5786 10.0782 14.8284 10.8284C14.0783 11.5785 13.0609 12 12 12Z" fill="black"/>
</svg>
