<svg width="43" height="43" viewBox="0 0 42 42" fill="none" xmlns="http://www.w3.org/2000/svg">
<path d="M37.209 7.45201C35.8322 5.82234 34.209 4.40303 32.3879 3.24934C29.0328 1.12363 25.1509 0 21.1622 0C15.5529 0 10.2793 2.18438 6.31287 6.15075C2.34649 10.1171 0.162109 15.3907 0.162109 21C0.162109 26.6092 2.34649 31.883 6.31287 35.8493C10.2793 39.8155 15.5529 41.9999 21.1622 41.9999C25.472 41.9999 29.6141 40.7034 33.1407 38.2506C36.584 35.8555 39.208 32.5316 40.7289 28.6385L35.9541 26.7732C33.5573 32.909 27.7509 36.8737 21.162 36.8737C12.4091 36.8737 5.28805 29.7528 5.28805 20.9998C5.28805 12.2468 12.4092 5.12593 21.1621 5.12593C25.5926 5.12593 29.6894 6.92599 32.6318 10.0115L27.0525 13.1318L34.3293 17.4668L41.6061 21.8021L41.7219 13.3327L41.838 4.86333L37.209 7.45201Z" fill="white"/>
</svg>
