<svg width="21" height="21" viewBox="0 0 21 21" fill="none" xmlns="http://www.w3.org/2000/svg">
<path fill-rule="evenodd" clip-rule="evenodd" d="M20.7099 19.2904L16.9999 15.6104C19.9901 11.8821 19.5447 6.46668 15.9854 3.27705C12.4262 0.0874227 6.99456 0.236051 3.61506 3.61555C0.235563 6.99505 0.0869346 12.4267 3.27656 15.9859C6.46619 19.5452 11.8816 19.9906 15.6099 17.0004L19.2899 20.6804C19.4777 20.8697 19.7333 20.9762 19.9999 20.9762C20.2666 20.9762 20.5222 20.8697 20.7099 20.6804C21.0846 20.2928 21.0846 19.678 20.7099 19.2904ZM10 17.0005C6.13401 17.0005 3 13.8665 3 10.0005C3 6.13446 6.13401 3.00046 10 3.00046C13.866 3.00046 17 6.13446 17 10.0005C17 11.857 16.2625 13.6375 14.9498 14.9502C13.637 16.263 11.8565 17.0005 10 17.0005Z" fill="#1A202C"/>
</svg>
