<svg width="17" height="17" viewBox="0 0 17 17" fill="none" xmlns="http://www.w3.org/2000/svg">
<path fill-rule="evenodd" clip-rule="evenodd" d="M16.2 15.0924L13.2413 12.0593C15.626 8.98623 15.2708 4.52271 12.4323 1.89372C9.59385 -0.735271 5.26218 -0.612767 2.56707 2.17272C-0.128042 4.95821 -0.246572 9.43512 2.29712 12.3688C4.84082 15.3024 9.15952 15.6696 12.1328 13.2049L15.0676 16.2381C15.2173 16.3941 15.4212 16.4819 15.6338 16.4819C15.8465 16.4819 16.0503 16.3941 16.2 16.2381C16.4988 15.9186 16.4988 15.4119 16.2 15.0924ZM7.65909 13.2049C4.576 13.2049 2.07666 10.6217 2.07666 7.43525C2.07666 4.24878 4.576 1.66563 7.65909 1.66563C10.7422 1.66563 13.2415 4.24878 13.2415 7.43525C13.2415 8.96545 12.6534 10.433 11.6065 11.515C10.5596 12.597 9.13964 13.2049 7.65909 13.2049Z" fill="#9D9D9D"/>
</svg>
