<svg width="26" height="25" viewBox="0 0 26 25" fill="none" xmlns="http://www.w3.org/2000/svg">
<path d="M14.3486 17.6763C14.477 17.6763 14.6002 17.654 14.7148 17.6133V21.7041C14.7148 21.9063 14.8788 22.0703 15.0811 22.0703C15.2833 22.0703 15.4473 21.9063 15.4473 21.7041V10.6201C15.4473 10.4179 15.2833 10.2539 15.0811 10.2539C14.8788 10.2539 14.7148 10.4179 14.7148 10.6201V16.5777C14.7148 16.7796 14.5505 16.9439 14.3486 16.9439C14.1467 16.9439 13.9824 16.7796 13.9824 16.5777V10.6201C13.9824 10.0143 14.4752 9.52148 15.0811 9.52148H20.2406C20.8464 9.52148 21.3392 10.0143 21.3392 10.6201V16.5777C21.3392 16.7796 21.1749 16.9439 20.973 16.9439C20.7711 16.9439 20.6068 16.7796 20.6068 16.5777C20.6067 16.5768 20.6067 10.6201 20.6067 10.6201C20.6067 10.4179 20.4428 10.2539 20.2405 10.2539C20.0383 10.2539 19.8743 10.4179 19.8743 10.6201V21.7041C19.8743 21.9063 20.0383 22.0703 20.2405 22.0703C20.4428 22.0703 20.6067 21.9063 20.6067 21.7041V17.6133C20.7214 17.654 20.8446 17.6763 20.973 17.6763C21.5788 17.6763 22.0716 17.1834 22.0716 16.5776V10.6201C22.0716 9.61045 21.2502 8.78906 20.2406 8.78906H15.0811C14.0714 8.78906 13.25 9.61045 13.25 10.6201V16.5777C13.25 17.1834 13.7428 17.6763 14.3486 17.6763Z" fill="#816E4E"/>
<path d="M18.3936 16.2109H16.9287C16.7265 16.2109 16.5625 16.3749 16.5625 16.5771V21.7036C16.5625 21.9058 16.7265 22.0698 16.9287 22.0698C17.131 22.0698 17.2949 21.9058 17.2949 21.7036V16.9434H18.0273V21.7036C18.0273 21.9058 18.1913 22.0698 18.3936 22.0698C18.5958 22.0698 18.7598 21.9058 18.7598 21.7036V16.5771C18.7598 16.3749 18.5958 16.2109 18.3936 16.2109Z" fill="#816E4E"/>
<path d="M17.6768 8.05664C19.0903 8.05664 20.2402 6.90669 20.2402 5.49316C20.2402 4.07964 19.0902 2.92969 17.6768 2.92969C16.2633 2.92969 15.1133 4.07964 15.1133 5.49316C15.1133 6.90669 16.2632 8.05664 17.6768 8.05664ZM17.6768 3.66211C18.6864 3.66211 19.5078 4.4835 19.5078 5.49316C19.5078 6.50283 18.6864 7.32422 17.6768 7.32422C16.6671 7.32422 15.8457 6.50283 15.8457 5.49316C15.8457 4.4835 16.6671 3.66211 17.6768 3.66211Z" fill="#816E4E"/>
<path d="M24.6351 0H10.6865C10.4843 0 10.3203 0.163965 10.3203 0.366211V24.6338C10.3203 24.836 10.4843 25 10.6865 25H24.6351C24.8373 25 25.0013 24.836 25.0013 24.6338V0.366211C25.0013 0.163965 24.8373 0 24.6351 0ZM23.0186 1.46484H12.3031L11.5707 0.732421H23.751L23.0186 1.46484ZM11.7852 1.98271V11.7676C11.7852 11.9698 11.9491 12.1338 12.1514 12.1338C12.3536 12.1338 12.5176 11.9698 12.5176 11.7676V2.19726H22.804V22.8027H12.5176V13.2324C12.5176 13.0302 12.3536 12.8662 12.1514 12.8662C11.9491 12.8662 11.7852 13.0302 11.7852 13.2324V23.0173L11.0527 23.7497V1.25034L11.7852 1.98271ZM12.3031 23.5351H23.0186L23.751 24.2676H11.5707L12.3031 23.5351ZM23.5365 23.0173V1.98271L24.2689 1.25029V23.7496L23.5365 23.0173Z" fill="#816E4E"/>
<path d="M6.99057 8.78906H1.83105C0.821386 8.78906 0 9.61045 0 10.6201V16.5777C0 17.1835 0.492822 17.6763 1.09863 17.6763C1.227 17.6763 1.35024 17.6539 1.46484 17.6133V23.7101C1.46484 24.4213 2.0435 25 2.75473 25C3.46596 25 4.04463 24.4213 4.04463 23.7101V16.9439H4.77705V23.7101C4.77705 24.4214 5.35571 25 6.06694 25C6.77817 25 7.35683 24.4214 7.35683 23.7101V17.6133C7.47148 17.6539 7.59467 17.6763 7.72304 17.6763C8.32885 17.6763 8.82167 17.1834 8.82167 16.5776V10.6201C8.82163 9.61045 8.00019 8.78906 6.99057 8.78906ZM8.0892 16.5777C8.0892 16.7796 7.92495 16.9439 7.72299 16.9439C7.52109 16.9439 7.35678 16.7796 7.35678 16.5777C7.35678 16.5772 7.35678 10.6201 7.35678 10.6201C7.35678 10.4179 7.19282 10.2539 6.99057 10.2539C6.78833 10.2539 6.62436 10.4179 6.62436 10.6201V23.7101C6.62436 24.0175 6.37426 24.2676 6.06689 24.2676C5.75952 24.2676 5.50942 24.0175 5.50942 23.7101V16.5777C5.50942 16.3754 5.34546 16.2115 5.14321 16.2115H3.67837C3.47612 16.2115 3.31216 16.3754 3.31216 16.5777V23.7101C3.31216 24.0175 3.06206 24.2676 2.75469 24.2676C2.44731 24.2676 2.19726 24.0175 2.19726 23.7101V10.6201C2.19726 10.4179 2.0333 10.2539 1.83105 10.2539C1.62881 10.2539 1.46484 10.4179 1.46484 10.6201V16.5777C1.46484 16.7796 1.30059 16.9439 1.09863 16.9439C0.896679 16.9439 0.732421 16.7796 0.732421 16.5777V10.6201C0.732421 10.0143 1.22524 9.52148 1.83105 9.52148H6.99057C7.59638 9.52148 8.0892 10.0143 8.0892 10.6201V16.5777Z" fill="#816E4E"/>
<path d="M4.42676 8.05664C5.84028 8.05664 6.99023 6.90669 6.99023 5.49316C6.99023 4.07964 5.84028 2.92969 4.42676 2.92969C3.01323 2.92969 1.86328 4.07964 1.86328 5.49316C1.86328 6.90669 3.01323 8.05664 4.42676 8.05664ZM4.42676 3.66211C5.43642 3.66211 6.25781 4.4835 6.25781 5.49316C6.25781 6.50283 5.43642 7.32422 4.42676 7.32422C3.41709 7.32422 2.5957 6.50283 2.5957 5.49316C2.5957 4.4835 3.41709 3.66211 4.42676 3.66211Z" fill="#816E4E"/>
</svg>
