<svg width="24" height="24" viewBox="0 0 24 24" fill="none" xmlns="http://www.w3.org/2000/svg">
<g clip-path="url(#clip0)">
<path d="M20.4837 3.51295C15.7967 -1.17263 8.19865 -1.1715 3.51307 3.51553C-1.1725 8.20256 -1.17138 15.8005 3.51565 20.4861C8.20268 25.1717 15.8007 25.1706 20.4862 20.4835C22.7365 18.2325 24.0004 15.1798 23.9997 11.997C23.999 8.81461 22.7343 5.76286 20.4837 3.51295ZM18.1732 16.7154C18.1727 16.7159 18.1722 16.7165 18.1716 16.717V16.713L17.5636 17.317C16.7773 18.1132 15.6321 18.4409 14.5436 18.181C13.447 17.8875 12.4045 17.4202 11.4556 16.797C10.5741 16.2336 9.75715 15.575 9.01962 14.833C8.34101 14.1593 7.73135 13.4197 7.1996 12.625C6.61798 11.7699 6.15762 10.8384 5.8316 9.85697C5.45787 8.70403 5.76757 7.43892 6.63162 6.58898L7.34361 5.877C7.54156 5.67815 7.86321 5.67745 8.06201 5.8754C8.06253 5.87592 8.06309 5.87644 8.06361 5.877L10.3116 8.12498C10.5104 8.32294 10.5111 8.64459 10.3132 8.84339C10.3127 8.8439 10.3122 8.84442 10.3116 8.84498L8.99159 10.165C8.61284 10.5396 8.56521 11.1349 8.8796 11.565C9.35703 12.2202 9.88535 12.8368 10.4596 13.409C11.0999 14.052 11.7959 14.637 12.5396 15.157C12.9693 15.4567 13.5519 15.4062 13.9236 15.037L15.1996 13.741C15.3975 13.5422 15.7192 13.5415 15.918 13.7394C15.9185 13.74 15.919 13.7405 15.9196 13.741L18.1716 15.997C18.3705 16.1949 18.3712 16.5165 18.1732 16.7154Z" fill="#6A5B40"/>
</g>
<defs>
<clipPath id="clip0">
<rect width="24" height="24" fill="white"/>
</clipPath>
</defs>
</svg>
