<svg width="1176" height="3049" viewBox="0 0 1176 3049" fill="none" xmlns="http://www.w3.org/2000/svg">
<g filter="url(#filter0_d)">
<path d="M371.786 1089.57C382.6 1058.46 401.324 965.924 409.334 923.547C410.465 917.565 412.475 917.565 413.84 923.547C421.35 956.452 430.361 966.922 437.871 981.879C445.381 996.835 455.894 1067.13 451.388 1109.01C446.883 1150.89 449.886 1141.91 430.361 1191.27C307.203 1426.09 398.821 1711.76 409.334 1780.56C419.848 1849.36 416.844 1891.24 409.334 1954.06C401.825 2016.88 397.319 2111.1 398.821 2157.47C400.323 2203.83 457.396 2486.51 461.902 2517.92C466.408 2549.33 466.408 2583.73 461.902 2609.16C457.396 2634.58 448.385 2683.94 437.871 2710.86C427.357 2737.79 431.863 2760.22 440.875 2764.71C449.886 2769.19 481.427 2784.15 491.941 2790.13C502.454 2796.12 527.987 2800.6 535.497 2778.17C543.006 2755.73 546.01 2715.35 538.501 2674.97C530.991 2634.58 543.006 2601.68 546.01 2576.25C549.014 2550.83 541.505 2550.83 532.493 2528.39C523.481 2505.96 523.481 2465.57 523.481 2429.68C523.481 2393.78 529.489 2330.97 532.493 2304.04C535.497 2277.12 550.516 2155.97 541.505 2099.14C532.493 2042.3 524.983 2019.87 541.505 1939.1C558.026 1858.34 568.539 1762.61 571.543 1744.67C574.547 1726.72 579.053 1687.83 580.555 1672.87C582.057 1657.92 585.061 1645.95 585.061 1632.49C585.061 1621.72 588.065 1616.04 589.566 1614.54V246.013C504.257 244.817 488.937 326.28 491.941 367.161C485.933 364.17 475.419 371.649 475.419 397.075C475.419 449.423 494.945 453.91 496.446 462.884C503.956 531.684 524.983 530.188 529.489 539.162C533.995 548.136 535.497 566.084 532.493 594.502C529.489 622.92 494.945 642.363 430.361 658.815C317.716 681.25 313.21 754.538 314.712 791.929C316.214 829.321 305.701 1001.32 296.689 1043.2C287.677 1085.08 275.662 1156.87 274.16 1177.81C272.658 1198.75 272.658 1343.83 272.658 1370.75C272.658 1397.67 266.651 1463.48 263.647 1478.44C260.643 1493.39 248.627 1523.31 250.129 1572.66C251.631 1622.02 256.137 1642.96 272.658 1657.92C289.18 1672.87 289.18 1657.92 289.18 1656.42C289.18 1654.93 292.184 1647.45 296.689 1653.43C301.195 1659.41 329.732 1666.89 340.245 1657.92C350.759 1648.94 343.249 1642.96 341.747 1641.47C340.245 1639.97 340.245 1638.47 341.747 1636.98C343.249 1635.48 352.261 1632.49 332.736 1607.06C313.211 1581.64 316.214 1560.7 317.716 1536.77C319.218 1512.84 316.215 1497.88 313.211 1484.42C310.207 1470.96 311.709 1457.5 313.211 1450.02C314.713 1442.54 317.717 1426.09 329.733 1391.69C359.771 1306.44 364.276 1197.25 365.778 1174.82C367.28 1152.38 358.269 1128.45 371.786 1089.57Z" fill="white"/>
<path d="M804.214 1089.57C793.4 1058.46 774.676 965.924 766.666 923.547C765.535 917.565 763.525 917.565 762.16 923.547C754.65 956.452 745.639 966.922 738.129 981.879C730.619 996.835 720.106 1067.13 724.612 1109.01C729.117 1150.89 726.114 1141.91 745.639 1191.27C868.797 1426.09 777.179 1711.76 766.666 1780.56C756.152 1849.36 759.156 1891.24 766.666 1954.06C774.175 2016.88 778.681 2111.1 777.179 2157.47C775.677 2203.83 718.604 2486.51 714.098 2517.92C709.592 2549.33 709.592 2583.73 714.098 2609.16C718.604 2634.58 727.615 2683.94 738.129 2710.86C748.643 2737.79 744.137 2760.22 735.125 2764.71C726.114 2769.19 694.573 2784.15 684.059 2790.13C673.546 2796.12 648.013 2800.6 640.503 2778.17C632.994 2755.73 629.99 2715.35 637.499 2674.97C645.009 2634.58 632.994 2601.68 629.99 2576.25C626.986 2550.83 634.495 2550.83 643.507 2528.39C652.519 2505.96 652.519 2465.57 652.519 2429.68C652.519 2393.78 646.511 2330.97 643.507 2304.04C640.503 2277.12 625.484 2155.97 634.495 2099.14C643.507 2042.3 651.017 2019.87 634.495 1939.1C617.974 1858.34 607.461 1762.61 604.457 1744.67C601.453 1726.72 596.947 1687.83 595.445 1672.87C593.943 1657.92 590.939 1645.95 590.939 1632.49C590.939 1621.72 587.935 1616.04 586.434 1614.54V246.013C671.743 244.817 687.063 326.28 684.059 367.161C690.067 364.17 700.581 371.649 700.581 397.075C700.581 449.423 681.055 453.91 679.554 462.884C672.044 531.684 651.017 530.188 646.511 539.162C642.005 548.136 640.503 566.084 643.507 594.502C646.511 622.92 681.055 642.363 745.639 658.815C858.284 681.25 862.79 754.538 861.288 791.929C859.786 829.321 870.299 1001.32 879.311 1043.2C888.323 1085.08 900.338 1156.87 901.84 1177.81C903.342 1198.75 903.342 1343.83 903.342 1370.75C903.342 1397.67 909.349 1463.48 912.353 1478.44C915.357 1493.39 927.373 1523.31 925.871 1572.66C924.369 1622.02 919.863 1642.96 903.342 1657.92C886.82 1672.87 886.82 1657.92 886.82 1656.42C886.82 1654.93 883.816 1647.45 879.311 1653.43C874.805 1659.41 846.268 1666.89 835.755 1657.92C825.241 1648.94 832.751 1642.96 834.253 1641.47C835.755 1639.97 835.755 1638.47 834.253 1636.98C832.751 1635.48 823.739 1632.49 843.264 1607.06C862.789 1581.64 859.786 1560.7 858.284 1536.77C856.782 1512.84 859.785 1497.88 862.789 1484.42C865.793 1470.96 864.291 1457.5 862.789 1450.02C861.287 1442.54 858.283 1426.09 846.267 1391.69C816.229 1306.44 811.724 1197.25 810.222 1174.82C808.72 1152.38 817.731 1128.45 804.214 1089.57Z" fill="white"/>
</g>
<path d="M532 598C534.8 589.6 534.5 567.833 534 558H590.5V618H522C526 615.5 528.5 608.5 532 598Z" fill="#F9D2D4"/>
<path d="M644.5 598C641.7 589.6 642 567.833 642.5 558H586V618H654.5C650.5 615.5 648 608.5 644.5 598Z" fill="#F9D2D4"/>
<path d="M532 598C534.8 589.6 534.5 567.833 534 558H590.5V618H522C526 615.5 528.5 608.5 532 598Z" stroke="#F9D2D4"/>
<path d="M644.5 598C641.7 589.6 642 567.833 642.5 558H586V618H654.5C650.5 615.5 648 608.5 644.5 598Z" stroke="#F9D2D4"/>
<mask maskUnits="userSpaceOnUse" x="0" y="0" width="0" height="0" fill="black">
<rect fill="white" width="0" height="0"/>
</mask>
<path d="M564 631.5L569 634.387V628.613L564 631.5ZM612 631.5L607 628.613V634.387L612 631.5ZM568.5 632H607.5V631H568.5V632Z" fill="#DA1E28" mask="url(#)"/>
<defs>
<filter id="filter0_d" x="0" y="0" width="1176" height="3049" filterUnits="userSpaceOnUse" color-interpolation-filters="sRGB">
<feFlood flood-opacity="0" result="BackgroundImageFix"/>
<feColorMatrix in="SourceAlpha" type="matrix" values="0 0 0 0 0 0 0 0 0 0 0 0 0 0 0 0 0 0 127 0" result="hardAlpha"/>
<feOffset dy="4"/>
<feGaussianBlur stdDeviation="125"/>
<feComposite in2="hardAlpha" operator="out"/>
<feColorMatrix type="matrix" values="0 0 0 0 0 0 0 0 0 0 0 0 0 0 0 0 0 0 0.14 0"/>
<feBlend mode="normal" in2="BackgroundImageFix" result="effect1_dropShadow"/>
<feBlend mode="normal" in="SourceGraphic" in2="effect1_dropShadow" result="shape"/>
</filter>
</defs>
</svg>
