<svg width="1014" height="2439" viewBox="0 0 1014 2439" fill="none" xmlns="http://www.w3.org/2000/svg">
<g filter="url(#filter0_d)">
<path d="M342.601 887.693C350.823 864.028 365.06 793.64 371.151 761.404C372.011 756.853 373.538 756.853 374.577 761.404C380.287 786.434 387.139 794.399 392.849 805.776C398.559 817.153 406.553 870.627 403.127 902.483C399.701 934.34 401.985 927.514 387.139 965.059C293.494 1143.68 363.157 1360.99 371.151 1413.33C379.145 1465.66 376.861 1497.52 371.151 1545.3C365.441 1593.09 362.015 1664.77 363.157 1700.04C364.299 1735.31 407.695 1950.34 411.121 1974.23C414.547 1998.12 414.547 2024.29 411.121 2043.63C407.695 2062.97 400.843 2100.52 392.849 2121C384.855 2141.48 388.281 2158.54 395.133 2161.96C401.985 2165.37 425.967 2176.75 433.961 2181.3C441.955 2185.85 461.369 2189.26 467.079 2172.2C472.789 2155.13 475.073 2124.41 469.363 2093.69C463.653 2062.97 472.789 2037.94 475.073 2018.6C477.357 1999.26 471.647 1999.26 464.795 1982.19C457.943 1965.13 457.943 1934.41 457.943 1907.1C457.943 1879.8 462.511 1832.01 464.795 1811.53C467.079 1791.05 478.499 1698.9 471.647 1655.66C464.795 1612.43 459.085 1595.36 471.647 1533.93C484.209 1472.49 492.203 1399.67 494.487 1386.02C496.771 1372.37 500.197 1342.79 501.339 1331.41C502.481 1320.03 504.765 1310.93 504.765 1300.69C504.765 1292.5 507.049 1288.18 508.191 1287.04V246.01C443.325 245.1 431.677 307.068 433.961 338.166C429.393 335.891 421.399 341.58 421.399 360.921C421.399 400.742 436.245 404.155 437.387 410.981C443.097 463.317 459.085 462.179 462.511 469.006C465.937 475.832 467.079 489.485 464.795 511.102C462.511 532.719 436.245 547.51 387.139 560.025C301.488 577.091 298.062 632.84 299.204 661.283C300.346 689.727 292.352 820.566 285.5 852.423C278.648 884.279 269.512 938.891 268.37 954.819C267.228 970.747 267.228 1081.11 267.228 1101.59C267.228 1122.07 262.66 1172.13 260.376 1183.5C258.092 1194.88 248.956 1217.64 250.098 1255.18C251.24 1292.73 254.666 1308.65 267.228 1320.03C279.79 1331.41 279.79 1320.03 279.79 1318.89C279.79 1317.76 282.074 1312.07 285.5 1316.62C288.926 1321.17 310.625 1326.86 318.619 1320.03C326.613 1313.21 320.903 1308.65 319.761 1307.52C318.619 1306.38 318.619 1305.24 319.761 1304.1C320.903 1302.97 327.755 1300.69 312.909 1281.35C298.063 1262.01 300.347 1246.08 301.489 1227.88C302.631 1209.67 300.347 1198.29 298.063 1188.05C295.779 1177.82 296.921 1167.58 298.063 1161.89C299.205 1156.2 301.489 1143.68 310.625 1117.52C333.465 1052.66 336.891 969.61 338.033 952.544C339.175 935.478 332.323 917.274 342.601 887.693Z" fill="white"/>
<path d="M671.399 887.693C663.177 864.028 648.94 793.64 642.849 761.404C641.989 756.853 640.462 756.853 639.423 761.404C633.713 786.434 626.861 794.399 621.151 805.776C615.441 817.153 607.447 870.627 610.873 902.483C614.299 934.34 612.015 927.514 626.861 965.059C720.506 1143.68 650.843 1360.99 642.849 1413.33C634.855 1465.66 637.139 1497.52 642.849 1545.3C648.559 1593.09 651.985 1664.77 650.843 1700.04C649.701 1735.31 606.305 1950.34 602.879 1974.23C599.453 1998.12 599.453 2024.29 602.879 2043.63C606.305 2062.97 613.157 2100.52 621.151 2121C629.145 2141.48 625.719 2158.54 618.867 2161.96C612.015 2165.37 588.033 2176.75 580.039 2181.3C572.045 2185.85 552.631 2189.26 546.921 2172.2C541.211 2155.13 538.927 2124.41 544.637 2093.69C550.347 2062.97 541.211 2037.94 538.927 2018.6C536.643 1999.26 542.353 1999.26 549.205 1982.19C556.057 1965.13 556.057 1934.41 556.057 1907.1C556.057 1879.8 551.489 1832.01 549.205 1811.53C546.921 1791.05 535.501 1698.9 542.353 1655.66C549.205 1612.43 554.915 1595.36 542.353 1533.93C529.791 1472.49 521.797 1399.67 519.513 1386.02C517.229 1372.37 513.803 1342.79 512.661 1331.41C511.519 1320.03 509.235 1310.93 509.235 1300.69C509.235 1292.5 506.951 1288.18 505.809 1287.04V246.01C570.675 245.1 582.323 307.068 580.039 338.166C584.607 335.891 592.601 341.58 592.601 360.921C592.601 400.742 577.755 404.155 576.613 410.981C570.903 463.317 554.915 462.179 551.489 469.006C548.063 475.832 546.921 489.485 549.205 511.102C551.489 532.719 577.755 547.51 626.861 560.025C712.512 577.091 715.938 632.84 714.796 661.283C713.654 689.727 721.648 820.566 728.5 852.423C735.352 884.279 744.488 938.891 745.63 954.819C746.772 970.747 746.772 1081.11 746.772 1101.59C746.772 1122.07 751.34 1172.13 753.624 1183.5C755.908 1194.88 765.044 1217.64 763.902 1255.18C762.76 1292.73 759.334 1308.65 746.772 1320.03C734.21 1331.41 734.21 1320.03 734.21 1318.89C734.21 1317.76 731.926 1312.07 728.5 1316.62C725.074 1321.17 703.375 1326.86 695.381 1320.03C687.387 1313.21 693.097 1308.65 694.239 1307.52C695.381 1306.38 695.381 1305.24 694.239 1304.1C693.097 1302.97 686.245 1300.69 701.091 1281.35C715.938 1262.01 713.654 1246.08 712.511 1227.88C711.369 1209.67 713.653 1198.29 715.937 1188.05C718.221 1177.82 717.079 1167.58 715.937 1161.89C714.795 1156.2 712.511 1143.68 703.375 1117.52C680.535 1052.66 677.109 969.61 675.967 952.544C674.825 935.478 681.677 917.274 671.399 887.693Z" fill="white"/>
</g>
<mask maskUnits="userSpaceOnUse" x="0" y="0" width="0" height="0" fill="black">
<rect fill="white" width="0" height="0"/>
</mask>
<path d="M716 1144.5L721 1147.39V1141.61L716 1144.5ZM746 1144.5L741 1141.61V1147.39L746 1144.5ZM720.5 1145H741.5V1144H720.5V1145Z" fill="#DA1E28" mask="url(#)"/>
<path d="M714 1151.5C716 1157.9 716.833 1172.5 717 1179L753 1180C753 1179.67 752.9 1178.3 752.5 1175.5C752.1 1172.7 750.333 1158.33 749.5 1151.5H714Z" fill="#F9D2D4"/>
<defs>
<filter id="filter0_d" x="0" y="0" width="1014" height="2439" filterUnits="userSpaceOnUse" color-interpolation-filters="sRGB">
<feFlood flood-opacity="0" result="BackgroundImageFix"/>
<feColorMatrix in="SourceAlpha" type="matrix" values="0 0 0 0 0 0 0 0 0 0 0 0 0 0 0 0 0 0 127 0" result="hardAlpha"/>
<feOffset dy="4"/>
<feGaussianBlur stdDeviation="125"/>
<feComposite in2="hardAlpha" operator="out"/>
<feColorMatrix type="matrix" values="0 0 0 0 0 0 0 0 0 0 0 0 0 0 0 0 0 0 0.14 0"/>
<feBlend mode="normal" in2="BackgroundImageFix" result="effect1_dropShadow"/>
<feBlend mode="normal" in="SourceGraphic" in2="effect1_dropShadow" result="shape"/>
</filter>
</defs>
</svg>
