<svg width="18" height="18" viewBox="0 0 18 18" fill="none" xmlns="http://www.w3.org/2000/svg">
<path fill-rule="evenodd" clip-rule="evenodd" d="M7.33366 9.83487H1.50033C1.04009 9.83487 0.666992 10.208 0.666992 10.6682V16.5015C0.666992 16.9618 1.04009 17.3349 1.50033 17.3349H7.33366C7.7939 17.3349 8.16699 16.9618 8.16699 16.5015V10.6682C8.16699 10.208 7.7939 9.83487 7.33366 9.83487ZM6.50032 15.6677H2.33365V11.5011H6.50032V15.6677ZM16.5003 0.667969H10.667C10.2068 0.667969 9.83366 1.04106 9.83366 1.5013V7.33464C9.83366 7.79487 10.2068 8.16797 10.667 8.16797H16.5003C16.9606 8.16797 17.3337 7.79487 17.3337 7.33464V1.5013C17.3337 1.04106 16.9606 0.667969 16.5003 0.667969ZM15.667 6.50153H11.5003V2.33486H15.667V6.50153ZM16.5003 9.83487H10.667C10.2068 9.83487 9.83366 10.208 9.83366 10.6682V16.5015C9.83366 16.9618 10.2068 17.3349 10.667 17.3349H16.5003C16.9606 17.3349 17.3337 16.9618 17.3337 16.5015V10.6682C17.3337 10.208 16.9606 9.83487 16.5003 9.83487ZM15.667 15.6677H11.5003V11.5011H15.667V15.6677ZM7.33366 0.667969H1.50033C1.04009 0.667969 0.666992 1.04106 0.666992 1.5013V7.33464C0.666992 7.79487 1.04009 8.16797 1.50033 8.16797H7.33366C7.7939 8.16797 8.16699 7.79487 8.16699 7.33464V1.5013C8.16699 1.04106 7.7939 0.667969 7.33366 0.667969ZM6.50032 6.50153H2.33365V2.33486H6.50032V6.50153Z" fill="#9D9D9D"/>
</svg>
