<svg width="15" height="17" viewBox="0 0 15 17" fill="none" xmlns="http://www.w3.org/2000/svg">
<path fill-rule="evenodd" clip-rule="evenodd" d="M14.1667 5.01994V5.01994L9.16675 0.63661C8.21774 -0.212203 6.78241 -0.212203 5.83341 0.63661L0.833412 5.01994C0.297949 5.49884 -0.00563126 6.18493 7.91337e-05 6.90328V14.1866C7.91337e-05 15.5673 1.11937 16.6866 2.50008 16.6866H12.5001C13.8808 16.6866 15.0001 15.5673 15.0001 14.1866V6.89494C15.0034 6.17949 14.7 5.49691 14.1667 5.01994ZM9.16678 15.0199H5.83345V10.8533C5.83345 10.393 6.20654 10.0199 6.66678 10.0199H8.33345C8.79368 10.0199 9.16678 10.393 9.16678 10.8533V15.0199ZM13.3334 14.1866C13.3334 14.6468 12.9603 15.0199 12.5001 15.0199H10.8334V10.8533C10.8334 9.47256 9.71413 8.35327 8.33342 8.35327H6.66675C5.28604 8.35327 4.16675 9.47256 4.16675 10.8533V15.0199H2.50008C2.03984 15.0199 1.66675 14.6468 1.66675 14.1866V6.89494C1.66705 6.65558 1.77026 6.42791 1.95008 6.26994L6.95008 1.89494C7.26467 1.61856 7.73549 1.61856 8.05008 1.89494L13.0501 6.26994C13.2299 6.42791 13.3331 6.65558 13.3334 6.89494V14.1866Z" fill="#9D9D9D"/>
</svg>
