<svg width="18" height="18" viewBox="0 0 18 18" fill="none" xmlns="http://www.w3.org/2000/svg">
<path fill-rule="evenodd" clip-rule="evenodd" d="M12.0915 9.58974C13.7662 8.27213 14.4218 6.03792 13.7246 4.02429C13.0275 2.01067 11.1307 0.660156 8.99983 0.660156C6.86893 0.660156 4.97217 2.01067 4.275 4.02429C3.57783 6.03792 4.23345 8.27213 5.90816 9.58974C3.05574 10.7325 1.06367 13.3523 0.724826 16.4064C0.6742 16.8666 1.00626 17.2808 1.46649 17.3314C1.92673 17.382 2.34087 17.05 2.39149 16.5897C2.77035 13.217 5.62256 10.6673 9.01649 10.6673C12.4104 10.6673 15.2626 13.217 15.6415 16.5897C15.6884 17.0138 16.0481 17.334 16.4748 17.3314H16.5665C17.0212 17.2791 17.3486 16.8698 17.2998 16.4147C16.9593 13.3517 14.9561 10.7266 12.0915 9.58974V9.58974ZM8.99984 8.99793C7.15889 8.99793 5.66651 7.50555 5.66651 5.6646C5.66651 3.82365 7.15889 2.33126 8.99984 2.33126C10.8408 2.33126 12.3332 3.82365 12.3332 5.6646C12.3332 6.54865 11.982 7.3965 11.3569 8.02162C10.7317 8.64674 9.88389 8.99793 8.99984 8.99793Z" fill="#9D9D9D"/>
</svg>
