<svg width="676" height="2549" viewBox="0 0 676 2549" fill="none" xmlns="http://www.w3.org/2000/svg">
<g filter="url(#filter0_i)">
<path d="M121.786 843.57C132.6 812.46 151.324 719.924 159.334 677.547C160.465 671.565 162.475 671.565 163.84 677.547C171.35 710.452 180.361 720.922 187.871 735.879C195.381 750.835 205.894 821.13 201.388 863.01C196.883 904.89 199.886 895.91 180.361 945.27C57.2033 1180.09 148.821 1465.76 159.334 1534.56C169.848 1603.36 166.844 1645.24 159.334 1708.06C151.825 1770.88 147.319 1865.1 148.821 1911.47C150.323 1957.83 207.396 2240.51 211.902 2271.92C216.408 2303.33 216.408 2337.73 211.902 2363.16C207.396 2388.58 198.385 2437.94 187.871 2464.86C177.357 2491.79 181.863 2514.22 190.875 2518.71C199.886 2523.19 231.427 2538.15 241.941 2544.13C252.454 2550.12 277.987 2554.6 285.497 2532.17C293.006 2509.73 296.01 2469.35 288.501 2428.97C280.991 2388.58 293.006 2355.68 296.01 2330.25C299.014 2304.83 291.505 2304.83 282.493 2282.39C273.481 2259.96 273.481 2219.57 273.481 2183.68C273.481 2147.78 279.489 2084.97 282.493 2058.04C285.497 2031.12 300.516 1909.97 291.505 1853.14C282.493 1796.3 274.983 1773.87 291.505 1693.1C308.026 1612.34 318.539 1516.61 321.543 1498.67C324.547 1480.72 329.053 1441.83 330.555 1426.87C332.057 1411.92 335.061 1399.95 335.061 1386.49C335.061 1375.72 338.065 1370.04 339.566 1368.54V0.0130258C254.257 -1.18297 238.937 80.28 241.941 121.161C235.933 118.17 225.419 125.649 225.419 151.075C225.419 203.423 244.945 207.91 246.446 216.884C253.956 285.684 274.983 284.188 279.489 293.162C283.995 302.136 285.497 320.084 282.493 348.502C279.489 376.92 244.945 396.363 180.361 412.815C67.7163 435.25 63.2103 508.538 64.7123 545.929C66.2143 583.321 55.7013 755.32 46.6893 797.2C37.6773 839.08 25.6623 910.87 24.1603 931.81C22.6583 952.75 22.6583 1097.83 22.6583 1124.75C22.6583 1151.67 16.6513 1217.48 13.6473 1232.44C10.6433 1247.39 -1.37267 1277.31 0.129326 1326.66C1.63133 1376.02 6.13733 1396.96 22.6583 1411.92C39.1803 1426.87 39.1803 1411.92 39.1803 1410.42C39.1803 1408.93 42.1843 1401.45 46.6893 1407.43C51.1953 1413.41 79.7323 1420.89 90.2453 1411.92C100.759 1402.94 93.2493 1396.96 91.7473 1395.47C90.2453 1393.97 90.2453 1392.47 91.7473 1390.98C93.2493 1389.48 102.261 1386.49 82.7363 1361.06C63.2113 1335.64 66.2143 1314.7 67.7163 1290.77C69.2183 1266.84 66.2153 1251.88 63.2113 1238.42C60.2073 1224.96 61.7093 1211.5 63.2113 1204.02C64.7133 1196.54 67.7173 1180.09 79.7333 1145.69C109.771 1060.44 114.276 951.25 115.778 928.82C117.28 906.38 108.269 882.45 121.786 843.57Z" fill="white"/>
<path d="M554.214 843.57C543.4 812.46 524.676 719.924 516.666 677.547C515.535 671.565 513.525 671.565 512.16 677.547C504.65 710.452 495.639 720.922 488.129 735.879C480.619 750.835 470.106 821.13 474.612 863.01C479.117 904.89 476.114 895.91 495.639 945.27C618.797 1180.09 527.179 1465.76 516.666 1534.56C506.152 1603.36 509.156 1645.24 516.666 1708.06C524.175 1770.88 528.681 1865.1 527.179 1911.47C525.677 1957.83 468.604 2240.51 464.098 2271.92C459.592 2303.33 459.592 2337.73 464.098 2363.16C468.604 2388.58 477.615 2437.94 488.129 2464.86C498.643 2491.79 494.137 2514.22 485.125 2518.71C476.114 2523.19 444.573 2538.15 434.059 2544.13C423.546 2550.12 398.013 2554.6 390.503 2532.17C382.994 2509.73 379.99 2469.35 387.499 2428.97C395.009 2388.58 382.994 2355.68 379.99 2330.25C376.986 2304.83 384.495 2304.83 393.507 2282.39C402.519 2259.96 402.519 2219.57 402.519 2183.68C402.519 2147.78 396.511 2084.97 393.507 2058.04C390.503 2031.12 375.484 1909.97 384.495 1853.14C393.507 1796.3 401.017 1773.87 384.495 1693.1C367.974 1612.34 357.461 1516.61 354.457 1498.67C351.453 1480.72 346.947 1441.83 345.445 1426.87C343.943 1411.92 340.939 1399.95 340.939 1386.49C340.939 1375.72 337.935 1370.04 336.434 1368.54V0.0130258C421.743 -1.18297 437.063 80.28 434.059 121.161C440.067 118.17 450.581 125.649 450.581 151.075C450.581 203.423 431.055 207.91 429.554 216.884C422.044 285.684 401.017 284.188 396.511 293.162C392.005 302.136 390.503 320.084 393.507 348.502C396.511 376.92 431.055 396.363 495.639 412.815C608.284 435.25 612.79 508.538 611.288 545.929C609.786 583.321 620.299 755.32 629.311 797.2C638.323 839.08 650.338 910.87 651.84 931.81C653.342 952.75 653.342 1097.83 653.342 1124.75C653.342 1151.67 659.349 1217.48 662.353 1232.44C665.357 1247.39 677.373 1277.31 675.871 1326.66C674.369 1376.02 669.863 1396.96 653.342 1411.92C636.82 1426.87 636.82 1411.92 636.82 1410.42C636.82 1408.93 633.816 1401.45 629.311 1407.43C624.805 1413.41 596.268 1420.89 585.755 1411.92C575.241 1402.94 582.751 1396.96 584.253 1395.47C585.755 1393.97 585.755 1392.47 584.253 1390.98C582.751 1389.48 573.739 1386.49 593.264 1361.06C612.789 1335.64 609.786 1314.7 608.284 1290.77C606.782 1266.84 609.785 1251.88 612.789 1238.42C615.793 1224.96 614.291 1211.5 612.789 1204.02C611.287 1196.54 608.283 1180.09 596.267 1145.69C566.229 1060.44 561.724 951.25 560.222 928.82C558.72 906.38 567.731 882.45 554.214 843.57Z" fill="white"/>
</g>
<path d="M399 2267C401.4 2263.4 403 2239.83 403.5 2228.5L468.5 2236.5C466.9 2240.1 464.167 2263.33 463 2274.5L399 2267Z" fill="#F9D2D4" stroke="#F9D2D4"/>
<defs>
<filter id="filter0_i" x="0" y="0" width="676.001" height="2553" filterUnits="userSpaceOnUse" color-interpolation-filters="sRGB">
<feFlood flood-opacity="0" result="BackgroundImageFix"/>
<feBlend mode="normal" in="SourceGraphic" in2="BackgroundImageFix" result="shape"/>
<feColorMatrix in="SourceAlpha" type="matrix" values="0 0 0 0 0 0 0 0 0 0 0 0 0 0 0 0 0 0 127 0" result="hardAlpha"/>
<feOffset dy="4"/>
<feGaussianBlur stdDeviation="125"/>
<feComposite in2="hardAlpha" operator="arithmetic" k2="-1" k3="1"/>
<feColorMatrix type="matrix" values="0 0 0 0 0 0 0 0 0 0 0 0 0 0 0 0 0 0 0.14 0"/>
<feBlend mode="normal" in2="shape" result="effect1_innerShadow"/>
</filter>
</defs>
</svg>
