<svg width="849" height="1816" viewBox="0 0 849 1816" fill="none" xmlns="http://www.w3.org/2000/svg">
<g filter="url(#filter0_d)">
<path d="M312.875 681.517C318.458 665.456 328.124 617.683 332.26 595.805C332.844 592.716 333.881 592.716 334.586 595.805C338.463 612.793 343.116 618.198 346.993 625.92C350.87 633.642 356.297 669.934 353.971 691.556C351.645 713.177 353.196 708.544 343.116 734.026C279.532 855.258 326.832 1002.74 332.26 1038.27C337.688 1073.79 336.137 1095.41 332.26 1127.84C328.383 1160.27 326.057 1208.92 326.832 1232.85C327.607 1256.79 357.073 1402.73 359.399 1418.95C361.725 1435.17 361.725 1452.93 359.399 1466.05C357.073 1479.18 352.42 1504.66 346.993 1518.56C341.565 1532.46 343.891 1544.04 348.543 1546.36C353.196 1548.68 369.479 1556.4 374.907 1559.49C380.335 1562.58 393.517 1564.89 397.394 1553.31C401.271 1541.73 402.822 1520.88 398.945 1500.03C395.068 1479.18 401.271 1462.19 402.822 1449.07C404.373 1435.94 400.496 1435.94 395.843 1424.36C391.191 1412.77 391.191 1391.92 391.191 1373.39C391.191 1354.86 394.292 1322.43 395.843 1308.53C397.394 1294.63 405.148 1232.08 400.496 1202.74C395.843 1173.4 391.966 1161.81 400.496 1120.12C409.025 1078.42 414.453 1029 416.004 1019.73C417.555 1010.47 419.881 990.39 420.656 982.668C421.432 974.946 422.983 968.769 422.983 961.819C422.983 956.259 424.533 953.325 425.309 952.553V246.007C381.266 245.389 373.356 287.447 374.907 308.553C371.806 307.009 366.378 310.87 366.378 323.997C366.378 351.023 376.458 353.34 377.233 357.973C381.111 393.493 391.966 392.721 394.292 397.354C396.619 401.987 397.394 411.253 395.843 425.925C394.292 440.596 376.458 450.635 343.116 459.129C284.96 470.711 282.634 508.548 283.409 527.853C284.185 547.157 278.757 635.958 274.104 657.579C269.452 679.2 263.249 716.265 262.473 727.076C261.698 737.886 261.698 812.788 261.698 826.687C261.698 840.586 258.596 874.562 257.045 882.284C255.495 890.006 249.291 905.45 250.067 930.932C250.842 956.414 253.168 967.224 261.698 974.946C270.227 982.668 270.227 974.946 270.227 974.174C270.227 973.402 271.778 969.541 274.104 972.629C276.431 975.718 291.163 979.579 296.591 974.946C302.019 970.313 298.142 967.224 297.367 966.452C296.591 965.68 296.591 964.908 297.367 964.135C298.142 963.363 302.794 961.819 292.714 948.692C282.634 935.565 284.185 924.754 284.96 912.399C285.736 900.044 284.185 892.323 282.634 885.373C281.083 878.423 281.859 871.474 282.634 867.613C283.41 863.752 284.96 855.258 291.164 837.498C306.672 793.483 308.998 737.114 309.773 725.531C310.549 713.949 305.896 701.594 312.875 681.517Z" fill="white"/>
<path d="M536.125 681.517C530.542 665.456 520.876 617.683 516.74 595.805C516.156 592.716 515.119 592.716 514.414 595.805C510.537 612.793 505.884 618.198 502.007 625.92C498.13 633.642 492.703 669.934 495.029 691.556C497.355 713.177 495.804 708.544 505.884 734.026C569.468 855.258 522.168 1002.74 516.74 1038.27C511.312 1073.79 512.863 1095.41 516.74 1127.84C520.617 1160.27 522.943 1208.92 522.168 1232.85C521.393 1256.79 491.927 1402.73 489.601 1418.95C487.275 1435.17 487.275 1452.93 489.601 1466.05C491.927 1479.18 496.58 1504.66 502.007 1518.56C507.435 1532.46 505.109 1544.04 500.457 1546.36C495.804 1548.68 479.521 1556.4 474.093 1559.49C468.665 1562.58 455.483 1564.89 451.606 1553.31C447.729 1541.73 446.178 1520.88 450.055 1500.03C453.932 1479.18 447.729 1462.19 446.178 1449.07C444.627 1435.94 448.504 1435.94 453.157 1424.36C457.809 1412.77 457.809 1391.92 457.809 1373.39C457.809 1354.86 454.708 1322.43 453.157 1308.53C451.606 1294.63 443.852 1232.08 448.504 1202.74C453.157 1173.4 457.034 1161.81 448.504 1120.12C439.975 1078.42 434.547 1029 432.996 1019.73C431.445 1010.47 429.119 990.39 428.344 982.668C427.568 974.946 426.018 968.769 426.018 961.819C426.018 956.259 424.467 953.325 423.691 952.553V246.007C467.734 245.389 475.644 287.447 474.093 308.553C477.194 307.009 482.622 310.87 482.622 323.997C482.622 351.023 472.542 353.34 471.767 357.973C467.89 393.493 457.034 392.721 454.708 397.354C452.381 401.987 451.606 411.253 453.157 425.925C454.708 440.596 472.542 450.635 505.884 459.129C564.04 470.711 566.366 508.548 565.591 527.853C564.815 547.157 570.243 635.958 574.896 657.579C579.548 679.2 585.751 716.265 586.527 727.076C587.302 737.886 587.302 812.788 587.302 826.687C587.302 840.586 590.404 874.562 591.955 882.284C593.505 890.006 599.709 905.45 598.933 930.932C598.158 956.414 595.832 967.224 587.302 974.946C578.773 982.668 578.773 974.946 578.773 974.174C578.773 973.402 577.222 969.541 574.896 972.629C572.569 975.718 557.837 979.579 552.409 974.946C546.981 970.313 550.858 967.224 551.633 966.452C552.409 965.68 552.409 964.908 551.633 964.135C550.858 963.363 546.206 961.819 556.286 948.692C566.366 935.565 564.815 924.754 564.04 912.399C563.265 900.044 564.815 892.323 566.366 885.373C567.917 878.423 567.141 871.474 566.366 867.613C565.59 863.752 564.04 855.258 557.836 837.498C542.328 793.483 540.002 737.114 539.227 725.531C538.451 713.949 543.104 701.594 536.125 681.517Z" fill="white"/>
</g>
<path d="M423.456 961.497C423.456 955.934 423.524 952.998 422.723 952.226C414.15 886.146 419.052 756.135 451.509 733.581C489.49 707.188 499.3 722.557 505.788 733.581C569.597 842.007 522.844 1002.44 517.234 1037.98C511.623 1073.52 513.226 1095.16 517.234 1127.61C521.241 1160.05 523.646 1208.73 522.844 1232.68C522.043 1256.63 491.585 1402.65 489.18 1418.87C486.776 1435.1 486.776 1452.87 489.18 1466C491.585 1479.14 496.394 1504.63 502.005 1518.54C507.615 1532.45 505.211 1544.03 500.402 1546.35C495.593 1548.67 478.761 1556.4 473.15 1559.49C467.539 1562.58 453.913 1564.89 449.906 1553.31C445.898 1541.72 444.295 1520.86 448.303 1500C452.31 1479.14 445.898 1462.14 444.295 1449C442.692 1435.87 446.7 1435.87 451.509 1424.28C456.318 1412.69 456.318 1391.83 456.318 1373.29C456.318 1354.75 453.112 1322.3 451.509 1308.39C449.906 1294.49 441.891 1231.91 446.7 1202.55C451.509 1173.19 455.516 1161.6 446.7 1119.88C437.883 1078.16 432.272 1028.71 430.669 1019.44C429.066 1010.17 426.662 990.083 425.86 982.357C425.059 974.631 423.456 968.45 423.456 961.497Z" fill="#F9D2D4"/>
<mask maskUnits="userSpaceOnUse" x="0" y="0" width="0" height="0" fill="black">
<rect fill="white" width="0" height="0"/>
</mask>
<path d="M549.5 1012L546.613 1017L552.387 1017L549.5 1012ZM549.5 1298L552.387 1293L546.613 1293L549.5 1298ZM549 1016.5L549 1293.5L550 1293.5L550 1016.5L549 1016.5Z" fill="#DA1E28" mask="url(#)"/>
<defs>
<filter id="filter0_d" x="0" y="0" width="849" height="1816" filterUnits="userSpaceOnUse" color-interpolation-filters="sRGB">
<feFlood flood-opacity="0" result="BackgroundImageFix"/>
<feColorMatrix in="SourceAlpha" type="matrix" values="0 0 0 0 0 0 0 0 0 0 0 0 0 0 0 0 0 0 127 0" result="hardAlpha"/>
<feOffset dy="4"/>
<feGaussianBlur stdDeviation="125"/>
<feComposite in2="hardAlpha" operator="out"/>
<feColorMatrix type="matrix" values="0 0 0 0 0 0 0 0 0 0 0 0 0 0 0 0 0 0 0.14 0"/>
<feBlend mode="normal" in2="BackgroundImageFix" result="effect1_dropShadow"/>
<feBlend mode="normal" in="SourceGraphic" in2="effect1_dropShadow" result="shape"/>
</filter>
</defs>
</svg>
