<svg width="1153" height="2961" viewBox="0 0 1153 2961" fill="none" xmlns="http://www.w3.org/2000/svg">
<g filter="url(#filter0_d)">
<path d="M367.642 1060.44C378.088 1030.41 396.176 941.07 403.913 900.156C405.006 894.381 406.947 894.381 408.266 900.156C415.52 931.924 424.225 942.033 431.479 956.474C438.733 970.914 448.889 1038.78 444.536 1079.22C440.184 1119.65 443.086 1110.98 424.225 1158.64C305.256 1385.35 393.757 1661.16 403.913 1727.58C414.069 1794.01 411.167 1834.44 403.913 1895.09C396.659 1955.74 392.306 2046.71 393.757 2091.48C395.208 2136.24 450.34 2409.16 454.692 2439.49C459.045 2469.81 459.045 2503.03 454.692 2527.57C450.34 2552.12 441.635 2599.78 431.479 2625.77C421.323 2651.76 425.676 2673.42 434.381 2677.75C443.086 2682.09 473.553 2696.53 483.709 2702.3C493.865 2708.08 518.529 2712.41 525.783 2690.75C533.037 2669.09 535.939 2630.1 528.685 2591.11C521.431 2552.12 533.037 2520.35 535.939 2495.81C538.841 2471.26 531.586 2471.26 522.881 2449.6C514.176 2427.94 514.176 2388.95 514.176 2354.29C514.176 2319.63 519.98 2258.99 522.881 2232.99C525.783 2207 540.291 2090.03 531.586 2035.16C522.881 1980.29 515.627 1958.63 531.586 1880.65C547.546 1802.67 557.702 1710.26 560.603 1692.93C563.505 1675.6 567.857 1638.05 569.308 1623.61C570.759 1609.17 573.661 1597.62 573.661 1584.63C573.661 1574.23 576.562 1568.74 578.013 1567.3V246.013C495.606 244.857 480.807 323.508 483.709 362.978C477.906 360.091 467.75 367.311 467.75 391.859C467.75 442.4 486.611 446.732 488.061 455.396C495.316 521.821 515.627 520.377 519.98 529.041C524.332 537.706 525.783 555.034 522.881 582.471C519.98 609.907 486.611 628.679 424.225 644.564C315.412 666.224 311.06 736.981 312.511 773.082C313.961 809.183 303.806 975.246 295.101 1015.68C286.396 1056.11 274.789 1125.42 273.338 1145.64C271.887 1165.86 271.887 1305.93 271.887 1331.92C271.887 1357.91 266.084 1421.45 263.182 1435.89C260.281 1450.33 248.674 1479.21 250.125 1526.86C251.576 1574.52 255.928 1594.73 271.887 1609.17C287.847 1623.61 287.847 1609.17 287.847 1607.73C287.847 1606.29 290.748 1599.07 295.101 1604.84C299.453 1610.62 327.019 1617.84 337.175 1609.17C347.331 1600.51 340.077 1594.73 338.626 1593.29C337.175 1591.85 337.175 1590.4 338.626 1588.96C340.077 1587.51 348.782 1584.62 329.921 1560.08C311.06 1535.53 313.962 1515.31 315.412 1492.21C316.863 1469.1 313.962 1454.66 311.061 1441.67C308.159 1428.67 309.61 1415.67 311.061 1408.45C312.511 1401.23 315.413 1385.35 327.02 1352.14C356.036 1269.83 360.388 1164.41 361.839 1142.75C363.29 1121.09 354.585 1097.99 367.642 1060.44Z" fill="white"/>
<path d="M785.358 1060.44C774.912 1030.41 756.824 941.07 749.087 900.156C747.994 894.381 746.053 894.381 744.734 900.156C737.48 931.924 728.775 942.033 721.521 956.474C714.267 970.914 704.111 1038.78 708.464 1079.22C712.816 1119.65 709.914 1110.98 728.775 1158.64C847.744 1385.35 759.243 1661.16 749.087 1727.58C738.931 1794.01 741.833 1834.44 749.087 1895.09C756.341 1955.74 760.694 2046.71 759.243 2091.48C757.792 2136.24 702.66 2409.16 698.308 2439.49C693.955 2469.81 693.955 2503.03 698.308 2527.57C702.66 2552.12 711.365 2599.78 721.521 2625.77C731.677 2651.76 727.324 2673.42 718.619 2677.75C709.914 2682.09 679.447 2696.53 669.291 2702.3C659.135 2708.08 634.471 2712.41 627.217 2690.75C619.963 2669.09 617.061 2630.1 624.315 2591.11C631.569 2552.12 619.963 2520.35 617.061 2495.81C614.159 2471.26 621.414 2471.26 630.119 2449.6C638.824 2427.94 638.824 2388.95 638.824 2354.29C638.824 2319.63 633.02 2258.99 630.119 2232.99C627.217 2207 612.709 2090.03 621.414 2035.16C630.119 1980.29 637.373 1958.63 621.414 1880.65C605.454 1802.67 595.298 1710.26 592.397 1692.93C589.495 1675.6 585.143 1638.05 583.692 1623.61C582.241 1609.17 579.339 1597.62 579.339 1584.63C579.339 1574.23 576.438 1568.74 574.987 1567.3V246.013C657.394 244.857 672.193 323.508 669.291 362.978C675.094 360.091 685.25 367.311 685.25 391.859C685.25 442.4 666.389 446.732 664.939 455.396C657.684 521.821 637.373 520.377 633.02 529.041C628.668 537.706 627.217 555.034 630.119 582.471C633.02 609.907 666.389 628.679 728.775 644.564C837.588 666.224 841.94 736.981 840.489 773.082C839.039 809.183 849.194 975.246 857.899 1015.68C866.604 1056.11 878.211 1125.42 879.662 1145.64C881.113 1165.86 881.113 1305.93 881.113 1331.92C881.113 1357.91 886.916 1421.45 889.818 1435.89C892.719 1450.33 904.326 1479.21 902.875 1526.86C901.424 1574.52 897.072 1594.73 881.113 1609.17C865.153 1623.61 865.153 1609.17 865.153 1607.73C865.153 1606.29 862.252 1599.07 857.899 1604.84C853.547 1610.62 825.981 1617.84 815.825 1609.17C805.669 1600.51 812.923 1594.73 814.374 1593.29C815.825 1591.85 815.825 1590.4 814.374 1588.96C812.923 1587.51 804.218 1584.62 823.079 1560.08C841.94 1535.53 839.038 1515.31 837.588 1492.21C836.137 1469.1 839.038 1454.66 841.939 1441.67C844.841 1428.67 843.39 1415.67 841.939 1408.45C840.489 1401.23 837.587 1385.35 825.98 1352.14C796.964 1269.83 792.612 1164.41 791.161 1142.75C789.71 1121.09 798.415 1097.99 785.358 1060.44Z" fill="white"/>
</g>
<mask maskUnits="userSpaceOnUse" x="0" y="0" width="0" height="0" fill="black">
<rect fill="white" width="0" height="0"/>
</mask>
<path d="M475 1210.5L480 1213.39V1207.61L475 1210.5ZM675 1210.5L670 1207.61V1213.39L675 1210.5ZM479.5 1211H670.5V1210H479.5V1211Z" fill="#DA1E28" mask="url(#)"/>
<path d="M365 1487.5C349.8 1369.9 378 1269.5 394 1234H603.5V1487.5H365Z" fill="#F9D2D4"/>
<path d="M788.144 1487.5C803.344 1369.9 775.144 1269.5 759.144 1234H549.644V1487.5H788.144Z" fill="#F9D2D4"/>
<defs>
<filter id="filter0_d" x="0" y="0" width="1153" height="2961" filterUnits="userSpaceOnUse" color-interpolation-filters="sRGB">
<feFlood flood-opacity="0" result="BackgroundImageFix"/>
<feColorMatrix in="SourceAlpha" type="matrix" values="0 0 0 0 0 0 0 0 0 0 0 0 0 0 0 0 0 0 127 0" result="hardAlpha"/>
<feOffset dy="4"/>
<feGaussianBlur stdDeviation="125"/>
<feComposite in2="hardAlpha" operator="out"/>
<feColorMatrix type="matrix" values="0 0 0 0 0 0 0 0 0 0 0 0 0 0 0 0 0 0 0.14 0"/>
<feBlend mode="normal" in2="BackgroundImageFix" result="effect1_dropShadow"/>
<feBlend mode="normal" in="SourceGraphic" in2="effect1_dropShadow" result="shape"/>
</filter>
</defs>
</svg>
