<svg width="909" height="2045" viewBox="0 0 909 2045" fill="none" xmlns="http://www.w3.org/2000/svg">
<g filter="url(#filter0_d)">
<path d="M323.684 757.302C330.227 738.446 341.556 682.361 346.402 656.675C347.086 653.049 348.302 653.049 349.128 656.675C353.672 676.619 359.124 682.965 363.668 692.031C368.211 701.096 374.572 743.704 371.846 769.088C369.12 794.471 370.937 789.032 359.124 818.948C284.609 961.276 340.041 1134.43 346.402 1176.13C352.763 1217.83 350.945 1243.21 346.402 1281.29C341.858 1319.36 339.132 1376.48 340.041 1404.58C340.95 1432.68 375.481 1604.02 378.207 1623.06C380.933 1642.1 380.933 1662.95 378.207 1678.36C375.481 1693.77 370.029 1723.69 363.668 1740C357.307 1756.32 360.033 1769.92 365.485 1772.64C370.937 1775.36 390.02 1784.42 396.381 1788.05C402.742 1791.68 418.19 1794.4 422.734 1780.8C427.278 1767.2 429.095 1742.72 424.551 1718.25C420.008 1693.77 427.278 1673.82 429.095 1658.41C430.912 1643 426.369 1643 420.917 1629.4C415.464 1615.81 415.464 1591.33 415.464 1569.57C415.464 1547.81 419.099 1509.74 420.917 1493.42C422.734 1477.1 431.821 1403.67 426.369 1369.22C420.917 1334.78 416.373 1321.18 426.369 1272.22C436.365 1223.27 442.726 1165.25 444.543 1154.37C446.361 1143.49 449.087 1119.92 449.995 1110.86C450.904 1101.79 452.722 1094.54 452.722 1086.38C452.722 1079.85 454.539 1076.41 455.448 1075.5V246.008C403.833 245.283 394.564 294.659 396.381 319.438C392.746 317.625 386.385 322.159 386.385 337.569C386.385 369.299 398.199 372.018 399.107 377.458C403.651 419.159 416.373 418.252 419.099 423.692C421.825 429.131 422.734 440.01 420.917 457.234C419.099 474.458 398.199 486.244 359.124 496.216C290.97 509.814 288.244 554.235 289.153 576.899C290.062 599.562 283.701 703.816 278.248 729.199C272.796 754.583 265.526 798.097 264.618 810.789C263.709 823.48 263.709 911.416 263.709 927.734C263.709 944.052 260.074 983.94 258.257 993.005C256.439 1002.07 249.17 1020.2 250.078 1050.12C250.987 1080.03 253.713 1092.73 263.709 1101.79C273.705 1110.86 273.705 1101.79 273.705 1100.88C273.705 1099.98 275.522 1095.45 278.248 1099.07C280.975 1102.7 298.24 1107.23 304.601 1101.79C310.962 1096.35 306.419 1092.73 305.51 1091.82C304.601 1090.91 304.601 1090.01 305.51 1089.1C306.419 1088.19 311.871 1086.38 300.058 1070.97C288.244 1055.56 290.062 1042.87 290.97 1028.36C291.879 1013.86 290.062 1004.79 288.245 996.632C286.427 988.473 287.336 980.314 288.245 975.781C289.153 971.248 290.971 961.276 298.241 940.425C316.415 888.752 319.141 822.574 320.049 808.976C320.958 795.377 315.506 780.872 323.684 757.302Z" fill="white"/>
<path d="M585.316 757.302C578.773 738.446 567.444 682.361 562.598 656.675C561.914 653.049 560.698 653.049 559.872 656.675C555.328 676.619 549.876 682.965 545.332 692.031C540.789 701.096 534.428 743.704 537.154 769.088C539.88 794.471 538.063 789.032 549.876 818.948C624.391 961.276 568.959 1134.43 562.598 1176.13C556.237 1217.83 558.055 1243.21 562.598 1281.29C567.142 1319.36 569.868 1376.48 568.959 1404.58C568.05 1432.68 533.519 1604.02 530.793 1623.06C528.067 1642.1 528.067 1662.95 530.793 1678.36C533.519 1693.77 538.971 1723.69 545.332 1740C551.693 1756.32 548.967 1769.92 543.515 1772.64C538.063 1775.36 518.98 1784.42 512.619 1788.05C506.258 1791.68 490.81 1794.4 486.266 1780.8C481.722 1767.2 479.905 1742.72 484.449 1718.25C488.992 1693.77 481.722 1673.82 479.905 1658.41C478.088 1643 482.631 1643 488.083 1629.4C493.536 1615.81 493.536 1591.33 493.536 1569.57C493.536 1547.81 489.901 1509.74 488.083 1493.42C486.266 1477.1 477.179 1403.67 482.631 1369.22C488.083 1334.78 492.627 1321.18 482.631 1272.22C472.635 1223.27 466.274 1165.25 464.457 1154.37C462.639 1143.49 459.913 1119.92 459.005 1110.86C458.096 1101.79 456.278 1094.54 456.278 1086.38C456.278 1079.85 454.461 1076.41 453.552 1075.5V246.008C505.167 245.283 514.436 294.659 512.619 319.438C516.254 317.625 522.615 322.159 522.615 337.569C522.615 369.299 510.801 372.018 509.893 377.458C505.349 419.159 492.627 418.252 489.901 423.692C487.175 429.131 486.266 440.01 488.083 457.234C489.901 474.458 510.801 486.244 549.876 496.216C618.03 509.814 620.756 554.235 619.847 576.899C618.938 599.562 625.299 703.816 630.752 729.199C636.204 754.583 643.474 798.097 644.382 810.789C645.291 823.48 645.291 911.416 645.291 927.734C645.291 944.052 648.926 983.94 650.743 993.005C652.561 1002.07 659.831 1020.2 658.922 1050.12C658.013 1080.03 655.287 1092.73 645.291 1101.79C635.295 1110.86 635.295 1101.79 635.295 1100.88C635.295 1099.98 633.478 1095.45 630.752 1099.07C628.025 1102.7 610.76 1107.23 604.399 1101.79C598.038 1096.35 602.581 1092.73 603.49 1091.82C604.399 1090.91 604.399 1090.01 603.49 1089.1C602.581 1088.19 597.129 1086.38 608.942 1070.97C620.756 1055.56 618.938 1042.87 618.03 1028.36C617.121 1013.86 618.938 1004.79 620.755 996.632C622.573 988.473 621.664 980.314 620.755 975.781C619.847 971.248 618.029 961.276 610.759 940.425C592.585 888.752 589.859 822.574 588.951 808.976C588.042 795.377 593.494 780.872 585.316 757.302Z" fill="white"/>
</g>
<g filter="url(#filter1_d)">
<path d="M425.502 1271.85C435.498 1222.9 453.183 1090.38 455 1079.5L330.5 1098.5C352.5 1204.5 350.079 1242.84 345.535 1280.92C340.992 1318.99 338.265 1376.1 339.174 1404.21C340.083 1432.31 374.614 1603.65 377.34 1622.69C380.066 1641.72 380.066 1662.57 377.34 1677.99C374.614 1693.4 369.162 1723.31 362.801 1739.63C356.44 1755.95 359.166 1769.55 364.618 1772.27C370.07 1774.99 389.153 1784.05 395.514 1787.68C401.875 1791.31 417.324 1794.02 421.867 1780.43C426.411 1766.83 428.228 1742.35 423.685 1717.87C419.141 1693.4 426.411 1673.45 428.228 1658.04C430.046 1642.63 425.502 1642.63 420.05 1629.03C414.597 1615.43 414.597 1590.96 414.597 1569.2V1569.2C414.597 1547.44 418.232 1509.37 420.05 1493.05C421.867 1476.73 430.954 1403.3 425.502 1368.85C420.05 1334.4 415.506 1320.81 425.502 1271.85Z" fill="#F9D2D4"/>
</g>
<mask maskUnits="userSpaceOnUse" x="0" y="0" width="0" height="0" fill="black">
<rect fill="white" width="0" height="0"/>
</mask>
<path d="M444.5 1328L441.613 1333L447.387 1333L444.5 1328ZM444.5 1502L447.387 1497L441.613 1497L444.5 1502ZM444 1332.5L444 1497.5L445 1497.5L445 1332.5L444 1332.5Z" fill="#DA1E28" mask="url(#)"/>
<defs>
<filter id="filter0_d" x="0" y="0" width="909" height="2045" filterUnits="userSpaceOnUse" color-interpolation-filters="sRGB">
<feFlood flood-opacity="0" result="BackgroundImageFix"/>
<feColorMatrix in="SourceAlpha" type="matrix" values="0 0 0 0 0 0 0 0 0 0 0 0 0 0 0 0 0 0 127 0" result="hardAlpha"/>
<feOffset dy="4"/>
<feGaussianBlur stdDeviation="125"/>
<feComposite in2="hardAlpha" operator="out"/>
<feColorMatrix type="matrix" values="0 0 0 0 0 0 0 0 0 0 0 0 0 0 0 0 0 0 0.14 0"/>
<feBlend mode="normal" in2="BackgroundImageFix" result="effect1_dropShadow"/>
<feBlend mode="normal" in="SourceGraphic" in2="effect1_dropShadow" result="shape"/>
</filter>
<filter id="filter1_d" x="80.5" y="833.5" width="624.5" height="1211.13" filterUnits="userSpaceOnUse" color-interpolation-filters="sRGB">
<feFlood flood-opacity="0" result="BackgroundImageFix"/>
<feColorMatrix in="SourceAlpha" type="matrix" values="0 0 0 0 0 0 0 0 0 0 0 0 0 0 0 0 0 0 127 0" result="hardAlpha"/>
<feOffset dy="4"/>
<feGaussianBlur stdDeviation="125"/>
<feComposite in2="hardAlpha" operator="out"/>
<feColorMatrix type="matrix" values="0 0 0 0 0 0 0 0 0 0 0 0 0 0 0 0 0 0 0.14 0"/>
<feBlend mode="normal" in2="BackgroundImageFix" result="effect1_dropShadow"/>
<feBlend mode="normal" in="SourceGraphic" in2="effect1_dropShadow" result="shape"/>
</filter>
</defs>
</svg>
