<svg width="1151" height="2957" viewBox="0 0 1151 2957" fill="none" xmlns="http://www.w3.org/2000/svg">
<g filter="url(#filter0_d)">
<path d="M367.282 1059.12C377.696 1029.13 395.728 939.941 403.442 899.093C404.531 893.327 406.466 893.327 407.781 899.093C415.013 930.81 423.691 940.902 430.923 955.319C438.155 969.736 448.28 1037.49 443.941 1077.86C439.601 1118.23 442.494 1109.58 423.691 1157.15C305.087 1383.5 393.317 1658.86 403.442 1725.18C413.566 1791.49 410.674 1831.86 403.442 1892.41C396.21 1952.96 391.871 2043.79 393.317 2088.48C394.763 2133.17 449.726 2405.65 454.065 2435.92C458.405 2466.2 458.405 2499.36 454.065 2523.87C449.726 2548.37 441.048 2595.95 430.923 2621.9C420.798 2647.85 425.138 2669.48 433.816 2673.8C442.494 2678.13 472.868 2692.54 482.993 2698.31C493.118 2704.08 517.707 2708.4 524.938 2686.78C532.17 2665.15 535.063 2626.23 527.831 2587.3C520.599 2548.37 532.17 2516.66 535.063 2492.15C537.956 2467.64 530.724 2467.64 522.046 2446.02C513.367 2424.39 513.367 2385.46 513.367 2350.86C513.367 2316.26 519.153 2255.71 522.046 2229.76C524.938 2203.81 539.402 2087.04 530.724 2032.25C522.046 1977.47 514.814 1955.84 530.724 1877.99C546.634 1800.14 556.759 1707.88 559.652 1690.58C562.545 1673.28 566.884 1635.79 568.33 1621.37C569.777 1606.96 572.669 1595.42 572.669 1582.45C572.669 1572.07 575.562 1566.59 577.009 1565.15V246.013C494.854 244.859 480.1 323.383 482.993 362.788C477.208 359.905 467.083 367.114 467.083 391.622C467.083 442.081 485.886 446.406 487.332 455.056C494.564 521.373 514.814 519.931 519.153 528.581C523.492 537.232 524.938 554.532 522.046 581.924C519.153 609.316 485.886 628.057 423.691 643.916C315.212 665.541 310.873 736.183 312.319 772.225C313.765 808.267 303.641 974.06 294.962 1014.43C286.284 1054.79 274.713 1124 273.267 1144.18C271.82 1164.36 271.82 1304.21 271.82 1330.16C271.82 1356.11 266.035 1419.54 263.142 1433.96C260.249 1448.37 248.678 1477.21 250.125 1524.78C251.571 1572.36 255.91 1592.54 271.82 1606.96C287.731 1621.37 287.731 1606.96 287.731 1605.52C287.731 1604.07 290.623 1596.87 294.963 1602.63C299.302 1608.4 326.783 1615.61 336.908 1606.96C347.033 1598.31 339.801 1592.54 338.354 1591.1C336.908 1589.66 336.908 1588.22 338.354 1586.77C339.801 1585.33 348.479 1582.45 329.676 1557.94C310.873 1533.43 313.766 1513.25 315.212 1490.18C316.658 1467.11 313.766 1452.7 310.874 1439.72C307.981 1426.75 309.427 1413.77 310.874 1406.56C312.32 1399.36 315.213 1383.5 326.784 1350.34C355.712 1268.16 360.05 1162.92 361.497 1141.3C362.943 1119.67 354.265 1096.6 367.282 1059.12Z" fill="white"/>
<path d="M783.718 1059.12C773.304 1029.13 755.272 939.941 747.558 899.093C746.469 893.327 744.534 893.327 743.219 899.093C735.987 930.81 727.309 940.902 720.077 955.319C712.845 969.736 702.72 1037.49 707.059 1077.86C711.399 1118.23 708.506 1109.58 727.309 1157.15C845.913 1383.5 757.683 1658.86 747.558 1725.18C737.434 1791.49 740.326 1831.86 747.558 1892.41C754.79 1952.96 759.129 2043.79 757.683 2088.48C756.237 2133.17 701.274 2405.65 696.935 2435.92C692.595 2466.2 692.595 2499.36 696.935 2523.87C701.274 2548.37 709.952 2595.95 720.077 2621.9C730.202 2647.85 725.862 2669.48 717.184 2673.8C708.506 2678.13 678.132 2692.54 668.007 2698.31C657.882 2704.08 633.293 2708.4 626.062 2686.78C618.83 2665.15 615.937 2626.23 623.169 2587.3C630.401 2548.37 618.83 2516.66 615.937 2492.15C613.044 2467.64 620.276 2467.64 628.954 2446.02C637.633 2424.39 637.633 2385.46 637.633 2350.86C637.633 2316.26 631.847 2255.71 628.954 2229.76C626.062 2203.81 611.598 2087.04 620.276 2032.25C628.954 1977.47 636.186 1955.84 620.276 1877.99C604.366 1800.14 594.241 1707.88 591.348 1690.58C588.455 1673.28 584.116 1635.79 582.67 1621.37C581.223 1606.96 578.331 1595.42 578.331 1582.45C578.331 1572.07 575.438 1566.59 573.991 1565.15V246.013C656.146 244.859 670.9 323.383 668.007 362.788C673.792 359.905 683.917 367.114 683.917 391.622C683.917 442.081 665.114 446.406 663.668 455.056C656.436 521.373 636.186 519.931 631.847 528.581C627.508 537.232 626.062 554.532 628.954 581.924C631.847 609.316 665.114 628.057 727.309 643.916C835.788 665.541 840.127 736.183 838.681 772.225C837.235 808.267 847.359 974.06 856.038 1014.43C864.716 1054.79 876.287 1124 877.733 1144.18C879.18 1164.36 879.18 1304.21 879.18 1330.16C879.18 1356.11 884.965 1419.54 887.858 1433.96C890.751 1448.37 902.322 1477.21 900.876 1524.78C899.429 1572.36 895.09 1592.54 879.18 1606.96C863.269 1621.37 863.269 1606.96 863.269 1605.52C863.269 1604.07 860.377 1596.87 856.037 1602.63C851.698 1608.4 824.217 1615.61 814.092 1606.96C803.967 1598.31 811.199 1592.54 812.646 1591.1C814.092 1589.66 814.092 1588.22 812.646 1586.77C811.199 1585.33 802.521 1582.45 821.324 1557.94C840.127 1533.43 837.234 1513.25 835.788 1490.18C834.342 1467.11 837.234 1452.7 840.126 1439.72C843.019 1426.75 841.573 1413.77 840.126 1406.56C838.68 1399.36 835.787 1383.5 824.216 1350.34C795.288 1268.16 790.95 1162.92 789.503 1141.3C788.057 1119.67 796.735 1096.6 783.718 1059.12Z" fill="white"/>
</g>
<path d="M600.5 1759.5L588.5 1677.5H757.5C753.5 1689.1 746.167 1740.67 743 1765L600.5 1759.5Z" fill="#F9D2D4"/>
<mask maskUnits="userSpaceOnUse" x="0" y="0" width="0" height="0" fill="black">
<rect fill="white" width="0" height="0"/>
</mask>
<path d="M641 1663.5L646 1666.39V1660.61L641 1663.5ZM705 1663.5L700 1660.61V1666.39L705 1663.5ZM645.5 1664H700.5V1663H645.5V1664Z" fill="#DA1E28" mask="url(#)"/>
<defs>
<filter id="filter0_d" x="0" y="0" width="1151" height="2957" filterUnits="userSpaceOnUse" color-interpolation-filters="sRGB">
<feFlood flood-opacity="0" result="BackgroundImageFix"/>
<feColorMatrix in="SourceAlpha" type="matrix" values="0 0 0 0 0 0 0 0 0 0 0 0 0 0 0 0 0 0 127 0" result="hardAlpha"/>
<feOffset dy="4"/>
<feGaussianBlur stdDeviation="125"/>
<feComposite in2="hardAlpha" operator="out"/>
<feColorMatrix type="matrix" values="0 0 0 0 0 0 0 0 0 0 0 0 0 0 0 0 0 0 0.14 0"/>
<feBlend mode="normal" in2="BackgroundImageFix" result="effect1_dropShadow"/>
<feBlend mode="normal" in="SourceGraphic" in2="effect1_dropShadow" result="shape"/>
</filter>
</defs>
</svg>
