<svg width="25" height="25" viewBox="0 0 25 25" fill="none" xmlns="http://www.w3.org/2000/svg">
<g clip-path="url(#clip0)">
<path d="M1.56244 1.70098C-0.40214 3.7416 -5.69299e-05 5.90931 -5.69299e-05 12.4947C-5.69299e-05 17.9635 -0.954224 23.4458 4.03953 24.7364C5.5989 25.1374 19.4156 25.1374 20.9729 24.7343C23.052 24.1979 24.7437 22.5114 24.9749 19.5708C25.0072 19.1604 25.0072 5.8364 24.9739 5.41765C24.7281 2.28535 22.7999 0.480145 20.2593 0.11452C19.677 0.0301448 19.5604 0.00514477 16.5729 -6.35684e-05C5.97598 0.00514477 3.65307 -0.46673 1.56244 1.70098Z" fill="url(#paint0_linear)"/>
<path d="M12.4978 3.26989C8.71551 3.26989 5.12385 2.93344 3.75197 6.45427C3.1853 7.90844 3.2676 9.79698 3.2676 12.5011C3.2676 14.8741 3.19155 17.1043 3.75197 18.547C5.12072 22.0699 8.74155 21.7324 12.4957 21.7324C16.1176 21.7324 19.852 22.1095 21.2405 18.547C21.8082 17.0782 21.7249 15.2178 21.7249 12.5011C21.7249 8.8949 21.9238 6.56677 20.1749 4.81885C18.4041 3.04802 16.0093 3.26989 12.4936 3.26989H12.4978ZM11.6707 4.93344C19.5603 4.92094 20.5645 4.04385 20.0103 16.2282C19.8134 20.5376 16.5322 20.0647 12.4988 20.0647C5.14468 20.0647 4.93322 19.8543 4.93322 12.497C4.93322 5.05427 5.51656 4.9376 11.6707 4.93135V4.93344ZM17.4249 6.46573C16.8134 6.46573 16.3176 6.96156 16.3176 7.57302C16.3176 8.18448 16.8134 8.68031 17.4249 8.68031C18.0363 8.68031 18.5322 8.18448 18.5322 7.57302C18.5322 6.96156 18.0363 6.46573 17.4249 6.46573ZM12.4978 7.76052C9.8801 7.76052 7.75822 9.88344 7.75822 12.5011C7.75822 15.1189 9.8801 17.2407 12.4978 17.2407C15.1155 17.2407 17.2363 15.1189 17.2363 12.5011C17.2363 9.88344 15.1155 7.76052 12.4978 7.76052ZM12.4978 9.42406C16.5655 9.42406 16.5707 15.5782 12.4978 15.5782C8.43114 15.5782 8.42489 9.42406 12.4978 9.42406Z" fill="white"/>
</g>
<defs>
<linearGradient id="paint0_linear" x1="1.61038" y1="23.4032" x2="24.8452" y2="3.29366" gradientUnits="userSpaceOnUse">
<stop stop-color="#FFDD55"/>
<stop offset="0.5" stop-color="#FF543E"/>
<stop offset="1" stop-color="#C837AB"/>
</linearGradient>
<clipPath id="clip0">
<rect width="25" height="25" fill="white"/>
</clipPath>
</defs>
</svg>
