<svg width="25" height="25" viewBox="0 0 25 25" fill="none" xmlns="http://www.w3.org/2000/svg">
<g clip-path="url(#clip0)">
<path d="M12.5 24.999C19.4036 24.999 25 19.4026 25 12.499C25 5.59547 19.4036 -0.000976562 12.5 -0.000976562C5.59644 -0.000976562 0 5.59547 0 12.499C0 19.4026 5.59644 24.999 12.5 24.999Z" fill="#007AB9"/>
<path d="M19.9685 13.5053V18.6588H16.9806V13.8507C16.9806 12.6434 16.5492 11.819 15.4674 11.819C14.6419 11.819 14.1514 12.374 13.9348 12.9115C13.8562 13.1036 13.8359 13.3703 13.8359 13.6397V18.6586H10.8478C10.8478 18.6586 10.8879 10.5152 10.8478 9.67228H13.8361V10.9457C13.8301 10.9557 13.8216 10.9656 13.8163 10.9751H13.8361V10.9457C14.2332 10.3347 14.9413 9.46127 16.5289 9.46127C18.4947 9.46127 19.9685 10.7456 19.9685 13.5053ZM7.72204 5.34058C6.69995 5.34058 6.03125 6.0115 6.03125 6.89299C6.03125 7.75577 6.68056 8.44608 7.68282 8.44608H7.70221C8.74436 8.44608 9.39233 7.75577 9.39233 6.89299C9.3725 6.0115 8.74436 5.34058 7.72204 5.34058ZM6.20884 18.6588H9.1958V9.67228H6.20884V18.6588Z" fill="#F1F2F2"/>
</g>
<defs>
<clipPath id="clip0">
<rect width="25" height="25" fill="white"/>
</clipPath>
</defs>
</svg>
