<svg width="18" height="18" viewBox="0 0 18 18" fill="none" xmlns="http://www.w3.org/2000/svg">
<path d="M7.66516 2.42896L7.66414 2.42998L7.12395 2.96998C6.84479 3.24903 6.46483 3.41052 6.06354 3.41052H5.29076C4.25213 3.41052 3.40744 4.25466 3.40744 5.29227V6.05727C3.40744 6.46398 3.24806 6.84436 2.96762 7.1248L7.66516 2.42896ZM7.66516 2.42896C8.39568 1.69309 9.591 1.69128 10.3307 2.42382C10.3308 2.424 10.331 2.42418 10.3312 2.42435L10.8778 2.96998C11.1569 3.24903 11.5369 3.41052 11.9382 3.41052H12.711C13.7496 3.41052 14.5943 4.25466 14.5943 5.29227V6.06552C14.5943 6.46553 14.7548 6.84556 15.0343 7.12498L15.5745 7.66498L15.5745 7.66499L15.5768 7.66731C15.9307 8.01482 16.1248 8.48753 16.1248 8.98977H16.1248L16.1249 8.99445C16.1311 9.49276 15.9385 9.967 15.5884 10.3231C15.588 10.3235 15.5877 10.3238 15.5874 10.3242L15.0343 10.8771C14.7546 11.1567 14.5943 11.5368 14.5943 11.938V12.7098C14.5943 13.7477 13.7493 14.593 12.711 14.593H11.9382C11.5382 14.593 11.1578 14.7521 10.8778 15.0321L10.3376 15.5721L10.3373 15.5723C9.9688 15.9413 9.48824 16.1223 9.00461 16.1223C8.52106 16.1223 8.03964 15.9413 7.67052 15.5792L7.12413 15.0322L7.12395 15.0321C6.84388 14.7521 6.46355 14.593 6.06354 14.593H5.29076C4.25245 14.593 3.40744 13.7477 3.40744 12.7098V11.938C3.40744 11.5357 3.24655 11.1584 2.97205 10.8742L2.97213 10.8742L2.96558 10.8677L2.42713 10.3369C2.42684 10.3366 2.42655 10.3364 2.42626 10.3361C1.69511 9.60486 1.68938 8.40941 2.42033 7.67264C2.42047 7.67249 2.42061 7.67235 2.42076 7.67221L2.96744 7.12498L7.66516 2.42896ZM11.6556 6.33955L11.6552 6.33916C11.2538 5.93905 10.6043 5.93905 10.2029 6.33916L10.2025 6.33955L6.34612 10.1946C5.94585 10.5947 5.94452 11.2492 6.34214 11.651C6.53595 11.8545 6.79964 11.9598 7.06891 11.9598C7.34306 11.9598 7.60742 11.8563 7.80273 11.6514L11.6556 7.80075L11.6556 7.80073C12.0572 7.39927 12.0572 6.74101 11.6556 6.33955ZM10.9328 9.89727C10.3607 9.89727 9.89757 10.3558 9.89757 10.9248C9.89757 11.4995 10.3582 11.9598 10.9328 11.9598C11.5027 11.9598 11.9605 11.4967 11.9605 10.9248C11.9605 10.3586 11.5002 9.89727 10.9328 9.89727ZM7.07641 6.04227C6.51489 6.04227 6.04117 6.49699 6.04117 7.06977C6.04117 7.64829 6.51236 8.10477 7.07641 8.10477C7.64603 8.10477 8.10415 7.64273 8.10415 7.06977C8.10415 6.50253 7.64352 6.04227 7.07641 6.04227Z" fill="#857250" stroke="#857250" stroke-width="0.75"/>
</svg>
