<svg width="18" height="18" viewBox="0 0 18 18" fill="none" xmlns="http://www.w3.org/2000/svg">
<g clip-path="url(#clip0)">
<path d="M13.2297 8.44161C13.051 8.34901 12.8315 8.4195 12.7395 8.59826L12.7395 8.59827C12.0132 10.0091 10.58 10.885 8.99871 10.885C6.67921 10.885 4.79151 8.99207 4.79151 6.66484C4.79151 4.3376 6.67921 2.44463 8.99871 2.44463C11.3182 2.44463 13.2059 4.3376 13.2059 6.66484C13.2059 6.95154 13.1771 7.23787 13.1204 7.51581C13.0802 7.71276 13.2068 7.90551 13.4037 7.94595L13.4238 7.84832L13.4039 7.94598C13.6009 7.98615 13.7928 7.85903 13.8331 7.66193L13.8331 7.66192C13.8996 7.33583 13.9333 7.00045 13.9333 6.66487C13.9333 3.93609 11.72 1.71567 8.99867 1.71567C6.27734 1.71567 4.06406 3.93609 4.06406 6.66487C4.06406 9.39365 6.27734 11.6141 8.99867 11.6141C10.8533 11.6141 12.5346 10.5863 13.3859 8.93256L13.3859 8.93255C13.4779 8.7539 13.4082 8.53408 13.2297 8.44161ZM13.2297 8.44161L13.1837 8.5304L13.2297 8.4416C13.2297 8.4416 13.2297 8.44161 13.2297 8.44161Z" fill="#857250" stroke="#857250" stroke-width="0.2"/>
<path d="M11.7354 5.40201L11.7354 5.40201C11.8728 5.42177 11.9869 5.51814 12.0297 5.65026L11.7354 5.40201ZM11.7354 5.40201L10.0691 5.1626M11.7354 5.40201L10.0691 5.1626M10.0691 5.1626L9.32776 3.64822C9.26468 3.50985 9.12833 3.44516 9.00055 3.44517C8.87278 3.44517 8.73644 3.50986 8.67338 3.64822L7.93204 5.16256L6.26721 5.40177C6.11606 5.41924 6.01277 5.52951 5.97347 5.65107C5.93418 5.77258 5.95328 5.92239 6.06496 6.02523L7.27183 7.20045L6.98411 8.86281C6.95404 9.01161 7.02624 9.14415 7.1294 9.21945C7.23263 9.29481 7.38097 9.3231 7.51353 9.24816L9.00055 8.46015L10.4875 9.24814C10.62 9.32314 10.7684 9.29477 10.8716 9.21947C10.9748 9.1442 11.0471 9.01166 11.017 8.86279L10.7293 7.20045L11.9372 6.02421C11.9372 6.0242 11.9372 6.02419 11.9372 6.02418C12.0367 5.92735 12.0725 5.78231 12.0297 5.65027L10.0691 5.1626ZM10.0847 6.81176C9.99842 6.89573 9.95926 7.01686 9.97972 7.13543L9.97973 7.13548L10.1739 8.25733L9.17054 7.72562L9.17053 7.72561C9.06418 7.66928 8.93689 7.66928 8.83054 7.72561L8.83052 7.72562L7.82717 8.25733L8.02134 7.13548L8.02134 7.13547C8.04186 7.01684 8.00262 6.89571 7.91641 6.81177C7.91641 6.81177 7.91641 6.81176 7.9164 6.81176L7.10161 6.01833L8.22549 5.85683L8.2255 5.85683C8.34458 5.8397 8.44746 5.76474 8.5004 5.65657C8.5004 5.65656 8.50041 5.65656 8.50041 5.65656L9.00052 4.63497L9.50063 5.65657L9.50063 5.65658C9.55357 5.76468 9.65643 5.8397 9.77553 5.85683L9.77555 5.85683L10.8994 6.01833L10.0847 6.81176ZM10.0847 6.81176L10.1544 6.88341M10.0847 6.81176L10.0847 6.81177L10.1544 6.88341M10.1544 6.88341C10.0919 6.94431 10.0634 7.03225 10.0783 7.11843L10.2856 8.31654L10.1544 6.88341ZM10.1955 8.38193L9.12372 7.81398C9.04665 7.77316 8.95442 7.77316 8.87735 7.81398L7.80561 8.38193H10.1955Z" fill="#857250" stroke="#857250" stroke-width="0.2"/>
<path d="M10.7609 13.1949L12.2069 15.7069C12.3071 15.8811 12.2477 16.1039 12.0738 16.2047L12.0259 16.122L12.0738 16.2047C12.0166 16.2378 11.9539 16.2536 11.8921 16.2536C11.7666 16.2536 11.6442 16.1883 11.5768 16.0712L10.0121 13.3528C9.68158 13.403 9.34339 13.4295 8.99908 13.4295C8.65775 13.4295 8.32239 13.4035 7.99461 13.3542L5.36725 17.9187C5.2915 18.0588 5.14351 18.1121 5.0122 18.0977C4.88101 18.0833 4.74813 17.9993 4.70437 17.8467L4.04224 15.7565L1.90663 16.2264C1.75212 16.2649 1.61315 16.1908 1.53546 16.0841C1.45781 15.9774 1.42978 15.8225 1.51294 15.6872L2.7501 13.5379C2.85046 13.3635 3.07295 13.3036 3.24709 13.4044L3.2471 13.4044C3.42106 13.5052 3.48042 13.728 3.38018 13.9022L3.296 13.8537L3.38018 13.9022L2.55397 15.3375L4.2105 14.9731L4.21055 14.973C4.39431 14.9327 4.57834 15.0393 4.63515 15.2188M10.7609 13.1949L5.08095 16.9572L5.14861 16.8397M10.7609 13.1949C11.7513 12.9258 12.6518 12.4358 13.4063 11.781L15.4442 15.3214L13.7877 14.9569C13.6038 14.9165 13.4199 15.0233 13.3631 15.2026L13.3631 15.2026L12.8496 16.8235L12.8222 16.7759C12.7218 16.6016 12.4993 16.5417 12.3252 16.6425L12.3252 16.6425C12.1512 16.7432 12.0919 16.966 12.1921 17.1402L12.6309 17.9026C12.7067 18.0427 12.8547 18.096 12.986 18.0816C13.1172 18.0672 13.25 17.9832 13.2938 17.8306L13.9559 15.7404L16.0915 16.2103C16.2461 16.2487 16.3851 16.1746 16.4628 16.0679C16.5405 15.9612 16.5685 15.8063 16.4854 15.671L13.9456 11.2587C15.0609 10.0515 15.7439 8.4366 15.7439 6.66469C15.7438 2.93481 12.7186 -0.1 8.99919 -0.1C7.85497 -0.1 6.72453 0.192656 5.72981 0.74654L5.72981 0.746541C5.55417 0.844352 5.49107 1.06615 5.58841 1.242L5.67381 1.19472L5.58841 1.242C5.68581 1.41794 5.90729 1.48164 6.08306 1.38383L6.08308 1.38382C6.96974 0.89009 7.97817 0.629029 8.99919 0.629029C12.3168 0.629029 15.0164 3.33646 15.0164 6.66473C15.0164 9.99302 12.3168 12.7005 8.99919 12.7005C5.68162 12.7005 2.98195 9.99302 2.98195 6.66469C2.98195 4.87912 3.76386 3.19515 5.12734 2.0443L5.12734 2.04429C5.28091 1.91466 5.30057 1.68485 5.1714 1.53093M10.7609 13.1949L5.1714 1.53093M4.63515 15.2188L4.53982 15.249L4.63515 15.2188L4.63515 15.2188ZM4.63515 15.2188L5.14861 16.8397M5.14861 16.8397L7.24536 13.1971C6.25455 12.9292 5.35348 12.4402 4.59812 11.7864M5.14861 16.8397L4.59812 11.7864M4.59812 11.7864L3.99608 12.8323C3.99599 12.8324 3.9959 12.8326 3.9958 12.8328C3.93964 12.9324 3.85459 12.9904 3.76036 13.0083C3.66886 13.0257 3.57634 13.004 3.50127 12.9602C3.4262 12.9165 3.3618 12.8467 3.33147 12.7589C3.30026 12.6686 3.30776 12.5662 3.36584 12.4683C3.36598 12.4681 3.36611 12.4678 3.36625 12.4676L4.05852 11.2649C2.9398 10.0571 2.25454 8.43963 2.25454 6.66469C2.25454 4.66377 3.13087 2.77637 4.65872 1.48675C4.65873 1.48674 4.65874 1.48673 4.65875 1.48673L4.72325 1.56314L4.59812 11.7864ZM5.1714 1.53093C5.1714 1.53093 5.1714 1.53093 5.17141 1.53094L5.09517 1.59489L5.1714 1.53093Z" fill="#857250" stroke="#857250" stroke-width="0.2"/>
</g>
<defs>
<clipPath id="clip0">
<rect width="18" height="18" fill="white"/>
</clipPath>
</defs>
</svg>
