<svg width="18" height="18" viewBox="0 0 18 18" fill="none" xmlns="http://www.w3.org/2000/svg">
<path fill-rule="evenodd" clip-rule="evenodd" d="M16.7641 6.95817L15.1891 6.43317L15.9307 4.94984C16.0848 4.63165 16.0213 4.25086 15.7724 3.99984L13.9974 2.22484C13.7449 1.9721 13.3594 1.90841 13.0391 2.06651L11.5557 2.80817L11.0307 1.23317C10.9171 0.896642 10.6026 0.669145 10.2474 0.666507H7.7474C7.38913 0.665582 7.07037 0.893747 6.95573 1.23317L6.43073 2.80817L4.9474 2.06651C4.6292 1.91243 4.24842 1.97589 3.9974 2.22484L2.2224 3.99984C1.96966 4.25232 1.90597 4.63781 2.06407 4.95817L2.80573 6.44151L1.23073 6.96651C0.894201 7.08016 0.666703 7.39464 0.664065 7.74984V10.2498C0.663141 10.6081 0.891306 10.9269 1.23073 11.0415L2.80573 11.5665L2.06407 13.0498C1.90998 13.368 1.97345 13.7488 2.2224 13.9998L3.9974 15.7748C4.24988 16.0276 4.63537 16.0913 4.95573 15.9332L6.43906 15.1915L6.96406 16.7665C7.07871 17.1059 7.39747 17.3341 7.75573 17.3332H10.2557C10.614 17.3341 10.9328 17.1059 11.0474 16.7665L11.5724 15.1915L13.0557 15.9332C13.3717 16.0833 13.7479 16.02 13.9974 15.7748L15.7724 13.9998C16.0251 13.7474 16.0888 13.3619 15.9307 13.0415L15.1891 11.5582L16.7641 11.0332C17.1006 10.9195 17.3281 10.605 17.3307 10.2498V7.74984C17.3317 7.39158 17.1035 7.07282 16.7641 6.95817ZM15.664 9.64974L14.664 9.98308C14.1986 10.134 13.823 10.4819 13.6369 10.9344C13.4508 11.3869 13.4729 11.8983 13.6973 12.3331L14.1723 13.2831L13.2557 14.1997L12.3307 13.6997C11.8983 13.4843 11.3937 13.4671 10.9476 13.6526C10.5015 13.838 10.1579 14.2079 10.0057 14.6664L9.67235 15.6664H8.34735L8.01401 14.6664C7.86305 14.201 7.51519 13.8254 7.0627 13.6393C6.6102 13.4532 6.09877 13.4753 5.66401 13.6997L4.71401 14.1747L3.79735 13.2581L4.29735 12.3331C4.52183 11.8983 4.54393 11.3869 4.3578 10.9344C4.17166 10.4819 3.79609 10.134 3.33068 9.98308L2.33068 9.64974V8.34974L3.33068 8.01641C3.79609 7.86544 4.17166 7.51759 4.3578 7.06509C4.54393 6.6126 4.52183 6.10116 4.29735 5.66641L3.82235 4.74141L4.73901 3.82474L5.66401 4.29974C6.09877 4.52422 6.6102 4.54633 7.0627 4.36019C7.51519 4.17406 7.86305 3.79849 8.01401 3.33308L8.34735 2.33308H9.64735L9.98068 3.33308C10.1316 3.79849 10.4795 4.17406 10.932 4.36019C11.3845 4.54633 11.8959 4.52422 12.3307 4.29974L13.2807 3.82474L14.1973 4.74141L13.6973 5.66641C13.4819 6.09881 13.4647 6.60341 13.6502 7.04948C13.8356 7.49555 14.2055 7.8392 14.664 7.99141L15.664 8.32474V9.64974ZM8.99739 5.66651C7.15644 5.66651 5.66405 7.1589 5.66405 8.99985C5.66405 10.8408 7.15644 12.3332 8.99739 12.3332C10.8383 12.3332 12.3307 10.8408 12.3307 8.99985C12.3307 8.11579 11.9795 7.26795 11.3544 6.64282C10.7293 6.0177 9.88144 5.66651 8.99739 5.66651ZM8.99735 10.6664C8.07687 10.6664 7.33068 9.92022 7.33068 8.99974C7.33068 8.07927 8.07687 7.33308 8.99735 7.33308C9.91782 7.33308 10.664 8.07927 10.664 8.99974C10.664 9.92022 9.91782 10.6664 8.99735 10.6664Z" fill="#857250"/>
</svg>
