<svg width="17" height="16" viewBox="0 0 17 16" fill="none" xmlns="http://www.w3.org/2000/svg">
<path d="M9.1836 11.3129C9.26575 11.3129 9.34463 11.2986 9.41797 11.2726V13.8907C9.41797 14.0201 9.52291 14.125 9.65235 14.125C9.78179 14.125 9.88673 14.0201 9.88673 13.8907V6.79688C9.88673 6.66744 9.78179 6.56251 9.65235 6.56251C9.52291 6.56251 9.41797 6.66744 9.41797 6.79688V10.6097C9.41797 10.739 9.31282 10.8441 9.1836 10.8441C9.05435 10.8441 8.94922 10.739 8.94922 10.6097V6.79688C8.94922 6.40916 9.26463 6.09375 9.65235 6.09375H12.9545C13.3422 6.09375 13.6576 6.40916 13.6576 6.79688V10.6097C13.6576 10.739 13.5525 10.8441 13.4232 10.8441C13.294 10.8441 13.1888 10.739 13.1888 10.6097C13.1888 10.6092 13.1888 6.79688 13.1888 6.79688C13.1888 6.66744 13.0839 6.56251 12.9544 6.56251C12.825 6.56251 12.7201 6.66744 12.7201 6.79688V13.8907C12.7201 14.0201 12.825 14.125 12.9544 14.125C13.0839 14.125 13.1888 14.0201 13.1888 13.8907V11.2725C13.2622 11.2986 13.341 11.3128 13.4232 11.3128C13.8109 11.3128 14.1263 10.9974 14.1263 10.6097V6.79688C14.1263 6.15069 13.6007 5.625 12.9545 5.625H9.65235C9.00616 5.625 8.48047 6.15069 8.48047 6.79688V10.6097C8.48047 10.9974 8.79588 11.3129 9.1836 11.3129Z" fill="#857250"/>
<path d="M11.7695 10.375H10.832C10.7026 10.375 10.5977 10.4799 10.5977 10.6094V13.8903C10.5977 14.0197 10.7026 14.1247 10.832 14.1247C10.9615 14.1247 11.0664 14.0197 11.0664 13.8903V10.8438H11.5352V13.8903C11.5352 14.0197 11.6401 14.1247 11.7695 14.1247C11.899 14.1247 12.0039 14.0197 12.0039 13.8903V10.6094C12.0039 10.4799 11.899 10.375 11.7695 10.375Z" fill="#857250"/>
<path d="M11.3125 5.15627C12.2172 5.15627 12.9531 4.4203 12.9531 3.51563C12.9531 2.61097 12.2171 1.875 11.3125 1.875C10.4079 1.875 9.67188 2.61097 9.67188 3.51563C9.67188 4.4203 10.4078 5.15627 11.3125 5.15627ZM11.3125 2.34375C11.9587 2.34375 12.4844 2.86944 12.4844 3.51563C12.4844 4.16183 11.9587 4.68752 11.3125 4.68752C10.6663 4.68752 10.1406 4.16183 10.1406 3.51563C10.1406 2.86944 10.6663 2.34375 11.3125 2.34375Z" fill="#857250"/>
<path d="M15.767 0H6.83985C6.71041 0 6.60547 0.104938 6.60547 0.234376V15.7657C6.60547 15.8952 6.71041 16.0001 6.83985 16.0001H15.767C15.8964 16.0001 16.0014 15.8952 16.0014 15.7657V0.234376C16.0014 0.104938 15.8964 0 15.767 0ZM14.7324 0.937505H7.87445L7.40569 0.468753H15.2012L14.7324 0.937505ZM7.54297 1.26894V7.53129C7.54297 7.66073 7.64791 7.76567 7.77735 7.76567C7.90679 7.76567 8.01173 7.66073 8.01173 7.53129V1.40626H14.5951V14.5938H8.01173V8.4688C8.01173 8.33936 7.90679 8.23442 7.77735 8.23442C7.64791 8.23442 7.54297 8.33936 7.54297 8.4688V14.7311L7.07422 15.1999V0.800223L7.54297 1.26894ZM7.87445 15.0626H14.7324L15.2012 15.5313H7.40569L7.87445 15.0626ZM15.0639 14.7311V1.26894L15.5326 0.800192V15.1999L15.0639 14.7311Z" fill="#857250"/>
<path d="M4.47399 5.625H1.17188C0.52569 5.625 0 6.15069 0 6.79688V10.6097C0 10.9975 0.315408 11.3129 0.703129 11.3129C0.785286 11.3129 0.864161 11.2986 0.937505 11.2726V15.1746C0.937505 15.6297 1.30785 16.0001 1.76304 16.0001C2.21823 16.0001 2.58858 15.6297 2.58858 15.1745V10.8441H3.05733V15.1746C3.05733 15.6297 3.42768 16.0001 3.88287 16.0001C4.33806 16.0001 4.7084 15.6297 4.7084 15.1746V11.2725C4.78178 11.2986 4.86062 11.3128 4.94278 11.3128C5.3305 11.3128 5.64591 10.9974 5.64591 10.6097V6.79688C5.64588 6.15069 5.12015 5.625 4.47399 5.625ZM5.17712 10.6097C5.17712 10.739 5.072 10.8441 4.94275 10.8441C4.81353 10.8441 4.70837 10.739 4.70837 10.6097C4.70837 10.6094 4.70837 6.79688 4.70837 6.79688C4.70837 6.66744 4.60343 6.56251 4.47399 6.56251C4.34456 6.56251 4.23962 6.66744 4.23962 6.79688V15.1745C4.23962 15.3712 4.07955 15.5313 3.88283 15.5313C3.68611 15.5313 3.52605 15.3712 3.52605 15.1745V10.6097C3.52605 10.4803 3.42111 10.3754 3.29168 10.3754H2.35417C2.22473 10.3754 2.11979 10.4803 2.11979 10.6097V15.1746C2.11979 15.3713 1.95973 15.5313 1.76301 15.5313C1.56629 15.5313 1.40626 15.3712 1.40626 15.1745V6.79688C1.40626 6.66744 1.30132 6.56251 1.17188 6.56251C1.04244 6.56251 0.937505 6.66744 0.937505 6.79688V10.6097C0.937505 10.739 0.83238 10.8441 0.703129 10.8441C0.573878 10.8441 0.468753 10.739 0.468753 10.6097V6.79688C0.468753 6.40916 0.784161 6.09375 1.17188 6.09375H4.47399C4.86172 6.09375 5.17712 6.40916 5.17712 6.79688V10.6097Z" fill="#857250"/>
<path d="M2.83204 5.15627C3.7367 5.15627 4.47268 4.4203 4.47268 3.51563C4.47268 2.61097 3.7367 1.875 2.83204 1.875C1.92738 1.875 1.19141 2.61097 1.19141 3.51563C1.19141 4.4203 1.92738 5.15627 2.83204 5.15627ZM2.83204 2.34375C3.47823 2.34375 4.00392 2.86944 4.00392 3.51563C4.00392 4.16183 3.47823 4.68752 2.83204 4.68752C2.18585 4.68752 1.66016 4.16183 1.66016 3.51563C1.66016 2.86944 2.18585 2.34375 2.83204 2.34375Z" fill="#857250"/>
</svg>
