<svg width="18" height="18" viewBox="0 0 18 18" fill="none" xmlns="http://www.w3.org/2000/svg">
<g clip-path="url(#clip0)">
<mask id="path-1-inside-1" fill="white">
<path d="M3.00156 4.2002C2.50537 4.2002 2.10156 4.604 2.10156 5.10019V7.5002C2.10156 7.9964 2.50537 8.4002 3.00156 8.4002C3.49776 8.4002 3.90156 7.9964 3.90156 7.5002V5.10019C3.90156 4.604 3.49776 4.2002 3.00156 4.2002ZM3.30159 7.50017C3.30159 7.66575 3.16718 7.80015 3.0016 7.80015C2.83601 7.80015 2.70161 7.66575 2.70161 7.50017V5.10016C2.70161 4.93457 2.83601 4.80017 3.0016 4.80017C3.16718 4.80017 3.30159 4.93457 3.30159 5.10016V7.50017Z"/>
</mask>
<path d="M3.00156 4.2002C2.50537 4.2002 2.10156 4.604 2.10156 5.10019V7.5002C2.10156 7.9964 2.50537 8.4002 3.00156 8.4002C3.49776 8.4002 3.90156 7.9964 3.90156 7.5002V5.10019C3.90156 4.604 3.49776 4.2002 3.00156 4.2002ZM3.30159 7.50017C3.30159 7.66575 3.16718 7.80015 3.0016 7.80015C2.83601 7.80015 2.70161 7.66575 2.70161 7.50017V5.10016C2.70161 4.93457 2.83601 4.80017 3.0016 4.80017C3.16718 4.80017 3.30159 4.93457 3.30159 5.10016V7.50017Z" fill="#857250"/>
<path d="M3.90156 5.10019H2.90156H3.90156ZM3.00156 3.2002C1.95308 3.2002 1.10156 4.05171 1.10156 5.10019H3.10156C3.10156 5.15629 3.05765 5.2002 3.00156 5.2002V3.2002ZM1.10156 5.10019V7.5002H3.10156V5.10019H1.10156ZM1.10156 7.5002C1.10156 8.54868 1.95308 9.4002 3.00156 9.4002V7.4002C3.05765 7.4002 3.10156 7.44411 3.10156 7.5002H1.10156ZM3.00156 9.4002C4.05004 9.4002 4.90156 8.54868 4.90156 7.5002H2.90156C2.90156 7.44411 2.94547 7.4002 3.00156 7.4002V9.4002ZM4.90156 7.5002V5.10019H2.90156V7.5002H4.90156ZM4.90156 5.10019C4.90156 4.05171 4.05004 3.2002 3.00156 3.2002V5.2002C2.94547 5.2002 2.90156 5.15629 2.90156 5.10019H4.90156ZM2.30159 7.50017C2.30159 7.11347 2.6149 6.80015 3.0016 6.80015V8.80015C3.71947 8.80015 4.30159 8.21804 4.30159 7.50017H2.30159ZM3.0016 6.80015C3.3883 6.80015 3.70161 7.11347 3.70161 7.50017H1.70161C1.70161 8.21804 2.28373 8.80015 3.0016 8.80015V6.80015ZM3.70161 7.50017V5.10016H1.70161V7.50017H3.70161ZM3.70161 5.10016C3.70161 5.48686 3.38829 5.80017 3.0016 5.80017V3.80017C2.28373 3.80017 1.70161 4.38229 1.70161 5.10016H3.70161ZM3.0016 5.80017C2.6149 5.80017 2.30159 5.48686 2.30159 5.10016H4.30159C4.30159 4.38229 3.71947 3.80017 3.0016 3.80017V5.80017ZM2.30159 5.10016V7.50017H4.30159V5.10016H2.30159Z" fill="#857250" mask="url(#path-1-inside-1)"/>
<mask id="path-3-inside-2" fill="white">
<path d="M15.0016 4.2002C14.5054 4.2002 14.1016 4.604 14.1016 5.10019V7.5002C14.1016 7.9964 14.5054 8.4002 15.0016 8.4002C15.4978 8.4002 15.9016 7.9964 15.9016 7.5002V5.10019C15.9016 4.604 15.4978 4.2002 15.0016 4.2002ZM15.3016 7.50017C15.3016 7.66575 15.1671 7.80015 15.0016 7.80015C14.836 7.80015 14.7016 7.66575 14.7016 7.50017V5.10016C14.7016 4.93457 14.836 4.80017 15.0016 4.80017C15.1671 4.80017 15.3016 4.93457 15.3016 5.10016V7.50017Z"/>
</mask>
<path d="M15.0016 4.2002C14.5054 4.2002 14.1016 4.604 14.1016 5.10019V7.5002C14.1016 7.9964 14.5054 8.4002 15.0016 8.4002C15.4978 8.4002 15.9016 7.9964 15.9016 7.5002V5.10019C15.9016 4.604 15.4978 4.2002 15.0016 4.2002ZM15.3016 7.50017C15.3016 7.66575 15.1671 7.80015 15.0016 7.80015C14.836 7.80015 14.7016 7.66575 14.7016 7.50017V5.10016C14.7016 4.93457 14.836 4.80017 15.0016 4.80017C15.1671 4.80017 15.3016 4.93457 15.3016 5.10016V7.50017Z" fill="#857250"/>
<path d="M15.0016 3.2002C13.9531 3.2002 13.1016 4.05171 13.1016 5.10019H15.1016C15.1016 5.15629 15.0577 5.2002 15.0016 5.2002V3.2002ZM13.1016 5.10019V7.5002H15.1016V5.10019H13.1016ZM13.1016 7.5002C13.1016 8.54868 13.9531 9.4002 15.0016 9.4002V7.4002C15.0577 7.4002 15.1016 7.44411 15.1016 7.5002H13.1016ZM15.0016 9.4002C16.05 9.4002 16.9016 8.54868 16.9016 7.5002H14.9016C14.9016 7.44411 14.9455 7.4002 15.0016 7.4002V9.4002ZM16.9016 7.5002V5.10019H14.9016V7.5002H16.9016ZM16.9016 5.10019C16.9016 4.05171 16.05 3.2002 15.0016 3.2002V5.2002C14.9455 5.2002 14.9016 5.15629 14.9016 5.10019H16.9016ZM14.3016 7.50017C14.3016 7.11346 14.6149 6.80015 15.0016 6.80015V8.80015C15.7194 8.80015 16.3016 8.21804 16.3016 7.50017H14.3016ZM15.0016 6.80015C15.3883 6.80015 15.7016 7.11347 15.7016 7.50017H13.7016C13.7016 8.21804 14.2837 8.80015 15.0016 8.80015V6.80015ZM15.7016 7.50017V5.10016H13.7016V7.50017H15.7016ZM15.7016 5.10016C15.7016 5.48686 15.3883 5.80017 15.0016 5.80017V3.80017C14.2837 3.80017 13.7016 4.38229 13.7016 5.10016H15.7016ZM15.0016 5.80017C14.6149 5.80017 14.3016 5.48686 14.3016 5.10016H16.3016C16.3016 4.38228 15.7194 3.80017 15.0016 3.80017V5.80017ZM14.3016 5.10016V7.50017H16.3016V5.10016H14.3016Z" fill="#857250" mask="url(#path-3-inside-2)"/>
<path d="M3.4603 4.62547C3.46032 4.6254 3.46034 4.62533 3.46036 4.62527L3.4603 4.62547ZM8.9991 0C6.2535 0 3.7791 1.84261 2.98168 4.4808L14.8161 4.85462C14.9748 4.80691 15.0645 4.63918 15.0165 4.4808C14.2191 1.84261 11.7447 0 8.9991 0Z" fill="#857250" stroke="#857250"/>
<mask id="path-6-inside-3" fill="white">
<path d="M14.9984 7.7998C14.8328 7.7998 14.6984 7.93389 14.6984 8.09979C14.6984 8.92688 14.0255 9.5998 13.1984 9.5998C13.0328 9.5998 12.8984 9.73389 12.8984 9.89979C12.8984 10.0657 13.0328 10.1998 13.1984 10.1998C14.3564 10.1998 15.2984 9.25749 15.2984 8.09979C15.2984 7.93389 15.164 7.7998 14.9984 7.7998Z"/>
</mask>
<path d="M14.9984 7.7998C14.8328 7.7998 14.6984 7.93389 14.6984 8.09979C14.6984 8.92688 14.0255 9.5998 13.1984 9.5998C13.0328 9.5998 12.8984 9.73389 12.8984 9.89979C12.8984 10.0657 13.0328 10.1998 13.1984 10.1998C14.3564 10.1998 15.2984 9.25749 15.2984 8.09979C15.2984 7.93389 15.164 7.7998 14.9984 7.7998Z" fill="#857250"/>
<path d="M14.9984 6.7998C14.2812 6.7998 13.6984 7.38092 13.6984 8.09979H15.6984C15.6984 8.48686 15.3844 8.7998 14.9984 8.7998V6.7998ZM13.6984 8.09979C13.6984 8.37461 13.4732 8.5998 13.1984 8.5998V10.5998C14.5778 10.5998 15.6984 9.47915 15.6984 8.09979H13.6984ZM13.1984 8.5998C12.4812 8.5998 11.8984 9.18092 11.8984 9.89979H13.8984C13.8984 10.2869 13.5844 10.5998 13.1984 10.5998V8.5998ZM11.8984 9.89979C11.8984 10.6187 12.4812 11.1998 13.1984 11.1998V9.19978C13.5844 9.19978 13.8984 9.51272 13.8984 9.89979H11.8984ZM13.1984 11.1998C14.9088 11.1998 16.2984 9.80967 16.2984 8.09979H14.2984C14.2984 8.7053 13.8041 9.19978 13.1984 9.19978V11.1998ZM16.2984 8.09979C16.2984 7.38091 15.7156 6.7998 14.9984 6.7998V8.7998C14.6124 8.7998 14.2984 8.48687 14.2984 8.09979H16.2984Z" fill="#857250" mask="url(#path-6-inside-3)"/>
<mask id="path-8-inside-4" fill="white">
<path d="M12.5984 8.7002H10.7984C10.3022 8.7002 9.89844 9.104 9.89844 9.60019V10.2002C9.89844 10.6964 10.3022 11.1002 10.7984 11.1002H12.5984C13.0946 11.1002 13.4984 10.6964 13.4984 10.2002V9.60019C13.4984 9.104 13.0946 8.7002 12.5984 8.7002ZM12.8984 10.2002C12.8984 10.3657 12.764 10.5001 12.5984 10.5001H10.7984C10.6329 10.5001 10.4984 10.3657 10.4984 10.2002V9.60016C10.4984 9.43457 10.6329 9.30017 10.7984 9.30017H12.5984C12.764 9.30017 12.8984 9.43457 12.8984 9.60016V10.2002Z"/>
</mask>
<path d="M12.5984 8.7002H10.7984C10.3022 8.7002 9.89844 9.104 9.89844 9.60019V10.2002C9.89844 10.6964 10.3022 11.1002 10.7984 11.1002H12.5984C13.0946 11.1002 13.4984 10.6964 13.4984 10.2002V9.60019C13.4984 9.104 13.0946 8.7002 12.5984 8.7002ZM12.8984 10.2002C12.8984 10.3657 12.764 10.5001 12.5984 10.5001H10.7984C10.6329 10.5001 10.4984 10.3657 10.4984 10.2002V9.60016C10.4984 9.43457 10.6329 9.30017 10.7984 9.30017H12.5984C12.764 9.30017 12.8984 9.43457 12.8984 9.60016V10.2002Z" fill="#857250"/>
<path d="M12.5984 7.7002H10.7984V9.7002H12.5984V7.7002ZM10.7984 7.7002C9.74996 7.7002 8.89844 8.55171 8.89844 9.60019H10.8984C10.8984 9.65629 10.8545 9.7002 10.7984 9.7002V7.7002ZM8.89844 9.60019V10.2002H10.8984V9.60019H8.89844ZM8.89844 10.2002C8.89844 11.2487 9.74996 12.1002 10.7984 12.1002V10.1002C10.8545 10.1002 10.8984 10.1441 10.8984 10.2002H8.89844ZM10.7984 12.1002H12.5984V10.1002H10.7984V12.1002ZM12.5984 12.1002C13.6469 12.1002 14.4984 11.2487 14.4984 10.2002H12.4984C12.4984 10.1441 12.5424 10.1002 12.5984 10.1002V12.1002ZM14.4984 10.2002V9.60019H12.4984V10.2002H14.4984ZM14.4984 9.60019C14.4984 8.55171 13.6469 7.7002 12.5984 7.7002V9.7002C12.5424 9.7002 12.4984 9.65629 12.4984 9.60019H14.4984ZM11.8984 10.2002C11.8984 9.81345 12.2117 9.50015 12.5984 9.50015V11.5001C13.3163 11.5001 13.8984 10.918 13.8984 10.2002H11.8984ZM12.5984 9.50015H10.7984V11.5001H12.5984V9.50015ZM10.7984 9.50015C11.1851 9.50015 11.4984 9.81345 11.4984 10.2002H9.49845C9.49845 10.918 10.0806 11.5001 10.7984 11.5001V9.50015ZM11.4984 10.2002V9.60016H9.49845V10.2002H11.4984ZM11.4984 9.60016C11.4984 9.98686 11.1851 10.3002 10.7984 10.3002V8.30017C10.0806 8.30017 9.49845 8.88228 9.49845 9.60016H11.4984ZM10.7984 10.3002H12.5984V8.30017H10.7984V10.3002ZM12.5984 10.3002C12.2117 10.3002 11.8984 9.98686 11.8984 9.60016H13.8984C13.8984 8.88228 13.3163 8.30017 12.5984 8.30017V10.3002ZM11.8984 9.60016V10.2002H13.8984V9.60016H11.8984Z" fill="#857250" mask="url(#path-8-inside-4)"/>
<mask id="path-10-inside-5" fill="white">
<path d="M8.99921 1.5C6.35229 1.5 4.19922 3.65339 4.19922 6.29999C4.19922 8.94659 6.35229 11.1 8.99921 11.1C9.48879 11.1 9.9736 11.0259 10.4401 10.8795C10.5367 10.8489 10.6117 10.7718 10.639 10.6743C10.6664 10.5765 10.6426 10.4718 10.5757 10.3953C10.5409 10.3557 10.4992 10.2894 10.4992 10.2V9.59997C10.4992 9.43438 10.6336 9.29998 10.7992 9.29998H12.5929C12.6874 9.29998 12.7762 9.25589 12.8329 9.18059C13.465 8.34028 13.7992 7.34427 13.7992 6.29999C13.7992 3.65339 11.6461 1.5 8.99921 1.5ZM12.4402 8.7H10.7992C10.303 8.7 9.89921 9.1038 9.89921 9.6V10.2C9.89921 10.2669 9.90701 10.3332 9.92202 10.3977C9.61961 10.4658 9.31062 10.5 8.99921 10.5C6.68322 10.5 4.7992 8.61601 4.7992 6.29999C4.7992 3.98396 6.68322 2.09998 8.99921 2.09998C11.3152 2.09998 13.1992 3.984 13.1992 6.29999C13.1992 7.16399 12.9373 7.99079 12.4402 8.7Z"/>
</mask>
<path d="M8.99921 1.5C6.35229 1.5 4.19922 3.65339 4.19922 6.29999C4.19922 8.94659 6.35229 11.1 8.99921 11.1C9.48879 11.1 9.9736 11.0259 10.4401 10.8795C10.5367 10.8489 10.6117 10.7718 10.639 10.6743C10.6664 10.5765 10.6426 10.4718 10.5757 10.3953C10.5409 10.3557 10.4992 10.2894 10.4992 10.2V9.59997C10.4992 9.43438 10.6336 9.29998 10.7992 9.29998H12.5929C12.6874 9.29998 12.7762 9.25589 12.8329 9.18059C13.465 8.34028 13.7992 7.34427 13.7992 6.29999C13.7992 3.65339 11.6461 1.5 8.99921 1.5ZM12.4402 8.7H10.7992C10.303 8.7 9.89921 9.1038 9.89921 9.6V10.2C9.89921 10.2669 9.90701 10.3332 9.92202 10.3977C9.61961 10.4658 9.31062 10.5 8.99921 10.5C6.68322 10.5 4.7992 8.61601 4.7992 6.29999C4.7992 3.98396 6.68322 2.09998 8.99921 2.09998C11.3152 2.09998 13.1992 3.984 13.1992 6.29999C13.1992 7.16399 12.9373 7.99079 12.4402 8.7Z" fill="#857250"/>
<path d="M10.4401 10.8795L10.7395 11.8336L10.7419 11.8328L10.4401 10.8795ZM10.639 10.6743L11.602 10.944L11.6022 10.9433L10.639 10.6743ZM10.5757 10.3953L11.3285 9.73696L11.3267 9.73497L10.5757 10.3953ZM12.8329 9.18059L13.6318 9.78214L13.6321 9.78173L12.8329 9.18059ZM13.7992 6.29999H14.7992V6.29997L13.7992 6.29999ZM12.4402 8.7V9.7H12.9605L13.2591 9.27398L12.4402 8.7ZM9.92202 10.3977L10.1417 11.3733L11.1244 11.152L10.896 10.1709L9.92202 10.3977ZM8.99921 0.5C5.79996 0.5 3.19922 3.10115 3.19922 6.29999H5.19922C5.19922 4.20563 6.90462 2.5 8.99921 2.5V0.5ZM3.19922 6.29999C3.19922 9.49883 5.79996 12.1 8.99921 12.1V10.1C6.90462 10.1 5.19922 8.39434 5.19922 6.29999H3.19922ZM8.99921 12.1C9.59004 12.1 10.1758 12.0105 10.7395 11.8336L10.1407 9.92535C9.77137 10.0412 9.38754 10.1 8.99921 10.1V12.1ZM10.7419 11.8328C11.1577 11.7012 11.483 11.3687 11.602 10.944L9.6761 10.4045C9.74043 10.1749 9.91573 9.99658 10.1383 9.92612L10.7419 11.8328ZM11.6022 10.9433C11.7202 10.5207 11.6174 10.0673 11.3285 9.73696L9.82297 11.0536C9.66785 10.8762 9.6125 10.6322 9.6759 10.4053L11.6022 10.9433ZM11.3267 9.73497C11.3874 9.80396 11.4992 9.96322 11.4992 10.2H9.49922C9.49922 10.6155 9.69445 10.9074 9.82471 11.0556L11.3267 9.73497ZM11.4992 10.2V9.59997H9.49922V10.2H11.4992ZM11.4992 9.59997C11.4992 9.98666 11.1859 10.3 10.7992 10.3V8.29998C10.0813 8.29998 9.49922 8.88209 9.49922 9.59997H11.4992ZM10.7992 10.3H12.5929V8.29998H10.7992V10.3ZM12.5929 10.3C12.9995 10.3 13.385 10.1099 13.6318 9.78214L12.0341 8.57904C12.1675 8.4019 12.3753 8.29998 12.5929 8.29998V10.3ZM13.6321 9.78173C14.3935 8.76948 14.7992 7.56283 14.7992 6.29999H12.7992C12.7992 7.12571 12.5366 7.91108 12.0338 8.57944L13.6321 9.78173ZM14.7992 6.29997C14.7992 3.10115 12.1985 0.5 8.99921 0.5V2.5C11.0938 2.5 12.7992 4.20563 12.7992 6.3L14.7992 6.29997ZM12.4402 7.7H10.7992V9.7H12.4402V7.7ZM10.7992 7.7C9.75073 7.7 8.89921 8.55152 8.89921 9.6H10.8992C10.8992 9.65609 10.8553 9.7 10.7992 9.7V7.7ZM8.89921 9.6V10.2H10.8992V9.6H8.89921ZM8.89921 10.2C8.89921 10.3447 8.91609 10.4871 8.94807 10.6245L10.896 10.1709C10.8979 10.1794 10.8992 10.1891 10.8992 10.2H8.89921ZM9.70234 9.42212C9.47251 9.47388 9.23721 9.5 8.99921 9.5V11.5C9.38403 11.5 9.76671 11.4577 10.1417 11.3733L9.70234 9.42212ZM8.99921 9.5C7.2355 9.5 5.7992 8.06372 5.7992 6.29999H3.7992C3.7992 9.1683 6.13094 11.5 8.99921 11.5V9.5ZM5.7992 6.29999C5.7992 4.53625 7.2355 3.09998 8.99921 3.09998V1.09998C6.13094 1.09998 3.7992 3.43167 3.7992 6.29999H5.7992ZM8.99921 3.09998C10.7629 3.09998 12.1992 4.53628 12.1992 6.29999H14.1992C14.1992 3.43171 11.8675 1.09998 8.99921 1.09998V3.09998ZM12.1992 6.29999C12.1992 6.95756 12.0011 7.58414 11.6213 8.12602L13.2591 9.27398C13.8735 8.39744 14.1992 7.37042 14.1992 6.29999H12.1992Z" fill="#857250" mask="url(#path-10-inside-5)"/>
<mask id="path-12-inside-6" fill="white">
<path d="M12.1149 11.7002H5.88175C3.96117 11.7002 2.39844 13.2629 2.39844 15.1835V17.7002C2.39844 17.8661 2.53284 18.0002 2.69843 18.0002H15.2984C15.464 18.0002 15.5984 17.8661 15.5984 17.7002V15.1835C15.5984 13.2629 14.0358 11.7002 12.1149 11.7002ZM14.9985 17.4002H2.99845V15.1835C2.99845 13.5938 4.29206 12.3002 5.88175 12.3002H12.1152C13.7049 12.3002 14.9985 13.5935 14.9985 15.1835V17.4002Z"/>
</mask>
<path d="M12.1149 11.7002H5.88175C3.96117 11.7002 2.39844 13.2629 2.39844 15.1835V17.7002C2.39844 17.8661 2.53284 18.0002 2.69843 18.0002H15.2984C15.464 18.0002 15.5984 17.8661 15.5984 17.7002V15.1835C15.5984 13.2629 14.0358 11.7002 12.1149 11.7002ZM14.9985 17.4002H2.99845V15.1835C2.99845 13.5938 4.29206 12.3002 5.88175 12.3002H12.1152C13.7049 12.3002 14.9985 13.5935 14.9985 15.1835V17.4002Z" fill="#857250"/>
<path d="M15.5984 15.1835L14.5984 15.1835V15.1835H15.5984ZM2.99845 17.4002H1.99845V18.4002H2.99845V17.4002ZM12.1149 10.7002H5.88175V12.7002H12.1149V10.7002ZM5.88175 10.7002C3.40889 10.7002 1.39844 12.7106 1.39844 15.1835H3.39844C3.39844 13.8152 4.51345 12.7002 5.88175 12.7002V10.7002ZM1.39844 15.1835V17.7002H3.39844V15.1835H1.39844ZM1.39844 17.7002C1.39844 18.4191 1.98124 19.0002 2.69843 19.0002V17.0002C3.08444 17.0002 3.39844 17.3131 3.39844 17.7002H1.39844ZM2.69843 19.0002H15.2984V17.0002H2.69843V19.0002ZM15.2984 19.0002C16.0156 19.0002 16.5984 18.4191 16.5984 17.7002H14.5984C14.5984 17.3131 14.9124 17.0002 15.2984 17.0002V19.0002ZM16.5984 17.7002V15.1835H14.5984V17.7002H16.5984ZM16.5984 15.1835C16.5985 12.7106 14.588 10.7002 12.1149 10.7002V12.7002C13.4835 12.7002 14.5984 13.8152 14.5984 15.1835L16.5984 15.1835ZM14.9985 16.4002H2.99845V18.4002H14.9985V16.4002ZM3.99845 17.4002V15.1835H1.99845V17.4002H3.99845ZM3.99845 15.1835C3.99845 14.1461 4.84434 13.3002 5.88175 13.3002V11.3002C3.73977 11.3002 1.99845 13.0415 1.99845 15.1835H3.99845ZM5.88175 13.3002H12.1152V11.3002H5.88175V13.3002ZM12.1152 13.3002C13.1526 13.3002 13.9985 14.1458 13.9985 15.1835H15.9985C15.9985 13.0411 14.2571 11.3002 12.1152 11.3002V13.3002ZM13.9985 15.1835V17.4002H15.9985V15.1835H13.9985Z" fill="#857250" mask="url(#path-12-inside-6)"/>
<mask id="path-14-inside-7" fill="white">
<path d="M5.10077 15.2998C4.93518 15.2998 4.80078 15.4339 4.80078 15.5998V17.6998C4.80078 17.8657 4.93518 17.9998 5.10077 17.9998C5.26636 17.9998 5.40076 17.8657 5.40076 17.6998V15.5998C5.40076 15.4339 5.26636 15.2998 5.10077 15.2998Z"/>
</mask>
<path d="M5.10077 15.2998C4.93518 15.2998 4.80078 15.4339 4.80078 15.5998V17.6998C4.80078 17.8657 4.93518 17.9998 5.10077 17.9998C5.26636 17.9998 5.40076 17.8657 5.40076 17.6998V15.5998C5.40076 15.4339 5.26636 15.2998 5.10077 15.2998Z" fill="#857250"/>
<path d="M5.10077 14.2998C4.38359 14.2998 3.80078 14.8809 3.80078 15.5998H5.80078C5.80078 15.9869 5.48678 16.2998 5.10077 16.2998V14.2998ZM3.80078 15.5998V17.6998H5.80078V15.5998H3.80078ZM3.80078 17.6998C3.80078 18.4187 4.38359 18.9998 5.10077 18.9998V16.9998C5.48678 16.9998 5.80078 17.3127 5.80078 17.6998H3.80078ZM5.10077 18.9998C5.81795 18.9998 6.40076 18.4187 6.40076 17.6998H4.40076C4.40076 17.3127 4.71476 16.9998 5.10077 16.9998V18.9998ZM6.40076 17.6998V15.5998H4.40076V17.6998H6.40076ZM6.40076 15.5998C6.40076 14.8809 5.81795 14.2998 5.10077 14.2998V16.2998C4.71476 16.2998 4.40076 15.9869 4.40076 15.5998H6.40076Z" fill="#857250" mask="url(#path-14-inside-7)"/>
<mask id="path-16-inside-8" fill="white">
<path d="M13.1984 15.2998C13.0328 15.2998 12.8984 15.4339 12.8984 15.5998V17.6998C12.8984 17.8657 13.0328 17.9998 13.1984 17.9998C13.364 17.9998 13.4984 17.8657 13.4984 17.6998V15.5998C13.4984 15.4339 13.364 15.2998 13.1984 15.2998Z"/>
</mask>
<path d="M13.1984 15.2998C13.0328 15.2998 12.8984 15.4339 12.8984 15.5998V17.6998C12.8984 17.8657 13.0328 17.9998 13.1984 17.9998C13.364 17.9998 13.4984 17.8657 13.4984 17.6998V15.5998C13.4984 15.4339 13.364 15.2998 13.1984 15.2998Z" fill="#857250"/>
<path d="M13.1984 14.2998C12.4812 14.2998 11.8984 14.8809 11.8984 15.5998H13.8984C13.8984 15.9869 13.5844 16.2998 13.1984 16.2998V14.2998ZM11.8984 15.5998V17.6998H13.8984V15.5998H11.8984ZM11.8984 17.6998C11.8984 18.4187 12.4812 18.9998 13.1984 18.9998V16.9998C13.5844 16.9998 13.8984 17.3127 13.8984 17.6998H11.8984ZM13.1984 18.9998C13.9156 18.9998 14.4984 18.4187 14.4984 17.6998H12.4984C12.4984 17.3127 12.8124 16.9998 13.1984 16.9998V18.9998ZM14.4984 17.6998V15.5998H12.4984V17.6998H14.4984ZM14.4984 15.5998C14.4984 14.8809 13.9156 14.2998 13.1984 14.2998V16.2998C12.8124 16.2998 12.4984 15.9869 12.4984 15.5998H14.4984Z" fill="#857250" mask="url(#path-16-inside-8)"/>
</g>
<defs>
<clipPath id="clip0">
<rect width="18" height="18" fill="white"/>
</clipPath>
</defs>
</svg>
